<?xml version="1.0" encoding="utf-8"?>
<!-- Generator: Adobe Illustrator 15.1.0, SVG Export Plug-In . SVG Version: 6.00 Build 0)  -->
<!DOCTYPE svg PUBLIC "-//W3C//DTD SVG 1.1//EN" "http://www.w3.org/Graphics/SVG/1.1/DTD/svg11.dtd">
<svg version="1.1" id="Layer_1" xmlns="http://www.w3.org/2000/svg" xmlns:xlink="http://www.w3.org/1999/xlink" x="0px" y="0px"
	 width="56.689px" height="56.689px" viewBox="0 0 56.689 56.689" enable-background="new 0 0 56.689 56.689" xml:space="preserve">
<path d="M37.465,38.323c5.356,0,10.44-2.054,14.314-5.781l0.734-0.707L38.419,17.738l4.687-4.687
	c0.377,0.169,0.792,0.268,1.231,0.268c1.666,0,3.018-1.352,3.018-3.019s-1.352-3.02-3.018-3.02c-1.667,0-3.02,1.353-3.02,3.02
	c0,0.495,0.132,0.955,0.343,1.367l-4.656,4.654l-13.71-13.71l-0.707,0.735c-3.729,3.875-5.782,8.959-5.782,14.315
	c0,4.653,1.565,8.938,4.173,12.397c-0.676,0.566-1.114,1.406-1.114,2.356c0,0.44,0.097,0.858,0.264,1.238l-9.066,9.066H7.176
	c-1.654,0-3,1.346-3,3v5.354c0,1.653,1.346,3,3,3h31c1.654,0,3-1.347,3-3v-5.354c0-1.654-1.346-3-3-3h-3.328l-6.593-6.593
	C31.032,37.521,34.153,38.323,37.465,38.323z M18.805,17.663c0-4.497,1.604-8.781,4.536-12.176L49.64,31.788
	c-3.393,2.933-7.678,4.535-12.175,4.535c-4.306,0-8.264-1.479-11.425-3.938c-0.02-1.69-1.394-3.057-3.087-3.057
	c-0.011,0-0.02,0.003-0.028,0.003C20.354,26.132,18.805,22.077,18.805,17.663z M21.453,36.572v6.151h-6.151L21.453,36.572z
	 M39.176,45.724v5.354c0,0.552-0.448,1-1,1h-31c-0.552,0-1-0.448-1-1v-5.354c0-0.552,0.448-1,1-1h31
	C38.728,44.724,39.176,45.172,39.176,45.724z M24.453,42.724v-6.152l6.151,6.152H24.453z"/>
</svg>
