<?xml version="1.0" encoding="utf-8"?>
<!-- Generator: Adobe Illustrator 15.1.0, SVG Export Plug-In . SVG Version: 6.00 Build 0)  -->
<!DOCTYPE svg PUBLIC "-//W3C//DTD SVG 1.1//EN" "http://www.w3.org/Graphics/SVG/1.1/DTD/svg11.dtd">
<svg version="1.1" id="Layer_1" xmlns="http://www.w3.org/2000/svg" xmlns:xlink="http://www.w3.org/1999/xlink" x="0px" y="0px"
	 width="56.689px" height="56.689px" viewBox="0 0 56.689 56.689" enable-background="new 0 0 56.689 56.689" xml:space="preserve">
<g>
	<path d="M46.198,46.2c-1.364,1.365-3.586,1.365-4.95,0L16.463,21.416l0.001,16.524c0,1.871-1.63,3.5-3.5,3.5
		c-1.929,0.001-3.499-1.569-3.5-3.5L9.463,12.966c0-0.226,0.023-0.458,0.068-0.687c0.017-0.086,0.042-0.169,0.07-0.252l0.03-0.1
		c0.028-0.104,0.059-0.205,0.099-0.304c0.04-0.097,0.09-0.187,0.14-0.276l0.053-0.099c0.037-0.072,0.075-0.144,0.12-0.214
		c0.279-0.414,0.599-0.724,0.972-0.977c0.087-0.058,0.163-0.099,0.241-0.138L11.35,9.87c0.092-0.052,0.182-0.101,0.279-0.14
		c0.096-0.041,0.205-0.073,0.314-0.104c0.166-0.052,0.247-0.076,0.332-0.095c0.233-0.045,0.47-0.068,0.701-0.067h24.961
		c0.935,0,1.814,0.364,2.476,1.025s1.024,1.539,1.024,2.476c0.001,1.869-1.629,3.499-3.499,3.499l-16.525,0.002l24.785,24.784
		C47.562,42.615,47.562,44.837,46.198,46.2z M14.463,16.587l28.199,28.199c0.585,0.584,1.536,0.584,2.121,0
		c0.585-0.585,0.585-1.537,0-2.121L16.585,14.467H37.94c0.801,0,1.501-0.7,1.5-1.5c0-0.4-0.156-0.777-0.439-1.061
		c-0.283-0.284-0.66-0.439-1.062-0.44l-24.965,0.001c-0.106-0.001-0.209,0.01-0.309,0.03l-0.505,0.209
		c-0.216,0.133-0.335,0.267-0.448,0.434L11.5,12.655c-0.027,0.115-0.038,0.214-0.037,0.312l0.001,24.975
		c0.001,0.827,0.674,1.5,1.5,1.5c0.798,0,1.5-0.697,1.5-1.5L14.463,16.587z"/>
</g>
</svg>
