<?xml version="1.0" encoding="utf-8"?>
<!-- Generator: Adobe Illustrator 15.1.0, SVG Export Plug-In . SVG Version: 6.00 Build 0)  -->
<!DOCTYPE svg PUBLIC "-//W3C//DTD SVG 1.1//EN" "http://www.w3.org/Graphics/SVG/1.1/DTD/svg11.dtd">
<svg version="1.1" id="Layer_1" xmlns="http://www.w3.org/2000/svg" xmlns:xlink="http://www.w3.org/1999/xlink" x="0px" y="0px"
	 width="56.689px" height="56.689px" viewBox="0 0 56.689 56.689" enable-background="new 0 0 56.689 56.689" xml:space="preserve">
<path d="M18.933,32.172H36.62c2.109,0,3.827-1.717,3.827-3.827s-1.718-3.828-3.827-3.828H18.933l2.116-2.116
	c1.491-1.491,1.491-3.921,0-5.413c-1.445-1.444-3.967-1.444-5.412,0l-8.652,8.65l-0.116,0.118l-0.007,0.012
	c-0.126,0.141-0.245,0.292-0.354,0.455c-0.055,0.085-0.103,0.172-0.147,0.261l-0.059,0.109c-0.052,0.092-0.102,0.184-0.143,0.284
	c-0.049,0.116-0.084,0.233-0.116,0.353l-0.034,0.113c-0.025,0.08-0.049,0.159-0.069,0.253C5.84,28.095,5.841,28.6,5.941,29.103
	c0.019,0.087,0.044,0.171,0.071,0.255l0.038,0.13c0.03,0.108,0.062,0.217,0.107,0.324c0.047,0.111,0.103,0.215,0.161,0.319
	l0.051,0.091c0.042,0.085,0.087,0.168,0.139,0.245c0.142,0.214,0.306,0.413,0.484,0.59l8.645,8.645
	c0.722,0.725,1.683,1.122,2.706,1.122c1.022,0,1.983-0.397,2.707-1.122c0.723-0.724,1.121-1.685,1.121-2.706
	c0-1.022-0.398-1.983-1.121-2.706L18.933,32.172z M19.635,38.286c-0.691,0.69-1.896,0.69-2.584,0l-8.648-8.647
	c-0.086-0.086-0.162-0.179-0.248-0.316l-0.097-0.181c-0.019-0.034-0.041-0.065-0.081-0.19L7.9,28.704
	c-0.047-0.237-0.047-0.48,0.01-0.738l0.061-0.203c0.01-0.04,0.018-0.079,0.073-0.188l0.129-0.244
	c0.066-0.099,0.141-0.191,0.225-0.275l0.114-0.114l0.001-0.002l8.539-8.539c0.689-0.688,1.895-0.688,2.584,0
	c0.712,0.713,0.712,1.872,0,2.585l-5.53,5.53H36.62c1.008,0,1.827,0.82,1.827,1.828s-0.819,1.827-1.827,1.827H14.104l5.531,5.531
	C20.347,36.415,20.347,37.573,19.635,38.286z M50.825,4.637v47.417H26.909c-0.554,0-1-0.447-1-1s0.446-1,1-1h21.916V6.637h-22
	c-0.554,0-1-0.447-1-1s0.446-1,1-1H50.825z"/>
</svg>
