<?xml version="1.0" encoding="utf-8"?>
<!-- Generator: Adobe Illustrator 15.1.0, SVG Export Plug-In . SVG Version: 6.00 Build 0)  -->
<!DOCTYPE svg PUBLIC "-//W3C//DTD SVG 1.1//EN" "http://www.w3.org/Graphics/SVG/1.1/DTD/svg11.dtd">
<svg version="1.1" id="Layer_1" xmlns="http://www.w3.org/2000/svg" xmlns:xlink="http://www.w3.org/1999/xlink" x="0px" y="0px"
	 width="56.689px" height="56.689px" viewBox="0 0 56.689 56.689" enable-background="new 0 0 56.689 56.689" xml:space="preserve">
<g>
	<path d="M12.233,34.514c-0.419-0.418-0.94-1.181-1.052-2.433l-1.66-18.69c-0.115-1.284,0.323-2.525,1.203-3.405
		s2.12-1.318,3.406-1.203l18.689,1.662c1.25,0.11,2.012,0.634,2.43,1.053c1.137,1.136,1.404,3.168-0.285,4.857l-6.462,6.462
		l18.207,18.205c1.363,1.364,1.363,3.585,0,4.949c-1.365,1.365-3.586,1.365-4.951,0.001L23.552,27.766l-6.463,6.463
		C15.402,35.916,13.369,35.651,12.233,34.514z M33.835,12.911c-0.184-0.185-0.541-0.417-1.193-0.476l-18.689-1.661
		c-0.693-0.063-1.354,0.165-1.814,0.625c-0.459,0.459-0.687,1.12-0.625,1.814l1.659,18.69c0.06,0.653,0.29,1.011,0.475,1.195
		c0.401,0.402,1.175,0.567,2.028-0.286l7.877-7.876l19.619,19.619c0.586,0.585,1.537,0.585,2.123,0c0.584-0.585,0.584-1.536,0-2.121
		L25.674,22.817l7.876-7.876C34.406,14.085,34.238,13.314,33.835,12.911z"/>
</g>
</svg>
