<?xml version="1.0" encoding="utf-8"?>
<!-- Generator: Adobe Illustrator 15.1.0, SVG Export Plug-In . SVG Version: 6.00 Build 0)  -->
<!DOCTYPE svg PUBLIC "-//W3C//DTD SVG 1.1//EN" "http://www.w3.org/Graphics/SVG/1.1/DTD/svg11.dtd">
<svg version="1.1" id="Layer_1" xmlns="http://www.w3.org/2000/svg" xmlns:xlink="http://www.w3.org/1999/xlink" x="0px" y="0px"
	 width="56.689px" height="56.689px" viewBox="0 0 56.689 56.689" enable-background="new 0 0 56.689 56.689" xml:space="preserve">
<path d="M26.809,27.291c-0.03-0.104-0.061-0.207-0.102-0.306c-0.04-0.095-0.088-0.186-0.14-0.275l-0.051-0.093
	c-0.039-0.079-0.081-0.156-0.133-0.234c-0.128-0.19-0.273-0.368-0.435-0.53l-5.646-5.646c-1.322-1.321-3.631-1.321-4.949,0.001
	c-0.661,0.661-1.024,1.54-1.024,2.475c0,0.787,0.257,1.534,0.732,2.146h-9.16c-1.93,0-3.5,1.569-3.5,3.5
	c0,1.929,1.57,3.499,3.5,3.499h9.162c-0.476,0.61-0.734,1.358-0.734,2.146c0,0.937,0.363,1.815,1.024,2.475
	c0.662,0.661,1.54,1.025,2.476,1.025c0.935,0,1.813-0.365,2.475-1.024l5.644-5.644c0.165-0.164,0.314-0.345,0.437-0.53
	c0.048-0.071,0.089-0.146,0.127-0.223l0.049-0.089c0.054-0.098,0.106-0.193,0.149-0.297c0.04-0.097,0.069-0.194,0.098-0.293
	l0.03-0.102c0.027-0.087,0.053-0.175,0.07-0.258c0.035-0.182,0.058-0.366,0.064-0.55l0.004-0.137c0-0.226-0.022-0.456-0.066-0.675
	C26.892,27.561,26.866,27.472,26.809,27.291z M24.975,28.334c0,0.096-0.01,0.191-0.04,0.316l-0.214,0.511
	c-0.055,0.083-0.118,0.158-0.188,0.229l-5.645,5.645c-0.566,0.565-1.555,0.565-2.121,0c-0.283-0.284-0.438-0.66-0.438-1.062
	s0.155-0.778,0.438-1.061l3.086-3.086H5.902c-0.826,0-1.5-0.674-1.5-1.499c0-0.827,0.674-1.5,1.5-1.5h13.952l-3.084-3.084
	c-0.283-0.283-0.438-0.66-0.438-1.061c0-0.401,0.155-0.778,0.439-1.062c0.564-0.568,1.555-0.565,2.12,0l5.646,5.645
	c0.069,0.07,0.132,0.148,0.193,0.248l0.215,0.521c0.016,0.079,0.026,0.16,0.029,0.242V28.334z M54.283,28.163
	c-0.009-0.174-0.03-0.346-0.063-0.511c-0.018-0.097-0.045-0.188-0.104-0.375c-0.027-0.094-0.056-0.187-0.097-0.289
	c-0.046-0.109-0.103-0.215-0.192-0.376c-0.039-0.076-0.08-0.152-0.127-0.223c-0.131-0.195-0.28-0.377-0.445-0.542l-5.638-5.639
	c-1.32-1.323-3.629-1.323-4.95-0.001c-0.661,0.662-1.025,1.54-1.025,2.475c0,0.788,0.258,1.536,0.735,2.147h-9.162
	c-1.93,0-3.5,1.569-3.5,3.5c0,1.93,1.57,3.5,3.5,3.5h9.16c-0.476,0.61-0.733,1.357-0.733,2.145c0,0.936,0.364,1.814,1.024,2.474
	c0.661,0.662,1.54,1.026,2.476,1.026c0.935,0,1.813-0.365,2.476-1.026l5.646-5.645c0.162-0.162,0.306-0.34,0.438-0.536
	c0.05-0.075,0.091-0.152,0.178-0.319c0.052-0.089,0.101-0.18,0.141-0.276c0.045-0.106,0.077-0.216,0.128-0.396
	c0.029-0.089,0.056-0.177,0.071-0.261c0.046-0.229,0.069-0.46,0.069-0.685L54.283,28.163z M52.286,28.376
	c-0.003,0.084-0.016,0.17-0.037,0.268l-0.213,0.517c-0.056,0.083-0.118,0.16-0.188,0.23l-5.646,5.646
	c-0.568,0.565-1.558,0.564-2.121,0c-0.283-0.284-0.439-0.66-0.439-1.062s0.156-0.778,0.439-1.061l3.084-3.084h-13.95
	c-0.827,0-1.5-0.674-1.5-1.5c0-0.827,0.673-1.5,1.5-1.5h13.952l-3.086-3.086c-0.585-0.585-0.585-1.537,0-2.121
	c0.563-0.566,1.553-0.569,2.121,0l5.64,5.641c0.072,0.072,0.137,0.151,0.196,0.244l0.086,0.159c0.017,0.03,0.037,0.061,0.063,0.145
	l0.069,0.228c0.019,0.095,0.029,0.19,0.029,0.287V28.376z"/>
</svg>
