<?xml version="1.0" encoding="utf-8"?>
<!-- Generator: Adobe Illustrator 15.1.0, SVG Export Plug-In . SVG Version: 6.00 Build 0)  -->
<!DOCTYPE svg PUBLIC "-//W3C//DTD SVG 1.1//EN" "http://www.w3.org/Graphics/SVG/1.1/DTD/svg11.dtd">
<svg version="1.1" id="Layer_1" xmlns="http://www.w3.org/2000/svg" xmlns:xlink="http://www.w3.org/1999/xlink" x="0px" y="0px"
	 width="56.689px" height="56.689px" viewBox="0 0 56.689 56.689" enable-background="new 0 0 56.689 56.689" xml:space="preserve">
<path d="M40.211,35.244c1.723-0.217,3.061-1.692,3.061-3.473c0.001-0.934-0.36-1.813-1.022-2.475
	c-0.523-0.522-1.183-0.851-1.897-0.97c1.654-0.278,2.921-1.711,2.921-3.442c0-1.782-1.338-3.258-3.063-3.473l6.479-6.479
	c0.661-0.661,1.025-1.54,1.025-2.475c0-0.936-0.364-1.814-1.025-2.475c-1.321-1.322-3.628-1.32-4.95,0l-6.477,6.478
	c-0.218-1.725-1.692-3.062-3.473-3.062c-0.935,0-1.813,0.364-2.478,1.026c-0.523,0.524-0.851,1.188-0.968,1.906
	c-0.273-1.659-1.706-2.932-3.442-2.932c-1.782,0-3.257,1.338-3.473,3.063L14.95,9.984c-1.322-1.322-3.63-1.32-4.949,0
	c-1.365,1.365-1.365,3.585,0,4.95l6.477,6.478c-1.724,0.218-3.061,1.691-3.061,3.473c0,0.935,0.363,1.813,1.025,2.477
	c0.52,0.518,1.175,0.846,1.886,0.966c-0.711,0.12-1.367,0.448-1.885,0.967c-0.661,0.661-1.025,1.539-1.025,2.475
	c-0.001,0.936,0.362,1.815,1.023,2.477c0.559,0.557,1.269,0.902,2.037,0.998l-6.478,6.479c-0.661,0.662-1.025,1.54-1.025,2.475
	c0,0.937,0.364,1.815,1.025,2.476c0.662,0.661,1.54,1.024,2.475,1.024s1.813-0.363,2.477-1.024l6.479-6.479
	c0.095,0.769,0.44,1.479,0.997,2.035c0.661,0.661,1.54,1.025,2.479,1.025c1.725,0,3.154-1.263,3.436-2.912
	c0.119,0.712,0.446,1.37,0.967,1.888c0.661,0.662,1.54,1.026,2.479,1.026c1.78,0,3.255-1.338,3.471-3.063l6.479,6.479
	c0.662,0.661,1.54,1.024,2.476,1.024c0.935,0,1.813-0.363,2.476-1.024c1.364-1.364,1.364-3.585,0-4.949L40.211,35.244z
	 M30.289,16.903c0-0.4,0.156-0.778,0.438-1.061c0.286-0.284,0.663-0.44,1.063-0.44c0.827,0,1.5,0.674,1.5,1.501v4.36l9.862-9.863
	c0.565-0.566,1.556-0.567,2.122,0c0.283,0.283,0.439,0.66,0.439,1.061s-0.156,0.776-0.439,1.061l-9.864,9.865h4.364
	c0.826,0,1.499,0.673,1.499,1.5s-0.673,1.5-1.5,1.5l-7.978-0.001v0.001h-0.008c-0.101-0.001-0.201-0.012-0.31-0.036l-0.521-0.217
	c-0.167-0.111-0.308-0.25-0.423-0.433l-0.217-0.521c-0.016-0.087-0.021-0.176-0.024-0.287l-0.005-0.061L30.289,16.903z
	 M15.417,24.884c0-0.827,0.673-1.5,1.501-1.5v0.001h4.361l-9.862-9.863c-0.585-0.585-0.585-1.538,0-2.123
	c0.565-0.566,1.555-0.565,2.121,0l9.864,9.865V16.9c0-0.827,0.674-1.499,1.5-1.499c0.827,0,1.5,0.673,1.5,1.5l-0.001,7.985
	c-0.001,0.101-0.011,0.2-0.035,0.309l-0.218,0.523c-0.11,0.166-0.25,0.306-0.433,0.423l-0.521,0.215
	c-0.088,0.018-0.176,0.023-0.286,0.026l-0.062,0.004l-7.93-0.001c-0.401-0.001-0.779-0.157-1.062-0.439
	C15.573,25.662,15.417,25.284,15.417,24.884z M26.401,39.755c-0.001,0.827-0.672,1.5-1.5,1.5c-0.401,0-0.778-0.155-1.062-0.439
	s-0.438-0.66-0.438-1.061v-4.361l-9.864,9.864c-0.566,0.565-1.556,0.565-2.121,0c-0.283-0.284-0.439-0.66-0.439-1.062
	c0-0.4,0.156-0.777,0.439-1.061l9.864-9.865h-4.362c-0.401,0-0.778-0.156-1.063-0.438c-0.283-0.284-0.438-0.661-0.438-1.062
	c0-0.401,0.155-0.777,0.44-1.062c0.282-0.283,0.656-0.438,1.06-0.438l7.988,0.003c0.099,0,0.195,0.011,0.298,0.033l0.529,0.217
	c0.06,0.04,0.117,0.084,0.199,0.158l0.033,0.033c0.064,0.064,0.127,0.141,0.189,0.241l0.218,0.522
	c0.019,0.098,0.028,0.194,0.028,0.293V39.755z M29.847,28.859c-0.167,0.112-0.323,0.235-0.465,0.369l-0.057,0.056
	c-0.005,0.005-0.01,0.009-0.014,0.014l-0.006,0.006c-0.16,0.159-0.303,0.335-0.433,0.528c-0.052,0.075-0.094,0.154-0.135,0.235
	l-0.053,0.101c-0.048,0.084-0.095,0.171-0.133,0.264c-0.045,0.108-0.078,0.219-0.131,0.408c-0.027,0.082-0.051,0.164-0.067,0.244
	c-0.007,0.033-0.004,0.065-0.01,0.099c-0.005-0.03-0.003-0.062-0.009-0.092c-0.019-0.093-0.045-0.182-0.101-0.354
	c-0.028-0.103-0.06-0.205-0.095-0.289c-0.041-0.105-0.093-0.204-0.196-0.39c-0.04-0.081-0.083-0.159-0.13-0.228
	c-0.11-0.167-0.234-0.323-0.369-0.466l-0.055-0.057c-0.005-0.004-0.009-0.009-0.014-0.013l-0.006-0.006
	c-0.159-0.16-0.335-0.304-0.528-0.434c-0.076-0.05-0.155-0.092-0.236-0.133l-0.1-0.053c-0.084-0.048-0.171-0.094-0.264-0.133
	c-0.108-0.044-0.22-0.077-0.408-0.131c-0.082-0.026-0.164-0.052-0.244-0.066c-0.036-0.007-0.075-0.005-0.111-0.011
	c0.03-0.005,0.063-0.004,0.092-0.01c0.096-0.018,0.19-0.046,0.283-0.076l0.104-0.031c0.094-0.026,0.186-0.053,0.284-0.094
	c0.097-0.042,0.189-0.092,0.281-0.144l0.095-0.051c0.076-0.039,0.152-0.08,0.221-0.126c0.386-0.256,0.712-0.582,0.967-0.964
	c0.052-0.076,0.094-0.154,0.134-0.232l0.06-0.108c0.049-0.088,0.096-0.177,0.131-0.261c0.043-0.102,0.075-0.206,0.104-0.311
	l0.032-0.108c0.025-0.079,0.048-0.157,0.066-0.246c0.006-0.032,0.008-0.065,0.013-0.098c0.005,0.029,0.003,0.06,0.009,0.088
	c0.018,0.097,0.046,0.191,0.076,0.284l0.031,0.103c0.025,0.095,0.054,0.187,0.094,0.284c0.041,0.099,0.091,0.19,0.144,0.282
	l0.051,0.094c0.039,0.076,0.08,0.152,0.127,0.222c0.256,0.384,0.582,0.711,0.964,0.966c0.076,0.051,0.153,0.094,0.231,0.134
	l0.108,0.059c0.088,0.05,0.176,0.097,0.261,0.131c0.102,0.044,0.206,0.075,0.311,0.104l0.107,0.032
	c0.078,0.024,0.157,0.049,0.246,0.066c0.029,0.006,0.059,0.007,0.088,0.012c-0.028,0.005-0.058,0.003-0.086,0.008
	c-0.093,0.018-0.182,0.045-0.354,0.099c-0.104,0.029-0.205,0.061-0.289,0.095c-0.106,0.042-0.205,0.095-0.39,0.197
	C29.994,28.77,29.916,28.812,29.847,28.859z M45.273,45.258c-0.565,0.565-1.555,0.565-2.121,0l-9.864-9.865v4.361
	c0,0.4-0.156,0.777-0.439,1.061c-0.567,0.566-1.555,0.567-2.122-0.002c-0.283-0.282-0.438-0.658-0.438-1.059l0.001-7.98
	c-0.001-0.099,0.01-0.2,0.032-0.305l0.218-0.53c0.04-0.059,0.084-0.117,0.157-0.199l0.033-0.032c0.065-0.065,0.142-0.127,0.241-0.19
	l0.523-0.217c0.097-0.02,0.193-0.029,0.293-0.029h7.982c0.402,0,0.779,0.156,1.063,0.44c0.282,0.284,0.438,0.66,0.438,1.06
	c0,0.827-0.673,1.5-1.5,1.5h-4.36l9.863,9.865c0.283,0.284,0.439,0.66,0.439,1.061C45.712,44.598,45.556,44.975,45.273,45.258z"/>
</svg>
