<?xml version="1.0" encoding="utf-8"?>
<!-- Generator: Adobe Illustrator 15.1.0, SVG Export Plug-In . SVG Version: 6.00 Build 0)  -->
<!DOCTYPE svg PUBLIC "-//W3C//DTD SVG 1.1//EN" "http://www.w3.org/Graphics/SVG/1.1/DTD/svg11.dtd">
<svg version="1.1" id="Layer_1" xmlns="http://www.w3.org/2000/svg" xmlns:xlink="http://www.w3.org/1999/xlink" x="0px" y="0px"
	 width="56.689px" height="56.689px" viewBox="0 0 56.689 56.689" enable-background="new 0 0 56.689 56.689" xml:space="preserve">
<path d="M28.454,25.954c0.028,0.103,0.06,0.205,0.095,0.289c0.041,0.105,0.093,0.205,0.196,0.39c0.04,0.081,0.083,0.159,0.13,0.228
	c0.11,0.167,0.234,0.323,0.369,0.466l0.055,0.057c0.005,0.004,0.009,0.009,0.014,0.013l0.006,0.006
	c0.159,0.159,0.335,0.304,0.528,0.434c0.076,0.05,0.155,0.092,0.236,0.133l0.1,0.053c0.084,0.048,0.171,0.095,0.264,0.133
	c0.108,0.044,0.22,0.077,0.408,0.131c0.082,0.026,0.164,0.052,0.244,0.066c0.226,0.045,0.456,0.068,0.697,0.068h0.001l7.979,0.001
	c0.936,0,1.813-0.365,2.471-1.025c0.661-0.661,1.025-1.539,1.025-2.475c0.001-0.936-0.362-1.815-1.023-2.477
	c-0.559-0.557-1.269-0.902-2.037-0.998l6.478-6.479c0.661-0.662,1.025-1.54,1.025-2.475c0-0.937-0.364-1.815-1.025-2.476
	c-0.662-0.661-1.54-1.024-2.475-1.024s-1.813,0.363-2.477,1.025l-6.479,6.479c-0.095-0.769-0.44-1.479-0.997-2.035
	c-0.661-0.661-1.54-1.025-2.479-1.025c-1.926,0-3.494,1.569-3.495,3.499v7.984c0,0.229,0.022,0.459,0.066,0.681
	C28.372,25.692,28.399,25.782,28.454,25.954z M30.289,16.933c0.001-0.827,0.672-1.5,1.5-1.5c0.401,0,0.778,0.155,1.062,0.439
	s0.438,0.66,0.438,1.061v4.361l9.864-9.864c0.566-0.565,1.556-0.565,2.121,0c0.283,0.284,0.439,0.66,0.439,1.062
	c0,0.4-0.156,0.777-0.439,1.061l-9.864,9.865h4.362c0.401,0,0.778,0.156,1.063,0.438c0.283,0.284,0.438,0.661,0.438,1.062
	c0,0.401-0.155,0.777-0.44,1.062c-0.282,0.283-0.656,0.438-1.06,0.438l-7.988-0.003c-0.099,0-0.195-0.011-0.298-0.033l-0.529-0.217
	c-0.06-0.04-0.117-0.084-0.199-0.158l-0.033-0.033c-0.064-0.064-0.127-0.141-0.189-0.241l-0.218-0.522
	c-0.019-0.098-0.028-0.194-0.028-0.293V16.933z M8.976,44.231c0,0.936,0.364,1.814,1.025,2.475c1.321,1.322,3.628,1.32,4.95,0
	l6.477-6.478c0.218,1.725,1.692,3.062,3.473,3.062c0.935,0,1.813-0.364,2.478-1.026c0.659-0.661,1.022-1.539,1.023-2.474
	l-0.005-8.068c-0.006-0.201-0.023-0.401-0.062-0.589c-0.018-0.097-0.046-0.191-0.076-0.284l-0.031-0.103
	c-0.025-0.095-0.054-0.187-0.094-0.284c-0.041-0.099-0.091-0.19-0.144-0.282l-0.051-0.094c-0.039-0.076-0.08-0.152-0.127-0.221
	c-0.256-0.385-0.582-0.712-0.964-0.967c-0.076-0.051-0.153-0.093-0.231-0.133l-0.108-0.059c-0.088-0.049-0.176-0.097-0.261-0.131
	c-0.102-0.043-0.206-0.075-0.311-0.104l-0.107-0.032c-0.078-0.024-0.157-0.049-0.246-0.066c-0.141-0.027-0.281-0.046-0.423-0.058
	l-0.26-0.011l-0.104,0.001l-7.88-0.001c-1.931,0-3.5,1.57-3.5,3.5c0,1.782,1.338,3.258,3.063,3.473l-6.479,6.479
	C9.34,42.417,8.976,43.296,8.976,44.231z M11.415,43.168l9.864-9.865h-4.364c-0.826,0-1.499-0.673-1.499-1.5s0.673-1.5,1.5-1.5
	l7.978,0.001v-0.001h0.008c0.101,0.001,0.201,0.012,0.31,0.036l0.521,0.217c0.167,0.111,0.308,0.25,0.423,0.434l0.217,0.52
	c0.016,0.087,0.021,0.176,0.024,0.287l0.005,0.061l-0.001,7.93c0,0.4-0.156,0.778-0.438,1.061c-0.286,0.284-0.663,0.44-1.063,0.44
	c-0.827,0-1.5-0.673-1.5-1.501v-4.36l-9.862,9.863c-0.565,0.566-1.556,0.567-2.122,0c-0.283-0.283-0.439-0.66-0.439-1.061
	S11.132,43.452,11.415,43.168z"/>
</svg>
