<?xml version="1.0" encoding="utf-8"?>
<!-- Generator: Adobe Illustrator 15.1.0, SVG Export Plug-In . SVG Version: 6.00 Build 0)  -->
<!DOCTYPE svg PUBLIC "-//W3C//DTD SVG 1.1//EN" "http://www.w3.org/Graphics/SVG/1.1/DTD/svg11.dtd">
<svg version="1.1" id="Layer_1" xmlns="http://www.w3.org/2000/svg" xmlns:xlink="http://www.w3.org/1999/xlink" x="0px" y="0px"
	 width="56.689px" height="56.689px" viewBox="0 0 56.689 56.689" enable-background="new 0 0 56.689 56.689" xml:space="preserve">
<path d="M52.053,49.319H4.637l0,0V25.402c0-0.553,0.447-1,1-1s1,0.447,1,1v21.917h43.416v-22c0-0.553,0.447-1,1-1s1,0.447,1,1
	V49.319z M27.344,20.587h-7.498c-0.447,0-0.828-0.104-1.133-0.31c-0.408-0.273-0.643-0.708-0.643-1.193
	c0-0.288,0.086-0.733,0.498-1.227l8.103-9.68c0.43-0.513,1.04-0.807,1.676-0.807s1.247,0.294,1.677,0.807l8.098,9.68
	c0.412,0.491,0.5,0.938,0.5,1.227c0,0.724-0.557,1.503-1.773,1.503h-7.504v16.94c0,0.553-0.447,1-1,1s-1-0.447-1-1V20.587z
	 M36.114,18.587l-7.626-9.125c-0.047-0.058-0.099-0.09-0.142-0.09s-0.095,0.032-0.143,0.09l-7.632,9.118L36.114,18.587z"/>
</svg>
