<?xml version="1.0" encoding="utf-8"?>
<!-- Generator: Adobe Illustrator 15.1.0, SVG Export Plug-In . SVG Version: 6.00 Build 0)  -->
<!DOCTYPE svg PUBLIC "-//W3C//DTD SVG 1.1//EN" "http://www.w3.org/Graphics/SVG/1.1/DTD/svg11.dtd">
<svg version="1.1" id="Layer_1" xmlns="http://www.w3.org/2000/svg" xmlns:xlink="http://www.w3.org/1999/xlink" x="0px" y="0px"
	 width="56.689px" height="56.689px" viewBox="0 0 56.689 56.689" enable-background="new 0 0 56.689 56.689" xml:space="preserve">
<g>
	<path d="M10.49,46.198c-1.365-1.364-1.365-3.586,0-4.95l24.784-24.785l-16.524,0.001c-1.871,0-3.5-1.63-3.5-3.5
		c-0.001-1.929,1.569-3.499,3.5-3.5l24.975-0.001c0.226,0,0.458,0.023,0.687,0.068c0.086,0.017,0.169,0.042,0.252,0.07l0.1,0.03
		c0.104,0.028,0.205,0.059,0.304,0.099c0.097,0.04,0.187,0.09,0.276,0.14l0.099,0.053c0.072,0.037,0.144,0.075,0.214,0.12
		c0.414,0.279,0.724,0.599,0.977,0.972c0.058,0.087,0.099,0.163,0.138,0.241l0.051,0.094c0.052,0.092,0.101,0.182,0.14,0.279
		c0.041,0.096,0.073,0.205,0.104,0.314c0.052,0.166,0.076,0.247,0.095,0.332c0.045,0.233,0.068,0.47,0.067,0.701v24.961
		c0,0.935-0.364,1.814-1.025,2.476s-1.539,1.024-2.476,1.024c-1.869,0.001-3.499-1.629-3.499-3.499l-0.002-16.525L15.439,46.198
		C14.075,47.562,11.853,47.562,10.49,46.198z M40.103,14.463L11.904,42.662c-0.584,0.585-0.584,1.536,0,2.121
		c0.585,0.585,1.537,0.585,2.121,0l28.198-28.198V37.94c0,0.801,0.7,1.501,1.5,1.5c0.4,0,0.777-0.156,1.061-0.439
		c0.284-0.283,0.439-0.66,0.44-1.062l-0.001-24.965c0.001-0.106-0.01-0.209-0.03-0.309l-0.209-0.505
		c-0.133-0.216-0.267-0.335-0.434-0.448L44.035,11.5c-0.115-0.027-0.214-0.038-0.312-0.037l-24.975,0.001
		c-0.827,0.001-1.5,0.674-1.5,1.5c0,0.798,0.697,1.5,1.5,1.5L40.103,14.463z"/>
</g>
</svg>
