<?xml version="1.0" encoding="utf-8"?>
<!-- Generator: Adobe Illustrator 15.1.0, SVG Export Plug-In . SVG Version: 6.00 Build 0)  -->
<!DOCTYPE svg PUBLIC "-//W3C//DTD SVG 1.1//EN" "http://www.w3.org/Graphics/SVG/1.1/DTD/svg11.dtd">
<svg version="1.1" id="Layer_1" xmlns="http://www.w3.org/2000/svg" xmlns:xlink="http://www.w3.org/1999/xlink" x="0px" y="0px"
	 width="56.689px" height="56.689px" viewBox="0 0 56.689 56.689" enable-background="new 0 0 56.689 56.689" xml:space="preserve">
<path d="M51.517,23.314h-7.565c-0.608-10.21-7.287-18.076-15.561-18.076c-0.001,0-0.001,0-0.001,0c-4.123,0-8.01,1.988-10.946,5.599
	c-0.348,0.428-0.283,1.058,0.146,1.407c0.428,0.349,1.059,0.282,1.406-0.146c2.549-3.134,5.886-4.86,9.396-4.86h0.001
	c7.048,0,12.96,7.125,13.558,16.076h-7.436c-1.82,0-2.772,1.259-2.772,2.502c0,0.453,0.127,1.145,0.731,1.867l8.103,9.682
	c0.62,0.739,1.51,1.164,2.441,1.164c0.933,0,1.822-0.425,2.442-1.166l8.099-9.679c0.605-0.723,0.732-1.415,0.732-1.868
	C54.29,24.573,53.337,23.314,51.517,23.314z M52.026,26.4l-8.099,9.681c-0.478,0.569-1.34,0.567-1.819,0l-8.101-9.682
	c-0.232-0.274-0.266-0.482-0.266-0.583c0-0.313,0.288-0.502,0.772-0.502h8.497c0.007,0,0.013,0,0.02,0.001
	c0.002,0,0.003-0.001,0.004-0.001h8.484c0.484,0,0.773,0.188,0.773,0.502C52.292,25.916,52.257,26.124,52.026,26.4z M37.695,44.591
	c-2.549,3.134-5.886,4.861-9.396,4.861c-7.048,0-12.96-7.125-13.558-16.076l7.436,0.001c1.82,0,2.773-1.26,2.773-2.501
	c0-0.453-0.128-1.145-0.732-1.867l-8.102-9.683c-0.621-0.74-1.511-1.164-2.442-1.164s-1.822,0.424-2.442,1.165l-8.099,9.68
	c-0.605,0.723-0.732,1.414-0.732,1.866c0,1.244,0.953,2.502,2.773,2.502l7.564,0.001c0.607,10.21,7.286,18.077,15.561,18.077
	c4.124,0,8.012-1.988,10.947-5.602c0.348-0.427,0.283-1.057-0.146-1.406C38.673,44.099,38.044,44.163,37.695,44.591z M5.173,31.375
	c-0.484,0-0.773-0.188-0.773-0.502c0-0.1,0.035-0.308,0.267-0.581l8.099-9.682c0.239-0.284,0.57-0.448,0.909-0.448
	s0.671,0.164,0.908,0.447l8.101,9.682c0.232,0.274,0.267,0.483,0.267,0.584c0,0.313-0.289,0.502-0.773,0.502l-8.511-0.001
	c-0.002,0-0.003-0.001-0.005-0.001c-0.001,0-0.003,0.001-0.004,0.001L5.173,31.375z"/>
</svg>
