<?xml version="1.0" encoding="utf-8"?>
<!-- Generator: Adobe Illustrator 15.1.0, SVG Export Plug-In . SVG Version: 6.00 Build 0)  -->
<!DOCTYPE svg PUBLIC "-//W3C//DTD SVG 1.1//EN" "http://www.w3.org/Graphics/SVG/1.1/DTD/svg11.dtd">
<svg version="1.1" id="Layer_1" xmlns="http://www.w3.org/2000/svg" xmlns:xlink="http://www.w3.org/1999/xlink" x="0px" y="0px"
	 width="56.689px" height="56.689px" viewBox="0 0 56.689 56.689" enable-background="new 0 0 56.689 56.689" xml:space="preserve">
<path d="M49.319,4.637v47.416h-0.001H25.402c-0.553,0-1-0.447-1-1s0.447-1,1-1h21.917V6.637h-22c-0.553,0-1-0.447-1-1s0.447-1,1-1
	H49.319z M20.587,29.346v7.498c0,0.447-0.104,0.828-0.31,1.133c-0.273,0.408-0.708,0.643-1.193,0.643
	c-0.288,0-0.733-0.086-1.227-0.498l-9.68-8.103c-0.513-0.43-0.807-1.04-0.807-1.676s0.294-1.247,0.807-1.676l9.68-8.099
	c0.491-0.412,0.938-0.499,1.227-0.499c0.724,0,1.503,0.556,1.503,1.772v7.504h16.939c0.554,0,1,0.447,1,1s-0.446,1-1,1H20.587z
	 M18.587,20.576l-9.125,7.626c-0.058,0.047-0.09,0.099-0.09,0.142s0.032,0.095,0.09,0.143l9.118,7.632L18.587,20.576z"/>
</svg>
