<?xml version="1.0" encoding="utf-8"?>
<!-- Generator: Adobe Illustrator 15.1.0, SVG Export Plug-In . SVG Version: 6.00 Build 0)  -->
<!DOCTYPE svg PUBLIC "-//W3C//DTD SVG 1.1//EN" "http://www.w3.org/Graphics/SVG/1.1/DTD/svg11.dtd">
<svg version="1.1" id="Layer_1" xmlns="http://www.w3.org/2000/svg" xmlns:xlink="http://www.w3.org/1999/xlink" x="0px" y="0px"
	 width="56.689px" height="56.689px" viewBox="0 0 56.689 56.689" enable-background="new 0 0 56.689 56.689" xml:space="preserve">
<path d="M42.236,19.205L31.529,8.497l-0.045-0.044c-0.195-0.189-0.41-0.363-0.639-0.515c-0.096-0.064-0.195-0.116-0.295-0.167
	l-0.137-0.073c-0.111-0.063-0.223-0.124-0.35-0.177c-0.125-0.051-0.252-0.088-0.379-0.124l-0.148-0.044
	c-0.104-0.035-0.207-0.066-0.311-0.086c-0.295-0.059-0.592-0.088-0.888-0.088c-0.291,0.001-0.585,0.031-0.872,0.088
	c-0.112,0.022-0.221,0.056-0.328,0.091L27.01,7.396C26.88,7.432,26.75,7.47,26.626,7.521c-0.123,0.051-0.239,0.114-0.354,0.179
	l-0.141,0.075c-0.098,0.05-0.194,0.101-0.28,0.159c-0.192,0.128-0.379,0.275-0.561,0.443L14.455,19.205
	c-0.85,0.85-1.318,1.979-1.318,3.182s0.468,2.332,1.318,3.182c0.85,0.851,1.979,1.318,3.182,1.318s2.332-0.468,3.182-1.318
	l3.027-3.027v22.47c0,2.482,2.019,4.5,4.5,4.5c2.482,0,4.5-2.018,4.5-4.5V22.543l3.027,3.025c0.85,0.851,1.979,1.318,3.182,1.318
	c1.201,0,2.332-0.468,3.182-1.317c0.85-0.849,1.318-1.979,1.318-3.182S43.085,20.056,42.236,19.205z M40.822,24.155
	c-0.473,0.473-1.1,0.732-1.768,0.732s-1.297-0.26-1.768-0.732l-6.441-6.44v27.297c0,1.379-1.121,2.5-2.5,2.5
	c-1.379,0-2.5-1.121-2.5-2.5V17.713l-6.441,6.441c-0.473,0.473-1.1,0.732-1.768,0.732s-1.295-0.26-1.768-0.732
	c-0.946-0.945-0.944-2.59,0-3.535l10.649-10.65l0.079-0.074c0.11-0.108,0.229-0.208,0.435-0.333l0.229-0.123
	c0.042-0.023,0.082-0.05,0.13-0.069s0.098-0.031,0.147-0.044l0.318-0.097c0.161-0.032,0.326-0.049,0.489-0.05
	c0.158,0,0.323,0.017,0.56,0.072l0.246,0.074c0.053,0.015,0.105,0.027,0.146,0.044c0.045,0.019,0.086,0.044,0.129,0.068L29.734,9.6
	c0.135,0.091,0.262,0.194,0.381,0.312l10.707,10.708C41.767,21.565,41.765,23.211,40.822,24.155z"/>
</svg>
