<?xml version="1.0" encoding="utf-8"?>
<!-- Generator: Adobe Illustrator 15.1.0, SVG Export Plug-In . SVG Version: 6.00 Build 0)  -->
<!DOCTYPE svg PUBLIC "-//W3C//DTD SVG 1.1//EN" "http://www.w3.org/Graphics/SVG/1.1/DTD/svg11.dtd">
<svg version="1.1" id="Layer_1" xmlns="http://www.w3.org/2000/svg" xmlns:xlink="http://www.w3.org/1999/xlink" x="0px" y="0px"
	 width="56.689px" height="56.689px" viewBox="0 0 56.689 56.689" enable-background="new 0 0 56.689 56.689" xml:space="preserve">
<path d="M22.428,29.313l-6.479,6.479c-0.096-0.769-0.44-1.479-0.997-2.035c-0.661-0.661-1.54-1.025-2.479-1.025
	c-1.926,0-3.495,1.569-3.496,3.499v7.984c0,0.228,0.023,0.459,0.066,0.678c0.018,0.093,0.045,0.182,0.1,0.354
	c0.029,0.103,0.061,0.205,0.095,0.289c0.041,0.105,0.094,0.204,0.196,0.39c0.04,0.081,0.083,0.159,0.13,0.228
	c0.111,0.167,0.235,0.323,0.369,0.466l0.055,0.057c0.006,0.004,0.01,0.009,0.015,0.013l0.006,0.006
	c0.159,0.16,0.335,0.304,0.528,0.434c0.075,0.051,0.154,0.093,0.235,0.134l0.101,0.053c0.084,0.048,0.171,0.096,0.264,0.133
	c0.108,0.046,0.219,0.078,0.408,0.132c0.082,0.026,0.164,0.051,0.244,0.066c0.226,0.045,0.456,0.068,0.696,0.068h0.001l7.979,0.001
	c0.934,0,1.813-0.364,2.469-1.023c0.662-0.661,1.026-1.539,1.026-2.475c0.001-0.936-0.363-1.815-1.024-2.477
	c-0.558-0.557-1.268-0.902-2.037-0.997l6.479-6.479c0.661-0.662,1.024-1.54,1.024-2.475c0-0.937-0.363-1.815-1.024-2.476
	C26.055,27.991,23.75,27.991,22.428,29.313z M25.962,32.849l-9.865,9.865h4.363c0.4,0,0.777,0.156,1.062,0.438
	c0.283,0.284,0.438,0.661,0.438,1.062c0,0.402-0.156,0.778-0.441,1.062c-0.282,0.283-0.656,0.438-1.055,0.438H20.46l-7.988-0.001
	c-0.098,0-0.195-0.01-0.297-0.033l-0.53-0.217c-0.059-0.04-0.117-0.084-0.199-0.158l-0.033-0.035
	c-0.065-0.064-0.127-0.141-0.19-0.241l-0.217-0.522c-0.02-0.097-0.029-0.194-0.029-0.293V36.23c0.001-0.827,0.672-1.5,1.5-1.5
	c0.402,0,0.779,0.155,1.063,0.439c0.282,0.284,0.438,0.66,0.438,1.061v4.361l9.865-9.864c0.566-0.565,1.555-0.565,2.121,0
	c0.283,0.284,0.438,0.66,0.438,1.062C26.401,32.189,26.245,32.566,25.962,32.849z M47.709,12.394
	c-0.006-0.201-0.024-0.4-0.063-0.589c-0.017-0.097-0.046-0.191-0.076-0.284l-0.03-0.103c-0.026-0.095-0.055-0.187-0.095-0.284
	c-0.041-0.098-0.091-0.19-0.143-0.282l-0.051-0.094c-0.039-0.076-0.08-0.152-0.127-0.221c-0.256-0.385-0.582-0.711-0.964-0.967
	c-0.076-0.051-0.153-0.094-0.232-0.134l-0.108-0.059c-0.088-0.049-0.176-0.097-0.261-0.131c-0.101-0.043-0.206-0.075-0.31-0.104
	l-0.108-0.032c-0.078-0.024-0.157-0.049-0.246-0.066c-0.14-0.027-0.281-0.046-0.423-0.058l-0.259-0.011l-0.105,0.001l-7.88-0.001
	c-1.93,0-3.5,1.57-3.5,3.5c0,1.782,1.338,3.258,3.063,3.473l-6.479,6.479c-0.661,0.661-1.024,1.54-1.024,2.475
	c0,0.936,0.363,1.814,1.024,2.475c0.662,0.661,1.54,1.024,2.477,1.024c0.935,0,1.813-0.363,2.474-1.023l6.478-6.478
	c0.218,1.725,1.691,3.062,3.473,3.062c0.934,0,1.813-0.364,2.477-1.026c0.659-0.661,1.023-1.539,1.024-2.474L47.709,12.394z
	 M45.713,20.46c0,0.4-0.157,0.778-0.438,1.061c-0.286,0.284-0.663,0.44-1.063,0.44c-0.827,0-1.5-0.673-1.5-1.501V16.1l-9.863,9.863
	c-0.566,0.566-1.557,0.565-2.122,0c-0.283-0.283-0.438-0.66-0.438-1.061s0.155-0.776,0.438-1.061l9.865-9.865h-4.364
	c-0.826,0-1.499-0.673-1.499-1.5s0.673-1.5,1.5-1.5h7.986c0.1,0.001,0.201,0.012,0.309,0.036l0.522,0.217
	c0.167,0.111,0.307,0.25,0.423,0.434l0.216,0.52c0.017,0.087,0.022,0.176,0.025,0.287l0.004,0.061L45.713,20.46z"/>
</svg>
