<?xml version="1.0" encoding="utf-8"?>
<!-- Generator: Adobe Illustrator 15.1.0, SVG Export Plug-In . SVG Version: 6.00 Build 0)  -->
<!DOCTYPE svg PUBLIC "-//W3C//DTD SVG 1.1//EN" "http://www.w3.org/Graphics/SVG/1.1/DTD/svg11.dtd">
<svg version="1.1" id="Layer_1" xmlns="http://www.w3.org/2000/svg" xmlns:xlink="http://www.w3.org/1999/xlink" x="0px" y="0px"
	 width="56.689px" height="56.689px" viewBox="0 0 56.689 56.689" enable-background="new 0 0 56.689 56.689" xml:space="preserve">
<g>
	<path d="M28.347,3.095c1.93,0,3.5,1.57,3.5,3.5v35.05l11.684-11.685c1.323-1.324,3.628-1.323,4.95,0
		c1.364,1.363,1.364,3.584,0,4.949l-17.659,17.66c-0.159,0.16-0.34,0.308-0.533,0.438c-0.073,0.049-0.149,0.09-0.229,0.129
		l-0.092,0.049c-0.093,0.053-0.187,0.104-0.284,0.145c-0.097,0.04-0.195,0.068-0.294,0.097l-0.107,0.032
		c-0.077,0.025-0.155,0.049-0.236,0.066c-0.49,0.096-0.935,0.089-1.378,0.004c-0.102-0.021-0.185-0.046-0.268-0.073l-0.103-0.03
		c-0.101-0.028-0.199-0.058-0.296-0.099c-0.097-0.039-0.196-0.094-0.295-0.149c-0.154-0.081-0.229-0.121-0.302-0.168
		c-0.197-0.133-0.381-0.283-0.544-0.448L8.212,34.912c-0.661-0.661-1.025-1.54-1.025-2.476c0-0.935,0.364-1.813,1.025-2.475
		c1.321-1.323,3.627-1.323,4.949,0l11.686,11.684V6.595C24.847,4.667,26.418,3.095,28.347,3.095z M29.847,46.475V6.596
		c0-0.827-0.673-1.5-1.5-1.5s-1.5,0.673-1.5,1.5v39.877l-15.1-15.1c-0.566-0.566-1.556-0.566-2.121,0
		c-0.283,0.283-0.439,0.66-0.439,1.061c0,0.401,0.156,0.777,0.439,1.062L27.28,51.149c0.074,0.075,0.154,0.141,0.239,0.197
		l0.505,0.209c0.246,0.059,0.425,0.048,0.623,0.01l0.514-0.214c0.102-0.063,0.179-0.124,0.247-0.194l17.659-17.66
		c0.584-0.585,0.584-1.537,0-2.121c-0.564-0.564-1.555-0.567-2.122,0L29.847,46.475z"/>
</g>
</svg>
