<?xml version="1.0" encoding="utf-8"?>
<!-- Generator: Adobe Illustrator 15.1.0, SVG Export Plug-In . SVG Version: 6.00 Build 0)  -->
<!DOCTYPE svg PUBLIC "-//W3C//DTD SVG 1.1//EN" "http://www.w3.org/Graphics/SVG/1.1/DTD/svg11.dtd">
<svg version="1.1" id="Layer_1" xmlns="http://www.w3.org/2000/svg" xmlns:xlink="http://www.w3.org/1999/xlink" x="0px" y="0px"
	 width="56.69px" height="56.69px" viewBox="0 0 56.69 56.69" enable-background="new 0 0 56.69 56.69" xml:space="preserve">
<g>
	<path d="M28.345,54.304c-12.17,0-22.071-9.9-22.071-22.07c0-11.835,9.363-21.525,21.071-22.05l0.001-5.023
		c0-1.821,1.259-2.773,2.502-2.773c0.453,0,1.145,0.127,1.867,0.732l9.68,8.098c0.74,0.619,1.165,1.51,1.165,2.443
		c0,0.933-0.425,1.823-1.165,2.443l-9.68,8.101c-0.723,0.605-1.414,0.732-1.867,0.732c-1.243,0-2.502-0.953-2.502-2.773v-4.969
		c-7.847,0.516-14.072,7.064-14.072,15.039c0,8.31,6.761,15.07,15.071,15.07s15.072-6.761,15.072-15.07
		c0-1.082-0.115-2.162-0.343-3.21c-0.198-0.913-0.028-1.85,0.478-2.636s1.287-1.328,2.201-1.526
		c1.873-0.406,3.763,0.837,4.163,2.678c0.332,1.534,0.501,3.113,0.501,4.694C50.417,44.403,40.516,54.304,28.345,54.304z
		 M28.346,12.161c-11.068,0-20.072,9.005-20.072,20.072c0,11.066,9.004,20.07,20.071,20.07c11.068,0,20.072-9.004,20.072-20.07
		c0-1.438-0.153-2.876-0.456-4.271c-0.175-0.801-0.976-1.32-1.786-1.147c-0.39,0.085-0.725,0.317-0.941,0.654
		s-0.289,0.738-0.204,1.13c0.257,1.187,0.388,2.409,0.388,3.634c0,9.413-7.658,17.07-17.072,17.07
		c-9.413,0-17.071-7.657-17.071-17.07s7.658-17.072,17.071-17.072h1l0.001,7.002c0,0.484,0.188,0.773,0.502,0.773
		c0.1,0,0.308-0.035,0.584-0.266l9.68-8.102C40.396,14.331,40.56,14,40.56,13.66s-0.163-0.671-0.448-0.909l-9.68-8.099
		c-0.276-0.231-0.484-0.266-0.584-0.266c-0.314,0-0.502,0.289-0.502,0.773v7.001H28.346z"/>
</g>
</svg>
