<?xml version="1.0" encoding="utf-8"?>
<!-- Generator: Adobe Illustrator 15.1.0, SVG Export Plug-In . SVG Version: 6.00 Build 0)  -->
<!DOCTYPE svg PUBLIC "-//W3C//DTD SVG 1.1//EN" "http://www.w3.org/Graphics/SVG/1.1/DTD/svg11.dtd">
<svg version="1.1" id="Layer_1" xmlns="http://www.w3.org/2000/svg" xmlns:xlink="http://www.w3.org/1999/xlink" x="0px" y="0px"
	 width="56.69px" height="56.69px" viewBox="0 0 56.69 56.69" enable-background="new 0 0 56.69 56.69" xml:space="preserve">
<g>
	<path d="M21.312,44.621c-0.592,0-1.5-0.17-2.464-0.977L4.458,31.602C3.468,30.775,2.9,29.587,2.9,28.343s0.567-2.432,1.558-3.259
		l14.39-12.039c0.963-0.806,1.871-0.975,2.464-0.975c1.606,0,3.232,1.249,3.232,3.637v9.139H50.29c1.93,0,3.5,1.57,3.5,3.5
		c0,1.93-1.57,3.5-3.5,3.5H24.544v9.139C24.544,43.371,22.918,44.621,21.312,44.621z M21.312,14.07
		c-0.261,0-0.678,0.088-1.181,0.509l-14.39,12.04C5.207,27.065,4.9,27.694,4.9,28.343s0.307,1.278,0.841,1.725l14.39,12.043
		c0.504,0.42,0.92,0.51,1.181,0.51c0.568,0,1.232-0.43,1.232-1.637V29.846H50.29c0.827,0,1.5-0.674,1.5-1.5
		c0-0.827-0.673-1.5-1.5-1.5H22.544V15.707C22.544,14.499,21.88,14.07,21.312,14.07z"/>
</g>
</svg>
