<?xml version="1.0" encoding="utf-8"?>
<!-- Generator: Adobe Illustrator 15.1.0, SVG Export Plug-In . SVG Version: 6.00 Build 0)  -->
<!DOCTYPE svg PUBLIC "-//W3C//DTD SVG 1.1//EN" "http://www.w3.org/Graphics/SVG/1.1/DTD/svg11.dtd">
<svg version="1.1" id="Layer_1" xmlns="http://www.w3.org/2000/svg" xmlns:xlink="http://www.w3.org/1999/xlink" x="0px" y="0px"
	 width="56.689px" height="56.689px" viewBox="0 0 56.689 56.689" enable-background="new 0 0 56.689 56.689" xml:space="preserve">
<path d="M41.9,31.372c-0.723-0.606-1.415-0.733-1.869-0.733c-1.243,0-2.503,0.953-2.503,2.773v7.502h-8.941l-5.225-12.563
	l5.225-12.564h8.941v7.491c0,1.82,1.26,2.773,2.503,2.773c0.454,0,1.148-0.127,1.867-0.732l9.683-8.1
	c0.738-0.619,1.163-1.51,1.163-2.444c0-0.933-0.426-1.822-1.165-2.441L41.9,4.236c-0.723-0.605-1.415-0.732-1.869-0.732
	c-1.243,0-2.503,0.952-2.503,2.772v7.511H27.252l-4.974,11.96l-4.97-11.951L4.948,13.787c-0.001,0-0.001,0-0.001,0
	c-0.552,0-1,0.446-1,0.999s0.447,1.001,0.999,1.001l11.03,0.008l5.221,12.554l-5.222,12.556L4.946,40.914
	c-0.552,0-0.999,0.446-0.999,1c0,0.553,0.448,1,1,1l12.363-0.011l4.969-11.95l4.974,11.961h10.274v7.503
	c0,1.819,1.26,2.771,2.503,2.771c0.454,0,1.148-0.127,1.867-0.73l9.681-8.101c0.739-0.619,1.165-1.51,1.165-2.442
	c0-0.934-0.426-1.824-1.165-2.443L41.9,31.372z M39.528,6.275c0-0.483,0.189-0.772,0.503-0.772c0.101,0,0.31,0.035,0.586,0.265
	l9.679,8.098c0.285,0.238,0.448,0.569,0.448,0.908c0,0.341-0.163,0.673-0.447,0.911l-9.684,8.102
	c-0.272,0.23-0.481,0.265-0.582,0.265c-0.314,0-0.503-0.289-0.503-0.773V6.275z M50.295,42.823l-9.683,8.101
	c-0.272,0.23-0.481,0.264-0.582,0.264c-0.314,0-0.503-0.287-0.503-0.771V33.412c0-0.484,0.189-0.773,0.503-0.773
	c0.101,0,0.31,0.035,0.586,0.266l9.679,8.101c0.285,0.238,0.448,0.567,0.448,0.908C50.743,42.253,50.58,42.585,50.295,42.823z"/>
</svg>
