<?xml version="1.0" encoding="utf-8"?>
<!-- Generator: Adobe Illustrator 15.1.0, SVG Export Plug-In . SVG Version: 6.00 Build 0)  -->
<!DOCTYPE svg PUBLIC "-//W3C//DTD SVG 1.1//EN" "http://www.w3.org/Graphics/SVG/1.1/DTD/svg11.dtd">
<svg version="1.1" id="Layer_1" xmlns="http://www.w3.org/2000/svg" xmlns:xlink="http://www.w3.org/1999/xlink" x="0px" y="0px"
	 width="56.69px" height="56.69px" viewBox="0 0 56.69 56.69" enable-background="new 0 0 56.69 56.69" xml:space="preserve">
<g>
	<path d="M39.49,51.779c-0.791,0-2.01-0.229-3.316-1.325L15.04,32.769c-1.347-1.126-2.119-2.739-2.119-4.427
		s0.772-3.301,2.119-4.427L36.174,6.233c1.307-1.093,2.525-1.322,3.316-1.322c2.127,0,4.279,1.674,4.279,4.872v37.125
		C43.77,50.106,41.617,51.779,39.49,51.779z M39.49,6.911c-0.461,0-1.188,0.148-2.033,0.856L16.323,25.449
		c-0.892,0.745-1.402,1.8-1.402,2.893c0,1.094,0.511,2.147,1.402,2.893l21.134,17.687c0.848,0.709,1.574,0.858,2.033,0.858
		c1.135,0,2.279-0.888,2.279-2.871V9.783C41.77,7.799,40.625,6.911,39.49,6.911z"/>
</g>
</svg>
