<?xml version="1.0" encoding="utf-8"?>
<!-- Generator: Adobe Illustrator 15.1.0, SVG Export Plug-In . SVG Version: 6.00 Build 0)  -->
<!DOCTYPE svg PUBLIC "-//W3C//DTD SVG 1.1//EN" "http://www.w3.org/Graphics/SVG/1.1/DTD/svg11.dtd">
<svg version="1.1" id="Layer_1" xmlns="http://www.w3.org/2000/svg" xmlns:xlink="http://www.w3.org/1999/xlink" x="0px" y="0px"
	 width="56.689px" height="56.689px" viewBox="0 0 56.689 56.689" enable-background="new 0 0 56.689 56.689" xml:space="preserve">
<g>
	<path d="M45.198,21.446c0.419,0.418,0.94,1.181,1.052,2.433l1.66,18.691c0.115,1.284-0.323,2.525-1.203,3.405
		s-2.12,1.318-3.406,1.203l-18.688-1.662c-1.25-0.11-2.012-0.634-2.431-1.053c-1.136-1.136-1.403-3.168,0.286-4.857l6.462-6.462
		L10.723,14.939c-1.365-1.364-1.365-3.585,0-4.95c1.365-1.365,3.585-1.365,4.95,0l18.205,18.206l6.463-6.462
		C42.029,20.044,44.062,20.31,45.198,21.446z M23.595,43.049c0.185,0.185,0.542,0.417,1.194,0.476l18.689,1.661
		c0.693,0.063,1.354-0.165,1.814-0.625c0.459-0.459,0.687-1.12,0.625-1.814l-1.659-18.691c-0.06-0.653-0.29-1.011-0.475-1.195
		c-0.401-0.402-1.175-0.567-2.028,0.286l-7.877,7.876l-19.619-19.62c-0.584-0.585-1.537-0.584-2.122,0
		c-0.585,0.585-0.585,1.537,0,2.122l19.62,19.619l-7.876,7.876C23.026,41.875,23.193,42.647,23.595,43.049z"/>
</g>
</svg>
