<?xml version="1.0" encoding="utf-8"?>
<!-- Generator: Adobe Illustrator 15.1.0, SVG Export Plug-In . SVG Version: 6.00 Build 0)  -->
<!DOCTYPE svg PUBLIC "-//W3C//DTD SVG 1.1//EN" "http://www.w3.org/Graphics/SVG/1.1/DTD/svg11.dtd">
<svg version="1.1" id="Layer_1" xmlns="http://www.w3.org/2000/svg" xmlns:xlink="http://www.w3.org/1999/xlink" x="0px" y="0px"
	 width="56.689px" height="56.689px" viewBox="0 0 56.689 56.689" enable-background="new 0 0 56.689 56.689" xml:space="preserve">
<path d="M50.788,24.828h-9.16c0.475-0.611,0.732-1.358,0.732-2.146c0-0.935-0.363-1.813-1.023-2.475
	c-1.32-1.323-3.628-1.323-4.95-0.001l-5.646,5.645c-0.163,0.162-0.308,0.34-0.438,0.533c-0.05,0.075-0.092,0.152-0.131,0.23
	l-0.051,0.094c-0.052,0.09-0.1,0.181-0.139,0.272c-0.042,0.102-0.072,0.204-0.13,0.402c-0.028,0.087-0.055,0.175-0.069,0.256
	c-0.047,0.23-0.069,0.46-0.069,0.687l0.004,0.138c0.006,0.183,0.028,0.366,0.064,0.541c0.017,0.091,0.043,0.179,0.07,0.266
	l0.03,0.102c0.029,0.099,0.058,0.196,0.098,0.294c0.043,0.103,0.095,0.198,0.149,0.296l0.049,0.089
	c0.038,0.076,0.079,0.151,0.121,0.213c0.128,0.194,0.276,0.376,0.441,0.54l5.644,5.644c0.662,0.661,1.54,1.025,2.475,1.025
	c0.936,0,1.814-0.365,2.476-1.025s1.024-1.538,1.024-2.475c0-0.787-0.258-1.535-0.734-2.146h9.162c1.93,0,3.5-1.57,3.5-3.499
	C54.288,26.398,52.718,24.828,50.788,24.828z M50.788,29.826H36.836l3.086,3.086c0.283,0.283,0.438,0.659,0.438,1.061
	s-0.155,0.778-0.438,1.062c-0.566,0.565-1.555,0.565-2.121,0l-5.644-5.645c-0.07-0.07-0.133-0.146-0.193-0.243l-0.219-0.527
	c-0.02-0.096-0.029-0.19-0.029-0.286v-0.05c0.003-0.086,0.014-0.172,0.039-0.274l0.212-0.512c0.055-0.083,0.118-0.161,0.188-0.231
	l5.646-5.645c0.565-0.567,1.554-0.568,2.121,0c0.283,0.283,0.438,0.659,0.438,1.061s-0.155,0.778-0.438,1.062l-3.084,3.084h13.95
	c0.826,0,1.5,0.673,1.5,1.5C52.288,29.153,51.615,29.826,50.788,29.826z M23.474,24.831h-9.162c0.477-0.611,0.735-1.359,0.735-2.147
	c0-0.934-0.364-1.813-1.025-2.475c-1.321-1.321-3.631-1.321-4.949,0.001l-5.638,5.638c-0.166,0.166-0.315,0.349-0.443,0.54
	c-0.05,0.073-0.091,0.149-0.16,0.284C2.772,26.775,2.715,26.879,2.665,27c-0.037,0.092-0.065,0.185-0.119,0.373
	c-0.031,0.092-0.059,0.184-0.075,0.271c-0.034,0.173-0.056,0.347-0.063,0.521l-0.006,0.166c0,0.225,0.023,0.455,0.067,0.675
	c0.018,0.094,0.044,0.182,0.094,0.339c0.03,0.111,0.063,0.222,0.107,0.327c0.041,0.097,0.089,0.188,0.188,0.366
	c0.04,0.079,0.081,0.155,0.136,0.236c0.128,0.19,0.272,0.368,0.435,0.53l5.646,5.646c0.661,0.66,1.539,1.024,2.475,1.024
	c0.935,0,1.814-0.365,2.473-1.023c0.661-0.662,1.025-1.54,1.025-2.476c0-0.788-0.257-1.535-0.733-2.145h9.16
	c1.93,0,3.5-1.57,3.5-3.5C26.974,26.401,25.404,24.831,23.474,24.831z M23.475,29.83H9.525l3.083,3.084
	c0.283,0.283,0.439,0.659,0.439,1.061s-0.156,0.778-0.44,1.063c-0.563,0.563-1.554,0.564-2.12-0.001l-5.646-5.646
	c-0.07-0.07-0.133-0.148-0.197-0.254l-0.212-0.512c-0.015-0.081-0.026-0.162-0.029-0.244v-0.056c0-0.097,0.01-0.192,0.027-0.278
	l0.045-0.142l0.04-0.146c0.014-0.033,0.033-0.063,0.089-0.16l0.05-0.101c0.057-0.085,0.122-0.164,0.195-0.237l5.64-5.64
	c0.564-0.567,1.555-0.566,2.12,0c0.585,0.585,0.585,1.537,0,2.122L9.523,26.83h13.952c0.827,0,1.5,0.673,1.5,1.5
	C24.975,29.156,24.302,29.83,23.475,29.83z"/>
</svg>
