<?xml version="1.0" encoding="utf-8"?>
<!-- Generator: Adobe Illustrator 15.1.0, SVG Export Plug-In . SVG Version: 6.00 Build 0)  -->
<!DOCTYPE svg PUBLIC "-//W3C//DTD SVG 1.1//EN" "http://www.w3.org/Graphics/SVG/1.1/DTD/svg11.dtd">
<svg version="1.1" id="Layer_1" xmlns="http://www.w3.org/2000/svg" xmlns:xlink="http://www.w3.org/1999/xlink" x="0px" y="0px"
	 width="56.689px" height="56.689px" viewBox="0 0 56.689 56.689" enable-background="new 0 0 56.689 56.689" xml:space="preserve">
<path d="M29.346,29.052v-10.26h7.502c1.723,0,2.383-1.128,2.545-1.475c0.162-0.346,0.604-1.575-0.506-2.896l-8.1-9.68
	c-0.601-0.718-1.488-1.129-2.442-1.129c-0.953,0-1.844,0.411-2.444,1.129l-8.098,9.678c-1.108,1.323-0.667,2.553-0.506,2.897
	c0.162,0.347,0.823,1.475,2.546,1.475h7.502v10.26L11.911,40.403v11.674c0,0.553,0.446,1,1,1c0.553,0,1-0.447,1-1V41.415
	l14.435-10.616L42.78,41.415v10.661c0,0.553,0.447,1,1,1c0.554,0,1-0.447,1-1V40.403L29.346,29.052z M19.843,16.792
	c-0.508,0-0.677-0.2-0.733-0.32c-0.056-0.119-0.101-0.377,0.228-0.768l8.098-9.679c0.219-0.262,0.551-0.412,0.911-0.412
	c0.358,0,0.69,0.15,0.909,0.411l8.1,9.682c0.328,0.39,0.283,0.646,0.228,0.766s-0.226,0.32-0.732,0.32H19.843z"/>
</svg>
