<?xml version="1.0" encoding="utf-8"?>
<!-- Generator: Adobe Illustrator 15.1.0, SVG Export Plug-In . SVG Version: 6.00 Build 0)  -->
<!DOCTYPE svg PUBLIC "-//W3C//DTD SVG 1.1//EN" "http://www.w3.org/Graphics/SVG/1.1/DTD/svg11.dtd">
<svg version="1.1" id="Layer_1" xmlns="http://www.w3.org/2000/svg" xmlns:xlink="http://www.w3.org/1999/xlink" x="0px" y="0px"
	 width="56.689px" height="56.689px" viewBox="0 0 56.689 56.689" enable-background="new 0 0 56.689 56.689" xml:space="preserve">
<g>
	<path d="M10.492,10.49c1.364-1.365,3.585-1.365,4.95,0l24.785,24.784L40.226,18.75c0-1.872,1.63-3.5,3.5-3.5
		c1.929,0,3.499,1.57,3.5,3.5l0.001,24.975c0,0.226-0.023,0.458-0.068,0.687c-0.017,0.086-0.042,0.169-0.07,0.252l-0.03,0.1
		c-0.028,0.104-0.059,0.205-0.099,0.304c-0.04,0.097-0.09,0.187-0.14,0.276l-0.053,0.099c-0.037,0.072-0.075,0.144-0.12,0.214
		c-0.279,0.414-0.599,0.724-0.972,0.977c-0.087,0.058-0.163,0.099-0.241,0.138L45.34,46.82c-0.092,0.052-0.182,0.101-0.279,0.14
		c-0.096,0.041-0.205,0.073-0.314,0.104c-0.166,0.052-0.247,0.076-0.332,0.095c-0.233,0.045-0.47,0.068-0.701,0.067h-24.96
		c-0.935,0-1.814-0.364-2.476-1.025s-1.024-1.539-1.025-2.476c-0.001-1.869,1.629-3.499,3.5-3.499l16.524-0.002L10.492,15.439
		C9.129,14.075,9.129,11.853,10.492,10.49z M42.227,40.103L14.029,11.904c-0.585-0.584-1.536-0.584-2.121,0
		c-0.585,0.585-0.585,1.537,0,2.122l28.197,28.197H18.751c-0.801,0-1.5,0.7-1.5,1.5c0,0.4,0.156,0.777,0.439,1.061
		c0.284,0.284,0.66,0.439,1.062,0.44l24.964-0.001c0.106,0.001,0.209-0.01,0.309-0.03l0.505-0.209
		c0.216-0.133,0.335-0.267,0.448-0.434l0.212-0.515c0.027-0.115,0.038-0.214,0.037-0.312l-0.001-24.975
		c-0.001-0.827-0.674-1.5-1.5-1.5c-0.798,0-1.5,0.698-1.5,1.5L42.227,40.103z"/>
</g>
</svg>
