<?xml version="1.0" encoding="utf-8"?>
<!-- Generator: Adobe Illustrator 15.1.0, SVG Export Plug-In . SVG Version: 6.00 Build 0)  -->
<!DOCTYPE svg PUBLIC "-//W3C//DTD SVG 1.1//EN" "http://www.w3.org/Graphics/SVG/1.1/DTD/svg11.dtd">
<svg version="1.1" id="Layer_1" xmlns="http://www.w3.org/2000/svg" xmlns:xlink="http://www.w3.org/1999/xlink" x="0px" y="0px"
	 width="56.689px" height="56.689px" viewBox="0 0 56.689 56.689" enable-background="new 0 0 56.689 56.689" xml:space="preserve">
<path d="M29.345,13.962V6.411c0-1.821-1.259-2.773-2.502-2.773c-0.453,0-1.144,0.127-1.867,0.731l-9.68,8.099
	c-0.74,0.619-1.165,1.509-1.165,2.443c0,0.932,0.425,1.822,1.165,2.442l9.68,8.102c0.722,0.604,1.414,0.731,1.867,0.731
	c1.243,0,2.502-0.954,2.502-2.772v-7.452c9.223,0.522,16.572,8.169,16.572,17.521c0,9.688-7.883,17.57-17.571,17.57
	s-17.572-7.882-17.572-17.57c0-1.261,0.135-2.519,0.399-3.739c0.117-0.54-0.227-1.072-0.766-1.189s-1.072,0.225-1.189,0.766
	c-0.295,1.359-0.444,2.762-0.444,4.164c0,10.791,8.78,19.57,19.572,19.57s19.571-8.78,19.571-19.571
	C47.917,23.028,39.671,14.487,29.345,13.962z M27.345,23.415c0,0.483-0.188,0.772-0.502,0.772c-0.1,0-0.308-0.036-0.584-0.267
	l-9.68-8.101c-0.285-0.238-0.448-0.569-0.448-0.909c0-0.341,0.163-0.672,0.448-0.909l9.68-8.1c0.276-0.231,0.484-0.266,0.584-0.266
	c0.314,0,0.502,0.289,0.502,0.773V23.415z"/>
</svg>
