<?xml version="1.0" encoding="utf-8"?>
<!-- Generator: Adobe Illustrator 15.1.0, SVG Export Plug-In . SVG Version: 6.00 Build 0)  -->
<!DOCTYPE svg PUBLIC "-//W3C//DTD SVG 1.1//EN" "http://www.w3.org/Graphics/SVG/1.1/DTD/svg11.dtd">
<svg version="1.1" id="Layer_1" xmlns="http://www.w3.org/2000/svg" xmlns:xlink="http://www.w3.org/1999/xlink" x="0px" y="0px"
	 width="56.689px" height="56.689px" viewBox="0 0 56.689 56.689" enable-background="new 0 0 56.689 56.689" xml:space="preserve">
<path d="M4.931,31.606l14.39,12.039c0.963,0.808,1.871,0.977,2.465,0.977c1.605,0,3.231-1.249,3.231-3.638v-11.64h27.301
	c0.554,0,1-0.447,1-1c0-0.552-0.446-1-1-1H25.017V15.707c0-2.388-1.626-3.638-3.231-3.638c-0.593,0-1.5,0.17-2.465,0.977
	L4.931,25.088c-0.991,0.827-1.559,2.017-1.559,3.259C3.373,29.59,3.941,30.778,4.931,31.606z M6.214,26.622l14.391-12.043
	c0.504-0.422,0.92-0.511,1.182-0.511c0.567,0,1.231,0.43,1.231,1.638v25.278c0,1.208-0.664,1.638-1.231,1.638
	c-0.262,0-0.679-0.089-1.182-0.511L6.214,30.072c-0.534-0.446-0.841-1.075-0.841-1.726C5.373,27.697,5.679,27.069,6.214,26.622z"/>
</svg>
