<?xml version="1.0" encoding="utf-8"?>
<!-- Generator: Adobe Illustrator 15.1.0, SVG Export Plug-In . SVG Version: 6.00 Build 0)  -->
<!DOCTYPE svg PUBLIC "-//W3C//DTD SVG 1.1//EN" "http://www.w3.org/Graphics/SVG/1.1/DTD/svg11.dtd">
<svg version="1.1" id="Layer_1" xmlns="http://www.w3.org/2000/svg" xmlns:xlink="http://www.w3.org/1999/xlink" x="0px" y="0px"
	 width="56.689px" height="56.689px" viewBox="0 0 56.689 56.689" enable-background="new 0 0 56.689 56.689" xml:space="preserve">
<path d="M50.789,24.828h-9.16c0.474-0.611,0.731-1.358,0.731-2.146c0-0.935-0.362-1.813-1.022-2.475
	c-1.32-1.323-3.629-1.323-4.951-0.001l-5.646,5.645c-0.163,0.162-0.308,0.34-0.437,0.533c-0.051,0.075-0.092,0.152-0.131,0.23
	l-0.051,0.094c-0.052,0.09-0.101,0.181-0.14,0.272c-0.041,0.102-0.071,0.204-0.129,0.402c-0.028,0.087-0.056,0.175-0.069,0.256
	c-0.048,0.23-0.07,0.46-0.07,0.687l0.004,0.138c0.007,0.183,0.029,0.366,0.064,0.541c0.017,0.091,0.043,0.179,0.071,0.266
	l0.029,0.102c0.03,0.099,0.059,0.196,0.098,0.294c0.043,0.103,0.096,0.198,0.15,0.296l0.049,0.089
	c0.037,0.076,0.078,0.151,0.121,0.213c0.127,0.194,0.275,0.376,0.441,0.54l5.643,5.644c0.662,0.661,1.541,1.025,2.475,1.025
	c0.937,0,1.815-0.365,2.476-1.025c0.662-0.66,1.024-1.538,1.024-2.475c0-0.787-0.257-1.535-0.733-2.146h9.162
	c1.93,0,3.5-1.57,3.5-3.499C54.289,26.398,52.719,24.828,50.789,24.828z M50.789,29.826H36.836l3.086,3.086
	c0.283,0.283,0.438,0.659,0.438,1.061s-0.155,0.778-0.438,1.062c-0.566,0.565-1.555,0.565-2.121,0l-5.643-5.645
	c-0.07-0.07-0.133-0.146-0.193-0.243l-0.219-0.527c-0.02-0.096-0.029-0.19-0.029-0.286v-0.05c0.002-0.086,0.013-0.172,0.037-0.274
	l0.213-0.512c0.055-0.083,0.118-0.161,0.188-0.231l5.646-5.645c0.566-0.567,1.555-0.568,2.121,0
	c0.283,0.283,0.438,0.659,0.438,1.061s-0.155,0.778-0.438,1.062l-3.084,3.084h13.951c0.825,0,1.5,0.673,1.5,1.5
	C52.289,29.153,51.615,29.826,50.789,29.826z M26.907,27.653c-0.019-0.097-0.046-0.188-0.104-0.375
	c-0.027-0.094-0.055-0.187-0.096-0.289c-0.046-0.109-0.104-0.215-0.193-0.376c-0.039-0.076-0.08-0.152-0.127-0.223
	c-0.13-0.195-0.28-0.377-0.445-0.542l-5.638-5.639c-1.32-1.323-3.628-1.323-4.95-0.001c-0.661,0.662-1.024,1.54-1.024,2.475
	c0,0.788,0.258,1.536,0.734,2.147H5.902c-1.93,0-3.5,1.569-3.5,3.5c0,1.93,1.57,3.5,3.5,3.5h9.16
	c-0.475,0.61-0.732,1.357-0.732,2.145c0,0.936,0.363,1.814,1.023,2.474c0.661,0.662,1.54,1.026,2.477,1.026
	c0.934,0,1.813-0.365,2.475-1.026l5.646-5.645c0.161-0.162,0.306-0.34,0.438-0.536c0.05-0.075,0.091-0.152,0.178-0.319
	c0.053-0.089,0.102-0.18,0.142-0.276c0.045-0.106,0.077-0.216,0.128-0.396c0.028-0.089,0.055-0.177,0.07-0.261
	c0.047-0.229,0.069-0.46,0.069-0.685l-0.005-0.167C26.962,27.99,26.94,27.818,26.907,27.653z M24.973,28.376
	c-0.003,0.084-0.015,0.17-0.037,0.268l-0.213,0.517c-0.055,0.083-0.118,0.16-0.188,0.23l-5.646,5.646
	c-0.568,0.565-1.557,0.564-2.121,0c-0.283-0.284-0.438-0.66-0.438-1.062s0.155-0.778,0.438-1.061l3.084-3.084H5.902
	c-0.826,0-1.5-0.674-1.5-1.5c0-0.827,0.674-1.5,1.5-1.5h13.952l-3.086-3.086c-0.585-0.585-0.585-1.537,0-2.121
	c0.564-0.566,1.553-0.569,2.121,0l5.64,5.641c0.072,0.072,0.138,0.151,0.196,0.244l0.086,0.159c0.018,0.03,0.037,0.061,0.064,0.145
	l0.068,0.228c0.02,0.095,0.029,0.19,0.029,0.287V28.376z"/>
</svg>
