<?xml version="1.0" encoding="utf-8"?>
<!-- Generator: Adobe Illustrator 15.1.0, SVG Export Plug-In . SVG Version: 6.00 Build 0)  -->
<!DOCTYPE svg PUBLIC "-//W3C//DTD SVG 1.1//EN" "http://www.w3.org/Graphics/SVG/1.1/DTD/svg11.dtd">
<svg version="1.1" id="Layer_1" xmlns="http://www.w3.org/2000/svg" xmlns:xlink="http://www.w3.org/1999/xlink" x="0px" y="0px"
	 width="56.69px" height="56.69px" viewBox="0 0 56.69 56.69" enable-background="new 0 0 56.69 56.69" xml:space="preserve">
<g>
	<path d="M28.344,53.595c-1.93,0-3.5-1.57-3.5-3.5V15.045L13.16,26.73c-1.323,1.323-3.628,1.322-4.95,0
		c-1.364-1.364-1.364-3.584,0-4.949L25.869,4.12c0.16-0.16,0.34-0.307,0.534-0.437c0.073-0.049,0.149-0.09,0.228-0.129l0.092-0.049
		c0.093-0.053,0.186-0.103,0.284-0.144c0.097-0.04,0.195-0.069,0.294-0.097l0.107-0.032c0.078-0.026,0.156-0.049,0.237-0.067
		c0.49-0.095,0.934-0.089,1.378-0.004c0.101,0.021,0.184,0.046,0.267,0.074l0.103,0.03c0.1,0.028,0.199,0.058,0.296,0.099
		c0.096,0.039,0.196,0.093,0.295,0.149c0.154,0.081,0.229,0.121,0.301,0.168c0.198,0.133,0.381,0.283,0.544,0.448l17.65,17.65
		c0.661,0.661,1.025,1.54,1.025,2.475s-0.364,1.813-1.025,2.475c-1.322,1.322-3.627,1.322-4.949,0L31.844,15.045v35.05
		C31.844,52.024,30.273,53.595,28.344,53.595z M26.844,10.216v39.878c0,0.827,0.673,1.5,1.5,1.5c0.827,0,1.5-0.673,1.5-1.5V10.217
		l15.1,15.1c0.566,0.566,1.555,0.566,2.121,0c0.283-0.284,0.439-0.66,0.439-1.061s-0.156-0.777-0.439-1.061L29.411,5.542
		c-0.074-0.075-0.154-0.14-0.239-0.197l-0.505-0.209c-0.246-0.059-0.425-0.048-0.623-0.01L27.531,5.34
		c-0.102,0.063-0.179,0.124-0.248,0.194L9.624,23.195c-0.584,0.585-0.584,1.537,0,2.121c0.565,0.564,1.555,0.567,2.122,0
		L26.844,10.216z"/>
</g>
</svg>
