<?xml version="1.0" encoding="utf-8"?>
<!-- Generator: Adobe Illustrator 15.1.0, SVG Export Plug-In . SVG Version: 6.00 Build 0)  -->
<!DOCTYPE svg PUBLIC "-//W3C//DTD SVG 1.1//EN" "http://www.w3.org/Graphics/SVG/1.1/DTD/svg11.dtd">
<svg version="1.1" id="Layer_1" xmlns="http://www.w3.org/2000/svg" xmlns:xlink="http://www.w3.org/1999/xlink" x="0px" y="0px"
	 width="56.689px" height="56.689px" viewBox="0 0 56.689 56.689" enable-background="new 0 0 56.689 56.689" xml:space="preserve">
<path d="M9.484,14.094l1.662,18.689c0.11,1.252,0.633,2.014,1.053,2.434c1.135,1.135,3.167,1.4,4.856-0.288l8.23-8.23L44.59,46.003
	c0.393,0.392,1.023,0.391,1.414,0s0.393-1.022,0-1.415L26.699,25.284l8.229-8.229c1.688-1.688,1.423-3.722,0.288-4.856
	c-0.42-0.42-1.181-0.94-2.434-1.053L14.092,9.485c-1.284-0.115-2.527,0.324-3.406,1.202C9.807,11.567,9.368,12.809,9.484,14.094z
	 M13.915,11.477l18.691,1.66c0.654,0.059,1.012,0.29,1.196,0.475c0.401,0.4,0.566,1.174-0.287,2.028L15.641,33.515
	c-0.854,0.854-1.628,0.688-2.028,0.287c-0.185-0.185-0.418-0.543-0.475-1.196l-1.662-18.688c-0.063-0.694,0.165-1.355,0.624-1.815
	C12.56,11.642,13.22,11.416,13.915,11.477z"/>
</svg>
