<?xml version="1.0" encoding="utf-8"?>
<!-- Generator: Adobe Illustrator 15.1.0, SVG Export Plug-In . SVG Version: 6.00 Build 0)  -->
<!DOCTYPE svg PUBLIC "-//W3C//DTD SVG 1.1//EN" "http://www.w3.org/Graphics/SVG/1.1/DTD/svg11.dtd">
<svg version="1.1" id="Layer_1" xmlns="http://www.w3.org/2000/svg" xmlns:xlink="http://www.w3.org/1999/xlink" x="0px" y="0px"
	 width="56.689px" height="56.689px" viewBox="0 0 56.689 56.689" enable-background="new 0 0 56.689 56.689" xml:space="preserve">
<path d="M24.984,44.627l15.144,0.002l0.063-0.001c0.272-0.004,0.547-0.033,0.815-0.088c0.113-0.021,0.222-0.055,0.328-0.09
	l0.147-0.045c0.123-0.034,0.246-0.069,0.373-0.122c0.124-0.053,0.24-0.116,0.354-0.181l0.137-0.073
	c0.098-0.049,0.193-0.1,0.28-0.159c0.25-0.167,0.481-0.356,0.69-0.565c0.204-0.207,0.392-0.436,0.555-0.679
	c0.063-0.097,0.116-0.196,0.167-0.297l0.063-0.116c0.066-0.119,0.132-0.237,0.183-0.361c0.052-0.123,0.089-0.25,0.124-0.376
	l0.046-0.153c0.034-0.104,0.065-0.209,0.086-0.311c0.045-0.227,0.073-0.463,0.083-0.71l0.006-15.318
	c0-1.202-0.467-2.332-1.318-3.182c-0.849-0.849-1.979-1.318-3.182-1.317c-1.201,0-2.332,0.467-3.182,1.317
	c-0.851,0.85-1.318,1.98-1.318,3.182v4.281L19.741,13.377c-1.755-1.755-4.609-1.755-6.364,0s-1.755,4.608,0,6.363l15.887,15.887
	l-4.281,0.001c-1.201,0-2.331,0.467-3.182,1.317c-0.85,0.85-1.318,1.98-1.318,3.183c-0.001,1.2,0.467,2.331,1.318,3.182
	C22.652,44.159,23.783,44.627,24.984,44.627z M22.485,40.128c0-0.669,0.259-1.296,0.732-1.768c0.472-0.473,1.101-0.733,1.768-0.732
	h9.11L14.792,18.326c-0.975-0.975-0.975-2.561,0-3.535c0.975-0.975,2.561-0.975,3.535,0l19.302,19.302v-9.109
	c0-0.668,0.26-1.295,0.732-1.768c0.473-0.472,1.1-0.732,1.768-0.732c1.338,0,2.499,1.164,2.5,2.5v15.062l-0.003,0.108
	c-0.002,0.153-0.016,0.309-0.071,0.543l-0.074,0.249c-0.014,0.046-0.023,0.092-0.044,0.14c-0.02,0.048-0.047,0.092-0.072,0.136
	l-0.157,0.294c-0.091,0.137-0.195,0.266-0.311,0.381c-0.111,0.112-0.241,0.217-0.447,0.346l-0.227,0.121
	c-0.047,0.027-0.093,0.056-0.134,0.073c-0.045,0.018-0.093,0.029-0.14,0.043l-0.332,0.101c-0.16,0.031-0.322,0.049-0.49,0.049
	H24.984C23.647,42.628,22.485,41.462,22.485,40.128z"/>
</svg>
