<?xml version="1.0" encoding="utf-8"?>
<!-- Generator: Adobe Illustrator 15.1.0, SVG Export Plug-In . SVG Version: 6.00 Build 0)  -->
<!DOCTYPE svg PUBLIC "-//W3C//DTD SVG 1.1//EN" "http://www.w3.org/Graphics/SVG/1.1/DTD/svg11.dtd">
<svg version="1.1" id="Layer_1" xmlns="http://www.w3.org/2000/svg" xmlns:xlink="http://www.w3.org/1999/xlink" x="0px" y="0px"
	 width="56.689px" height="56.689px" viewBox="0 0 56.689 56.689" enable-background="new 0 0 56.689 56.689" xml:space="preserve">
<path d="M17.728,16.286L17.728,16.286L17.728,16.286L17.728,16.286z M52.178,19.12v11c-0.001,1.93-1.572,3.5-3.501,3.5
	c-1.93,0-3.5-1.57-3.5-3.5v-11c0-0.424-0.075-0.616-0.104-0.655c-0.05-0.045-0.229-0.12-0.756-0.176l-24.589-0.003v4.991
	c0,1.82-1.259,2.772-2.502,2.772c-0.454,0-1.146-0.127-1.868-0.732l-9.679-8.1c-0.74-0.619-1.165-1.51-1.165-2.443
	c0-0.933,0.425-1.823,1.165-2.442l9.679-8.099c0.723-0.604,1.414-0.731,1.868-0.731c1.243,0,2.502,0.952,2.502,2.771v5.013
	l24.521,0.002l0.136-0.002c0.78,0,3.484,0.153,5.55,2.142C50.957,14.413,52.178,16.201,52.178,19.12z M50.178,19.12
	c0-2.217-0.887-3.535-1.631-4.251c-1.526-1.47-3.572-1.583-4.163-1.583l-0.106,0.002l-26.549-0.002V6.274
	c0-0.482-0.188-0.771-0.502-0.771c-0.1,0-0.309,0.035-0.584,0.266l-9.68,8.1c-0.285,0.237-0.448,0.568-0.448,0.908
	c0,0.341,0.163,0.671,0.448,0.909l9.68,8.102c0.275,0.23,0.484,0.266,0.584,0.266c0.314,0,0.502-0.288,0.502-0.772v-6.993
	l26.728,0.007c0.508,0.054,1.419,0.148,2.034,0.761c0.455,0.454,0.688,1.149,0.688,2.066v11c0,0.826,0.673,1.5,1.5,1.5
	s1.5-0.674,1.5-1.5V19.12z M51.012,39.473c0.74,0.62,1.165,1.511,1.165,2.442c0,0.934-0.425,1.823-1.164,2.443l-9.68,8.099
	c-0.723,0.604-1.414,0.73-1.868,0.73c-1.243,0-2.502-0.952-2.502-2.771v-5.013l-24.521-0.002l-0.147,0.002
	c-0.776,0-3.473-0.153-5.537-2.143c-1.023-0.984-2.244-2.771-2.244-5.691V26.57c0-1.93,1.57-3.5,3.5-3.5s3.5,1.57,3.5,3.5v11.001
	c0,0.424,0.075,0.616,0.104,0.655c0.089,0.079,0.479,0.179,0.729,0.179h24.616v-4.991c0-1.82,1.259-2.773,2.502-2.773
	c0.453,0,1.145,0.127,1.868,0.733L51.012,39.473z M50.178,41.914c0-0.339-0.164-0.67-0.449-0.909l-9.679-8.101
	c-0.277-0.231-0.485-0.267-0.585-0.267c-0.314,0-0.502,0.289-0.502,0.773v6.991H12.347c-0.141,0-1.396-0.021-2.146-0.768
	c-0.457-0.453-0.688-1.148-0.688-2.066V26.57c0-0.826-0.673-1.5-1.5-1.5s-1.5,0.674-1.5,1.5v11.001c0,2.218,0.887,3.535,1.631,4.25
	c1.526,1.471,3.563,1.584,4.15,1.584l0.147-0.002l26.521,0.002v7.013c0,0.482,0.188,0.771,0.502,0.771
	c0.101,0,0.31-0.034,0.586-0.266l9.679-8.097C50.014,42.586,50.178,42.254,50.178,41.914z"/>
</svg>
