<?xml version="1.0" encoding="utf-8"?>
<!-- Generator: Adobe Illustrator 15.1.0, SVG Export Plug-In . SVG Version: 6.00 Build 0)  -->
<!DOCTYPE svg PUBLIC "-//W3C//DTD SVG 1.1//EN" "http://www.w3.org/Graphics/SVG/1.1/DTD/svg11.dtd">
<svg version="1.1" id="Layer_1" xmlns="http://www.w3.org/2000/svg" xmlns:xlink="http://www.w3.org/1999/xlink" x="0px" y="0px"
	 width="56.689px" height="56.689px" viewBox="0 0 56.689 56.689" enable-background="new 0 0 56.689 56.689" xml:space="preserve">
<g>
	<path d="M35.25,44.462c-0.418,0.419-1.181,0.94-2.433,1.052l-18.691,1.66c-1.284,0.115-2.525-0.323-3.405-1.203
		s-1.318-2.12-1.203-3.406l1.662-18.688c0.11-1.25,0.634-2.012,1.053-2.431c1.136-1.136,3.168-1.403,4.857,0.286l6.462,6.462
		L41.758,9.988c1.364-1.365,3.585-1.365,4.949,0c1.365,1.365,1.365,3.585,0.001,4.95L28.502,33.143l6.463,6.463
		C36.653,41.293,36.387,43.326,35.25,44.462z M13.647,22.86c-0.185,0.185-0.417,0.542-0.476,1.194L11.51,42.742
		c-0.063,0.693,0.165,1.354,0.625,1.814c0.459,0.459,1.12,0.687,1.814,0.625l18.691-1.659c0.653-0.06,1.011-0.29,1.195-0.475
		c0.402-0.401,0.567-1.175-0.286-2.028l-7.876-7.877l19.62-19.619c0.585-0.584,0.585-1.537,0-2.122
		c-0.585-0.585-1.536-0.585-2.121,0l-19.62,19.62l-7.876-7.876C14.821,22.29,14.05,22.458,13.647,22.86z"/>
</g>
</svg>
