<?xml version="1.0" encoding="utf-8"?>
<!-- Generator: Adobe Illustrator 15.1.0, SVG Export Plug-In . SVG Version: 6.00 Build 0)  -->
<!DOCTYPE svg PUBLIC "-//W3C//DTD SVG 1.1//EN" "http://www.w3.org/Graphics/SVG/1.1/DTD/svg11.dtd">
<svg version="1.1" id="Layer_1" xmlns="http://www.w3.org/2000/svg" xmlns:xlink="http://www.w3.org/1999/xlink" x="0px" y="0px"
	 width="56.69px" height="56.69px" viewBox="0 0 56.69 56.69" enable-background="new 0 0 56.69 56.69" xml:space="preserve">
<g>
	<path d="M41.281,53.188c-1.244,0-2.503-0.951-2.503-2.771v-5.002H26.835l-3.306-7.949l-3.302,7.938L6.2,45.414
		c-1.931,0-3.502-1.57-3.503-3.498c-0.001-0.936,0.362-1.814,1.023-2.475c0.66-0.662,1.539-1.027,2.474-1.027l9.363-0.008
		l4.182-10.056l-4.182-10.057l-9.363-0.007c-0.935,0-1.813-0.365-2.474-1.027c-0.661-0.662-1.024-1.541-1.023-2.476
		c0.001-1.929,1.571-3.498,3.5-3.498l14.03,0.011l3.302,7.938l3.306-7.949h11.943V6.276c0-1.821,1.259-2.773,2.503-2.773
		c0.454,0,1.146,0.127,1.869,0.733l9.678,8.097c0.74,0.619,1.165,1.509,1.165,2.442c0,0.934-0.424,1.825-1.163,2.444l-9.682,8.1
		c-0.72,0.604-1.413,0.732-1.867,0.732c-1.244,0-2.503-0.953-2.503-2.773v-4.991h-7.273L27.32,28.35l4.185,10.064h7.273v-5.002
		c0-1.82,1.259-2.773,2.503-2.773c0.453,0,1.146,0.127,1.868,0.732l9.679,8.102c0.74,0.619,1.165,1.508,1.165,2.441
		s-0.425,1.824-1.165,2.443l-9.68,8.098C42.428,53.061,41.735,53.188,41.281,53.188z M28.169,43.414h12.609v7.002
		c0,0.482,0.188,0.771,0.503,0.771c0.1,0,0.308-0.033,0.583-0.264l9.681-8.1c0.285-0.238,0.448-0.57,0.448-0.91
		c0-0.338-0.163-0.67-0.448-0.908l-9.679-8.102c-0.276-0.23-0.485-0.266-0.585-0.266c-0.314,0-0.503,0.289-0.503,0.773v7.002H30.171
		L25.154,28.35l5.017-12.063h10.607v6.991c0,0.484,0.188,0.773,0.503,0.773c0.1,0,0.309-0.034,0.582-0.265l9.683-8.101
		c0.284-0.238,0.447-0.57,0.447-0.911c0-0.339-0.163-0.67-0.448-0.908l-9.679-8.098c-0.276-0.231-0.485-0.266-0.585-0.266
		c-0.314,0-0.503,0.289-0.503,0.773v7.011H28.169l-4.64,11.158l-4.636-11.148l-12.695-0.01c-0.826,0-1.5,0.672-1.501,1.499
		c-0.001,0.828,0.672,1.501,1.499,1.501l10.695,0.008l5.014,12.056l-5.014,12.054l-10.695,0.01c-0.401,0-0.777,0.156-1.061,0.439
		s-0.438,0.66-0.438,1.061c0.001,0.828,0.674,1.5,1.5,1.5l12.696-0.01l4.636-11.148L28.169,43.414z"/>
</g>
</svg>
