<?xml version="1.0" encoding="utf-8"?>
<!-- Generator: Adobe Illustrator 15.1.0, SVG Export Plug-In . SVG Version: 6.00 Build 0)  -->
<!DOCTYPE svg PUBLIC "-//W3C//DTD SVG 1.1//EN" "http://www.w3.org/Graphics/SVG/1.1/DTD/svg11.dtd">
<svg version="1.1" id="Layer_1" xmlns="http://www.w3.org/2000/svg" xmlns:xlink="http://www.w3.org/1999/xlink" x="0px" y="0px"
	 width="56.689px" height="56.689px" viewBox="0 0 56.689 56.689" enable-background="new 0 0 56.689 56.689" xml:space="preserve">
<path d="M53.558,29.007l-8.099-9.68c-0.62-0.741-1.509-1.165-2.442-1.165c-0.931,0-1.821,0.424-2.442,1.165l-8.102,9.679
	c-0.604,0.724-0.731,1.416-0.731,1.869c0,1.242,0.952,2.502,2.772,2.502h7.437c-0.598,8.952-6.51,16.076-13.558,16.076
	c-0.001,0-0.001,0-0.001,0c-3.51,0-6.847-1.727-9.396-4.861c-0.347-0.428-0.978-0.493-1.406-0.146
	c-0.429,0.35-0.494,0.979-0.146,1.406c2.936,3.612,6.823,5.601,10.945,5.601c0.001,0,0.001,0,0.002,0
	c8.273,0,14.952-7.867,15.562-18.077h7.563c1.82,0,2.773-1.258,2.773-2.502C54.29,30.421,54.163,29.73,53.558,29.007z
	 M51.516,31.376l-8.478,0.001c-0.002,0-0.003-0.001-0.005-0.001s-0.003,0.001-0.005,0.001l-8.516,0.001
	c-0.484,0-0.773-0.188-0.773-0.502c0-0.101,0.035-0.31,0.267-0.584l8.1-9.681c0.24-0.285,0.572-0.449,0.911-0.449
	c0.338,0,0.67,0.163,0.907,0.448l8.099,9.682c0.232,0.274,0.267,0.481,0.267,0.582C52.289,31.188,52,31.376,51.516,31.376z
	 M24.949,25.816c0-1.243-0.953-2.502-2.773-2.502l-7.435,0c0.597-8.951,6.509-16.077,13.558-16.077c3.509,0,6.846,1.727,9.396,4.86
	c0.349,0.429,0.978,0.495,1.406,0.146s0.494-0.979,0.146-1.407c-2.936-3.611-6.823-5.6-10.947-5.6
	c-8.274,0-14.954,7.867-15.561,18.078l-7.565,0c-1.82,0-2.773,1.259-2.773,2.502c0,0.453,0.127,1.144,0.733,1.866l8.099,9.68
	c0.62,0.74,1.51,1.166,2.442,1.166c0.931,0,1.821-0.425,2.442-1.166l8.101-9.679C24.822,26.961,24.949,26.269,24.949,25.816z
	 M22.686,26.401l-8.1,9.679c-0.48,0.571-1.341,0.571-1.82,0.002L4.667,26.4c-0.232-0.275-0.267-0.483-0.267-0.583
	c0-0.313,0.289-0.502,0.773-0.502l17.003-0.001c0.484,0,0.773,0.188,0.775,0.503C22.952,25.917,22.917,26.125,22.686,26.401z"/>
</svg>
