<?xml version="1.0" encoding="utf-8"?>
<!-- Generator: Adobe Illustrator 15.1.0, SVG Export Plug-In . SVG Version: 6.00 Build 0)  -->
<!DOCTYPE svg PUBLIC "-//W3C//DTD SVG 1.1//EN" "http://www.w3.org/Graphics/SVG/1.1/DTD/svg11.dtd">
<svg version="1.1" id="Layer_1" xmlns="http://www.w3.org/2000/svg" xmlns:xlink="http://www.w3.org/1999/xlink" x="0px" y="0px"
	 width="56.689px" height="56.689px" viewBox="0 0 56.689 56.689" enable-background="new 0 0 56.689 56.689" xml:space="preserve">
<path d="M44.627,31.705l0.002-15.144l-0.001-0.063c-0.004-0.272-0.033-0.547-0.088-0.815c-0.021-0.113-0.055-0.222-0.09-0.328
	l-0.045-0.147c-0.034-0.123-0.069-0.246-0.122-0.373c-0.053-0.124-0.116-0.24-0.181-0.354l-0.073-0.137
	c-0.049-0.098-0.1-0.193-0.159-0.28c-0.167-0.25-0.356-0.481-0.565-0.69c-0.207-0.204-0.436-0.392-0.679-0.555
	c-0.097-0.063-0.196-0.116-0.297-0.167l-0.116-0.063c-0.119-0.066-0.237-0.132-0.361-0.183c-0.123-0.052-0.25-0.089-0.376-0.124
	l-0.153-0.046c-0.104-0.034-0.209-0.065-0.311-0.086c-0.227-0.045-0.463-0.073-0.71-0.083l-15.318-0.006
	c-1.201,0-2.331,0.467-3.182,1.318c-0.85,0.849-1.318,1.979-1.317,3.182c0,1.201,0.467,2.332,1.317,3.182
	c0.85,0.851,1.98,1.318,3.182,1.318h4.281L13.377,36.948c-1.755,1.755-1.755,4.609,0,6.364s4.608,1.755,6.363-0.001l15.887-15.887
	l0.001,4.28c0,1.201,0.467,2.331,1.317,3.182c0.85,0.85,1.98,1.318,3.183,1.318c1.2,0.001,2.331-0.467,3.182-1.318
	C44.159,34.038,44.627,32.906,44.627,31.705z M40.128,34.205c-0.669,0-1.296-0.26-1.768-0.732c-0.473-0.472-0.733-1.101-0.732-1.768
	v-9.109L18.326,41.898c-0.975,0.975-2.561,0.975-3.535,0s-0.975-2.561,0-3.535l19.302-19.302h-9.109
	c-0.668,0-1.295-0.26-1.768-0.732s-0.732-1.1-0.732-1.768c0-1.338,1.164-2.499,2.5-2.5h15.062l0.108,0.003
	c0.153,0.002,0.309,0.016,0.543,0.071l0.249,0.074c0.046,0.014,0.092,0.023,0.14,0.044c0.048,0.02,0.092,0.047,0.136,0.072
	l0.294,0.157c0.137,0.091,0.266,0.195,0.381,0.311c0.112,0.111,0.217,0.241,0.346,0.447l0.121,0.227
	c0.027,0.047,0.056,0.093,0.073,0.134c0.018,0.045,0.029,0.093,0.043,0.14l0.101,0.332c0.031,0.16,0.049,0.322,0.049,0.49v15.143
	C42.628,33.042,41.462,34.205,40.128,34.205z"/>
</svg>
