<?xml version="1.0" encoding="utf-8"?>
<!-- Generator: Adobe Illustrator 15.1.0, SVG Export Plug-In . SVG Version: 6.00 Build 0)  -->
<!DOCTYPE svg PUBLIC "-//W3C//DTD SVG 1.1//EN" "http://www.w3.org/Graphics/SVG/1.1/DTD/svg11.dtd">
<svg version="1.1" id="Layer_1" xmlns="http://www.w3.org/2000/svg" xmlns:xlink="http://www.w3.org/1999/xlink" x="0px" y="0px"
	 width="56.689px" height="56.689px" viewBox="0 0 56.689 56.689" enable-background="new 0 0 56.689 56.689" xml:space="preserve">
<g>
	<path d="M22.181,11.497c0.418-0.419,1.181-0.94,2.433-1.052l18.69-1.66c1.284-0.115,2.525,0.323,3.405,1.203
		s1.318,2.12,1.203,3.406L46.25,32.083c-0.11,1.25-0.634,2.012-1.053,2.431c-1.136,1.137-3.168,1.403-4.857-0.285l-6.462-6.463
		L15.673,45.972c-1.364,1.364-3.585,1.364-4.949,0c-1.365-1.365-1.365-3.586-0.001-4.95l18.206-18.205l-6.463-6.463
		C20.779,14.666,21.044,12.633,22.181,11.497z M43.783,33.1c0.185-0.185,0.417-0.541,0.476-1.193l1.661-18.689
		c0.063-0.693-0.165-1.354-0.625-1.814c-0.459-0.459-1.12-0.687-1.814-0.625l-18.69,1.659c-0.653,0.06-1.011,0.29-1.195,0.475
		c-0.402,0.401-0.567,1.175,0.286,2.028l7.876,7.877L12.138,42.436c-0.585,0.585-0.585,1.537,0,2.122s1.536,0.585,2.121,0
		l19.619-19.62l7.876,7.877C42.61,33.669,43.381,33.502,43.783,33.1z"/>
</g>
</svg>
