<?xml version="1.0" encoding="utf-8"?>
<!-- Generator: Adobe Illustrator 15.1.0, SVG Export Plug-In . SVG Version: 6.00 Build 0)  -->
<!DOCTYPE svg PUBLIC "-//W3C//DTD SVG 1.1//EN" "http://www.w3.org/Graphics/SVG/1.1/DTD/svg11.dtd">
<svg version="1.1" id="Layer_1" xmlns="http://www.w3.org/2000/svg" xmlns:xlink="http://www.w3.org/1999/xlink" x="0px" y="0px"
	 width="56.689px" height="56.689px" viewBox="0 0 56.689 56.689" enable-background="new 0 0 56.689 56.689" xml:space="preserve">
<path d="M49.943,39.472l-9.68-8.101c-0.722-0.605-1.414-0.732-1.867-0.732c-1.244,0-2.504,0.953-2.504,2.773v7.491H11.244
	c-0.009,0.002-1.497,0.03-2.446-0.894c-0.566-0.551-0.854-1.373-0.854-2.44v-11c0-0.553-0.446-1-1-1c-0.553,0-1,0.447-1,1v11
	c0,1.64,0.498,2.948,1.479,3.892c1.42,1.367,3.376,1.443,3.781,1.443c0.043,0,0.067-0.001,0.073-0.001h24.614v7.513
	c0,1.819,1.26,2.772,2.504,2.772c0.454,0,1.146-0.126,1.867-0.731l9.68-8.1c0.74-0.619,1.164-1.509,1.164-2.441
	C51.107,40.983,50.683,40.092,49.943,39.472z M48.66,42.823l-9.681,8.101c-0.276,0.23-0.483,0.266-0.584,0.266
	c-0.314,0-0.504-0.289-0.504-0.772V33.412c0-0.484,0.19-0.773,0.504-0.773c0.101,0,0.308,0.035,0.584,0.265l9.681,8.102
	c0.284,0.238,0.446,0.57,0.446,0.91C49.107,42.254,48.945,42.585,48.66,42.823z M16.427,25.319c0.722,0.605,1.414,0.732,1.867,0.732
	c1.245,0,2.503-0.952,2.503-2.773v-7.492l24.654-0.001c0.012,0.003,1.48-0.029,2.43,0.885c0.574,0.553,0.865,1.377,0.865,2.451v11
	c0,0.552,0.446,1,1,1c0.553,0,1-0.448,1-1v-11c0-1.64-0.497-2.949-1.479-3.893c-1.57-1.512-3.796-1.452-3.854-1.442H20.797V6.275
	c0-1.819-1.259-2.772-2.503-2.772c-0.453,0-1.145,0.127-1.867,0.731l-9.68,8.1c-0.74,0.619-1.165,1.51-1.165,2.441
	c0,0.933,0.425,1.823,1.165,2.444L16.427,25.319z M8.03,13.867l9.681-8.101c0.275-0.23,0.483-0.266,0.584-0.266
	c0.314,0,0.503,0.289,0.503,0.772v17.005c0,0.484-0.189,0.773-0.503,0.773c-0.101,0-0.309-0.035-0.584-0.266l-9.68-8.102
	c-0.284-0.238-0.448-0.57-0.448-0.91C7.582,14.436,7.745,14.105,8.03,13.867z"/>
</svg>
