<?xml version="1.0" encoding="utf-8"?>
<!-- Generator: Adobe Illustrator 15.1.0, SVG Export Plug-In . SVG Version: 6.00 Build 0)  -->
<!DOCTYPE svg PUBLIC "-//W3C//DTD SVG 1.1//EN" "http://www.w3.org/Graphics/SVG/1.1/DTD/svg11.dtd">
<svg version="1.1" id="Layer_1" xmlns="http://www.w3.org/2000/svg" xmlns:xlink="http://www.w3.org/1999/xlink" x="0px" y="0px"
	 width="56.689px" height="56.689px" viewBox="0 0 56.689 56.689" enable-background="new 0 0 56.689 56.689" xml:space="preserve">
<path d="M8.014,33.62c1.929,0,3.5-1.57,3.499-3.499v-11c0-0.422,0.075-0.616,0.097-0.646c0.057-0.053,0.227-0.124,0.791-0.188
	h24.562v4.991c0,1.82,1.26,2.771,2.502,2.771c0.454,0,1.146-0.127,1.867-0.73l9.681-8.101c0.739-0.619,1.165-1.51,1.165-2.443
	c0-0.932-0.426-1.823-1.165-2.442l-9.679-8.098c-0.723-0.605-1.415-0.732-1.869-0.732c-1.242,0-2.502,0.952-2.502,2.771v5.012
	l-24.489,0.003l-0.165-0.003c-0.78,0-3.486,0.155-5.551,2.143c-1.022,0.984-2.243,2.772-2.243,5.691v11
	C4.514,32.05,6.084,33.62,8.014,33.62z M6.514,19.12c0-2.216,0.886-3.535,1.631-4.251c1.525-1.47,3.571-1.583,4.163-1.583v-0.002
	h26.654V6.271c0-0.482,0.188-0.771,0.502-0.771c0.101,0,0.31,0.037,0.585,0.268l9.681,8.096c0.285,0.238,0.448,0.569,0.448,0.909
	s-0.163,0.671-0.448,0.909l-9.682,8.103c-0.273,0.231-0.482,0.265-0.583,0.265c-0.313,0-0.502-0.287-0.502-0.771v-6.991H12.349
	L12.166,16.3c-0.438,0.048-1.35,0.144-1.964,0.755c-0.457,0.453-0.688,1.148-0.688,2.065v11c0,0.826-0.674,1.5-1.5,1.5
	c-0.827,0-1.5-0.674-1.5-1.5V19.12z M48.678,23.07c-1.931,0-3.5,1.57-3.5,3.5v11.001c0,0.422-0.077,0.616-0.099,0.647
	c-0.095,0.087-0.487,0.187-0.735,0.187H19.728v-4.991c0-1.819-1.259-2.772-2.502-2.772c-0.453,0-1.144,0.127-1.868,0.732
	l-9.681,8.101c-0.739,0.62-1.164,1.51-1.164,2.441c0,0.933,0.425,1.823,1.165,2.443l9.679,8.1c0.723,0.603,1.415,0.729,1.869,0.729
	c1.243,0,2.502-0.952,2.502-2.771v-5.013l24.543-0.002l0.126,0.002c0.775,0,3.473-0.155,5.537-2.143
	c1.022-0.984,2.244-2.77,2.244-5.691V26.57C52.178,24.64,50.608,23.07,48.678,23.07z M50.178,37.573c0,2.218-0.888,3.535-1.632,4.25
	c-1.525,1.471-3.562,1.584-4.149,1.584H17.728v7.013c0,0.483-0.188,0.771-0.502,0.771c-0.102,0-0.311-0.036-0.586-0.265
	l-9.679-8.099c-0.284-0.239-0.448-0.571-0.448-0.911c0-0.339,0.164-0.67,0.447-0.909l9.681-8.101
	c0.276-0.233,0.484-0.267,0.585-0.267c0.313,0,0.502,0.289,0.502,0.773v6.991h26.616c0.141,0,1.396-0.022,2.145-0.767
	c0.458-0.454,0.689-1.149,0.689-2.067V26.57c0-0.826,0.673-1.5,1.5-1.5c0.826,0,1.5,0.674,1.5,1.5V37.573z"/>
</svg>
