<?xml version="1.0" encoding="utf-8"?>
<!-- Generator: Adobe Illustrator 15.1.0, SVG Export Plug-In . SVG Version: 6.00 Build 0)  -->
<!DOCTYPE svg PUBLIC "-//W3C//DTD SVG 1.1//EN" "http://www.w3.org/Graphics/SVG/1.1/DTD/svg11.dtd">
<svg version="1.1" id="Layer_1" xmlns="http://www.w3.org/2000/svg" xmlns:xlink="http://www.w3.org/1999/xlink" x="0px" y="0px"
	 width="56.689px" height="56.689px" viewBox="0 0 56.689 56.689" enable-background="new 0 0 56.689 56.689" xml:space="preserve">
<path d="M12.06,24.983l-0.002,15.144l0.001,0.063c0.004,0.272,0.033,0.547,0.088,0.815c0.021,0.113,0.055,0.222,0.09,0.328
	l0.045,0.147c0.034,0.123,0.069,0.246,0.122,0.373c0.053,0.124,0.116,0.24,0.181,0.354l0.073,0.137
	c0.049,0.098,0.1,0.193,0.159,0.28c0.167,0.25,0.356,0.481,0.565,0.69c0.207,0.204,0.436,0.392,0.679,0.555
	c0.097,0.063,0.196,0.116,0.297,0.167l0.116,0.063c0.119,0.066,0.237,0.132,0.361,0.183c0.123,0.052,0.25,0.089,0.376,0.124
	l0.153,0.046c0.104,0.034,0.209,0.065,0.311,0.086c0.227,0.045,0.463,0.073,0.71,0.083l15.319,0.006
	c1.201,0,2.331-0.467,3.182-1.318c0.85-0.849,1.318-1.979,1.317-3.182c0-1.201-0.467-2.332-1.317-3.182
	c-0.85-0.851-1.98-1.318-3.182-1.318h-4.282L43.311,19.74c1.755-1.755,1.755-4.609,0-6.364s-4.608-1.755-6.363,0L21.06,29.264
	l-0.001-4.281c0-1.201-0.467-2.331-1.317-3.182c-0.85-0.85-1.98-1.318-3.183-1.318c-1.2-0.001-2.331,0.467-3.182,1.318
	C12.528,22.651,12.06,23.782,12.06,24.983z M16.559,22.484c0.669,0,1.296,0.259,1.768,0.732c0.473,0.472,0.733,1.101,0.732,1.768
	v9.11l19.302-19.302c0.975-0.975,2.561-0.975,3.535,0c0.975,0.975,0.975,2.561,0,3.535L22.594,37.628h9.11
	c0.668,0,1.295,0.26,1.768,0.732s0.732,1.1,0.732,1.768c0,1.338-1.164,2.499-2.5,2.5H16.642l-0.108-0.003
	c-0.153-0.002-0.309-0.016-0.543-0.071l-0.249-0.074c-0.046-0.014-0.092-0.023-0.14-0.044c-0.048-0.02-0.092-0.047-0.136-0.072
	l-0.294-0.157c-0.137-0.091-0.266-0.195-0.381-0.311c-0.112-0.111-0.217-0.241-0.346-0.447l-0.121-0.227
	c-0.027-0.047-0.056-0.093-0.073-0.134c-0.018-0.045-0.029-0.093-0.043-0.14l-0.101-0.332c-0.031-0.16-0.049-0.322-0.049-0.49
	V24.983C14.059,23.646,15.225,22.484,16.559,22.484z"/>
</svg>
