<?xml version="1.0" encoding="utf-8"?>
<!-- Generator: Adobe Illustrator 15.1.0, SVG Export Plug-In . SVG Version: 6.00 Build 0)  -->
<!DOCTYPE svg PUBLIC "-//W3C//DTD SVG 1.1//EN" "http://www.w3.org/Graphics/SVG/1.1/DTD/svg11.dtd">
<svg version="1.1" id="Layer_1" xmlns="http://www.w3.org/2000/svg" xmlns:xlink="http://www.w3.org/1999/xlink" x="0px" y="0px"
	 width="56.689px" height="56.689px" viewBox="0 0 56.689 56.689" enable-background="new 0 0 56.689 56.689" xml:space="preserve">
<path d="M46.69,41.723l-6.478-6.479c0.768-0.097,1.479-0.441,2.037-0.998c0.661-0.662,1.024-1.541,1.023-2.476
	c0-0.938-0.363-1.816-1.022-2.475c-0.661-0.661-1.539-1.026-2.478-1.026l-7.987,0.001c-0.229,0-0.458,0.023-0.68,0.067
	c-0.086,0.016-0.168,0.041-0.327,0.091c-0.111,0.03-0.223,0.063-0.335,0.109c-0.089,0.038-0.176,0.084-0.26,0.132l-0.1,0.053
	c-0.081,0.04-0.16,0.083-0.242,0.137c-0.188,0.126-0.363,0.27-0.457,0.369l-0.146,0.144c-0.131,0.138-0.253,0.291-0.358,0.45
	c-0.051,0.076-0.094,0.154-0.181,0.32c-0.057,0.097-0.109,0.197-0.144,0.285c-0.042,0.102-0.073,0.203-0.127,0.391
	c-0.029,0.088-0.056,0.179-0.073,0.267c-0.045,0.227-0.067,0.457-0.067,0.686v7.984c0.001,1.93,1.568,3.498,3.5,3.498
	c0.936,0,1.814-0.363,2.476-1.025c0.557-0.555,0.902-1.265,0.997-2.035l6.479,6.479c0.661,0.66,1.539,1.024,2.475,1.024
	c0.934,0,1.813-0.362,2.475-1.023s1.025-1.539,1.025-2.476C47.715,43.262,47.351,42.383,46.69,41.723z M45.275,45.258
	c-0.565,0.565-1.555,0.565-2.121,0l-9.864-9.865h-0.003v4.363c0,0.4-0.155,0.775-0.438,1.059s-0.66,0.439-1.064,0.439
	c-0.824,0-1.495-0.672-1.496-1.498v-7.984c0-0.099,0.01-0.196,0.039-0.317l0.213-0.515c0.057-0.084,0.12-0.161,0.185-0.227
	l0.021-0.021c0.064-0.064,0.137-0.121,0.234-0.182l0.513-0.211c0.096-0.02,0.193-0.029,0.305-0.029c0.001,0,0.001,0,0.001,0h7.979
	c0.4,0,0.774,0.154,1.059,0.439c0.282,0.284,0.438,0.659,0.438,1.061s-0.154,0.778-0.438,1.062
	c-0.285,0.282-0.662,0.438-1.063,0.438H35.41l9.864,9.865c0.283,0.284,0.439,0.66,0.439,1.061
	C45.714,44.598,45.558,44.975,45.275,45.258z M28.39,25.055l0.013-0.102l-0.001-8.057c-0.001-0.933-0.364-1.811-1.025-2.474
	c-0.662-0.66-1.541-1.024-2.476-1.024c-1.781,0-3.255,1.338-3.473,3.062l-6.477-6.478c-1.322-1.321-3.629-1.319-4.95,0
	c-0.661,0.661-1.025,1.54-1.025,2.476c0,0.935,0.364,1.813,1.025,2.475l6.479,6.479c-1.725,0.216-3.063,1.69-3.063,3.473
	c0,1.93,1.569,3.5,3.5,3.5h7.984l0.242-0.001l0.021-0.01c0.142-0.013,0.282-0.031,0.426-0.06c0.082-0.016,0.161-0.04,0.239-0.064
	l0.106-0.033c0.105-0.03,0.209-0.062,0.301-0.1c0.095-0.039,0.183-0.087,0.271-0.136l0.108-0.059c0.079-0.04,0.156-0.082,0.228-0.13
	c0.387-0.258,0.713-0.585,0.967-0.966c0.049-0.073,0.09-0.148,0.129-0.225l0.052-0.094c0.052-0.092,0.102-0.186,0.146-0.289
	c0.037-0.092,0.066-0.184,0.091-0.278l0.031-0.103c0.03-0.093,0.058-0.188,0.074-0.273C28.373,25.368,28.391,25.168,28.39,25.055z
	 M26.396,24.916c-0.002,0.088-0.008,0.176-0.036,0.296l-0.211,0.505c-0.108,0.165-0.249,0.304-0.438,0.426l-0.509,0.211
	c-0.099,0.02-0.197,0.029-0.297,0.03l-7.987,0.001c-0.827,0-1.5-0.673-1.5-1.5s0.673-1.5,1.499-1.5v0.001h4.363l-9.864-9.865
	c-0.283-0.284-0.439-0.66-0.439-1.061s0.156-0.777,0.439-1.061c0.564-0.565,1.554-0.566,2.122,0l9.862,9.863v-4.36
	c0-0.827,0.673-1.501,1.5-1.501c0.401,0,0.778,0.156,1.062,0.439c0.283,0.284,0.438,0.661,0.439,1.061l0.001,7.928L26.396,24.916z"
	/>
</svg>
