<?xml version="1.0" encoding="utf-8"?>
<!-- Generator: Adobe Illustrator 15.1.0, SVG Export Plug-In . SVG Version: 6.00 Build 0)  -->
<!DOCTYPE svg PUBLIC "-//W3C//DTD SVG 1.1//EN" "http://www.w3.org/Graphics/SVG/1.1/DTD/svg11.dtd">
<svg version="1.1" id="Layer_1" xmlns="http://www.w3.org/2000/svg" xmlns:xlink="http://www.w3.org/1999/xlink" x="0px" y="0px"
	 width="56.689px" height="56.689px" viewBox="0 0 56.689 56.689" enable-background="new 0 0 56.689 56.689" xml:space="preserve">
<path d="M42.596,9.484l-18.689,1.663c-1.252,0.11-2.014,0.632-2.434,1.052c-1.135,1.135-1.401,3.167,0.288,4.856l8.23,8.23
	L10.687,44.59c-0.392,0.393-0.391,1.023,0,1.414c0.39,0.391,1.022,0.393,1.415,0L31.406,26.7l8.229,8.229
	c1.688,1.688,3.722,1.423,4.856,0.288c0.42-0.42,0.94-1.181,1.053-2.434l1.661-18.691c0.115-1.285-0.324-2.528-1.202-3.406
	C45.123,9.807,43.881,9.369,42.596,9.484z M45.213,13.915l-1.66,18.691c-0.059,0.654-0.29,1.012-0.475,1.196
	c-0.4,0.401-1.174,0.566-2.028-0.287L23.176,15.641c-0.854-0.854-0.688-1.627-0.288-2.028c0.185-0.185,0.543-0.418,1.196-0.475
	l18.688-1.663c0.694-0.063,1.355,0.165,1.815,0.625S45.275,13.22,45.213,13.915z"/>
</svg>
