<?xml version="1.0" encoding="utf-8"?>
<!-- Generator: Adobe Illustrator 15.1.0, SVG Export Plug-In . SVG Version: 6.00 Build 0)  -->
<!DOCTYPE svg PUBLIC "-//W3C//DTD SVG 1.1//EN" "http://www.w3.org/Graphics/SVG/1.1/DTD/svg11.dtd">
<svg version="1.1" id="Layer_1" xmlns="http://www.w3.org/2000/svg" xmlns:xlink="http://www.w3.org/1999/xlink" x="0px" y="0px"
	 width="56.689px" height="56.689px" viewBox="0 0 56.689 56.689" enable-background="new 0 0 56.689 56.689" xml:space="preserve">
<path d="M51.76,25.085L37.37,13.046c-0.963-0.808-1.871-0.977-2.465-0.977c-1.605,0-3.231,1.249-3.231,3.638v11.639H4.373
	c-0.554,0-1,0.448-1,1s0.446,1,1,1h27.301v11.638c0,2.388,1.626,3.638,3.231,3.638c0.593,0,1.5-0.17,2.465-0.977l14.39-12.042
	c0.991-0.827,1.558-2.016,1.558-3.259S52.75,25.913,51.76,25.085z M50.477,30.069l-14.39,12.043
	c-0.504,0.422-0.92,0.511-1.182,0.511c-0.567,0-1.231-0.43-1.231-1.638V15.707c0-1.208,0.664-1.638,1.231-1.638
	c0.262,0,0.679,0.089,1.182,0.511l14.39,12.039c0.534,0.446,0.841,1.075,0.841,1.725S51.011,29.622,50.477,30.069z"/>
</svg>
