<?xml version="1.0" encoding="utf-8"?>
<!-- Generator: Adobe Illustrator 15.1.0, SVG Export Plug-In . SVG Version: 6.00 Build 0)  -->
<!DOCTYPE svg PUBLIC "-//W3C//DTD SVG 1.1//EN" "http://www.w3.org/Graphics/SVG/1.1/DTD/svg11.dtd">
<svg version="1.1" id="Layer_1" xmlns="http://www.w3.org/2000/svg" xmlns:xlink="http://www.w3.org/1999/xlink" x="0px" y="0px"
	 width="56.689px" height="56.689px" viewBox="0 0 56.689 56.689" enable-background="new 0 0 56.689 56.689" xml:space="preserve">
<path d="M16.988,30.675l8.643,8.643c0.18,0.182,0.379,0.346,0.59,0.486c0.08,0.053,0.163,0.098,0.248,0.141l0.091,0.05
	c0.104,0.059,0.208,0.114,0.324,0.164c0.103,0.042,0.211,0.075,0.319,0.104l0.13,0.039c0.084,0.027,0.168,0.052,0.263,0.072
	c0.495,0.098,1,0.1,1.509-0.002c0.084-0.018,0.163-0.041,0.243-0.066l0.113-0.035c0.12-0.03,0.237-0.067,0.354-0.114
	c0.099-0.041,0.191-0.093,0.283-0.144l0.109-0.059c0.09-0.045,0.178-0.094,0.265-0.15c0.18-0.121,0.35-0.255,0.502-0.4l8.73-8.729
	c1.443-1.446,1.443-3.967-0.002-5.412c-1.492-1.491-3.922-1.491-5.412,0l-2.117,2.116V9.693c0-2.109-1.717-3.827-3.827-3.827
	s-3.827,1.718-3.827,3.827V27.38l-2.117-2.117c-0.723-0.723-1.684-1.121-2.706-1.121c-1.021,0-1.982,0.398-2.706,1.121
	c-0.724,0.724-1.121,1.686-1.121,2.707C15.867,28.994,16.265,29.954,16.988,30.675z M20.987,26.677l5.531,5.531V9.693
	c0-1.008,0.819-1.827,1.827-1.827s1.828,0.819,1.828,1.827h0.002v22.515l5.53-5.531c0.713-0.712,1.871-0.712,2.584,0
	c0.689,0.689,0.689,1.894,0.002,2.583l-8.655,8.656c-0.084,0.084-0.177,0.158-0.33,0.252l-0.261,0.141
	c-0.038,0.017-0.077,0.024-0.194,0.058l-0.142,0.045c-0.241,0.049-0.484,0.049-0.753-0.011l-0.306-0.092
	c-0.036-0.014-0.068-0.035-0.178-0.098l-0.14-0.07c-0.103-0.068-0.196-0.146-0.285-0.233l-8.646-8.646
	c-0.688-0.687-0.689-1.892,0.001-2.583C19.115,25.965,20.274,25.965,20.987,26.677z M52.053,50.824H4.637v-0.001V26.908
	c0-0.554,0.447-1,1-1s1,0.446,1,1v21.916h43.416v-22c0-0.554,0.447-1,1-1s1,0.446,1,1V50.824z"/>
</svg>
