<?xml version="1.0" encoding="utf-8"?>
<!-- Generator: Adobe Illustrator 15.1.0, SVG Export Plug-In . SVG Version: 6.00 Build 0)  -->
<!DOCTYPE svg PUBLIC "-//W3C//DTD SVG 1.1//EN" "http://www.w3.org/Graphics/SVG/1.1/DTD/svg11.dtd">
<svg version="1.1" id="Layer_1" xmlns="http://www.w3.org/2000/svg" xmlns:xlink="http://www.w3.org/1999/xlink" x="0px" y="0px"
	 width="56.69px" height="56.69px" viewBox="0 0 56.69 56.69" enable-background="new 0 0 56.69 56.69" xml:space="preserve">
<g>
	<path d="M28.38,54.286l-0.178-0.005c-0.173-0.009-0.346-0.03-0.516-0.065c-0.083-0.016-0.175-0.043-0.266-0.073
		c-0.184-0.052-0.286-0.083-0.387-0.125c-0.091-0.038-0.176-0.083-0.26-0.13l-0.115-0.062c-0.073-0.037-0.146-0.076-0.217-0.122
		c-0.203-0.139-0.381-0.282-0.541-0.442l-5.646-5.646c-0.661-0.663-1.024-1.542-1.024-2.476c0-0.936,0.364-1.814,1.026-2.475
		c1.218-1.215,3.282-1.331,4.619-0.291l-0.001-10.529l-10.53-0.001c0.478,0.612,0.735,1.36,0.735,2.149
		c0,0.935-0.365,1.813-1.026,2.473c-1.322,1.326-3.637,1.316-4.95-0.002l-5.636-5.638c-0.163-0.16-0.315-0.345-0.447-0.543
		c-0.045-0.068-0.084-0.141-0.121-0.214c-0.099-0.176-0.154-0.279-0.199-0.389c-0.037-0.087-0.065-0.182-0.092-0.276l-0.034-0.115
		c-0.028-0.085-0.055-0.17-0.072-0.259c-0.036-0.184-0.059-0.367-0.065-0.551l-0.066-0.283l0.076-0.135
		c0.011-0.134,0.03-0.269,0.057-0.401c0.016-0.085,0.042-0.175,0.071-0.263l0.03-0.098c0.027-0.102,0.058-0.202,0.099-0.3
		c0.04-0.095,0.088-0.185,0.139-0.273l0.049-0.091c0.038-0.076,0.078-0.151,0.126-0.225c0.137-0.202,0.281-0.38,0.442-0.541
		l5.646-5.646c1.325-1.322,3.632-1.32,4.949,0.002c0.661,0.66,1.025,1.54,1.025,2.475c0,0.786-0.258,1.533-0.734,2.144h10.529
		v-10.53c-1.337,1.042-3.404,0.927-4.622-0.291c-1.364-1.364-1.363-3.585,0.001-4.949l5.725-5.722
		c0.142-0.132,0.293-0.252,0.455-0.36c0.068-0.046,0.145-0.088,0.224-0.128l0.105-0.058c0.091-0.051,0.182-0.1,0.279-0.139
		c0.087-0.037,0.185-0.066,0.283-0.094l0.117-0.035c0.079-0.025,0.159-0.05,0.243-0.066c0.464-0.092,0.929-0.091,1.377-0.001
		c0.081,0.017,0.165,0.041,0.248,0.068l0.101,0.029c0.1,0.028,0.199,0.058,0.297,0.098c0.101,0.042,0.186,0.088,0.271,0.136
		l0.092,0.05C30.16,2.896,30.247,2.943,30.329,3c0.16,0.106,0.314,0.235,0.46,0.373l5.708,5.701
		c0.661,0.663,1.024,1.542,1.024,2.475c0,0.936-0.364,1.814-1.025,2.476c-1.216,1.219-3.281,1.333-4.619,0.292v10.528l10.531,0.001
		c-1.065-1.372-0.969-3.361,0.291-4.622c1.323-1.324,3.628-1.321,4.949,0.001l5.735,5.739c0.126,0.137,0.242,0.283,0.346,0.438
		c0.051,0.076,0.091,0.15,0.13,0.228l0.049,0.09c0.054,0.095,0.104,0.189,0.146,0.291c0.038,0.094,0.068,0.191,0.096,0.29
		l0.031,0.105c0.027,0.084,0.053,0.169,0.07,0.258c0.09,0.451,0.09,0.913-0.001,1.367c-0.016,0.083-0.041,0.166-0.067,0.249
		l-0.03,0.101c-0.028,0.103-0.059,0.203-0.099,0.302c-0.04,0.096-0.086,0.182-0.135,0.268l-0.054,0.1
		c-0.042,0.084-0.087,0.166-0.14,0.244c-0.109,0.163-0.239,0.317-0.375,0.462l-0.082,0.09l-5.621,5.62
		c-1.325,1.324-3.634,1.315-4.95-0.001c-1.259-1.26-1.355-3.247-0.291-4.619l-10.53-0.001v10.53c1.336-1.042,3.405-0.929,4.622,0.29
		c0.662,0.663,1.025,1.543,1.024,2.478c0.001,0.933-0.362,1.813-1.025,2.474l-5.639,5.637c-0.158,0.161-0.343,0.313-0.543,0.446
		c-0.064,0.044-0.145,0.087-0.225,0.127c-0.166,0.094-0.27,0.149-0.378,0.194c-0.097,0.04-0.191,0.068-0.286,0.094
		c-0.184,0.059-0.272,0.086-0.365,0.104c-0.202,0.04-0.405,0.063-0.607,0.066L28.38,54.286z M22.733,43.641
		c-0.4,0-0.778,0.156-1.062,0.439c-0.585,0.584-0.585,1.535,0,2.122l5.645,5.646c0.072,0.072,0.152,0.136,0.235,0.192l0.423,0.18
		l0.122,0.039c0.086,0.018,0.184,0.027,0.281,0.027h0.008c0.096,0,0.192-0.01,0.287-0.029l0.529-0.222
		c0.094-0.059,0.171-0.122,0.238-0.19l5.646-5.644c0.283-0.283,0.439-0.659,0.438-1.059c0.001-0.403-0.155-0.779-0.439-1.064
		c-0.565-0.565-1.556-0.564-2.121,0.001l-3.086,3.086v-17.32l17.319,0.001l-3.083,3.083c-0.585,0.585-0.585,1.537-0.001,2.122
		c0.563,0.563,1.552,0.569,2.123,0l5.657-5.664c0.065-0.068,0.125-0.135,0.175-0.21l0.215-0.517
		c0.047-0.215,0.047-0.413,0.008-0.607l-0.217-0.522c-0.051-0.082-0.105-0.151-0.163-0.214l-0.072-0.073l-5.604-5.604
		c-0.568-0.567-1.555-0.568-2.121,0c-0.585,0.584-0.585,1.536-0.001,2.121l3.086,3.086l-17.321-0.001V9.527l3.083,3.082
		c0.568,0.567,1.556,0.567,2.122,0.001c0.283-0.283,0.439-0.66,0.439-1.062c0-0.4-0.156-0.777-0.439-1.062L29.418,4.83
		c-0.069-0.066-0.136-0.125-0.21-0.174L28.689,4.44c-0.233-0.055-0.414-0.047-0.607-0.007l-0.518,0.214
		c-0.101,0.063-0.177,0.126-0.248,0.195l-0.005,0.005l-5.642,5.641c-0.585,0.585-0.585,1.537-0.001,2.121
		c0.566,0.567,1.556,0.565,2.122,0.001l3.086-3.086v17.32H9.557l3.084-3.084c0.284-0.283,0.44-0.659,0.44-1.06
		s-0.156-0.777-0.44-1.062c-0.566-0.567-1.553-0.567-2.121,0l-5.646,5.645c-0.071,0.071-0.134,0.15-0.19,0.233L4.473,28.03
		c-0.026,0.116-0.037,0.216-0.037,0.314v0.009c0,0.096,0.011,0.192,0.029,0.286l0.072,0.232c0.025,0.075,0.044,0.104,0.061,0.132
		l0.09,0.168c0.056,0.088,0.119,0.165,0.189,0.234l5.644,5.645c0.571,0.573,1.561,0.561,2.12,0.001c0.284-0.284,0.44-0.66,0.44-1.06
		c0-0.401-0.156-0.778-0.439-1.063l-3.086-3.086l17.32,0.001l0.001,17.319l-3.084-3.084C23.51,43.797,23.133,43.641,22.733,43.641z"
		/>
</g>
</svg>
