<?xml version="1.0" encoding="utf-8"?>
<!-- Generator: Adobe Illustrator 15.1.0, SVG Export Plug-In . SVG Version: 6.00 Build 0)  -->
<!DOCTYPE svg PUBLIC "-//W3C//DTD SVG 1.1//EN" "http://www.w3.org/Graphics/SVG/1.1/DTD/svg11.dtd">
<svg version="1.1" id="Layer_1" xmlns="http://www.w3.org/2000/svg" xmlns:xlink="http://www.w3.org/1999/xlink" x="0px" y="0px"
	 width="56.69px" height="56.69px" viewBox="0 0 56.69 56.69" enable-background="new 0 0 56.69 56.69" xml:space="preserve">
<g>
	<path d="M35.379,44.621c-1.606,0-3.232-1.25-3.232-3.637v-9.139H6.4c-1.93,0-3.5-1.57-3.5-3.5c0-1.93,1.57-3.5,3.5-3.5h25.746
		v-9.139c0-2.388,1.626-3.637,3.232-3.637c0.593,0,1.501,0.169,2.464,0.976l14.39,12.039c0.99,0.828,1.558,2.016,1.558,3.259
		s-0.567,2.432-1.558,3.26l-14.39,12.041C36.879,44.451,35.971,44.621,35.379,44.621z M6.4,26.845c-0.827,0-1.5,0.673-1.5,1.5
		c0,0.827,0.673,1.5,1.5,1.5h27.746v11.139c0,1.207,0.664,1.637,1.232,1.637c0.261,0,0.677-0.09,1.181-0.51l14.39-12.043
		c0.534-0.447,0.841-1.076,0.841-1.725s-0.307-1.278-0.841-1.725L36.56,14.579c-0.503-0.421-0.92-0.509-1.181-0.509
		c-0.568,0-1.232,0.429-1.232,1.637v11.139H6.4z"/>
</g>
</svg>
