<?xml version="1.0" encoding="utf-8"?>
<!-- Generator: Adobe Illustrator 15.1.0, SVG Export Plug-In . SVG Version: 6.00 Build 0)  -->
<!DOCTYPE svg PUBLIC "-//W3C//DTD SVG 1.1//EN" "http://www.w3.org/Graphics/SVG/1.1/DTD/svg11.dtd">
<svg version="1.1" id="Layer_1" xmlns="http://www.w3.org/2000/svg" xmlns:xlink="http://www.w3.org/1999/xlink" x="0px" y="0px"
	 width="56.69px" height="56.69px" viewBox="0 0 56.69 56.69" enable-background="new 0 0 56.69 56.69" xml:space="preserve">
<g>
	<path d="M28.346,54.304c-12.171,0-22.072-9.9-22.072-22.07c0-1.581,0.169-3.16,0.501-4.694c0.4-1.841,2.301-3.08,4.161-2.679
		c0.916,0.199,1.697,0.741,2.203,1.527s0.676,1.723,0.478,2.636c-0.228,1.048-0.343,2.128-0.343,3.21
		c0,8.31,6.762,15.07,15.072,15.07s15.071-6.761,15.071-15.07c0-7.975-6.226-14.523-14.071-15.039l-0.001,4.969
		c0,1.82-1.259,2.773-2.502,2.773c-0.453,0-1.145-0.127-1.867-0.732l-9.68-8.101c-0.74-0.62-1.165-1.511-1.165-2.443
		c0-0.934,0.425-1.824,1.165-2.443l9.68-8.099c0.723-0.604,1.414-0.731,1.867-0.731c1.243,0,2.502,0.952,2.502,2.773v5.023
		c11.709,0.524,21.072,10.215,21.072,22.05C50.417,44.403,40.516,54.304,28.346,54.304z M10.193,26.781
		c-0.711,0-1.313,0.486-1.464,1.182c-0.303,1.395-0.456,2.832-0.456,4.271c0,11.066,9.004,20.07,20.072,20.07
		c11.067,0,20.071-9.004,20.071-20.07c0-11.067-9.004-20.072-20.071-20.072h-1L27.345,5.16c0-0.484-0.188-0.773-0.502-0.773
		c-0.1,0-0.308,0.034-0.584,0.266l-9.68,8.099c-0.285,0.238-0.448,0.569-0.448,0.909s0.163,0.671,0.448,0.91l9.68,8.1
		c0.276,0.231,0.484,0.267,0.584,0.267c0.314,0,0.502-0.289,0.502-0.773v-7.002h1c9.414,0,17.072,7.659,17.072,17.072
		s-7.658,17.07-17.071,17.07c-9.414,0-17.072-7.657-17.072-17.07c0-1.225,0.131-2.447,0.388-3.634
		c0.085-0.392,0.013-0.793-0.204-1.13s-0.552-0.569-0.943-0.654C10.409,26.793,10.301,26.781,10.193,26.781z"/>
</g>
</svg>
