<?xml version="1.0" encoding="utf-8"?>
<!-- Generator: Adobe Illustrator 15.1.0, SVG Export Plug-In . SVG Version: 6.00 Build 0)  -->
<!DOCTYPE svg PUBLIC "-//W3C//DTD SVG 1.1//EN" "http://www.w3.org/Graphics/SVG/1.1/DTD/svg11.dtd">
<svg version="1.1" id="Layer_1" xmlns="http://www.w3.org/2000/svg" xmlns:xlink="http://www.w3.org/1999/xlink" x="0px" y="0px"
	 width="56.689px" height="56.689px" viewBox="0 0 56.689 56.689" enable-background="new 0 0 56.689 56.689" xml:space="preserve">
<path d="M6.944,31.12c0.554,0,1-0.448,1.002-1v-11c0-1.067,0.288-1.889,0.854-2.44c0.951-0.925,2.438-0.896,2.479-0.894h24.613
	v7.491c0,1.82,1.26,2.773,2.504,2.773c0.454,0,1.146-0.127,1.867-0.732l9.68-8.101c0.74-0.619,1.164-1.51,1.164-2.443
	c0-0.933-0.424-1.823-1.164-2.442l-9.68-8.099c-0.722-0.604-1.414-0.731-1.867-0.731c-1.244,0-2.504,0.952-2.504,2.772v7.512
	l-24.575,0.001c-0.089-0.007-2.322-0.071-3.894,1.441c-0.982,0.944-1.479,2.253-1.479,3.892v11
	C5.944,30.672,6.391,31.12,6.944,31.12z M38.396,5.501c0.101,0,0.308,0.035,0.584,0.264l9.681,8.099
	c0.284,0.239,0.446,0.57,0.446,0.909c0,0.34-0.162,0.672-0.446,0.91l-9.681,8.102c-0.276,0.23-0.483,0.266-0.584,0.266
	c-0.314,0-0.504-0.289-0.504-0.773v-8.48c0-0.003,0.002-0.006,0.002-0.01s-0.002-0.006-0.002-0.01V6.274
	C37.892,5.79,38.082,5.501,38.396,5.501z M49.746,25.57c-0.554,0-1,0.448-1,1v11c0,1.067-0.288,1.889-0.854,2.44
	c-0.951,0.925-2.438,0.894-2.479,0.894H20.797v-7.491c0-1.82-1.259-2.773-2.503-2.773c-0.453,0-1.145,0.127-1.867,0.732l-9.68,8.102
	c-0.74,0.619-1.165,1.509-1.165,2.443c0,0.932,0.425,1.822,1.165,2.441l9.68,8.1c0.722,0.604,1.414,0.731,1.867,0.731
	c1.245,0,2.503-0.953,2.503-2.772v-7.513l24.578-0.001c0.008,0.001,0.039,0.001,0.088,0.001c0.442,0,2.391-0.08,3.804-1.442
	c0.983-0.944,1.479-2.252,1.479-3.892v-11C50.746,26.018,50.299,25.57,49.746,25.57z M18.797,50.418
	c0,0.483-0.189,0.772-0.503,0.772c-0.101,0-0.309-0.036-0.584-0.267L8.03,42.825c-0.284-0.238-0.447-0.569-0.447-0.908
	c0-0.34,0.163-0.672,0.447-0.91l9.681-8.103c0.275-0.23,0.483-0.266,0.584-0.266c0.314,0,0.503,0.289,0.503,0.773V50.418z"/>
</svg>
