<?xml version="1.0" encoding="utf-8"?>
<!-- Generator: Adobe Illustrator 15.1.0, SVG Export Plug-In . SVG Version: 6.00 Build 0)  -->
<!DOCTYPE svg PUBLIC "-//W3C//DTD SVG 1.1//EN" "http://www.w3.org/Graphics/SVG/1.1/DTD/svg11.dtd">
<svg version="1.1" id="Layer_1" xmlns="http://www.w3.org/2000/svg" xmlns:xlink="http://www.w3.org/1999/xlink" x="0px" y="0px"
	 width="56.69px" height="56.69px" viewBox="0 0 56.69 56.69" enable-background="new 0 0 56.69 56.69" xml:space="preserve">
<g>
	<path d="M34.303,43.554c-1.202,0-2.332-0.468-3.182-1.318c-0.85-0.85-1.318-1.979-1.318-3.182s0.469-2.332,1.318-3.182l3.027-3.027
		h-22.47c-2.481,0-4.5-2.019-4.5-4.5s2.019-4.5,4.5-4.5h22.469l-3.026-3.026c-0.851-0.85-1.318-1.98-1.318-3.182
		c0-1.202,0.468-2.333,1.318-3.182c0.849-0.85,1.979-1.318,3.181-1.318s2.332,0.468,3.183,1.317l10.751,10.751
		c0.19,0.196,0.365,0.413,0.519,0.643c0.063,0.092,0.119,0.197,0.172,0.303l0.066,0.125c0.065,0.113,0.127,0.228,0.177,0.35
		c0.051,0.121,0.089,0.25,0.124,0.379l0.042,0.14c0.036,0.106,0.069,0.214,0.091,0.326c0.057,0.286,0.086,0.582,0.086,0.874
		c0,0.294-0.029,0.59-0.088,0.881c-0.024,0.121-0.059,0.229-0.095,0.338l-0.03,0.1c-0.037,0.139-0.077,0.276-0.134,0.411
		c-0.046,0.113-0.112,0.235-0.182,0.355l-0.064,0.12c-0.051,0.101-0.104,0.2-0.168,0.295c-0.081,0.123-0.171,0.244-0.269,0.361
		v0.033L37.484,42.235C36.637,43.085,35.507,43.554,34.303,43.554z M11.678,25.845c-1.378,0-2.5,1.122-2.5,2.5
		c0,1.379,1.122,2.5,2.5,2.5h27.298l-6.441,6.441c-0.473,0.473-0.732,1.1-0.732,1.768s0.26,1.295,0.732,1.768
		c0.947,0.946,2.595,0.943,3.534,0.001L46.841,30.05c0.063-0.067,0.162-0.187,0.248-0.316l0.159-0.298
		c0.024-0.041,0.051-0.081,0.068-0.126c0.027-0.064,0.038-0.115,0.052-0.165l0.063-0.212c0.012-0.035,0.025-0.069,0.032-0.105
		c0.031-0.156,0.048-0.319,0.048-0.479c0-0.165-0.017-0.33-0.049-0.494l-0.099-0.32c-0.013-0.048-0.023-0.097-0.043-0.144
		s-0.044-0.084-0.066-0.123l-0.119-0.223c-0.096-0.157-0.176-0.266-0.254-0.358l-0.035-0.017l-0.103-0.128L36.07,15.869
		c-0.945-0.943-2.593-0.944-3.534,0c-0.474,0.473-0.733,1.101-0.733,1.769c0,0.667,0.26,1.295,0.732,1.768l6.442,6.44H11.678z"/>
</g>
</svg>
