<?xml version="1.0" encoding="utf-8"?>
<!-- Generator: Adobe Illustrator 15.1.0, SVG Export Plug-In . SVG Version: 6.00 Build 0)  -->
<!DOCTYPE svg PUBLIC "-//W3C//DTD SVG 1.1//EN" "http://www.w3.org/Graphics/SVG/1.1/DTD/svg11.dtd">
<svg version="1.1" id="Layer_1" xmlns="http://www.w3.org/2000/svg" xmlns:xlink="http://www.w3.org/1999/xlink" x="0px" y="0px"
	 width="56.689px" height="56.689px" viewBox="0 0 56.689 56.689" enable-background="new 0 0 56.689 56.689" xml:space="preserve">
<path d="M46.691,33.755c-0.661-0.662-1.54-1.026-2.478-1.026c-1.781,0-3.255,1.338-3.471,3.063l-6.479-6.479
	c-0.559-0.558-1.294-0.865-2.054-0.952c0.774-0.092,1.494-0.423,2.054-0.982l6.478-6.478c0.218,1.725,1.691,3.062,3.473,3.062
	c0.934,0,1.813-0.364,2.477-1.026c0.659-0.661,1.023-1.539,1.024-2.474l-0.005-8.068c-0.006-0.201-0.024-0.4-0.063-0.589
	c-0.017-0.097-0.046-0.191-0.076-0.284l-0.03-0.103c-0.026-0.095-0.055-0.187-0.095-0.284c-0.041-0.098-0.091-0.19-0.143-0.282
	l-0.051-0.094c-0.039-0.076-0.08-0.152-0.127-0.221c-0.256-0.385-0.582-0.711-0.964-0.967c-0.076-0.051-0.153-0.094-0.232-0.134
	l-0.108-0.059c-0.088-0.049-0.176-0.097-0.261-0.131c-0.101-0.043-0.206-0.075-0.31-0.104l-0.108-0.032
	c-0.078-0.024-0.157-0.049-0.246-0.066c-0.14-0.027-0.281-0.046-0.423-0.058l-0.259-0.011l-0.105,0.001l-7.88-0.001
	c-1.93,0-3.5,1.57-3.5,3.5c0,1.782,1.338,3.258,3.063,3.473l-6.479,6.479c-0.521,0.521-0.848,1.179-0.967,1.891
	c-0.117-0.693-0.435-1.358-0.968-1.892L20.9,15.95c1.725-0.219,3.062-1.692,3.062-3.474c0-0.935-0.364-1.813-1.026-2.477
	c-0.661-0.659-1.539-1.023-2.474-1.024l-8.068,0.005c-0.2,0.006-0.4,0.024-0.589,0.062c-0.095,0.018-0.19,0.046-0.283,0.077
	l-0.103,0.03c-0.094,0.026-0.187,0.054-0.284,0.095c-0.097,0.042-0.19,0.091-0.282,0.143l-0.094,0.051
	c-0.077,0.039-0.153,0.08-0.221,0.126c-0.387,0.256-0.712,0.582-0.968,0.964c-0.052,0.076-0.094,0.154-0.134,0.232l-0.059,0.109
	c-0.049,0.087-0.097,0.176-0.131,0.26c-0.043,0.102-0.075,0.206-0.104,0.311L9.11,11.548c-0.024,0.079-0.048,0.157-0.065,0.246
	c-0.028,0.14-0.047,0.281-0.059,0.422l-0.011,0.021l0.001,0.342l-0.001,7.882c0,1.93,1.57,3.5,3.5,3.5
	c1.783,0,3.257-1.338,3.473-3.063l6.479,6.479c0.561,0.56,1.279,0.89,2.053,0.983c-0.76,0.087-1.494,0.395-2.052,0.952l-6.479,6.479
	c-0.096-0.769-0.44-1.479-0.997-2.035c-0.661-0.661-1.54-1.025-2.479-1.025c-1.926,0-3.495,1.569-3.496,3.499v7.984
	c0,0.228,0.023,0.459,0.066,0.678c0.018,0.093,0.045,0.182,0.1,0.354c0.029,0.103,0.061,0.205,0.095,0.289
	c0.041,0.105,0.094,0.204,0.196,0.39c0.04,0.081,0.083,0.159,0.13,0.228c0.111,0.167,0.235,0.323,0.369,0.466l0.055,0.057
	c0.006,0.004,0.01,0.009,0.015,0.013l0.006,0.006c0.159,0.16,0.335,0.304,0.528,0.434c0.075,0.051,0.154,0.093,0.235,0.134
	l0.101,0.053c0.084,0.048,0.171,0.096,0.264,0.133c0.108,0.046,0.219,0.078,0.408,0.132c0.082,0.026,0.164,0.051,0.244,0.066
	c0.226,0.045,0.456,0.068,0.696,0.068h0.001l7.979,0.001c0.934,0,1.813-0.364,2.469-1.023c0.662-0.661,1.026-1.539,1.026-2.475
	c0.001-0.936-0.363-1.815-1.024-2.477c-0.558-0.557-1.268-0.902-2.037-0.997l6.479-6.479c0.524-0.524,0.852-1.187,0.969-1.903
	c0.115,0.696,0.432,1.366,0.968,1.902l6.479,6.479c-1.724,0.216-3.062,1.691-3.062,3.472c-0.001,0.934,0.361,1.813,1.023,2.475
	s1.54,1.025,2.476,1.026h7.984c0.228,0,0.459-0.024,0.679-0.067c0.093-0.018,0.183-0.045,0.354-0.1
	c0.103-0.029,0.205-0.061,0.289-0.095c0.105-0.041,0.205-0.094,0.39-0.196c0.081-0.04,0.159-0.083,0.228-0.13
	c0.167-0.111,0.323-0.235,0.466-0.369l0.057-0.055c0.004-0.006,0.009-0.01,0.013-0.015l0.006-0.006
	c0.16-0.159,0.304-0.335,0.434-0.528c0.051-0.075,0.093-0.154,0.134-0.235l0.053-0.101c0.048-0.084,0.096-0.171,0.133-0.264
	c0.046-0.108,0.078-0.219,0.132-0.408c0.026-0.082,0.051-0.164,0.066-0.244c0.047-0.232,0.069-0.469,0.068-0.697l0.001-7.975
	C47.716,35.293,47.352,34.413,46.691,33.755z M30.727,23.842l9.865-9.865h-4.364c-0.826,0-1.499-0.673-1.499-1.5s0.673-1.5,1.5-1.5
	h7.986c0.1,0.001,0.201,0.012,0.309,0.036l0.522,0.217c0.167,0.111,0.307,0.25,0.423,0.434l0.216,0.52
	c0.017,0.087,0.022,0.176,0.025,0.287l0.004,0.061l-0.001,7.93c0,0.4-0.157,0.778-0.438,1.061c-0.286,0.284-0.663,0.44-1.063,0.44
	c-0.827,0-1.5-0.673-1.5-1.501V16.1l-9.863,9.863c-0.566,0.566-1.557,0.565-2.122,0c-0.283-0.283-0.438-0.66-0.438-1.061
	S30.444,24.126,30.727,23.842z M13.977,16.098L13.977,16.098l-0.001,4.364c0,0.827-0.673,1.499-1.5,1.499s-1.5-0.673-1.5-1.5
	l0.001-7.985c0.001-0.101,0.011-0.2,0.036-0.309l0.217-0.523c0.111-0.166,0.25-0.306,0.434-0.423l0.52-0.215
	c0.088-0.018,0.176-0.023,0.287-0.026l0.06-0.004l7.931,0.001c0.4,0.001,0.778,0.157,1.061,0.439c0.284,0.284,0.44,0.662,0.44,1.062
	c0,0.827-0.673,1.5-1.501,1.5H16.1l9.863,9.862c0.585,0.585,0.585,1.538,0,2.123c-0.566,0.566-1.555,0.565-2.121,0L13.977,16.098z
	 M25.962,32.849l-9.865,9.865h4.363c0.4,0,0.777,0.156,1.062,0.438c0.283,0.284,0.438,0.661,0.438,1.062
	c0,0.402-0.156,0.778-0.441,1.062c-0.282,0.283-0.656,0.438-1.055,0.438H20.46l-7.988-0.001c-0.098,0-0.195-0.01-0.297-0.033
	l-0.53-0.217c-0.059-0.04-0.117-0.084-0.199-0.158l-0.033-0.035c-0.065-0.064-0.127-0.141-0.19-0.241l-0.217-0.522
	c-0.02-0.097-0.029-0.194-0.029-0.293V36.23c0.001-0.827,0.672-1.5,1.5-1.5c0.402,0,0.779,0.155,1.063,0.439
	c0.282,0.284,0.438,0.66,0.438,1.061v4.361l9.865-9.864c0.566-0.565,1.555-0.565,2.121,0c0.283,0.284,0.438,0.66,0.438,1.062
	C26.401,32.189,26.245,32.566,25.962,32.849z M28.346,31.216c-0.117-0.718-0.445-1.38-0.969-1.903
	c-0.558-0.558-1.292-0.865-2.053-0.952c0.775-0.093,1.494-0.424,2.053-0.983c0.534-0.534,0.852-1.198,0.968-1.891
	c0.119,0.712,0.447,1.371,0.968,1.891c0.561,0.56,1.28,0.891,2.055,0.983c-0.761,0.086-1.496,0.395-2.054,0.952
	C28.778,29.849,28.46,30.519,28.346,31.216z M45.711,44.211c0.001,0.099-0.01,0.2-0.033,0.305l-0.217,0.53
	c-0.04,0.059-0.084,0.117-0.158,0.199l-0.033,0.032c-0.064,0.065-0.141,0.127-0.241,0.19l-0.522,0.217
	c-0.097,0.02-0.194,0.029-0.293,0.029H36.23c-0.401,0-0.778-0.156-1.062-0.44s-0.439-0.66-0.438-1.06
	c0-0.402,0.156-0.778,0.439-1.062c0.283-0.282,0.66-0.438,1.061-0.438v0.002h4.361l-9.864-9.865
	c-0.283-0.284-0.438-0.66-0.438-1.061c0-0.401,0.155-0.778,0.438-1.062c0.566-0.565,1.556-0.565,2.121,0l9.865,9.865v-4.363
	c0-0.4,0.156-0.777,0.438-1.061c0.566-0.568,1.555-0.568,2.122,0.002c0.283,0.282,0.439,0.658,0.438,1.059L45.711,44.211z"/>
</svg>
