<?xml version="1.0" encoding="utf-8"?>
<!-- Generator: Adobe Illustrator 15.1.0, SVG Export Plug-In . SVG Version: 6.00 Build 0)  -->
<!DOCTYPE svg PUBLIC "-//W3C//DTD SVG 1.1//EN" "http://www.w3.org/Graphics/SVG/1.1/DTD/svg11.dtd">
<svg version="1.1" id="Layer_1" xmlns="http://www.w3.org/2000/svg" xmlns:xlink="http://www.w3.org/1999/xlink" x="0px" y="0px"
	 width="56.689px" height="56.689px" viewBox="0 0 56.689 56.689" enable-background="new 0 0 56.689 56.689" xml:space="preserve">
<path d="M31.606,51.759l12.039-14.391c0.808-0.963,0.977-1.871,0.977-2.465c0-1.605-1.249-3.23-3.638-3.23h-11.64V4.372
	c0-0.555-0.447-1-1-1c-0.552,0-1,0.445-1,1v27.301H15.706c-2.388,0-3.638,1.625-3.638,3.23c0,0.594,0.17,1.5,0.977,2.465
	l12.042,14.391c0.827,0.99,2.017,1.559,3.259,1.559C29.589,53.318,30.778,52.749,31.606,51.759z M26.621,50.476L14.578,36.085
	c-0.422-0.504-0.511-0.92-0.511-1.182c0-0.566,0.43-1.23,1.638-1.23h25.278c1.208,0,1.638,0.664,1.638,1.23
	c0,0.262-0.089,0.68-0.511,1.182L30.072,50.476c-0.446,0.535-1.075,0.842-1.726,0.842C27.697,51.318,27.069,51.011,26.621,50.476z"
	/>
</svg>
