<?xml version="1.0" encoding="utf-8"?>
<!-- Generator: Adobe Illustrator 15.1.0, SVG Export Plug-In . SVG Version: 6.00 Build 0)  -->
<!DOCTYPE svg PUBLIC "-//W3C//DTD SVG 1.1//EN" "http://www.w3.org/Graphics/SVG/1.1/DTD/svg11.dtd">
<svg version="1.1" id="Layer_1" xmlns="http://www.w3.org/2000/svg" xmlns:xlink="http://www.w3.org/1999/xlink" x="0px" y="0px"
	 width="56.689px" height="56.689px" viewBox="0 0 56.689 56.689" enable-background="new 0 0 56.689 56.689" xml:space="preserve">
<path d="M49.637,4.638v47.415H25.721c-0.553,0-1-0.447-1-1s0.447-1,1-1h21.916V6.638h-22c-0.553,0-1-0.448-1-1c0-0.553,0.447-1,1-1
	H49.637z M24.993,29.346H8.053c-0.553,0-1-0.447-1-1s0.447-1,1-1h16.94v-7.501c0-1.219,0.778-1.773,1.503-1.773
	c0.287,0,0.732,0.088,1.226,0.499l9.679,8.099c0.515,0.429,0.808,1.039,0.808,1.676s-0.293,1.247-0.808,1.676l-9.679,8.103
	c-0.493,0.41-0.938,0.496-1.226,0.496c-0.725,0-1.503-0.556-1.503-1.772V29.346z M26.993,36.115l9.125-7.629
	c0.057-0.048,0.09-0.1,0.09-0.143s-0.033-0.095-0.09-0.143L27,20.573L26.993,36.115z"/>
</svg>
