<?xml version="1.0" encoding="utf-8"?>
<!-- Generator: Adobe Illustrator 15.1.0, SVG Export Plug-In . SVG Version: 6.00 Build 0)  -->
<!DOCTYPE svg PUBLIC "-//W3C//DTD SVG 1.1//EN" "http://www.w3.org/Graphics/SVG/1.1/DTD/svg11.dtd">
<svg version="1.1" id="Layer_1" xmlns="http://www.w3.org/2000/svg" xmlns:xlink="http://www.w3.org/1999/xlink" x="0px" y="0px"
	 width="56.689px" height="56.689px" viewBox="0 0 56.689 56.689" enable-background="new 0 0 56.689 56.689" xml:space="preserve">
<path d="M47.206,42.599l-1.662-18.689c-0.111-1.252-0.633-2.014-1.053-2.434c-1.135-1.135-3.168-1.4-4.857,0.288l-8.23,8.23
	L12.099,10.69c-0.393-0.392-1.023-0.391-1.414,0s-0.393,1.022,0,1.415L29.99,31.409l-8.229,8.229
	c-1.688,1.688-1.423,3.722-0.288,4.856c0.42,0.42,1.181,0.94,2.434,1.053l18.691,1.661c1.285,0.115,2.527-0.324,3.406-1.202
	C46.882,45.126,47.322,43.884,47.206,42.599z M42.775,45.216l-18.692-1.66c-0.654-0.059-1.012-0.29-1.196-0.475
	c-0.401-0.4-0.566-1.174,0.287-2.028l17.875-17.875c0.855-0.854,1.629-0.688,2.029-0.287c0.184,0.185,0.418,0.543,0.475,1.196
	l1.662,18.688c0.063,0.694-0.166,1.355-0.625,1.815S43.47,45.278,42.775,45.216z"/>
</svg>
