<?xml version="1.0" encoding="utf-8"?>
<!-- Generator: Adobe Illustrator 15.1.0, SVG Export Plug-In . SVG Version: 6.00 Build 0)  -->
<!DOCTYPE svg PUBLIC "-//W3C//DTD SVG 1.1//EN" "http://www.w3.org/Graphics/SVG/1.1/DTD/svg11.dtd">
<svg version="1.1" id="Layer_1" xmlns="http://www.w3.org/2000/svg" xmlns:xlink="http://www.w3.org/1999/xlink" x="0px" y="0px"
	 width="56.689px" height="56.689px" viewBox="0 0 56.689 56.689" enable-background="new 0 0 56.689 56.689" xml:space="preserve">
<path d="M14.094,47.209l18.689-1.662c1.252-0.111,2.014-0.633,2.434-1.053c1.135-1.135,1.4-3.168-0.288-4.857l-8.23-8.23
	l19.304-19.304c0.392-0.393,0.391-1.023,0-1.414s-1.022-0.393-1.415,0L25.283,29.992l-8.229-8.229
	c-1.688-1.688-3.722-1.423-4.856-0.288c-0.42,0.42-0.94,1.181-1.053,2.434L9.484,42.6c-0.115,1.285,0.324,2.527,1.202,3.406
	C11.566,46.885,12.808,47.324,14.094,47.209z M11.476,42.778l1.66-18.692c0.059-0.654,0.29-1.012,0.475-1.196
	c0.4-0.401,1.174-0.566,2.028,0.287l17.875,17.875c0.854,0.855,0.688,1.629,0.287,2.029c-0.185,0.184-0.543,0.418-1.196,0.475
	l-18.688,1.662c-0.694,0.063-1.355-0.166-1.815-0.625S11.415,43.473,11.476,42.778z"/>
</svg>
