<?xml version="1.0" encoding="utf-8"?>
<!-- Generator: Adobe Illustrator 15.1.0, SVG Export Plug-In . SVG Version: 6.00 Build 0)  -->
<!DOCTYPE svg PUBLIC "-//W3C//DTD SVG 1.1//EN" "http://www.w3.org/Graphics/SVG/1.1/DTD/svg11.dtd">
<svg version="1.1" id="Layer_1" xmlns="http://www.w3.org/2000/svg" xmlns:xlink="http://www.w3.org/1999/xlink" x="0px" y="0px"
	 width="56.689px" height="56.689px" viewBox="0 0 56.689 56.689" enable-background="new 0 0 56.689 56.689" xml:space="preserve">
<g>
	<path d="M46.2,10.492c1.365,1.364,1.365,3.585,0,4.95L21.417,40.227l16.524-0.001c1.871,0,3.5,1.63,3.5,3.5
		c0.001,1.929-1.569,3.499-3.5,3.5l-24.974,0.001c-0.226,0-0.458-0.023-0.687-0.068c-0.086-0.017-0.169-0.042-0.252-0.07l-0.1-0.03
		c-0.104-0.028-0.205-0.059-0.304-0.099c-0.097-0.04-0.187-0.09-0.276-0.14l-0.099-0.053c-0.072-0.037-0.144-0.075-0.214-0.12
		c-0.414-0.279-0.724-0.599-0.977-0.972c-0.058-0.087-0.099-0.163-0.138-0.241L9.871,45.34c-0.052-0.092-0.101-0.182-0.14-0.279
		c-0.041-0.096-0.073-0.205-0.104-0.314c-0.052-0.166-0.076-0.247-0.095-0.332c-0.045-0.233-0.068-0.47-0.067-0.701v-24.96
		c0-0.935,0.364-1.814,1.025-2.476s1.539-1.024,2.476-1.025c1.869-0.001,3.499,1.629,3.499,3.5l0.002,16.525l24.784-24.785
		C42.615,9.128,44.837,9.128,46.2,10.492z M16.588,42.227l28.199-28.199c0.584-0.585,0.584-1.536,0-2.121
		c-0.585-0.585-1.537-0.585-2.121,0L14.468,40.105V18.75c0-0.801-0.7-1.5-1.5-1.5c-0.4,0-0.777,0.156-1.061,0.439
		c-0.284,0.284-0.439,0.66-0.44,1.062l0.001,24.965c-0.001,0.106,0.01,0.209,0.03,0.309l0.209,0.505
		c0.133,0.216,0.267,0.335,0.434,0.448l0.515,0.212c0.115,0.027,0.214,0.038,0.312,0.037l24.974-0.001
		c0.827-0.001,1.5-0.674,1.5-1.5c0-0.798-0.697-1.5-1.5-1.5L16.588,42.227z"/>
</g>
</svg>
