<?xml version="1.0" encoding="utf-8"?>
<!-- Generator: Adobe Illustrator 15.1.0, SVG Export Plug-In . SVG Version: 6.00 Build 0)  -->
<!DOCTYPE svg PUBLIC "-//W3C//DTD SVG 1.1//EN" "http://www.w3.org/Graphics/SVG/1.1/DTD/svg11.dtd">
<svg version="1.1" id="Layer_1" xmlns="http://www.w3.org/2000/svg" xmlns:xlink="http://www.w3.org/1999/xlink" x="0px" y="0px"
	 width="56.689px" height="56.689px" viewBox="0 0 56.689 56.689" enable-background="new 0 0 56.689 56.689" xml:space="preserve">
<path d="M30.676,39.703l8.643-8.643c0.182-0.18,0.346-0.379,0.486-0.59c0.053-0.08,0.098-0.163,0.141-0.248l0.05-0.091
	c0.059-0.104,0.114-0.208,0.164-0.324c0.042-0.103,0.075-0.211,0.104-0.319l0.039-0.13c0.027-0.084,0.052-0.168,0.072-0.263
	c0.098-0.495,0.1-1-0.002-1.509c-0.018-0.084-0.041-0.163-0.066-0.243l-0.035-0.113c-0.03-0.12-0.067-0.237-0.114-0.354
	c-0.041-0.099-0.093-0.191-0.144-0.283l-0.059-0.109c-0.045-0.09-0.094-0.178-0.15-0.265c-0.121-0.181-0.255-0.35-0.4-0.503
	l-8.729-8.729c-1.446-1.444-3.967-1.443-5.412,0.001c-1.491,1.492-1.491,3.922,0,5.413l2.116,2.116H9.694
	c-2.109,0-3.827,1.717-3.827,3.828c0,2.11,1.718,3.827,3.827,3.827h17.688l-2.117,2.117c-0.723,0.723-1.121,1.684-1.121,2.706
	c0,1.021,0.398,1.982,1.121,2.706c0.724,0.724,1.686,1.121,2.707,1.121C28.995,40.823,29.955,40.426,30.676,39.703z M26.678,35.704
	l5.531-5.531H9.694c-1.008,0-1.827-0.819-1.827-1.827s0.819-1.828,1.827-1.828v-0.002h22.515l-5.531-5.53
	c-0.712-0.713-0.712-1.872,0-2.585c0.689-0.689,1.894-0.689,2.583-0.001l8.656,8.655c0.084,0.084,0.158,0.177,0.252,0.33
	l0.141,0.261c0.017,0.038,0.024,0.077,0.058,0.194l0.045,0.142c0.049,0.241,0.049,0.484-0.011,0.753l-0.092,0.306
	c-0.014,0.036-0.035,0.068-0.098,0.178l-0.07,0.14c-0.068,0.103-0.146,0.196-0.233,0.285l-8.646,8.646
	c-0.687,0.688-1.892,0.689-2.583-0.001C25.966,37.575,25.966,36.417,26.678,35.704z M50.825,4.637v47.417h-0.001H26.909
	c-0.554,0-1-0.447-1-1s0.446-1,1-1h21.916V6.637h-22c-0.554,0-1-0.447-1-1c0-0.552,0.446-1,1-1H50.825z"/>
</svg>
