<?xml version="1.0" encoding="utf-8"?>
<!-- Generator: Adobe Illustrator 15.1.0, SVG Export Plug-In . SVG Version: 6.00 Build 0)  -->
<!DOCTYPE svg PUBLIC "-//W3C//DTD SVG 1.1//EN" "http://www.w3.org/Graphics/SVG/1.1/DTD/svg11.dtd">
<svg version="1.1" id="Layer_1" xmlns="http://www.w3.org/2000/svg" xmlns:xlink="http://www.w3.org/1999/xlink" x="0px" y="0px"
	 width="56.689px" height="56.689px" viewBox="0 0 56.689 56.689" enable-background="new 0 0 56.689 56.689" xml:space="preserve">
<g>
	<path d="M12.44,20.948c0-0.592,0.17-1.5,0.977-2.464l12.043-14.39c0.826-0.99,2.015-1.558,3.258-1.558
		c1.244,0,2.432,0.567,3.26,1.558l12.039,14.39c0.806,0.963,0.975,1.871,0.975,2.464c0,1.606-1.248,3.232-3.637,3.232h-9.139v25.746
		c0,1.93-1.57,3.5-3.5,3.5s-3.5-1.57-3.5-3.5V24.18h-9.139C13.69,24.18,12.44,22.554,12.44,20.948z M42.99,20.948
		c0-0.261-0.088-0.678-0.508-1.181l-12.04-14.39c-0.446-0.534-1.075-0.841-1.726-0.841c-0.648,0-1.277,0.307-1.725,0.841
		l-12.043,14.39c-0.42,0.504-0.51,0.92-0.51,1.181c0,0.568,0.43,1.232,1.637,1.232h11.139v27.746c0,0.827,0.674,1.5,1.5,1.5
		c0.828,0,1.5-0.673,1.5-1.5V22.18h11.139C42.563,22.18,42.99,21.516,42.99,20.948z"/>
</g>
</svg>
