<?xml version="1.0" encoding="utf-8"?>
<!-- Generator: Adobe Illustrator 15.1.0, SVG Export Plug-In . SVG Version: 6.00 Build 0)  -->
<!DOCTYPE svg PUBLIC "-//W3C//DTD SVG 1.1//EN" "http://www.w3.org/Graphics/SVG/1.1/DTD/svg11.dtd">
<svg version="1.1" id="Layer_1" xmlns="http://www.w3.org/2000/svg" xmlns:xlink="http://www.w3.org/1999/xlink" x="0px" y="0px"
	 width="56.689px" height="56.689px" viewBox="0 0 56.689 56.689" enable-background="new 0 0 56.689 56.689" xml:space="preserve">
<path d="M14.455,37.484l10.707,10.709l0.045,0.044c0.195,0.189,0.41,0.363,0.639,0.515c0.096,0.064,0.195,0.117,0.295,0.168
	l0.137,0.072c0.111,0.063,0.223,0.125,0.35,0.178c0.125,0.051,0.252,0.088,0.379,0.123l0.148,0.045
	c0.104,0.034,0.207,0.066,0.311,0.086c0.295,0.059,0.592,0.088,0.888,0.088c0.291-0.002,0.585-0.031,0.872-0.088
	c0.112-0.023,0.221-0.057,0.328-0.092l0.127-0.037c0.131-0.037,0.261-0.074,0.385-0.126c0.123-0.051,0.239-0.114,0.354-0.179
	l0.141-0.076c0.098-0.049,0.194-0.101,0.28-0.158c0.192-0.129,0.379-0.275,0.561-0.443l10.836-10.828
	c0.85-0.85,1.318-1.979,1.318-3.182c0-1.201-0.468-2.332-1.318-3.182c-0.85-0.85-1.979-1.318-3.182-1.318s-2.332,0.469-3.182,1.318
	l-3.027,3.027V11.679c0-2.482-2.019-4.5-4.5-4.5c-2.482,0-4.5,2.018-4.5,4.5v22.467l-3.027-3.025
	c-0.85-0.85-1.979-1.318-3.182-1.318c-1.201,0-2.332,0.469-3.182,1.318c-0.85,0.848-1.318,1.979-1.318,3.182
	C13.136,35.503,13.605,36.634,14.455,37.484z M15.869,32.534c0.473-0.473,1.1-0.732,1.768-0.732s1.297,0.26,1.768,0.732l6.441,6.441
	V11.679c0-1.379,1.121-2.5,2.5-2.5c1.379,0,2.5,1.121,2.5,2.5v27.297l6.441-6.441c0.473-0.473,1.1-0.732,1.768-0.732
	s1.295,0.26,1.768,0.732c0.946,0.945,0.944,2.59,0,3.535L30.172,46.72l-0.079,0.074c-0.11,0.107-0.229,0.207-0.435,0.334
	l-0.229,0.123c-0.042,0.023-0.082,0.049-0.13,0.068s-0.098,0.031-0.147,0.045l-0.318,0.097c-0.161,0.032-0.326,0.05-0.489,0.05
	c-0.158,0-0.323-0.018-0.56-0.072l-0.246-0.074c-0.053-0.014-0.105-0.026-0.146-0.043c-0.045-0.02-0.086-0.045-0.129-0.068
	l-0.307-0.164c-0.135-0.091-0.262-0.193-0.381-0.312L15.869,36.07C14.924,35.124,14.926,33.478,15.869,32.534z"/>
</svg>
