<?xml version="1.0" encoding="utf-8"?>
<!-- Generator: Adobe Illustrator 15.1.0, SVG Export Plug-In . SVG Version: 6.00 Build 0)  -->
<!DOCTYPE svg PUBLIC "-//W3C//DTD SVG 1.1//EN" "http://www.w3.org/Graphics/SVG/1.1/DTD/svg11.dtd">
<svg version="1.1" id="Layer_1" xmlns="http://www.w3.org/2000/svg" xmlns:xlink="http://www.w3.org/1999/xlink" x="0px" y="0px"
	 width="56.689px" height="56.689px" viewBox="0 0 56.689 56.689" enable-background="new 0 0 56.689 56.689" xml:space="preserve">
<path d="M51.518,23.316h-5.059C45.82,11.883,37.878,2.739,28.392,2.739c-4.891,0-9.467,2.316-12.887,6.521
	c-0.59,0.725-0.862,1.636-0.767,2.566c0.096,0.93,0.549,1.767,1.273,2.354c0.621,0.508,1.405,0.787,2.207,0.787
	c1.059,0,2.049-0.472,2.718-1.293c2.063-2.54,4.712-3.938,7.455-3.938c5.685,0,10.492,6.002,11.056,13.576h-4.934
	c-1.82,0-2.772,1.259-2.772,2.502c0,0.453,0.127,1.145,0.731,1.867l8.103,9.683c0.62,0.74,1.51,1.164,2.441,1.164
	c0.933,0,1.822-0.425,2.443-1.163l8.099-9.681c0.605-0.722,0.732-1.414,0.732-1.867C54.291,24.575,53.338,23.316,51.518,23.316z
	 M52.026,26.4l-8.099,9.681c-0.478,0.569-1.34,0.568-1.819,0.001l-8.101-9.683c-0.232-0.275-0.266-0.483-0.266-0.584
	c0-0.313,0.288-0.502,0.772-0.502h7.006l-0.022-1.021c-0.215-9.283-5.972-16.555-13.105-16.555c-3.357,0-6.556,1.66-9.007,4.677
	c-0.507,0.622-1.485,0.728-2.111,0.217c-0.311-0.253-0.505-0.611-0.546-1.01c-0.041-0.399,0.076-0.789,0.328-1.101
	c3.033-3.729,7.06-5.783,11.337-5.783c8.673,0,15.897,8.791,16.104,19.597l0.019,0.98h7.003c0.484,0,0.773,0.188,0.773,0.502
	C52.292,25.916,52.257,26.124,52.026,26.4z M40.678,42.506c-0.622-0.505-1.405-0.783-2.205-0.783c-1.06,0-2.05,0.471-2.717,1.292
	c-2.065,2.54-4.714,3.938-7.457,3.938c-5.685,0-10.492-6.002-11.055-13.576h4.933c1.82,0,2.773-1.259,2.773-2.502
	c0-0.453-0.128-1.146-0.732-1.868l-8.102-9.682c-0.621-0.739-1.511-1.164-2.442-1.164s-1.822,0.425-2.442,1.165l-8.099,9.681
	c-0.605,0.722-0.732,1.414-0.732,1.866c0,1.243,0.953,2.502,2.773,2.502h5.059c0.639,11.434,8.579,20.578,18.066,20.578
	c4.889,0,9.467-2.316,12.888-6.522C42.404,45.933,42.176,43.724,40.678,42.506z M39.635,46.17c-3.034,3.729-7.06,5.783-11.336,5.783
	c-8.675,0-15.9-8.791-16.104-19.598l-0.019-0.98H5.173c-0.484,0-0.773-0.188-0.773-0.502c0-0.1,0.035-0.308,0.267-0.583l8.099-9.681
	c0.239-0.284,0.57-0.448,0.909-0.448s0.671,0.164,0.91,0.448l8.101,9.682c0.232,0.275,0.267,0.484,0.267,0.585
	c0,0.313-0.289,0.502-0.773,0.502h-7.006l0.022,1.022c0.215,9.282,5.971,16.554,13.104,16.554c3.356,0,6.556-1.66,9.009-4.677
	c0.505-0.618,1.484-0.726,2.109-0.218C40.059,44.581,40.156,45.527,39.635,46.17z"/>
</svg>
