<?xml version="1.0" encoding="utf-8"?>
<!-- Generator: Adobe Illustrator 15.1.0, SVG Export Plug-In . SVG Version: 6.00 Build 0)  -->
<!DOCTYPE svg PUBLIC "-//W3C//DTD SVG 1.1//EN" "http://www.w3.org/Graphics/SVG/1.1/DTD/svg11.dtd">
<svg version="1.1" id="Layer_1" xmlns="http://www.w3.org/2000/svg" xmlns:xlink="http://www.w3.org/1999/xlink" x="0px" y="0px"
	 width="56.69px" height="56.69px" viewBox="0 0 56.69 56.69" enable-background="new 0 0 56.69 56.69" xml:space="preserve">
<path d="M47.473,29.318c-0.117-0.54-0.654-0.883-1.189-0.764c-0.54,0.116-0.883,0.649-0.766,1.188
	c0.265,1.221,0.399,2.48,0.399,3.742c0,9.688-7.883,17.57-17.572,17.57c-9.688,0-17.571-7.883-17.571-17.57
	c0-9.353,7.35-17,16.572-17.522v7.451c0,1.821,1.259,2.773,2.502,2.773c0.453,0,1.145-0.127,1.867-0.731l9.68-8.102
	c0.74-0.62,1.165-1.51,1.165-2.443s-0.425-1.824-1.165-2.443l-9.68-8.098c-0.723-0.605-1.414-0.732-1.867-0.732
	c-1.243,0-2.502,0.953-2.502,2.773v7.552C17.019,14.487,8.773,23.029,8.773,33.484c0,10.791,8.779,19.57,19.571,19.57
	s19.572-8.779,19.572-19.57C47.917,32.08,47.768,30.68,47.473,29.318z M29.346,6.41c0-0.484,0.188-0.773,0.502-0.773
	c0.1,0,0.308,0.035,0.584,0.266l9.68,8.099c0.285,0.238,0.448,0.569,0.448,0.909c0,0.34-0.163,0.671-0.448,0.91l-9.68,8.101
	c-0.276,0.231-0.484,0.266-0.584,0.266c-0.314,0-0.502-0.289-0.502-0.773V6.41z"/>
</svg>
