<?xml version="1.0" encoding="utf-8"?>
<!-- Generator: Adobe Illustrator 15.1.0, SVG Export Plug-In . SVG Version: 6.00 Build 0)  -->
<!DOCTYPE svg PUBLIC "-//W3C//DTD SVG 1.1//EN" "http://www.w3.org/Graphics/SVG/1.1/DTD/svg11.dtd">
<svg version="1.1" id="Layer_1" xmlns="http://www.w3.org/2000/svg" xmlns:xlink="http://www.w3.org/1999/xlink" x="0px" y="0px"
	 width="56.69px" height="56.69px" viewBox="0 0 56.69 56.69" enable-background="new 0 0 56.69 56.69" xml:space="preserve">
<g>
	<path d="M22.387,43.554c-1.203,0-2.333-0.469-3.182-1.318L8.378,31.399c-0.168-0.182-0.315-0.368-0.443-0.561
		c-0.058-0.086-0.109-0.183-0.159-0.28L7.7,30.418c-0.065-0.114-0.128-0.23-0.179-0.354C7.47,29.94,7.432,29.811,7.396,29.68
		l-0.038-0.127c-0.036-0.107-0.069-0.216-0.091-0.328c-0.057-0.287-0.087-0.581-0.088-0.872c0-0.296,0.03-0.593,0.088-0.888
		c0.02-0.103,0.051-0.207,0.086-0.31l0.044-0.148c0.036-0.128,0.073-0.254,0.124-0.378c0.053-0.127,0.114-0.239,0.177-0.351
		l0.073-0.137c0.051-0.1,0.103-0.199,0.167-0.294c0.152-0.229,0.326-0.443,0.515-0.639l0.044-0.045l10.709-10.708
		c0.85-0.85,1.98-1.318,3.182-1.318c1.203,0,2.333,0.468,3.182,1.319c0.85,0.849,1.318,1.979,1.318,3.182
		c0,1.202-0.468,2.332-1.318,3.182l-3.026,3.026h22.469c2.481,0,4.5,2.019,4.5,4.5s-2.019,4.5-4.5,4.5h-22.47l3.027,3.027
		c0.85,0.85,1.318,1.979,1.318,3.182s-0.468,2.332-1.318,3.182C24.719,43.086,23.589,43.554,22.387,43.554z M9.969,30.172
		L20.62,40.821c0.944,0.944,2.59,0.946,3.535,0c0.472-0.473,0.732-1.1,0.732-1.768s-0.26-1.295-0.732-1.768l-6.441-6.441h27.298
		c1.379,0,2.5-1.121,2.5-2.5c0-1.378-1.121-2.5-2.5-2.5H17.714l6.441-6.44c0.472-0.472,0.732-1.1,0.732-1.768
		c0-0.668-0.26-1.296-0.732-1.768c-0.943-0.944-2.591-0.945-3.535,0L9.912,26.577c-0.118,0.118-0.221,0.245-0.312,0.381
		l-0.164,0.307c-0.024,0.042-0.049,0.083-0.068,0.127c-0.017,0.042-0.029,0.095-0.044,0.147L9.25,27.784
		c-0.055,0.237-0.072,0.402-0.072,0.561c0,0.164,0.018,0.328,0.05,0.49l0.097,0.318c0.013,0.05,0.024,0.1,0.044,0.147
		s0.046,0.088,0.069,0.13l0.123,0.229c0.126,0.205,0.226,0.324,0.333,0.435L9.969,30.172z"/>
</g>
</svg>
