<?xml version="1.0" encoding="utf-8"?>
<!-- Generator: Adobe Illustrator 15.1.0, SVG Export Plug-In . SVG Version: 6.00 Build 0)  -->
<!DOCTYPE svg PUBLIC "-//W3C//DTD SVG 1.1//EN" "http://www.w3.org/Graphics/SVG/1.1/DTD/svg11.dtd">
<svg version="1.1" id="Layer_1" xmlns="http://www.w3.org/2000/svg" xmlns:xlink="http://www.w3.org/1999/xlink" x="0px" y="0px"
	 width="56.689px" height="56.689px" viewBox="0 0 56.689 56.689" enable-background="new 0 0 56.689 56.689" xml:space="preserve">
<path d="M24.518,18.932V36.62c0,2.109,1.717,3.827,3.827,3.827c2.111,0,3.828-1.718,3.828-3.827V18.932l2.117,2.116
	c1.49,1.491,3.92,1.491,5.412,0c1.445-1.445,1.445-3.967,0-5.412l-8.65-8.652l-0.117-0.116l-0.012-0.007
	c-0.141-0.126-0.293-0.245-0.455-0.354c-0.086-0.055-0.172-0.103-0.262-0.147l-0.109-0.059c-0.092-0.052-0.184-0.102-0.283-0.143
	c-0.117-0.049-0.234-0.084-0.354-0.116l-0.113-0.034c-0.08-0.025-0.158-0.049-0.252-0.069c-0.5-0.099-1.004-0.098-1.507,0.002
	c-0.087,0.019-0.171,0.044-0.255,0.071l-0.13,0.038c-0.108,0.03-0.217,0.062-0.324,0.107c-0.111,0.047-0.215,0.103-0.319,0.161
	l-0.091,0.051c-0.085,0.042-0.168,0.087-0.245,0.139c-0.214,0.142-0.413,0.306-0.59,0.484l-8.645,8.645
	c-0.725,0.722-1.122,1.683-1.122,2.706c0,1.022,0.397,1.983,1.122,2.707c0.724,0.723,1.685,1.121,2.706,1.121
	c1.022,0,1.983-0.398,2.706-1.121L24.518,18.932z M18.404,19.635c-0.69-0.691-0.69-1.896,0-2.584l8.647-8.648
	c0.086-0.086,0.179-0.162,0.316-0.248l0.181-0.097c0.034-0.019,0.065-0.041,0.19-0.081l0.247-0.077
	c0.237-0.047,0.48-0.047,0.738,0.01l0.203,0.061c0.041,0.01,0.08,0.018,0.188,0.073l0.244,0.129c0.1,0.066,0.191,0.141,0.275,0.225
	l0.115,0.114l0.002,0.001l8.539,8.539c0.688,0.689,0.688,1.895,0,2.584c-0.713,0.712-1.873,0.712-2.586,0l-5.529-5.53V36.62
	c0,1.008-0.82,1.827-1.829,1.827c-1.008,0-1.827-0.819-1.827-1.827V14.103l-5.531,5.531C20.275,20.346,19.118,20.346,18.404,19.635z
	 M52.054,50.825H4.636V26.909c0-0.554,0.447-1,1-1s1,0.446,1,1v21.917h43.417v-22c0-0.554,0.447-1,1-1s1,0.446,1,1V50.825z"/>
</svg>
