<?xml version="1.0" encoding="utf-8"?>
<!-- Generator: Adobe Illustrator 15.1.0, SVG Export Plug-In . SVG Version: 6.00 Build 0)  -->
<!DOCTYPE svg PUBLIC "-//W3C//DTD SVG 1.1//EN" "http://www.w3.org/Graphics/SVG/1.1/DTD/svg11.dtd">
<svg version="1.1" id="Layer_1" xmlns="http://www.w3.org/2000/svg" xmlns:xlink="http://www.w3.org/1999/xlink" x="0px" y="0px"
	 width="56.689px" height="56.689px" viewBox="0 0 56.689 56.689" enable-background="new 0 0 56.689 56.689" xml:space="preserve">
<path d="M44.214,32.73c-0.937,0-1.815,0.364-2.478,1.025c-0.557,0.556-0.901,1.266-0.995,2.035l-6.479-6.479
	c-1.322-1.322-3.627-1.322-4.949,0c-0.662,0.661-1.025,1.539-1.025,2.476c0,0.935,0.363,1.813,1.025,2.475l6.478,6.479
	c-0.768,0.095-1.479,0.44-2.037,0.997c-0.66,0.662-1.025,1.541-1.023,2.476c0,0.937,0.363,1.815,1.023,2.474
	c0.66,0.662,1.537,1.026,2.473,1.026h0.004l7.988-0.001c0.227,0,0.457-0.022,0.678-0.067c0.086-0.017,0.168-0.041,0.328-0.091
	c0.111-0.03,0.223-0.063,0.334-0.109c0.09-0.036,0.176-0.084,0.26-0.132l0.101-0.053c0.082-0.041,0.16-0.083,0.242-0.138
	c0.187-0.126,0.362-0.27,0.457-0.369l0.146-0.143c0.13-0.139,0.252-0.292,0.359-0.451c0.051-0.075,0.094-0.153,0.18-0.32
	c0.057-0.097,0.11-0.197,0.143-0.285c0.043-0.102,0.074-0.203,0.127-0.391c0.029-0.088,0.057-0.178,0.074-0.266
	c0.045-0.227,0.068-0.457,0.068-0.686v-7.985C47.712,34.299,46.144,32.73,44.214,32.73z M45.716,44.213
	c0,0.098-0.01,0.196-0.039,0.317l-0.213,0.514c-0.057,0.085-0.12,0.162-0.187,0.227l-0.02,0.021
	c-0.066,0.063-0.138,0.121-0.236,0.181l-0.512,0.211c-0.096,0.02-0.194,0.029-0.305,0.029l-7.978,0.001l-0.002,1v-1
	c-0.4,0-0.773-0.155-1.059-0.44c-0.282-0.282-0.438-0.659-0.438-1.061c0-0.4,0.155-0.777,0.438-1.061
	c0.286-0.282,0.663-0.438,1.063-0.438h4.365l-9.865-9.865c-0.283-0.284-0.438-0.66-0.438-1.061c0-0.401,0.155-0.778,0.438-1.062
	c0.566-0.565,1.556-0.565,2.121,0l9.865,9.864v-4.362c0-0.4,0.155-0.776,0.438-1.06c0.283-0.283,0.66-0.439,1.066-0.439
	c0.824,0,1.494,0.673,1.496,1.499V44.213z M27.38,22.428l-6.479-6.479c1.726-0.216,3.063-1.69,3.063-3.473c0-1.93-1.57-3.5-3.5-3.5
	l-7.881,0.001l-0.005-0.001l-0.343,0.001l-0.021,0.01c-0.143,0.013-0.283,0.031-0.426,0.06c-0.082,0.016-0.161,0.04-0.239,0.064
	l-0.108,0.032c-0.104,0.03-0.209,0.062-0.301,0.101c-0.094,0.038-0.182,0.086-0.27,0.135l-0.108,0.059
	c-0.08,0.04-0.157,0.082-0.228,0.13c-0.388,0.259-0.714,0.585-0.968,0.967c-0.049,0.072-0.09,0.147-0.129,0.224l-0.051,0.094
	c-0.052,0.092-0.102,0.186-0.146,0.289c-0.037,0.092-0.066,0.184-0.092,0.278l-0.03,0.103c-0.03,0.093-0.059,0.188-0.074,0.273
	c-0.04,0.198-0.059,0.397-0.058,0.511l-0.013,0.102l0.001,8.057c0.001,0.934,0.365,1.811,1.026,2.474
	c0.662,0.661,1.541,1.024,2.475,1.024c1.782,0,3.255-1.338,3.474-3.062l6.476,6.478c0.662,0.661,1.54,1.024,2.476,1.024
	c0.935,0,1.813-0.363,2.478-1.023c0.661-0.661,1.024-1.539,1.024-2.476C28.405,23.968,28.041,23.089,27.38,22.428z M25.963,25.963
	c-0.567,0.565-1.558,0.564-2.122,0L13.978,16.1v4.358c0,0.827-0.673,1.501-1.5,1.501c-0.4,0-0.777-0.155-1.061-0.439
	s-0.439-0.661-0.44-1.061l-0.001-7.928l0.006-0.087c0.002-0.088,0.009-0.176,0.036-0.296l0.211-0.505
	c0.109-0.165,0.249-0.304,0.439-0.426l0.509-0.211c0.098-0.02,0.197-0.029,0.296-0.03l7.988-0.001c0.827,0,1.5,0.673,1.5,1.5
	s-0.673,1.5-1.499,1.5h-4.364l9.865,9.865c0.283,0.284,0.438,0.66,0.438,1.061C26.402,25.303,26.246,25.68,25.963,25.963z"/>
</svg>
