<?xml version="1.0" encoding="utf-8"?>
<!-- Generator: Adobe Illustrator 15.1.0, SVG Export Plug-In . SVG Version: 6.00 Build 0)  -->
<!DOCTYPE svg PUBLIC "-//W3C//DTD SVG 1.1//EN" "http://www.w3.org/Graphics/SVG/1.1/DTD/svg11.dtd">
<svg version="1.1" id="Layer_1" xmlns="http://www.w3.org/2000/svg" xmlns:xlink="http://www.w3.org/1999/xlink" x="0px" y="0px"
	 width="56.69px" height="56.69px" viewBox="0 0 56.69 56.69" enable-background="new 0 0 56.69 56.69" xml:space="preserve">
<g>
	<path d="M24.256,49.488c-0.935,0-1.813-0.364-2.475-1.025L4.128,30.811c-0.164-0.164-0.314-0.347-0.444-0.54
		c-0.049-0.073-0.089-0.147-0.127-0.224c-0.099-0.177-0.152-0.277-0.196-0.384c-0.036-0.086-0.066-0.185-0.094-0.284l-0.031-0.104
		c-0.027-0.083-0.053-0.167-0.071-0.254c-0.046-0.238-0.069-0.464-0.069-0.692c0-0.229,0.023-0.457,0.067-0.681
		c0.021-0.1,0.045-0.179,0.07-0.257l0.031-0.104c0.028-0.101,0.059-0.2,0.099-0.298s0.091-0.192,0.145-0.286
		c0.086-0.165,0.127-0.242,0.177-0.316c0.131-0.195,0.277-0.375,0.437-0.534l17.661-17.66c1.322-1.322,3.627-1.322,4.949,0
		c0.661,0.661,1.025,1.54,1.025,2.475s-0.364,1.814-1.025,2.475L15.045,24.828h35.05c1.93,0,3.5,1.57,3.5,3.5s-1.57,3.5-3.5,3.5
		h-35.05l11.686,11.686c0.661,0.661,1.025,1.54,1.025,2.475s-0.364,1.813-1.025,2.475S25.191,49.488,24.256,49.488z M24.256,9.168
		c-0.4,0-0.777,0.156-1.061,0.439L5.535,27.267c-0.07,0.07-0.132,0.147-0.188,0.23l-0.214,0.518
		c-0.026,0.112-0.038,0.212-0.038,0.313c0,0.101,0.012,0.2,0.03,0.299l0.22,0.523c0.058,0.093,0.123,0.172,0.196,0.244
		l17.654,17.654c0.566,0.566,1.555,0.566,2.121,0c0.283-0.283,0.439-0.66,0.439-1.061s-0.156-0.777-0.439-1.061l-15.1-15.1h39.878
		c0.826,0,1.5-0.673,1.5-1.5s-0.674-1.5-1.5-1.5H10.217l15.1-15.099c0.283-0.284,0.439-0.66,0.439-1.061
		c0-0.4-0.156-0.777-0.439-1.06C25.034,9.325,24.657,9.168,24.256,9.168z"/>
</g>
</svg>
