<?xml version="1.0" encoding="utf-8"?>
<!-- Generator: Adobe Illustrator 15.1.0, SVG Export Plug-In . SVG Version: 6.00 Build 0)  -->
<!DOCTYPE svg PUBLIC "-//W3C//DTD SVG 1.1//EN" "http://www.w3.org/Graphics/SVG/1.1/DTD/svg11.dtd">
<svg version="1.1" id="Layer_1" xmlns="http://www.w3.org/2000/svg" xmlns:xlink="http://www.w3.org/1999/xlink" x="0px" y="0px"
	 width="56.69px" height="56.69px" viewBox="0 0 56.69 56.69" enable-background="new 0 0 56.69 56.69" xml:space="preserve">
<g>
	<path d="M17.2,51.779c-2.127,0-4.279-1.673-4.279-4.871V9.783c0-3.198,2.152-4.872,4.279-4.872c0.792,0,2.011,0.229,3.317,1.322
		L41.65,23.915c1.348,1.126,2.119,2.739,2.119,4.427s-0.771,3.301-2.119,4.428L20.517,50.454
		C19.209,51.55,17.992,51.779,17.2,51.779z M17.2,6.911c-1.135,0-2.279,0.888-2.279,2.872v37.125c0,1.983,1.145,2.871,2.279,2.871
		c0.46,0,1.187-0.149,2.034-0.858l21.133-17.686c0.893-0.746,1.402-1.8,1.402-2.894c0-1.093-0.51-2.147-1.402-2.893L19.234,7.768
		C18.387,7.06,17.661,6.911,17.2,6.911z"/>
</g>
</svg>
