<?xml version="1.0" encoding="utf-8"?>
<!-- Generator: Adobe Illustrator 15.1.0, SVG Export Plug-In . SVG Version: 6.00 Build 0)  -->
<!DOCTYPE svg PUBLIC "-//W3C//DTD SVG 1.1//EN" "http://www.w3.org/Graphics/SVG/1.1/DTD/svg11.dtd">
<svg version="1.1" id="Layer_1" xmlns="http://www.w3.org/2000/svg" xmlns:xlink="http://www.w3.org/1999/xlink" x="0px" y="0px"
	 width="56.689px" height="56.689px" viewBox="0 0 56.689 56.689" enable-background="new 0 0 56.689 56.689" xml:space="preserve">
<g>
	<path d="M44.991,35.015c0,0.592-0.17,1.5-0.977,2.464l-12.043,14.39c-0.826,0.99-2.015,1.558-3.258,1.558
		c-1.244,0-2.432-0.567-3.26-1.558l-12.039-14.39c-0.806-0.963-0.975-1.871-0.975-2.464c0-1.606,1.248-3.232,3.637-3.232h9.139
		V6.036c0-1.93,1.57-3.5,3.5-3.5c1.93,0,3.5,1.57,3.5,3.5v25.746h9.139C43.741,31.782,44.991,33.408,44.991,35.015z M14.44,35.015
		c0,0.261,0.088,0.678,0.508,1.181l12.04,14.39c0.446,0.534,1.075,0.841,1.726,0.841c0.649,0,1.278-0.307,1.725-0.841l12.043-14.39
		c0.42-0.504,0.51-0.92,0.51-1.181c0-0.568-0.43-1.232-1.637-1.232H30.216V6.036c0-0.827-0.674-1.5-1.5-1.5
		c-0.828,0-1.5,0.673-1.5,1.5v27.746H16.077C14.868,33.782,14.44,34.447,14.44,35.015z"/>
</g>
</svg>
