<?xml version="1.0" encoding="utf-8"?>
<!-- Generator: Adobe Illustrator 15.1.0, SVG Export Plug-In . SVG Version: 6.00 Build 0)  -->
<!DOCTYPE svg PUBLIC "-//W3C//DTD SVG 1.1//EN" "http://www.w3.org/Graphics/SVG/1.1/DTD/svg11.dtd">
<svg version="1.1" id="Layer_1" xmlns="http://www.w3.org/2000/svg" xmlns:xlink="http://www.w3.org/1999/xlink" x="0px" y="0px"
	 width="56.689px" height="56.689px" viewBox="0 0 56.689 56.689" enable-background="new 0 0 56.689 56.689" xml:space="preserve">
<path d="M31.703,12.062L16.56,12.06l-0.063,0.001c-0.272,0.004-0.547,0.033-0.815,0.088c-0.113,0.021-0.222,0.055-0.328,0.09
	l-0.147,0.045c-0.123,0.034-0.246,0.069-0.373,0.122c-0.124,0.053-0.24,0.116-0.354,0.181l-0.137,0.073
	c-0.098,0.049-0.193,0.1-0.28,0.159c-0.25,0.167-0.481,0.356-0.69,0.565c-0.204,0.207-0.392,0.436-0.555,0.679
	c-0.063,0.097-0.116,0.196-0.167,0.297l-0.063,0.116c-0.066,0.119-0.132,0.237-0.183,0.361c-0.052,0.123-0.089,0.25-0.124,0.376
	l-0.046,0.153c-0.034,0.104-0.065,0.209-0.086,0.311c-0.045,0.227-0.073,0.463-0.083,0.71l-0.006,15.318
	c0,1.201,0.467,2.331,1.318,3.182c0.849,0.85,1.979,1.318,3.182,1.317c1.201,0,2.332-0.467,3.182-1.317
	c0.851-0.85,1.318-1.98,1.318-3.182v-4.281l15.888,15.888c1.755,1.755,4.609,1.755,6.364,0s1.755-4.608-0.001-6.363L27.423,21.062
	l4.28-0.001c1.201,0,2.331-0.467,3.182-1.317c0.85-0.85,1.318-1.98,1.318-3.183c0.001-1.2-0.467-2.331-1.318-3.182
	C34.036,12.53,32.905,12.062,31.703,12.062z M34.203,16.561c0,0.669-0.26,1.296-0.732,1.768c-0.472,0.473-1.101,0.733-1.768,0.732
	h-9.109l19.302,19.302c0.975,0.975,0.975,2.561,0,3.535s-2.561,0.975-3.535,0L19.059,22.596v9.109c0,0.668-0.26,1.295-0.732,1.768
	s-1.1,0.732-1.768,0.732c-1.338,0-2.499-1.164-2.5-2.5V16.644l0.003-0.108c0.002-0.153,0.016-0.309,0.071-0.543l0.074-0.249
	c0.014-0.046,0.023-0.092,0.044-0.14c0.02-0.048,0.047-0.092,0.072-0.136l0.157-0.294c0.091-0.137,0.195-0.266,0.311-0.381
	c0.111-0.112,0.241-0.217,0.447-0.346l0.227-0.121c0.047-0.027,0.093-0.056,0.134-0.073c0.045-0.018,0.093-0.029,0.14-0.043
	l0.332-0.101c0.16-0.031,0.322-0.049,0.49-0.049h15.143C33.04,14.061,34.203,15.227,34.203,16.561z"/>
</svg>
