<?xml version="1.0" encoding="utf-8"?>
<!-- Generator: Adobe Illustrator 15.1.0, SVG Export Plug-In . SVG Version: 6.00 Build 0)  -->
<!DOCTYPE svg PUBLIC "-//W3C//DTD SVG 1.1//EN" "http://www.w3.org/Graphics/SVG/1.1/DTD/svg11.dtd">
<svg version="1.1" id="Layer_1" xmlns="http://www.w3.org/2000/svg" xmlns:xlink="http://www.w3.org/1999/xlink" x="0px" y="0px"
	 width="56.689px" height="56.689px" viewBox="0 0 56.689 56.689" enable-background="new 0 0 56.689 56.689" xml:space="preserve">
<path d="M25.084,4.931L13.045,19.322c-0.808,0.963-0.977,1.871-0.977,2.465c0,1.605,1.249,3.23,3.638,3.23h11.64v27.301
	c0,0.555,0.447,1,1,1c0.552,0,1-0.445,1-1V25.017h11.638c2.388,0,3.638-1.625,3.638-3.23c0-0.594-0.17-1.5-0.977-2.465L31.603,4.931
	c-0.827-0.99-2.017-1.559-3.259-1.559C27.101,3.372,25.912,3.941,25.084,4.931z M30.069,6.214l12.043,14.391
	c0.422,0.504,0.511,0.92,0.511,1.182c0,0.566-0.43,1.23-1.638,1.23H15.706c-1.208,0-1.638-0.664-1.638-1.23
	c0-0.262,0.089-0.68,0.511-1.182L26.618,6.214c0.446-0.535,1.075-0.842,1.726-0.842C28.993,5.372,29.621,5.679,30.069,6.214z"/>
</svg>
