<?xml version="1.0" encoding="utf-8"?>
<!-- Generator: Adobe Illustrator 15.1.0, SVG Export Plug-In . SVG Version: 6.00 Build 0)  -->
<!DOCTYPE svg PUBLIC "-//W3C//DTD SVG 1.1//EN" "http://www.w3.org/Graphics/SVG/1.1/DTD/svg11.dtd">
<svg version="1.1" id="Layer_1" xmlns="http://www.w3.org/2000/svg" xmlns:xlink="http://www.w3.org/1999/xlink" x="0px" y="0px"
	 width="56.69px" height="56.69px" viewBox="0 0 56.69 56.69" enable-background="new 0 0 56.69 56.69" xml:space="preserve">
<path d="M53.602,14.447l-8.098-9.679c-0.6-0.717-1.491-1.128-2.444-1.128s-1.843,0.411-2.441,1.127l-8.102,9.679
	c-1.108,1.323-0.667,2.553-0.506,2.898c0.162,0.346,0.823,1.473,2.546,1.473h7.519v6.943L28.566,36.463L14.659,25.752v-6.935h0.389
	l7.086-0.001c1.724,0,2.385-1.127,2.546-1.473c0.162-0.345,0.604-1.575-0.505-2.896l-8.101-9.68c-0.6-0.716-1.489-1.127-2.442-1.127
	s-1.844,0.411-2.444,1.128l-8.098,9.678c-1.108,1.323-0.667,2.553-0.506,2.897c0.162,0.346,0.823,1.473,2.547,1.473l7.528,0v7.919
	l14.916,11.488v13.826c0,0.553,0.447,1,1,1c0.553,0,1-0.447,1-1V38.215l14.5-11.487v-7.91h0.402l7.084-0.001
	c1.723,0,2.384-1.126,2.546-1.473C54.269,16.999,54.709,15.768,53.602,14.447z M4.395,16.496c-0.055-0.119-0.1-0.376,0.228-0.767
	l8.098-9.678c0.219-0.261,0.551-0.412,0.911-0.412c0.358,0,0.689,0.15,0.908,0.411l8.102,9.681c0.327,0.389,0.282,0.646,0.227,0.765
	s-0.226,0.32-0.734,0.32l-7.086,0.001L5.13,16.816C4.622,16.816,4.452,16.616,4.395,16.496z M52.296,16.497
	c-0.057,0.119-0.227,0.32-0.734,0.32l-17.005,0.001c-0.508,0-0.678-0.2-0.733-0.32c-0.056-0.119-0.101-0.377,0.227-0.768
	l8.103-9.679C42.37,5.79,42.701,5.64,43.06,5.64c0.36,0,0.691,0.15,0.911,0.412l8.098,9.679
	C52.396,16.121,52.351,16.378,52.296,16.497z"/>
</svg>
