<?xml version="1.0" encoding="utf-8"?>
<!-- Generator: Adobe Illustrator 15.1.0, SVG Export Plug-In . SVG Version: 6.00 Build 0)  -->
<!DOCTYPE svg PUBLIC "-//W3C//DTD SVG 1.1//EN" "http://www.w3.org/Graphics/SVG/1.1/DTD/svg11.dtd">
<svg version="1.1" id="Layer_1" xmlns="http://www.w3.org/2000/svg" xmlns:xlink="http://www.w3.org/1999/xlink" x="0px" y="0px"
	 width="56.689px" height="56.689px" viewBox="0 0 56.689 56.689" enable-background="new 0 0 56.689 56.689" xml:space="preserve">
<path d="M53.557,29.011l-8.099-9.682c-0.62-0.741-1.509-1.165-2.442-1.165c-0.931,0-1.821,0.424-2.443,1.165l-8.101,9.681
	c-0.604,0.722-0.731,1.414-0.731,1.867c0,1.242,0.952,2.502,2.772,2.502h4.934c-0.564,7.574-5.371,13.576-11.056,13.576
	c-2.743,0-5.392-1.399-7.456-3.938c-0.668-0.82-1.658-1.293-2.717-1.293c-0.802,0-1.586,0.279-2.206,0.785
	c-0.725,0.589-1.179,1.428-1.274,2.356c-0.095,0.93,0.177,1.842,0.768,2.566c3.419,4.205,7.996,6.521,12.888,6.521
	c9.485,0,17.425-9.143,18.064-20.573h5.059c1.82,0,2.773-1.26,2.773-2.502C54.289,30.425,54.162,29.734,53.557,29.011z
	 M51.518,31.378h-7.003l-0.019,0.979c-0.206,10.806-7.43,19.597-16.104,19.597h-0.002c-4.277,0-8.303-2.055-11.335-5.783
	c-0.252-0.312-0.369-0.701-0.328-1.101c0.041-0.398,0.235-0.756,0.548-1.012c0.27-0.219,0.596-0.336,0.943-0.336
	c0.454,0,0.879,0.203,1.166,0.554c2.451,3.017,5.651,4.677,9.007,4.677c7.133,0,12.889-7.272,13.105-16.554l0.022-1.021h-7.007
	c-0.484,0-0.772-0.188-0.772-0.502c0-0.101,0.034-0.308,0.266-0.584l8.1-9.681c0.48-0.57,1.341-0.569,1.82-0.001l8.099,9.682
	c0.232,0.274,0.267,0.483,0.267,0.584C52.291,31.19,52.002,31.378,51.518,31.378z M24.217,27.684
	c0.604-0.723,0.732-1.415,0.732-1.869c0-1.243-0.953-2.502-2.773-2.502h-4.933c0.563-7.575,5.37-13.576,11.055-13.576
	c2.743,0,5.392,1.399,7.456,3.938c0.668,0.821,1.658,1.292,2.718,1.292c0.8,0,1.583-0.278,2.206-0.784
	c1.497-1.217,1.725-3.425,0.507-4.924c-3.42-4.205-7.997-6.521-12.887-6.521c-9.487,0-17.427,9.144-18.066,20.578H5.173
	c-1.82,0-2.773,1.26-2.773,2.502c0,0.453,0.127,1.144,0.733,1.866l8.099,9.681c0.62,0.738,1.51,1.164,2.442,1.164
	c0.931,0,1.821-0.424,2.442-1.166L24.217,27.684z M12.766,36.081l-8.099-9.681c-0.232-0.275-0.267-0.483-0.267-0.583
	c0-0.313,0.289-0.502,0.773-0.502v0.001h7.003l0.019-0.98C12.401,13.53,19.625,4.739,28.3,4.739c4.276,0,8.302,2.055,11.335,5.783
	c0.522,0.644,0.425,1.59-0.216,2.111c-0.627,0.507-1.604,0.403-2.111-0.218C34.856,9.4,31.656,7.739,28.3,7.739
	c-7.133,0-12.889,7.271-13.104,16.554l-0.022,1.022h7.006c0.484,0,0.773,0.188,0.773,0.502c0,0.101-0.035,0.31-0.267,0.585
	l-8.1,9.68C14.106,36.651,13.245,36.649,12.766,36.081z"/>
</svg>
