<?xml version="1.0" encoding="utf-8"?>
<!-- Generator: Adobe Illustrator 15.1.0, SVG Export Plug-In . SVG Version: 6.00 Build 0)  -->
<!DOCTYPE svg PUBLIC "-//W3C//DTD SVG 1.1//EN" "http://www.w3.org/Graphics/SVG/1.1/DTD/svg11.dtd">
<svg version="1.1" id="Layer_1" xmlns="http://www.w3.org/2000/svg" xmlns:xlink="http://www.w3.org/1999/xlink" x="0px" y="0px"
	 width="56.69px" height="56.69px" viewBox="0 0 56.69 56.69" enable-background="new 0 0 56.69 56.69" xml:space="preserve">
<path d="M50.221,12.074h-13.75v-1.958c0-1.93-1.57-3.5-3.5-3.5h-9.25c-1.93,0-3.5,1.57-3.5,3.5v1.958H6.47c-1.654,0-3,1.346-3,3
	v12.25c0,1,0.496,1.881,1.25,2.426v17.324c0,1.654,1.346,3,3,3h41.251c1.654,0,3-1.346,3-3V29.75c0.754-0.545,1.25-1.426,1.25-2.426
	v-12.25C53.221,13.42,51.875,12.074,50.221,12.074z M23.221,10.116c0-0.276,0.225-0.5,0.5-0.5h9.25c0.275,0,0.5,0.224,0.5,0.5v1.958
	h-10.25V10.116z M49.971,47.074c0,0.552-0.448,1-1,1H7.72c-0.552,0-1-0.448-1-1v-16.75h16.657v1.594h0.658v4.156
	c0,1.104,0.895,2,2,2h4.5c1.104,0,2-0.896,2-2v-4.156h0.779v-1.594h16.656V47.074z M51.221,27.324c0,0.409-0.248,0.76-0.602,0.915
	l-0.021,0.009c-0.117,0.048-0.243,0.076-0.377,0.076H6.47c-0.134,0-0.261-0.028-0.377-0.076l-0.021-0.009
	c-0.354-0.154-0.603-0.505-0.603-0.915v-12.25c0-0.551,0.448-1,1-1h43.751c0.552,0,1,0.449,1,1V27.324z"/>
</svg>
