<?xml version="1.0" encoding="utf-8"?>
<!-- Generator: Adobe Illustrator 15.1.0, SVG Export Plug-In . SVG Version: 6.00 Build 0)  -->
<!DOCTYPE svg PUBLIC "-//W3C//DTD SVG 1.1//EN" "http://www.w3.org/Graphics/SVG/1.1/DTD/svg11.dtd">
<svg version="1.1" id="Layer_1" xmlns="http://www.w3.org/2000/svg" xmlns:xlink="http://www.w3.org/1999/xlink" x="0px" y="0px"
	 width="56.689px" height="56.689px" viewBox="0 0 56.689 56.689" enable-background="new 0 0 56.689 56.689" xml:space="preserve">
<path d="M51.03,38.207V3.607H5.66v34.601L4.474,53.083h47.743L51.03,38.207z M6.64,51.083l1.015-12.718l0.007-0.078v-0.08V5.607
	H49.03v32.601v0.08l0.007,0.078l1.015,12.718H6.64z M41.366,11.314c0,0.551-0.242,1.041-0.62,1.383
	c-0.433,6.344-5.718,11.375-12.168,11.375c-6.391,0-11.641-4.938-12.157-11.198c-0.506-0.335-0.841-0.908-0.841-1.561
	c0-1.033,0.837-1.871,1.871-1.871c1.033,0,1.87,0.838,1.87,1.871c0,0.512-0.207,0.976-0.54,1.313
	c0.392,5.068,4.63,9.074,9.797,9.074c5.108,0,9.315-3.914,9.788-8.901c-0.45-0.342-0.745-0.877-0.745-1.487
	c0-1.033,0.838-1.872,1.872-1.872C40.528,9.442,41.366,10.281,41.366,11.314z"/>
</svg>
