<?xml version="1.0" encoding="utf-8"?>
<!-- Generator: Adobe Illustrator 15.1.0, SVG Export Plug-In . SVG Version: 6.00 Build 0)  -->
<!DOCTYPE svg PUBLIC "-//W3C//DTD SVG 1.1//EN" "http://www.w3.org/Graphics/SVG/1.1/DTD/svg11.dtd">
<svg version="1.1" id="Layer_1" xmlns="http://www.w3.org/2000/svg" xmlns:xlink="http://www.w3.org/1999/xlink" x="0px" y="0px"
	 width="56.69px" height="56.69px" viewBox="0 0 56.69 56.69" enable-background="new 0 0 56.69 56.69" xml:space="preserve">
<path d="M24.008,43.316c-0.098,0-0.197-0.015-0.296-0.045c-4.856-1.507-8.685-5.294-10.242-10.132
	c-0.169-0.526,0.12-1.089,0.646-1.259c0.531-0.167,1.089,0.12,1.259,0.646c1.357,4.219,4.696,7.521,8.93,8.835
	c0.528,0.164,0.823,0.724,0.659,1.251C24.831,43.042,24.435,43.316,24.008,43.316z M42.643,25.098
	c0.529-0.159,0.83-0.716,0.672-1.245c-1.516-5.057-5.441-8.976-10.502-10.484c-0.533-0.158-1.086,0.145-1.244,0.673
	c-0.158,0.529,0.145,1.086,0.674,1.244c4.412,1.315,7.834,4.732,9.156,9.141c0.129,0.433,0.527,0.713,0.957,0.713
	C42.451,25.14,42.547,25.126,42.643,25.098z M23.885,46.331c0.162-0.528-0.136-1.087-0.664-1.248
	c-5.517-1.687-9.843-5.979-11.573-11.481c-0.166-0.525-0.724-0.82-1.254-0.654c-0.527,0.166-0.819,0.728-0.654,1.254
	c1.929,6.133,6.75,10.915,12.897,12.794c0.097,0.03,0.195,0.044,0.292,0.044C23.358,47.039,23.753,46.762,23.885,46.331z
	 M46.357,23.992c0.529-0.158,0.83-0.715,0.672-1.245c-1.898-6.353-6.832-11.257-13.197-13.12c-0.533-0.156-1.086,0.149-1.24,0.679
	c-0.156,0.53,0.148,1.085,0.678,1.241c5.713,1.671,10.139,6.073,11.844,11.773c0.131,0.434,0.527,0.714,0.959,0.714
	C46.166,24.035,46.264,24.021,46.357,23.992z M22.833,49.93c0.16-0.528-0.139-1.087-0.667-1.247
	c-6.713-2.037-11.98-7.248-14.09-13.94c-0.166-0.527-0.726-0.816-1.255-0.653c-0.526,0.166-0.819,0.728-0.653,1.255
	c2.309,7.322,8.072,13.024,15.418,15.253c0.097,0.029,0.194,0.043,0.29,0.043C22.305,50.64,22.702,50.361,22.833,49.93z
	 M49.91,22.75c0.527-0.162,0.824-0.722,0.662-1.25c-2.291-7.441-8.111-13.212-15.57-15.438c-0.531-0.159-1.086,0.143-1.244,0.673
	C33.6,7.264,33.9,7.821,34.43,7.979c6.818,2.033,12.137,7.308,14.23,14.109c0.133,0.43,0.527,0.707,0.955,0.707
	C49.713,22.794,49.813,22.78,49.91,22.75z M39.85,28.345c0,6.354-5.15,11.505-11.504,11.505c-6.354,0-11.505-5.15-11.505-11.505
	c0-6.354,5.15-11.504,11.505-11.504C34.699,16.841,39.85,21.991,39.85,28.345z M30.35,28.345c0-1.106-0.898-2.004-2.004-2.004
	c-1.106,0-2.005,0.897-2.005,2.004c0,1.107,0.898,2.005,2.005,2.005C29.451,30.35,30.35,29.452,30.35,28.345z M55.289,28.345
	c0,14.857-12.086,26.945-26.944,26.945c-14.857,0-26.944-12.088-26.944-26.945C1.401,13.488,13.488,1.4,28.345,1.4
	C43.203,1.4,55.289,13.488,55.289,28.345z M53.289,28.345C53.289,14.568,42.121,3.4,28.345,3.4
	C14.569,3.4,3.401,14.568,3.401,28.345c0,13.777,11.168,24.945,24.944,24.945C42.121,53.29,53.289,42.122,53.289,28.345z"/>
</svg>
