<?xml version="1.0" encoding="utf-8"?>
<!-- Generator: Adobe Illustrator 15.1.0, SVG Export Plug-In . SVG Version: 6.00 Build 0)  -->
<!DOCTYPE svg PUBLIC "-//W3C//DTD SVG 1.1//EN" "http://www.w3.org/Graphics/SVG/1.1/DTD/svg11.dtd">
<svg version="1.1" id="Layer_1" xmlns="http://www.w3.org/2000/svg" xmlns:xlink="http://www.w3.org/1999/xlink" x="0px" y="0px"
	 width="56.689px" height="56.689px" viewBox="0 0 56.689 56.689" enable-background="new 0 0 56.689 56.689" xml:space="preserve">
<path d="M47.471,47.596H9.22c-3.86,0-7-3.142-7-7V16.095c0-3.86,3.14-7,7-7h38.25c3.858,0,7,3.14,7,7v24.501
	C54.471,44.455,51.33,47.596,47.471,47.596z M9.22,11.095c-2.758,0-5,2.242-5,5v24.501c0,2.757,2.242,5,5,5h38.25
	c2.757,0,5-2.243,5-5V16.095c0-2.758-2.243-5-5-5H9.22z M38.279,14.975c2.495,0,4.518,2.022,4.518,4.518s-2.022,4.519-4.518,4.519
	s-4.518-2.023-4.518-4.519S35.784,14.975,38.279,14.975z M44.578,14.975c2.495,0,4.519,2.022,4.519,4.518s-2.023,4.519-4.519,4.519
	s-4.518-2.023-4.518-4.519S42.083,14.975,44.578,14.975z M7.595,35.93h8.329v3H7.595V35.93z M18.652,35.93h8.33v3h-8.33V35.93z
	 M29.707,35.93h8.332v3h-8.332V35.93z M40.764,35.93h8.332v3h-8.332V35.93z M7.595,14.976h15.745v3H7.595V14.976z M7.595,20.929
	h8.331v3H7.595V20.929z"/>
</svg>
