<?xml version="1.0" encoding="utf-8"?>
<!-- Generator: Adobe Illustrator 15.1.0, SVG Export Plug-In . SVG Version: 6.00 Build 0)  -->
<!DOCTYPE svg PUBLIC "-//W3C//DTD SVG 1.1//EN" "http://www.w3.org/Graphics/SVG/1.1/DTD/svg11.dtd">
<svg version="1.1" id="Layer_1" xmlns="http://www.w3.org/2000/svg" xmlns:xlink="http://www.w3.org/1999/xlink" x="0px" y="0px"
	 width="56.689px" height="56.689px" viewBox="0 0 56.689 56.689" enable-background="new 0 0 56.689 56.689" xml:space="preserve">
<path d="M44.449,14.762c0.551,0,1,0.448,1,1v4.125v2h2h2.293c0.551,0,1,0.448,1,1v10.917c0,0.552-0.449,1-1,1h-2.293h-2v2v4.125
	c0,0.552-0.449,1-1,1h-37.5c-0.553,0-1-0.448-1-1V15.762c0-0.552,0.447-1,1-1H44.449 M44.449,12.762h-37.5c-1.657,0-3,1.343-3,3
	v25.167c0,1.655,1.343,3,3,3h37.5c1.655,0,3-1.345,3-3v-4.125h2.293c1.655,0,3-1.344,3-3V22.887c0-1.656-1.345-3-3-3h-2.293v-4.125
	C47.449,14.104,46.105,12.762,44.449,12.762L44.449,12.762z M37.912,30.057h-4.254v-3.425h4.127c0.598,0,1.082-0.483,1.082-1.083
	c0-0.598-0.484-1.083-1.082-1.083h-4.127v-2.538h-3.457v0.013c-0.084-0.003-0.166-0.013-0.25-0.013c-3.144,0-5.756,2.264-6.306,5.25
	h-9.777c-0.646,0-1.167,0.522-1.167,1.167s0.521,1.167,1.167,1.167h9.777c0.549,2.985,3.161,5.25,6.306,5.25
	c0.084,0,0.166-0.011,0.25-0.013v0.015h3.457v-2.54h4.254c0.598,0,1.084-0.485,1.084-1.083
	C38.996,30.542,38.51,30.057,37.912,30.057z"/>
</svg>
