<?xml version="1.0" encoding="utf-8"?>
<!-- Generator: Adobe Illustrator 15.1.0, SVG Export Plug-In . SVG Version: 6.00 Build 0)  -->
<!DOCTYPE svg PUBLIC "-//W3C//DTD SVG 1.1//EN" "http://www.w3.org/Graphics/SVG/1.1/DTD/svg11.dtd">
<svg version="1.1" id="Layer_1" xmlns="http://www.w3.org/2000/svg" xmlns:xlink="http://www.w3.org/1999/xlink" x="0px" y="0px"
	 width="56.689px" height="56.689px" viewBox="0 0 56.689 56.689" enable-background="new 0 0 56.689 56.689" xml:space="preserve">
<path d="M44.449,14.761c0.551,0,1,0.448,1,1v4.125v2h2h2.293c0.551,0,1,0.448,1,1v10.918c0,0.551-0.449,1-1,1h-2.293h-2v2v4.125
	c0,0.551-0.449,1-1,1h-37.5c-0.553,0-1-0.449-1-1V15.761c0-0.552,0.447-1,1-1H44.449 M44.449,12.761h-37.5c-1.657,0-3,1.344-3,3
	V40.93c0,1.655,1.343,3,3,3h37.5c1.655,0,3-1.345,3-3v-4.125h2.293c1.655,0,3-1.345,3-3V22.886c0-1.656-1.345-3-3-3h-2.293v-4.125
	C47.449,14.105,46.105,12.761,44.449,12.761L44.449,12.761z M10.866,19.427h5.327v17.834h-5.327V19.427z"/>
</svg>
