<?xml version="1.0" encoding="utf-8"?>
<!-- Generator: Adobe Illustrator 15.1.0, SVG Export Plug-In . SVG Version: 6.00 Build 0)  -->
<!DOCTYPE svg PUBLIC "-//W3C//DTD SVG 1.1//EN" "http://www.w3.org/Graphics/SVG/1.1/DTD/svg11.dtd">
<svg version="1.1" id="Layer_1" xmlns="http://www.w3.org/2000/svg" xmlns:xlink="http://www.w3.org/1999/xlink" x="0px" y="0px"
	 width="56.689px" height="56.689px" viewBox="0 0 56.689 56.689" enable-background="new 0 0 56.689 56.689" xml:space="preserve">
<path d="M44.449,14.762c0.551,0,1,0.448,1,1v4.125v2h2h2.293c0.551,0,1,0.448,1,1v10.917c0,0.552-0.449,1-1,1h-2.293h-2v2v4.125
	c0,0.552-0.449,1-1,1h-37.5c-0.553,0-1-0.448-1-1V15.762c0-0.552,0.447-1,1-1H44.449 M44.449,12.762h-37.5c-1.657,0-3,1.343-3,3
	v25.167c0,1.655,1.343,3,3,3h37.5c1.655,0,3-1.345,3-3v-4.125h2.293c1.655,0,3-1.344,3-3V22.887c0-1.656-1.345-3-3-3h-2.293v-4.125
	C47.449,14.104,46.105,12.762,44.449,12.762L44.449,12.762z M39.723,27.191h-4.552v-4.548h-2.305v4.548h-4.549v2.307h4.549v4.549
	h2.305v-4.549h4.552V27.191z M12.01,27.192h11.404v2.307H12.01V27.192z"/>
</svg>
