<?xml version="1.0" encoding="utf-8"?>
<!-- Generator: Adobe Illustrator 15.1.0, SVG Export Plug-In . SVG Version: 6.00 Build 0)  -->
<!DOCTYPE svg PUBLIC "-//W3C//DTD SVG 1.1//EN" "http://www.w3.org/Graphics/SVG/1.1/DTD/svg11.dtd">
<svg version="1.1" id="Layer_1" xmlns="http://www.w3.org/2000/svg" xmlns:xlink="http://www.w3.org/1999/xlink" x="0px" y="0px"
	 width="56.689px" height="56.689px" viewBox="0 0 56.689 56.689" enable-background="new 0 0 56.689 56.689" xml:space="preserve">
<path d="M19.696,28.69H9.891v10.082h1h8.384c2.973-0.069,4.61-1.82,4.61-4.93C23.885,29.767,21.147,28.69,19.696,28.69z
	 M19.251,36.772h-7.36V30.69h7.806c0.365,0.005,2.188,0.179,2.188,3.152C21.885,36.37,20.542,36.742,19.251,36.772z M22.836,21.423
	c0-3.28-2.056-4.147-3.142-4.147H9.89v8.751h9.26C21.631,26.027,22.836,24.521,22.836,21.423z M11.891,19.276h7.805
	c0.013,0,1.142,0.024,1.142,2.147c0,2.604-0.819,2.604-1.687,2.604h-7.26V19.276z M50.792,23.044
	c-2.009-2.287-4.929-3.447-8.675-3.447c-6.52,0-9.616,3.461-11.066,6.363c-0.763,1.527-1.15,3.045-1.348,4.195
	c-0.319-0.919-0.802-1.849-1.533-2.622c-0.403-0.427-0.854-0.779-1.35-1.057c1.32-1.012,2.435-2.742,2.435-5.521
	c0-5.5-3.752-9.055-9.561-9.055H2.957v32.246l16.707-0.001l0.138,0.002c0.706,0,3.196-0.095,5.6-1.326
	c1.848-0.945,3.984-2.767,4.672-6.177c0.443,1.498,1.211,3.146,2.547,4.577c2.202,2.36,5.396,3.556,9.434,3.556
	c0.003,0,0.006,0,0.009,0c0,0,0.17,0.012,0.471,0.012c5.286,0,10.938-2.378,10.937-9.052v-1h-7.378l0.057,1.055
	c0.001,0.006,0,0.641-0.525,1.196c-0.62,0.655-1.771,1.001-3.388,1.004l-0.124,0.003c-0.319,0-1.438-0.045-2.411-0.624
	c-0.912-0.542-1.468-1.43-1.655-2.646h15.48l0.113-0.87C53.674,33.586,54.457,27.219,50.792,23.044z M28.304,34.222
	c0,3.229-1.283,5.524-3.813,6.82c-2.058,1.053-4.267,1.105-4.688,1.105L4.957,42.147V13.902h14.736c4.734,0,7.561,2.638,7.561,7.055
	c0,4.31-3.317,4.726-3.689,4.759l0.074,1.997c1.306,0,2.312,0.389,3.072,1.19C28.462,30.747,28.307,34.134,28.304,34.222z
	 M51.716,32.726H35.972v1c0,3.104,1.472,4.631,2.705,5.364c1.373,0.814,2.86,0.904,3.435,0.904c0.113,0,0.192-0.005,0.206-0.006
	c2.139-0.003,3.738-0.55,4.758-1.625c0.522-0.552,0.793-1.141,0.932-1.627h3.407c-0.662,5.598-6.897,6.053-8.881,6.053
	c-0.217,0-0.345-0.008-0.413-0.01c-3.516,0-6.215-0.978-8.025-2.909c-2.858-3.049-2.602-7.541-2.597-7.653
	c0-0.026,0.013-2.7,1.343-5.362c1.743-3.488,4.864-5.258,9.277-5.258c3.143,0,5.553,0.927,7.163,2.76
	C51.63,27.024,51.779,30.987,51.716,32.726z M42.238,24.027c-4.384,0-6.046,3.614-6.313,5.525l-0.159,1.138h12.073l0.013-0.986
	c0.001-0.103,0.013-2.508-1.627-4.167C45.236,24.535,43.895,24.027,42.238,24.027z M38.237,28.69c0.469-1.121,1.557-2.663,4-2.663
	c1.098,0,1.956,0.304,2.556,0.904c0.524,0.527,0.789,1.207,0.923,1.759H38.237z M49.091,13.682H34.612v5.725h14.479V13.682z
	 M47.091,17.406H36.612v-1.725h10.479V17.406z"/>
</svg>
