<?xml version="1.0" encoding="utf-8"?>
<!-- Generator: Adobe Illustrator 15.1.0, SVG Export Plug-In . SVG Version: 6.00 Build 0)  -->
<!DOCTYPE svg PUBLIC "-//W3C//DTD SVG 1.1//EN" "http://www.w3.org/Graphics/SVG/1.1/DTD/svg11.dtd">
<svg version="1.1" id="Layer_1" xmlns="http://www.w3.org/2000/svg" xmlns:xlink="http://www.w3.org/1999/xlink" x="0px" y="0px"
	 width="56.689px" height="56.689px" viewBox="0 0 56.689 56.689" enable-background="new 0 0 56.689 56.689" xml:space="preserve">
<path d="M51.088,41.136l-0.533-0.281c-5.016-2.645-5.873-6.202-6.004-7.51l0.027-11.649C43.908,14.376,38.586,8.62,31.66,7.183V6.87
	c0-1.83-1.486-3.313-3.315-3.313c-1.831,0-3.314,1.483-3.314,3.313v0.28c-7.483,1.509-13.139,8.131-13.139,16.054
	c0,0.487,0.068,9.283,0.074,10.054c-0.188,1.811-1.201,5.155-5.831,7.597l-0.533,0.281v7.902h15.902
	c0.861,2.365,3.597,4.096,6.841,4.096c3.243,0,5.979-1.729,6.84-4.096h15.902L51.088,41.136L51.088,41.136z M49.088,47.038H7.602
	v-4.707c5.047-2.881,6.154-6.807,6.359-8.933l0.005-0.104c0,0-0.074-9.582-0.074-10.092c0-7.929,6.45-14.378,14.378-14.378
	c7.482,0,13.636,5.61,14.313,12.956l-0.025,11.654c0.16,1.676,1.127,5.819,6.531,8.895V47.038z"/>
</svg>
