<?xml version="1.0" encoding="utf-8"?>
<!-- Generator: Adobe Illustrator 15.1.0, SVG Export Plug-In . SVG Version: 6.00 Build 0)  -->
<!DOCTYPE svg PUBLIC "-//W3C//DTD SVG 1.1//EN" "http://www.w3.org/Graphics/SVG/1.1/DTD/svg11.dtd">
<svg version="1.1" id="Layer_1" xmlns="http://www.w3.org/2000/svg" xmlns:xlink="http://www.w3.org/1999/xlink" x="0px" y="0px"
	 width="56.689px" height="56.689px" viewBox="0 0 56.689 56.689" enable-background="new 0 0 56.689 56.689" xml:space="preserve">
<path d="M19.764,38.061c5.885-1.134,17.449-3.844,22.319-8.348c-0.454-0.636-6.333-3.668-6.333-3.668s7,0,9.833,0
	c4.833-0.665,6.596-22.403,6.596-22.403s-20.096,10.905-25.43,17.711c-5.333,6.808-10.562,17.333-10.562,17.333l0.003-0.001
	C9.583,45.71,4.512,51.309,4.512,51.309l5.559-2.955L19.764,38.061z M49.785,7.284c-0.221,1.812-0.534,4.084-0.956,6.393
	c-1.568,8.6-3.216,10.149-3.522,10.369H35.75c-0.923,0-1.727,0.631-1.943,1.527c-0.217,0.897,0.206,1.826,1.026,2.249
	c1.248,0.645,2.635,1.389,3.749,2.015c-4.377,2.698-11.367,4.586-16.433,5.691L47.488,8.623C48.32,8.133,49.097,7.68,49.785,7.284z
	 M28.323,22.587c2.883-3.679,10.57-8.763,16.634-12.448c-4.594,4.208-10.756,9.986-16.611,15.907c-2.29,2.315-4.626,4.726-6.898,7.1
	C23.358,29.798,25.838,25.759,28.323,22.587z M31.531,45.768c6.113,0.678,12.096,2.079,17.889,3.988
	c-2.997-0.563-5.987-1.109-8.999-1.492c-3.003-0.425-6.016-0.751-9.021-0.941c-2.606-0.137-5.209-0.194-7.78,0.003
	c0.549,0.098,1.1,0.195,1.65,0.295c1.497,0.279,3.002,0.556,4.521,0.909c0.763,0.186,1.516,0.367,2.327,0.683
	c0.204,0.083,0.413,0.173,0.65,0.313c0.12,0.073,0.248,0.154,0.398,0.294c0.137,0.145,0.361,0.347,0.438,0.819
	c0.064,0.492-0.198,0.871-0.353,1.029c-0.171,0.177-0.311,0.26-0.438,0.338l-0.2,0.105l-0.156,0.071l-0.326,0.125
	c-1.685,0.532-3.208,0.586-4.769,0.687c-1.548,0.076-3.085,0.065-4.617,0.023c-6.128-0.163-12.199-0.81-18.232-1.708
	c3.051,0.042,6.091,0.156,9.133,0.158c3.039,0.046,6.077,0.057,9.101-0.005c1.511-0.04,3.018-0.105,4.508-0.214
	c1.154-0.1,2.355-0.221,3.409-0.479c-0.425-0.123-0.866-0.236-1.313-0.338c-1.449-0.322-2.941-0.582-4.438-0.846
	c-1.5-0.283-2.989-0.536-4.541-0.925c-0.409-0.119-0.753-0.182-1.315-0.471c-0.084-0.052-0.162-0.095-0.289-0.207
	c-0.099-0.107-0.348-0.29-0.387-0.819c-0.009-0.252,0.09-0.485,0.181-0.617c0.089-0.135,0.185-0.22,0.245-0.271
	c0.146-0.114,0.231-0.151,0.322-0.198c0.319-0.143,0.524-0.181,0.747-0.233c0.847-0.172,1.596-0.248,2.387-0.311
	C25.372,45.302,28.477,45.419,31.531,45.768z"/>
</svg>
