<?xml version="1.0" encoding="utf-8"?>
<!-- Generator: Adobe Illustrator 15.1.0, SVG Export Plug-In . SVG Version: 6.00 Build 0)  -->
<!DOCTYPE svg PUBLIC "-//W3C//DTD SVG 1.1//EN" "http://www.w3.org/Graphics/SVG/1.1/DTD/svg11.dtd">
<svg version="1.1" id="Layer_1" xmlns="http://www.w3.org/2000/svg" xmlns:xlink="http://www.w3.org/1999/xlink" x="0px" y="0px"
	 width="56.69px" height="56.69px" viewBox="0 0 56.69 56.69" enable-background="new 0 0 56.69 56.69" xml:space="preserve">
<g>
	<path d="M36.918,51.503H19.119c-7.407,0-13.904-6.742-13.904-14.428V20.263c0-8.454,6.622-15.075,15.076-15.075h9.375
		c6.604,0,13.855,7.316,13.855,13.979v1.24c0,0.949,0.816,1.587,2.031,1.587h1.945c3.978,0,3.978,3.246,3.978,4.313v10.638
		C51.476,44.836,44.809,51.503,36.918,51.503z M20.291,7.188c-7.332,0-13.076,5.743-13.076,13.075v16.813
		c0,6.504,5.674,12.428,11.904,12.428h17.799c6.807,0,12.558-5.751,12.558-12.559V26.307c0-1.794-0.443-2.313-1.978-2.313h-1.945
		c-2.646,0-4.031-1.805-4.031-3.587v-1.24c0-5.598-6.315-11.979-11.855-11.979H20.291z M36.275,40.022H20.291
		c-1.974,0-3.579-1.606-3.579-3.58c0-1.973,1.605-3.578,3.579-3.578h15.984c1.973,0,3.578,1.605,3.578,3.578
		C39.854,38.416,38.248,40.022,36.275,40.022z M20.291,34.864c-0.856,0-1.579,0.723-1.579,1.578c0,0.871,0.708,1.58,1.579,1.58
		h15.984c0.855,0,1.578-0.724,1.578-1.58c0-0.87-0.708-1.578-1.578-1.578H20.291z M28.335,23.994h-8.044
		c-1.974,0-3.579-1.606-3.579-3.58c0-1.973,1.605-3.577,3.579-3.577h8.044c1.974,0,3.579,1.604,3.579,3.577
		C31.914,22.388,30.309,23.994,28.335,23.994z M20.291,18.837c-0.856,0-1.579,0.722-1.579,1.577c0,0.871,0.708,1.58,1.579,1.58
		h8.044c0.856,0,1.579-0.724,1.579-1.58c0-0.87-0.708-1.577-1.579-1.577H20.291z"/>
</g>
</svg>
