<?xml version="1.0" encoding="utf-8"?>
<!-- Generator: Adobe Illustrator 15.1.0, SVG Export Plug-In . SVG Version: 6.00 Build 0)  -->
<!DOCTYPE svg PUBLIC "-//W3C//DTD SVG 1.1//EN" "http://www.w3.org/Graphics/SVG/1.1/DTD/svg11.dtd">
<svg version="1.1" id="Layer_1" xmlns="http://www.w3.org/2000/svg" xmlns:xlink="http://www.w3.org/1999/xlink" x="0px" y="0px"
	 width="56.689px" height="56.689px" viewBox="0 0 56.689 56.689" enable-background="new 0 0 56.689 56.689" xml:space="preserve">
<path d="M52.912,5.784c-0.636-0.637-1.524-0.958-2.642-0.958c-4.534,0-13.125,5.545-21.377,13.799
	c-2.485,2.485-4.743,5.039-6.75,7.601l-0.015-0.015l-0.693,0.913l-0.526,0.694l0.009,0.009c-2.493,3.377-4.252,6.437-5.144,8.945
	c-0.264-0.033-0.521-0.057-0.774-0.057c-3.919,0-7.107,3.188-7.107,7.106c0,0.188,0.01,0.373,0.025,0.559
	c-0.06,1.532-1.597,2.467-3.305,3.365c-1.035,0.544-1.93,1.014-1.77,1.986c0.172,1.044,1.358,1.339,4.021,1.764
	c1.531,0.243,2.992,0.367,4.344,0.367c5.099,0,7.275-1.715,7.725-2.127c1.989-1.323,3.174-3.524,3.174-5.913
	c0-0.307-0.028-0.618-0.077-0.94c2.488-0.901,5.511-2.649,8.838-5.106l0.01,0.01l0.693-0.527c0.012-0.009,0.022-0.019,0.034-0.026
	l0.879-0.668L32.47,36.55c2.563-2.007,5.116-4.263,7.601-6.749c4.796-4.795,8.797-9.829,11.265-14.174
	C54.042,10.862,54.588,7.459,52.912,5.784z M17.751,48.121l-0.756,0.489l0.019,0.036c-0.841,0.479-2.653,1.218-5.805,1.218
	c-1.245,0-2.601-0.114-4.029-0.343c-0.501-0.08-0.907-0.151-1.238-0.216c1.625-0.87,3.929-2.286,3.978-4.933l0.001-0.052
	L9.915,44.27c-0.012-0.146-0.022-0.296-0.022-0.446c0-2.815,2.291-5.106,5.107-5.106c0.313,0,0.644,0.042,1.019,0.125l0.05,0.013
	l3.905,3.905c0.09,0.39,0.133,0.734,0.133,1.063C20.107,45.568,19.227,47.175,17.751,48.121z M21.131,41.086l-3.522-3.522
	c0.784-2.262,2.435-5.16,4.735-8.311l3.546,3.546l3.551,3.551C26.293,38.65,23.393,40.303,21.131,41.086z M49.597,14.64
	c-2.382,4.193-6.267,9.075-10.938,13.747c-2.49,2.488-5.043,4.755-7.604,6.748l-3.745-3.743l-3.75-3.749
	c1.992-2.561,4.259-5.115,6.746-7.603c8.674-8.675,16.609-13.213,19.964-13.213c0.568,0,0.98,0.125,1.228,0.371
	C52.183,7.882,52.095,10.242,49.597,14.64z"/>
</svg>
