<?xml version="1.0" encoding="utf-8"?>
<!-- Generator: Adobe Illustrator 15.1.0, SVG Export Plug-In . SVG Version: 6.00 Build 0)  -->
<!DOCTYPE svg PUBLIC "-//W3C//DTD SVG 1.1//EN" "http://www.w3.org/Graphics/SVG/1.1/DTD/svg11.dtd">
<svg version="1.1" id="Layer_1" xmlns="http://www.w3.org/2000/svg" xmlns:xlink="http://www.w3.org/1999/xlink" x="0px" y="0px"
	 width="56.689px" height="56.689px" viewBox="0 0 56.689 56.689" enable-background="new 0 0 56.689 56.689" xml:space="preserve">
<path d="M42.408,2.408H14.283c-3.31,0-6,2.69-6,6v39.873c0,3.31,2.69,6,6,6h28.125c3.309,0,6-2.69,6-6V8.408
	C48.408,5.099,45.717,2.408,42.408,2.408z M46.408,48.281c0,2.206-1.796,4-4,4H14.283c-2.206,0-4-1.794-4-4V8.408
	c0-2.206,1.794-4,4-4h28.125c2.204,0,4,1.794,4,4V48.281z M13.408,19.033h29.875V8.408H13.408V19.033z M15.408,10.408h25.875v6.625
	H15.408V10.408z M19.974,24.437v2.423c0,0.868-0.705,1.571-1.572,1.571h-2.423c-0.868,0-1.57-0.703-1.57-1.571v-2.423
	c0-0.867,0.702-1.57,1.57-1.57h2.423C19.269,22.866,19.974,23.57,19.974,24.437z M31.129,24.437v2.423
	c0,0.867-0.705,1.571-1.572,1.571h-2.422c-0.868,0-1.571-0.704-1.571-1.571v-2.423c0-0.868,0.703-1.57,1.571-1.57h2.422
	C30.424,22.866,31.129,23.569,31.129,24.437z M42.283,24.437v2.423c0,0.867-0.705,1.571-1.572,1.571h-2.422
	c-0.867,0-1.572-0.704-1.572-1.571v-2.423c0-0.868,0.705-1.57,1.572-1.57h2.422C41.578,22.866,42.283,23.569,42.283,24.437z
	 M19.974,34.238v2.423c0,0.867-0.705,1.57-1.572,1.57h-2.423c-0.868,0-1.57-0.703-1.57-1.57v-2.423c0-0.867,0.702-1.57,1.57-1.57
	h2.423C19.269,32.667,19.974,33.37,19.974,34.238z M19.974,44.038v2.422c0,0.868-0.705,1.571-1.572,1.571h-2.423
	c-0.868,0-1.57-0.703-1.57-1.571v-2.422c0-0.869,0.702-1.571,1.57-1.571h2.423C19.269,42.467,19.974,43.169,19.974,44.038z
	 M31.129,34.237v2.425c0,0.866-0.705,1.569-1.572,1.569h-2.422c-0.868,0-1.571-0.703-1.571-1.569v-2.425
	c0-0.867,0.703-1.57,1.571-1.57h2.422C30.424,32.666,31.129,33.369,31.129,34.237z M31.129,44.037v2.423
	c0,0.867-0.705,1.571-1.572,1.571h-2.422c-0.868,0-1.571-0.704-1.571-1.571v-2.423c0-0.868,0.703-1.571,1.571-1.571h2.422
	C30.424,42.466,31.129,43.169,31.129,44.037z M42.283,34.237v2.425c0,0.003-0.003,0.006-0.003,0.01v7.355
	c0,0.003,0.003,0.008,0.003,0.011v2.423c0,0.867-0.705,1.571-1.572,1.571h-2.422c-0.869,0-1.572-0.704-1.572-1.571v-1.135v-1.288
	v-7.376v-1.755v-0.67c0-0.867,0.703-1.57,1.572-1.57h2.422C41.578,32.666,42.283,33.369,42.283,34.237z"/>
</svg>
