<?xml version="1.0" encoding="utf-8"?>
<!-- Generator: Adobe Illustrator 15.1.0, SVG Export Plug-In . SVG Version: 6.00 Build 0)  -->
<!DOCTYPE svg PUBLIC "-//W3C//DTD SVG 1.1//EN" "http://www.w3.org/Graphics/SVG/1.1/DTD/svg11.dtd">
<svg version="1.1" id="Layer_1" xmlns="http://www.w3.org/2000/svg" xmlns:xlink="http://www.w3.org/1999/xlink" x="0px" y="0px"
	 width="56.689px" height="56.689px" viewBox="0 0 56.689 56.689" enable-background="new 0 0 56.689 56.689" xml:space="preserve">
<path d="M26.915,43.833H16.423V39.16c0-0.646,0.124-1.252,0.37-1.822c0.247-0.568,0.582-1.064,1.006-1.488s0.919-0.758,1.484-1
	c0.564-0.244,1.17-0.365,1.815-0.365h1.566c0.217,0,0.42-0.039,0.607-0.118c0.188-0.08,0.354-0.191,0.495-0.332
	c0.142-0.142,0.251-0.31,0.331-0.5c0.08-0.191,0.12-0.396,0.12-0.614s-0.04-0.421-0.12-0.608c-0.08-0.188-0.189-0.354-0.331-0.495
	s-0.307-0.252-0.495-0.331c-0.188-0.08-0.392-0.119-0.607-0.119h-5.567v-3.12h5.567c0.645,0,1.25,0.123,1.814,0.37
	c0.565,0.245,1.061,0.581,1.483,1.005c0.425,0.424,0.76,0.919,1.006,1.483c0.246,0.563,0.37,1.168,0.37,1.814
	c0,0.646-0.124,1.253-0.37,1.82c-0.246,0.568-0.581,1.064-1.006,1.488c-0.424,0.426-0.918,0.76-1.483,1.006
	c-0.564,0.248-1.171,0.371-1.814,0.371h-1.566c-0.218,0-0.42,0.039-0.608,0.119c-0.189,0.08-0.354,0.189-0.495,0.332
	c-0.143,0.141-0.252,0.305-0.332,0.494c-0.08,0.188-0.12,0.391-0.12,0.609v1.555h7.372V43.833z M37.4,43.499
	c0.593-0.226,1.112-0.547,1.562-0.97c0.449-0.42,0.808-0.934,1.076-1.543s0.401-1.295,0.401-2.055c0-0.754-0.132-1.434-0.4-2.038
	c-0.268-0.604-0.626-1.119-1.076-1.543s-0.969-0.75-1.562-0.975c-0.59-0.226-1.208-0.336-1.854-0.336h-2.848l0.282-2.676h6.816
	v-3.119h-9.623l-0.912,8.914h6.283c0.211,0,0.422,0.038,0.637,0.114c0.213,0.076,0.406,0.188,0.576,0.336
	c0.17,0.151,0.309,0.334,0.414,0.556c0.103,0.223,0.156,0.477,0.156,0.768c0,0.318-0.053,0.589-0.156,0.814
	c-0.105,0.225-0.244,0.411-0.414,0.555s-0.363,0.25-0.576,0.316c-0.215,0.064-0.426,0.098-0.637,0.098h-6.283v3.119h6.283
	C36.193,43.835,36.81,43.724,37.4,43.499z M54.284,12.47v8h-0.001v27.875c0,3.309-2.691,6.001-6,6.001H8.408c-3.31,0-6-2.691-6-6
	V20.47v-2v-6c0-3.309,2.69-6,6-6h3.687V5.595c0-1.792,1.458-3.25,3.25-3.25s3.25,1.458,3.25,3.25V6.47h19.501V5.595
	c0-1.792,1.458-3.25,3.25-3.25s3.25,1.458,3.25,3.25V6.47h3.688C51.593,6.47,54.284,9.161,54.284,12.47z M40.096,6.47v4
	c0,0.689,0.562,1.25,1.25,1.25c0.689,0,1.25-0.561,1.25-1.25v-4V5.595c0-0.689-0.561-1.25-1.25-1.25c-0.688,0-1.25,0.561-1.25,1.25
	V6.47z M14.095,6.47L14.095,6.47l0.001,4c0,0.689,0.562,1.25,1.25,1.25c0.689,0,1.25-0.561,1.25-1.25V5.595
	c0-0.689-0.56-1.25-1.25-1.25c-0.689,0-1.25,0.561-1.25,1.25V6.47z M4.408,18.47h47.875v-6c0-2.206-1.795-4-4-4h-3.688v2
	c0,1.792-1.458,3.25-3.25,3.25c0,0,0,0-0.001,0l0,0c-1.792,0-3.25-1.458-3.25-3.25v-2h-19.5v2c0,1.792-1.458,3.25-3.25,3.25
	s-3.25-1.458-3.25-3.25v-2H8.408c-2.206,0-4,1.794-4,4V18.47z M52.283,20.47H4.408v27.875c0,2.206,1.794,4,4,4h39.875
	c2.205,0,4-1.794,4-4V20.47z"/>
</svg>
