<?xml version="1.0" encoding="utf-8"?>
<!-- Generator: Adobe Illustrator 15.1.0, SVG Export Plug-In . SVG Version: 6.00 Build 0)  -->
<!DOCTYPE svg PUBLIC "-//W3C//DTD SVG 1.1//EN" "http://www.w3.org/Graphics/SVG/1.1/DTD/svg11.dtd">
<svg version="1.1" id="Layer_1" xmlns="http://www.w3.org/2000/svg" xmlns:xlink="http://www.w3.org/1999/xlink" x="0px" y="0px"
	 width="56.69px" height="56.69px" viewBox="0 0 56.69 56.69" enable-background="new 0 0 56.69 56.69" xml:space="preserve">
<path d="M51.981,8.18c-0.685,0-1.239,0.555-1.239,1.239v0.967l-4.292,2.479h-3.272v-2.422c0-2.603-2.117-4.72-4.72-4.72H12.156
	c-2.603,0-4.72,2.117-4.72,4.72v0.563H6.725v-0.288c0-0.899-0.729-1.628-1.627-1.628c-0.899,0-1.628,0.729-1.628,1.628v5.309
	c0,0.898,0.729,1.628,1.628,1.628c0.898,0,1.627-0.729,1.627-1.628v-0.214h0.712v12.233c0,2.603,2.117,4.721,4.72,4.721h1.908
	l4.217,16.066c0.329,1.257,1.467,2.135,2.766,2.135c0.244,0,0.488-0.031,0.727-0.094l6.017-1.58
	c1.523-0.401,2.438-1.968,2.038-3.492l-1.823-6.947l0.216-0.057c0.224-0.059,0.357-0.287,0.3-0.512l-1.03-3.92
	c-0.058-0.225-0.288-0.359-0.513-0.301l-0.215,0.057l-0.355-1.355h12.051c2.603,0,4.72-2.118,4.72-4.721v-2.422h3.273l4.291,2.479
	v0.967c0,0.686,0.555,1.24,1.239,1.24s1.239-0.555,1.239-1.24V9.419C53.221,8.734,52.666,8.18,51.981,8.18z M41.178,28.046
	c0,1.5-1.22,2.721-2.72,2.721H23.815l4.079,15.543c0.12,0.458-0.155,0.93-0.613,1.051l-6.015,1.579
	c-0.456,0.122-0.934-0.164-1.052-0.614l-4.607-17.559h-3.451c-1.5,0-2.72-1.221-2.72-2.721V10.442c0-1.499,1.22-2.72,2.72-2.72
	h26.302c1.5,0,2.72,1.221,2.72,2.72v2.422h-0.004v12.76h0.004V28.046z M50.158,19.244v6.212l-2.707-1.563l-0.464-0.269h-0.536
	h-3.273v-8.76h3.272h0.536l0.464-0.269l2.708-1.563V19.244z M23.219,15.813c0,2.435-1.976,4.41-4.411,4.41
	c-2.437,0-4.411-1.976-4.411-4.41c0-2.437,1.975-4.411,4.411-4.411C21.243,11.401,23.219,13.376,23.219,15.813z"/>
</svg>
