<?xml version="1.0" encoding="utf-8"?>
<!-- Generator: Adobe Illustrator 15.1.0, SVG Export Plug-In . SVG Version: 6.00 Build 0)  -->
<!DOCTYPE svg PUBLIC "-//W3C//DTD SVG 1.1//EN" "http://www.w3.org/Graphics/SVG/1.1/DTD/svg11.dtd">
<svg version="1.1" id="Layer_1" xmlns="http://www.w3.org/2000/svg" xmlns:xlink="http://www.w3.org/1999/xlink" x="0px" y="0px"
	 width="56.69px" height="56.69px" viewBox="0 0 56.69 56.69" enable-background="new 0 0 56.69 56.69" xml:space="preserve">
<path d="M48.304,48.855H8.387c-3.309,0-6-2.691-6-6V18.522c0-3.309,2.691-6,6-6h8.145l0.713-2.405
	c0.291-1.316,1.494-2.282,2.909-2.282h16.384c1.375,0,2.592,0.961,2.914,2.294l0.019,0.082l0.65,2.311h8.184c3.309,0,6,2.691,6,6
	v24.333C54.304,46.164,51.612,48.855,48.304,48.855z M8.387,14.522c-2.206,0-4,1.794-4,4v24.333c0,2.206,1.794,4,4,4h39.917
	c2.206,0,4-1.794,4-4V18.522c0-2.206-1.794-4-4-4h-9.698l-1.095-3.905c-0.101-0.454-0.51-0.783-0.974-0.783H20.153
	c-0.471,0-0.871,0.322-0.974,0.784l-1.156,3.904H8.387z M28.347,42.81c-6.999,0-12.693-5.693-12.693-12.691
	c0-6.999,5.694-12.692,12.693-12.692c6.997,0,12.69,5.694,12.69,12.692C41.037,37.116,35.344,42.81,28.347,42.81z M28.347,19.426
	c-5.896,0-10.693,4.796-10.693,10.692c0,5.896,4.797,10.691,10.693,10.691c5.895,0,10.69-4.796,10.69-10.691
	C39.037,24.222,34.241,19.426,28.347,19.426z M47.013,18.234c-1.02,0-1.845,0.827-1.845,1.845c0,1.019,0.825,1.845,1.845,1.845
	c1.019,0,1.844-0.826,1.844-1.845C48.856,19.061,48.031,18.234,47.013,18.234z"/>
</svg>
