<?xml version="1.0" encoding="utf-8"?>
<!-- Generator: Adobe Illustrator 15.1.0, SVG Export Plug-In . SVG Version: 6.00 Build 0)  -->
<!DOCTYPE svg PUBLIC "-//W3C//DTD SVG 1.1//EN" "http://www.w3.org/Graphics/SVG/1.1/DTD/svg11.dtd">
<svg version="1.1" id="Layer_1" xmlns="http://www.w3.org/2000/svg" xmlns:xlink="http://www.w3.org/1999/xlink" x="0px" y="0px"
	 width="56.69px" height="56.69px" viewBox="0 0 56.69 56.69" enable-background="new 0 0 56.69 56.69" xml:space="preserve">
<path d="M52.506,25.43c-0.33,0-0.699,0.106-1.092,0.332l-7.586,4.381c-0.172,0.099-0.357,0.206-0.555,0.319v16.627
	c0.197,0.113,0.383,0.221,0.555,0.319l7.586,4.381c0.393,0.226,0.762,0.333,1.092,0.333c0.807,0,1.363-0.644,1.363-1.751V41.61
	c0-1.56,0-4.11,0-5.669V27.18C53.869,26.072,53.313,25.43,52.506,25.43z M51.869,35.941v5.669v8.132l-6.596-3.809V31.617
	l6.596-3.809V35.941z M48.684,16.729c0-7.321-5.957-13.277-13.279-13.277c-6.358,0-11.682,4.495-12.974,10.473
	c-1.861-3.043-5.205-5.085-9.026-5.085c-5.836,0-10.584,4.748-10.584,10.584c0,2.27,0.725,4.37,1.946,6.095
	c-1.112,0.936-1.776,2.304-1.776,3.793v18.929c0,2.757,2.243,5,5,5h28.283c2.758,0,5-2.243,5-5V29.311
	c0-0.217-0.023-0.438-0.057-0.662C45.63,26.488,48.684,21.964,48.684,16.729z M35.404,5.451c6.219,0,11.279,5.059,11.279,11.277
	c0,4.66-2.842,8.668-6.882,10.385l-0.029,0.012c-0.138,0.058-0.281,0.102-0.421,0.154c-0.223,0.083-0.444,0.169-0.67,0.238
	c-0.141,0.043-0.285,0.073-0.428,0.11c-0.211,0.055-0.421,0.115-0.634,0.158c-0.201,0.041-0.408,0.064-0.612,0.094
	c-0.16,0.023-0.319,0.054-0.48,0.07c-0.369,0.037-0.744,0.057-1.123,0.057c-0.388,0-0.771-0.02-1.149-0.058
	c-0.026-0.003-0.053-0.009-0.079-0.012c-2.116-0.23-4.052-1.054-5.653-2.292c-0.101-0.079-0.207-0.149-0.306-0.232
	c-0.119-0.098-0.228-0.208-0.342-0.311c-0.164-0.147-0.33-0.292-0.485-0.45c-2.015-2.039-3.263-4.837-3.263-7.923
	C24.126,10.51,29.186,5.451,35.404,5.451z M24.519,24.311h-1.736c0.288-0.55,0.534-1.125,0.723-1.726
	C23.803,23.186,24.138,23.765,24.519,24.311z M13.405,10.839c4.733,0,8.584,3.851,8.584,8.584c0,2.002-0.695,3.843-1.848,5.305
	c-0.398,0.504-0.842,0.956-1.326,1.352c-0.054,0.044-0.113,0.083-0.168,0.125c-0.178,0.139-0.36,0.272-0.548,0.396
	c-0.105,0.069-0.215,0.133-0.324,0.197c-0.146,0.087-0.293,0.172-0.444,0.25c-0.124,0.064-0.25,0.124-0.378,0.183
	c-0.147,0.067-0.296,0.129-0.446,0.188c-0.13,0.05-0.261,0.1-0.394,0.144c-0.162,0.054-0.327,0.1-0.492,0.144
	c-0.126,0.034-0.251,0.07-0.379,0.098c-0.193,0.042-0.389,0.072-0.586,0.101c-0.106,0.016-0.21,0.037-0.317,0.049
	c-0.308,0.033-0.619,0.053-0.933,0.053c-0.304,0-0.607-0.017-0.906-0.049c-0.035-0.004-0.068-0.012-0.102-0.016
	c-0.267-0.032-0.531-0.073-0.792-0.129c-0.03-0.006-0.058-0.016-0.087-0.022c-0.263-0.06-0.524-0.13-0.781-0.214
	c-0.029-0.01-0.058-0.022-0.087-0.032c-0.252-0.086-0.5-0.182-0.743-0.292c-0.035-0.016-0.069-0.034-0.104-0.05
	c-0.233-0.108-0.462-0.226-0.686-0.356c-0.04-0.023-0.079-0.048-0.118-0.072c-0.214-0.129-0.423-0.266-0.625-0.414
	c-0.042-0.03-0.083-0.062-0.124-0.092c-0.199-0.15-0.391-0.308-0.577-0.476c-0.037-0.033-0.073-0.066-0.109-0.099
	c-0.191-0.178-0.374-0.365-0.549-0.562c-0.051-0.057-0.105-0.111-0.154-0.17l-0.09-0.103c-1.217-1.481-1.949-3.376-1.949-5.438
	C4.821,14.689,8.671,10.839,13.405,10.839z M39.273,29.43v18.81c0,1.654-1.346,3-3,3H7.991c-1.654,0-3-1.346-3-3V29.311
	c0-0.893,0.397-1.718,1.07-2.279c0.037,0.035,0.077,0.065,0.114,0.1c0.203,0.19,0.409,0.375,0.626,0.549
	c0.05,0.041,0.104,0.077,0.155,0.116c0.218,0.168,0.439,0.331,0.669,0.482c0.05,0.033,0.103,0.062,0.154,0.094
	c0.236,0.148,0.475,0.292,0.722,0.422c0.048,0.025,0.099,0.046,0.147,0.071c0.252,0.127,0.508,0.249,0.771,0.356
	c0.051,0.021,0.103,0.037,0.154,0.057c0.262,0.103,0.527,0.199,0.798,0.28c0.068,0.021,0.139,0.035,0.208,0.054
	c0.255,0.071,0.511,0.14,0.773,0.191c0.125,0.024,0.251,0.037,0.377,0.058c0.209,0.033,0.418,0.071,0.631,0.093
	c0.345,0.034,0.693,0.053,1.043,0.053c0.377,0,0.749-0.021,1.115-0.06c0.143-0.016,0.282-0.045,0.424-0.065
	c0.22-0.032,0.44-0.062,0.656-0.107c0.177-0.037,0.349-0.088,0.522-0.134c0.173-0.047,0.347-0.089,0.517-0.144
	c0.188-0.061,0.371-0.133,0.555-0.203c0.149-0.058,0.298-0.112,0.444-0.177c0.185-0.08,0.364-0.171,0.543-0.262
	c0.141-0.072,0.28-0.143,0.417-0.221c0.168-0.095,0.333-0.197,0.497-0.302c0.146-0.093,0.289-0.19,0.43-0.291
	c0.142-0.101,0.281-0.204,0.418-0.313c0.165-0.129,0.322-0.266,0.479-0.404c0.104-0.093,0.209-0.185,0.311-0.282
	c0.198-0.191,0.386-0.392,0.569-0.597c0.042-0.047,0.088-0.088,0.129-0.136h4.79c0.136,0.13,0.282,0.245,0.422,0.368
	c0.137,0.121,0.271,0.246,0.414,0.361c0.218,0.177,0.444,0.34,0.672,0.503c0.11,0.079,0.217,0.162,0.33,0.237
	c0.27,0.18,0.547,0.344,0.828,0.503c0.083,0.047,0.163,0.099,0.247,0.144c0.308,0.166,0.622,0.314,0.941,0.455
	c0.07,0.031,0.138,0.066,0.208,0.095c0.325,0.137,0.658,0.255,0.994,0.365c0.074,0.024,0.147,0.054,0.223,0.077
	c0.327,0.101,0.661,0.182,0.996,0.257c0.093,0.021,0.182,0.048,0.274,0.066c0.331,0.066,0.666,0.112,1.004,0.154
	c0.102,0.012,0.2,0.033,0.303,0.043c0.438,0.043,0.881,0.067,1.328,0.067c0.406,0,0.811-0.024,1.212-0.062
	c0.118-0.011,0.235-0.025,0.354-0.039c0.292-0.035,0.583-0.079,0.872-0.134c0.117-0.021,0.235-0.041,0.352-0.065
	C38.557,29.629,38.917,29.539,39.273,29.43z M30.102,41.813v0.954c0,1.104-0.896,2-2,2H14.652c-1.104,0-2-0.896-2-2v-0.954
	c0-1.104,0.896-2,2-2h13.449C29.205,39.813,30.102,40.709,30.102,41.813z"/>
</svg>
