<?xml version="1.0" encoding="utf-8"?>
<!-- Generator: Adobe Illustrator 15.1.0, SVG Export Plug-In . SVG Version: 6.00 Build 0)  -->
<!DOCTYPE svg PUBLIC "-//W3C//DTD SVG 1.1//EN" "http://www.w3.org/Graphics/SVG/1.1/DTD/svg11.dtd">
<svg version="1.1" id="Layer_1" xmlns="http://www.w3.org/2000/svg" xmlns:xlink="http://www.w3.org/1999/xlink" x="0px" y="0px"
	 width="56.69px" height="56.69px" viewBox="0 0 56.69 56.69" enable-background="new 0 0 56.69 56.69" xml:space="preserve">
<path d="M51.431,20.42c-0.685,0-1.239,0.555-1.239,1.239v0.967l-3.6,2.079v-2.021c0-3.154-2.565-5.72-5.72-5.72H19.074h-2
	l-2.52-2.52c0.535-0.964,0.405-2.2-0.414-3.018c-0.99-0.991-2.596-0.991-3.586,0l-5.792,5.791c-0.989,0.99-0.989,2.596,0,3.584
	c0.658,0.659,1.585,0.87,2.425,0.653l1.663,1.663v2v15.169c0,3.154,2.565,5.721,5.72,5.721h26.302c3.154,0,5.72-2.566,5.72-5.721
	v-2.021l3.6,2.079v0.966c0,0.686,0.555,1.24,1.239,1.24s1.239-0.555,1.239-1.24V21.66C52.67,20.975,52.115,20.42,51.431,20.42z
	 M17.66,20.378l5.357,5.357c0.582,0.583,0.903,1.357,0.903,2.181c0,0.823-0.321,1.597-0.904,2.179
	c-0.411,0.412-0.92,0.685-1.471,0.814C21.315,30.964,21.079,31,20.837,31c-0.206,0-0.408-0.021-0.606-0.06
	c-0.592-0.117-1.137-0.407-1.573-0.845l-6.393-6.392l-2.856-2.856l4.361-4.36l0.477,0.477h-0.001L17.66,20.378z M44.592,40.287
	c0,2.055-1.665,3.721-3.72,3.721H14.57c-2.055,0-3.72-1.666-3.72-3.721V25.118l6.392,6.392c0.992,0.993,2.294,1.49,3.595,1.49
	s2.603-0.497,3.595-1.49c1.985-1.984,1.985-5.204,0-7.189l-5.357-5.357h21.798c2.055,0,3.72,1.666,3.72,3.72v3.176v11.25V40.287z
	 M49.607,31.485v6.212l-3.016-1.741v-8.941l3.016-1.741V31.485z M36.421,24.006c0,0.869-0.704,1.573-1.572,1.573
	c-0.869,0-1.573-0.704-1.573-1.573c0-0.868,0.704-1.572,1.573-1.572C35.717,22.434,36.421,23.138,36.421,24.006z M41.097,24.006
	c0,0.869-0.704,1.573-1.572,1.573c-0.869,0-1.573-0.704-1.573-1.573c0-0.868,0.704-1.572,1.573-1.572
	C40.393,22.434,41.097,23.138,41.097,24.006z"/>
</svg>
