<?xml version="1.0" encoding="utf-8"?>
<!-- Generator: Adobe Illustrator 15.1.0, SVG Export Plug-In . SVG Version: 6.00 Build 0)  -->
<!DOCTYPE svg PUBLIC "-//W3C//DTD SVG 1.1//EN" "http://www.w3.org/Graphics/SVG/1.1/DTD/svg11.dtd">
<svg version="1.1" id="Layer_1" xmlns="http://www.w3.org/2000/svg" xmlns:xlink="http://www.w3.org/1999/xlink" x="0px" y="0px"
	 width="56.69px" height="56.69px" viewBox="0 0 56.69 56.69" enable-background="new 0 0 56.69 56.69" xml:space="preserve">
<path d="M37.813,18.969h-5.864v-2.973h5.864v-5.864h2.974v5.864h5.864v2.973h-5.864v5.865h-2.974V18.969z M43.664,39.185
	l-25.194,0.02l1.428,4.738c0.449-0.141,0.917-0.236,1.412-0.236c0.996,0,1.918,0.309,2.682,0.832h17.136
	c0.764-0.523,1.687-0.832,2.683-0.832c2.623,0,4.75,2.127,4.75,4.75s-2.127,4.75-4.75,4.75c-2.624,0-4.75-2.127-4.75-4.75
	c0-0.684,0.15-1.33,0.41-1.918h-13.82c0.26,0.588,0.41,1.234,0.41,1.918c0,2.623-2.127,4.75-4.75,4.75
	c-2.624,0-4.75-2.127-4.75-4.75c0-1.389,0.606-2.627,1.558-3.496L8.544,13.188l-4.147,0.018c-0.001,0-0.003,0-0.004,0
	c-0.551,0-0.998-0.444-1-0.995c-0.002-0.553,0.443-1.002,0.996-1.005l4.896-0.021c0.001,0,0.003,0,0.004,0
	c0.524,0,0.943,0.407,0.984,0.922c0.024,0.049,0.061,0.089,0.077,0.144l1.505,4.997c0.068-0.015,0.133-0.042,0.205-0.042h13.255
	c0.15-7.59,6.359-13.721,13.984-13.721c7.719,0,13.999,6.279,13.999,13.998c0,4.787-2.417,9.017-6.092,11.543L44.69,38.3
	c-0.02,0.072-0.057,0.133-0.091,0.197C44.468,38.894,44.105,39.185,43.664,39.185z M41.06,48.456c0,1.516,1.233,2.75,2.75,2.75
	s2.75-1.234,2.75-2.75c0-1.518-1.233-2.75-2.75-2.75S41.06,46.938,41.06,48.456z M18.56,48.456c0,1.516,1.233,2.75,2.75,2.75
	s2.75-1.234,2.75-2.75c0-1.518-1.233-2.75-2.75-2.75S18.56,46.938,18.56,48.456z M27.301,17.482c0,6.617,5.382,12.001,11.998,12.001
	S51.298,24.1,51.298,17.482c0-6.615-5.383-11.998-11.999-11.998S27.301,10.867,27.301,17.482z M42.921,37.187l1.849-6.818
	c-1.682,0.717-3.53,1.115-5.471,1.115c-7.135,0-13.027-5.37-13.881-12.278H12.445l5.423,18.001L42.921,37.187z"/>
</svg>
