<?xml version="1.0" encoding="utf-8"?>
<!-- Generator: Adobe Illustrator 15.1.0, SVG Export Plug-In . SVG Version: 6.00 Build 0)  -->
<!DOCTYPE svg PUBLIC "-//W3C//DTD SVG 1.1//EN" "http://www.w3.org/Graphics/SVG/1.1/DTD/svg11.dtd">
<svg version="1.1" id="Layer_1" xmlns="http://www.w3.org/2000/svg" xmlns:xlink="http://www.w3.org/1999/xlink" x="0px" y="0px"
	 width="56.69px" height="56.69px" viewBox="0 0 56.69 56.69" enable-background="new 0 0 56.69 56.69" xml:space="preserve">
<path d="M51.262,19.581H33.211l7.064-13.398c0.258-0.488,0.072-1.092-0.418-1.351l-3.207-1.69c-0.488-0.258-1.092-0.07-1.35,0.418
	l-7.303,13.849l-1.146,2.173H5.428c-1.654,0-3,1.346-3,3v3.834c0,1.654,1.346,3,3,3h1.168v21.25c0,1.654,1.346,3,3,3h37.666
	c1.654,0,3-1.346,3-3v-21.25h1c1.654,0,3-1.346,3-3v-3.834C54.262,20.927,52.916,19.581,51.262,19.581z M48.262,50.665
	c0,0.552-0.447,1-1,1H9.596c-0.552,0-1-0.448-1-1v-21.25h39.666V50.665z M52.262,26.415c0,0.552-0.447,1-1,1h-1H6.596H5.428
	c-0.552,0-1-0.448-1-1v-3.834c0-0.552,0.448-1,1-1h20.369l-0.083,0.158c-0.722,1.369-0.198,3.064,1.172,3.786
	c1.368,0.722,3.063,0.197,3.786-1.172l0.852-1.615c0.02-0.028,0.049-0.048,0.066-0.081l0.566-1.076h19.105c0.553,0,1,0.448,1,1
	V26.415z M13.375,37.803v-2.865c0-0.358,0.291-0.648,0.648-0.648h2.865c0.357,0,0.648,0.29,0.648,0.648v2.865
	c0,0.357-0.291,0.648-0.648,0.648h-2.865C13.667,38.451,13.375,38.16,13.375,37.803z M39.563,37.803v-2.865
	c0-0.358,0.291-0.648,0.648-0.648h2.865c0.357,0,0.648,0.29,0.648,0.648v2.865c0,0.357-0.291,0.648-0.648,0.648h-2.865
	C39.854,38.451,39.563,38.16,39.563,37.803z M30.834,37.803v-2.865c0-0.358,0.291-0.648,0.648-0.648h2.865
	c0.357,0,0.648,0.29,0.648,0.648v2.865c0,0.357-0.291,0.648-0.648,0.648h-2.865C31.125,38.451,30.834,38.16,30.834,37.803z
	 M22.105,37.803v-2.865c0-0.358,0.291-0.648,0.648-0.648h2.865c0.357,0,0.648,0.29,0.648,0.648v2.865
	c0,0.357-0.291,0.648-0.648,0.648h-2.865C22.396,38.451,22.105,38.16,22.105,37.803z M17.6,43.188v2.865
	c0,0.357-0.291,0.648-0.648,0.648h-2.865c-0.357,0-0.648-0.291-0.648-0.648v-2.865c0-0.358,0.291-0.648,0.648-0.648h2.865
	C17.309,42.539,17.6,42.829,17.6,43.188z M43.787,43.188v2.865c0,0.357-0.291,0.648-0.648,0.648h-2.865
	c-0.357,0-0.648-0.291-0.648-0.648v-2.865c0-0.358,0.291-0.648,0.648-0.648h2.865C43.496,42.539,43.787,42.829,43.787,43.188z
	 M35.059,43.188v2.865c0,0.357-0.291,0.648-0.648,0.648h-2.865c-0.357,0-0.648-0.291-0.648-0.648v-2.865
	c0-0.358,0.291-0.648,0.648-0.648h2.865C34.768,42.539,35.059,42.829,35.059,43.188z M26.33,43.188v2.865
	c0,0.357-0.291,0.648-0.648,0.648h-2.865c-0.357,0-0.648-0.291-0.648-0.648v-2.865c0-0.358,0.291-0.648,0.648-0.648h2.865
	C26.039,42.539,26.33,42.829,26.33,43.188z"/>
</svg>
