<?xml version="1.0" encoding="utf-8"?>
<!-- Generator: Adobe Illustrator 15.1.0, SVG Export Plug-In . SVG Version: 6.00 Build 0)  -->
<!DOCTYPE svg PUBLIC "-//W3C//DTD SVG 1.1//EN" "http://www.w3.org/Graphics/SVG/1.1/DTD/svg11.dtd">
<svg version="1.1" id="Layer_1" xmlns="http://www.w3.org/2000/svg" xmlns:xlink="http://www.w3.org/1999/xlink" x="0px" y="0px"
	 width="56.69px" height="56.69px" viewBox="0 0 56.69 56.69" enable-background="new 0 0 56.69 56.69" xml:space="preserve">
<path d="M44.6,38.497c0.034-0.064,0.071-0.125,0.091-0.197l2.516-9.274c3.675-2.526,6.092-6.756,6.092-11.543
	c0-7.719-6.28-13.998-13.999-13.998c-7.625,0-13.834,6.131-13.984,13.721H12.06c-0.072,0-0.137,0.027-0.205,0.042L10.35,12.25
	c-0.017-0.055-0.053-0.095-0.077-0.144c-0.041-0.515-0.46-0.922-0.984-0.922c-0.001,0-0.003,0-0.004,0l-4.896,0.021
	c-0.553,0.003-0.998,0.452-0.996,1.005c0.002,0.551,0.449,0.995,1,0.995c0.001,0,0.003,0,0.004,0l4.147-0.018l9.573,31.771
	c-0.951,0.869-1.558,2.107-1.558,3.496c0,2.623,2.126,4.75,4.75,4.75c2.623,0,4.75-2.127,4.75-4.75c0-0.684-0.15-1.33-0.41-1.918
	h13.82c-0.26,0.588-0.41,1.234-0.41,1.918c0,2.623,2.126,4.75,4.75,4.75c2.623,0,4.75-2.127,4.75-4.75s-2.127-4.75-4.75-4.75
	c-0.996,0-1.919,0.309-2.683,0.832H23.991c-0.764-0.523-1.686-0.832-2.682-0.832c-0.495,0-0.963,0.096-1.412,0.236l-1.428-4.738
	l25.194-0.02C44.105,39.185,44.468,38.894,44.6,38.497z M43.81,45.706c1.517,0,2.75,1.232,2.75,2.75c0,1.516-1.233,2.75-2.75,2.75
	s-2.75-1.234-2.75-2.75C41.06,46.938,42.293,45.706,43.81,45.706z M21.31,45.706c1.517,0,2.75,1.232,2.75,2.75
	c0,1.516-1.233,2.75-2.75,2.75s-2.75-1.234-2.75-2.75C18.56,46.938,19.793,45.706,21.31,45.706z M39.299,5.484
	c6.616,0,11.999,5.383,11.999,11.998c0,6.617-5.383,12.001-11.999,12.001S27.301,24.1,27.301,17.482
	C27.301,10.867,32.683,5.484,39.299,5.484z M17.868,37.206l-5.423-18.001h12.973c0.854,6.908,6.746,12.278,13.881,12.278
	c1.94,0,3.789-0.398,5.471-1.115l-1.849,6.818L17.868,37.206z M46.651,18.969H31.949v-2.973h14.702V18.969z"/>
</svg>
