<?xml version="1.0" encoding="utf-8"?>
<!-- Generator: Adobe Illustrator 15.1.0, SVG Export Plug-In . SVG Version: 6.00 Build 0)  -->
<!DOCTYPE svg PUBLIC "-//W3C//DTD SVG 1.1//EN" "http://www.w3.org/Graphics/SVG/1.1/DTD/svg11.dtd">
<svg version="1.1" id="Layer_1" xmlns="http://www.w3.org/2000/svg" xmlns:xlink="http://www.w3.org/1999/xlink" x="0px" y="0px"
	 width="56.69px" height="56.69px" viewBox="0 0 56.69 56.69" enable-background="new 0 0 56.69 56.69" xml:space="preserve">
<path d="M54.346,23.899c0-2.573-2.094-4.666-4.666-4.666h-7.406L34.564,4.609c-0.846-1.605-2.705-2.289-4.15-1.527
	c-1.445,0.762-1.93,2.682-1.084,4.287l6.254,11.864H21.105l6.254-11.864c0.847-1.605,0.361-3.525-1.084-4.287
	c-1.445-0.762-3.304-0.078-4.15,1.527l-7.709,14.624H7.012c-2.573,0-4.667,2.093-4.667,4.666c0,1.861,1.104,3.459,2.684,4.207
	l2.9,22.883c0.037,1.622,1.368,2.931,2.999,2.931h34.833c1.631,0,2.963-1.309,3-2.931l2.9-22.882
	C53.242,27.358,54.346,25.761,54.346,23.899z M46.77,50.794l-0.008,0.126c0,0.552-0.447,1-1,1H10.928c-0.552,0-1-0.448-1-1
	L7.103,28.565h42.485L46.77,50.794z M50.727,26.35l-0.273,0.083c-0.137,0.041-0.26,0.07-0.379,0.092
	c-0.129,0.02-0.26,0.04-0.395,0.04H7.012c-0.136,0-0.266-0.021-0.396-0.04c-0.118-0.021-0.242-0.051-0.378-0.092L5.965,26.35
	c-0.951-0.408-1.62-1.352-1.62-2.451c0-1.47,1.196-2.666,2.667-2.666h6.412c-0.479,1.465,0.046,3.042,1.322,3.715
	c1.445,0.762,3.304,0.078,4.15-1.527l1.153-2.188h16.588l1.154,2.188c0.846,1.605,2.705,2.289,4.15,1.527
	c1.275-0.673,1.801-2.25,1.322-3.715h6.414c1.469,0,2.666,1.196,2.666,2.666C52.346,24.998,51.678,25.941,50.727,26.35z
	 M13.908,47.816v-15.5c0-0.553,0.447-1,1-1s1,0.447,1,1v15.5c0,0.553-0.447,1-1,1S13.908,48.369,13.908,47.816z M40.783,47.816
	v-15.5c0-0.553,0.447-1,1-1s1,0.447,1,1v15.5c0,0.553-0.447,1-1,1S40.783,48.369,40.783,47.816z M31.824,47.816v-15.5
	c0-0.553,0.447-1,1-1s1,0.447,1,1v15.5c0,0.553-0.447,1-1,1S31.824,48.369,31.824,47.816z M22.867,47.816v-15.5c0-0.553,0.447-1,1-1
	s1,0.447,1,1v15.5c0,0.553-0.447,1-1,1S22.867,48.369,22.867,47.816z"/>
</svg>
