<?xml version="1.0" encoding="utf-8"?>
<!-- Generator: Adobe Illustrator 15.1.0, SVG Export Plug-In . SVG Version: 6.00 Build 0)  -->
<!DOCTYPE svg PUBLIC "-//W3C//DTD SVG 1.1//EN" "http://www.w3.org/Graphics/SVG/1.1/DTD/svg11.dtd">
<svg version="1.1" id="Layer_1" xmlns="http://www.w3.org/2000/svg" xmlns:xlink="http://www.w3.org/1999/xlink" x="0px" y="0px"
	 width="56.689px" height="56.689px" viewBox="0 0 56.689 56.689" enable-background="new 0 0 56.689 56.689" xml:space="preserve">
<path d="M47.304,3.737H9.386c-3.86,0-7,3.14-7,7V36.32c0,3.859,3.14,7,7,7h0.812l-0.076,10.55l15.27-10.55h21.911
	c3.859,0,7-3.141,7-7V10.737C54.304,6.877,51.163,3.737,47.304,3.737z M52.304,36.32c0,2.757-2.243,5-5,5H24.769L12.15,50.037
	l0.063-8.718H9.386c-2.757,0-5-2.243-5-5V10.737c0-2.757,2.243-5,5-5h37.917c2.757,0,5,2.243,5,5V36.32z M21.178,22.926
	c0,1.657-1.343,3-3,3s-3-1.343-3-3s1.343-3,3-3S21.178,21.269,21.178,22.926z M31.345,22.926c0,1.657-1.342,3-3,3
	c-1.656,0-3-1.343-3-3s1.344-3,3-3C30.003,19.926,31.345,21.269,31.345,22.926z M41.511,23.259c0,1.657-1.342,3-3,3
	c-1.656,0-3-1.343-3-3s1.344-3,3-3C40.169,20.259,41.511,21.602,41.511,23.259z"/>
</svg>
