<?xml version="1.0" encoding="utf-8"?>
<!-- Generator: Adobe Illustrator 15.1.0, SVG Export Plug-In . SVG Version: 6.00 Build 0)  -->
<!DOCTYPE svg PUBLIC "-//W3C//DTD SVG 1.1//EN" "http://www.w3.org/Graphics/SVG/1.1/DTD/svg11.dtd">
<svg version="1.1" id="Layer_1" xmlns="http://www.w3.org/2000/svg" xmlns:xlink="http://www.w3.org/1999/xlink" x="0px" y="0px"
	 width="56.69px" height="56.69px" viewBox="0 0 56.69 56.69" enable-background="new 0 0 56.69 56.69" xml:space="preserve">
<path d="M37.219,19.256h-3.162v3.852H22.633v-3.852h-3.162c0,0-6.588,13.394-14.336,19.292c-1.865,10.318,5.553,10.957,5.553,10.957
	h17.24h0.836h17.238c0,0,7.418-0.639,5.553-10.957C43.807,32.65,37.219,19.256,37.219,19.256z M48.664,45.898
	c-1.039,1.342-2.49,1.635-2.787,1.682H28.764h-0.836H10.813c-0.289-0.047-1.719-0.34-2.748-1.631
	c-1.104-1.385-1.471-3.58-1.072-6.377c6.416-5.219,11.82-14.792,13.641-18.236v1.771v1.926h2h11.424h2v-1.926v-1.771
	c1.82,3.443,7.225,13.017,13.641,18.236C50.09,42.336,49.736,44.514,48.664,45.898z M54.078,17.493
	c-0.197-5.78-4.879-10.309-10.656-10.309H13.27c-5.734,0-10.387,4.458-10.652,10.207L2.609,18.7c0,1.654,1.346,3,3,3h9.396
	c1.654,0,3-1.346,3-3.029l-0.033-1.138c0.004-0.651,0.537-1.181,1.188-1.181h18.25c0.65,0,1.182,0.529,1.186,1.17l-0.02,1.178
	c0,1.654,1.354,3,3.016,3h9.473c1.664,0,3.016-1.346,3.016-3.001L54.078,17.493z M51.064,19.7h-9.473
	c-0.559,0-1.016-0.448-1.016-0.982l0.02-1.197c-0.012-1.747-1.439-3.168-3.186-3.168H19.16c-1.705,0-3.107,1.354-3.184,3.049
	l-0.01,0.037l0.039,1.262c0,0.552-0.447,1-1,1H5.609c-0.551,0-1-0.448-1-1l0.002-1.139c0.16-4.697,3.963-8.377,8.658-8.377h30.152
	c4.693,0,8.496,3.68,8.656,8.342L52.08,18.7C52.08,19.251,51.625,19.7,51.064,19.7z M28.344,27.219
	c-5.674,0-10.273,4.093-10.273,9.144s4.6,9.146,10.273,9.146c2.348,0,4.502-0.707,6.232-1.885l-1.756-3.486l4.107,1.248
	c1.068-1.441,1.693-3.166,1.693-5.023C38.621,31.313,34.021,27.219,28.344,27.219z M28.344,40.865c-2.793,0-5.055-2.016-5.055-4.502
	c0-2.484,2.262-4.498,5.055-4.498c2.795,0,5.059,2.014,5.059,4.498C33.402,38.85,31.139,40.865,28.344,40.865z"/>
</svg>
