<?xml version="1.0" encoding="utf-8"?>
<!-- Generator: Adobe Illustrator 15.1.0, SVG Export Plug-In . SVG Version: 6.00 Build 0)  -->
<!DOCTYPE svg PUBLIC "-//W3C//DTD SVG 1.1//EN" "http://www.w3.org/Graphics/SVG/1.1/DTD/svg11.dtd">
<svg version="1.1" id="Layer_1" xmlns="http://www.w3.org/2000/svg" xmlns:xlink="http://www.w3.org/1999/xlink" x="0px" y="0px"
	 width="56.689px" height="56.689px" viewBox="0 0 56.689 56.689" enable-background="new 0 0 56.689 56.689" xml:space="preserve">
<path d="M51.29,5.4v3.73c-1.023,0.659-1.701,1.809-1.701,3.113c0,1.304,0.678,2.453,1.701,3.112V51.29H5.4l0.001-35.936
	C6.423,14.696,7.1,13.547,7.1,12.242c0-1.304-0.678-2.453-1.7-3.112V5.4h35.388c0.66,1.022,1.809,1.701,3.113,1.701
	s2.453-0.679,3.111-1.701H51.29 M51.29,3.4h-5.689c0,0.939-0.762,1.701-1.699,1.701c-0.939,0-1.701-0.762-1.701-1.701H5.4
	c-1.104,0-2,0.896-2,2v5.143h0.001c0.938,0,1.699,0.761,1.699,1.7c0,0.94-0.762,1.701-1.699,1.701H3.4V51.29c0,1.104,0.896,2,2,2
	h45.89c1.104,0,2-0.896,2-2V13.944c-0.939,0-1.701-0.761-1.701-1.7s0.762-1.701,1.701-1.701V5.4C53.29,4.295,52.394,3.4,51.29,3.4
	L51.29,3.4z M43.665,11.345c1.104,0,2,0.896,2,2v30c0,1.103-0.896,2-2,2h-30c-1.103,0-2-0.897-2-2v-30c0-1.104,0.897-2,2-2H43.665
	 M43.665,9.345h-30c-2.209,0-4,1.791-4,4v30c0,2.211,1.791,4,4,4h30c2.209,0,4-1.789,4-4v-30
	C47.665,11.136,45.874,9.345,43.665,9.345L43.665,9.345z M23.066,32.57c-0.467,0.401-0.989,0.71-1.568,0.924
	c-0.579,0.215-1.179,0.322-1.8,0.322c-0.477,0-0.935-0.062-1.376-0.186c-0.441-0.123-0.854-0.299-1.239-0.525
	c-0.386-0.226-0.737-0.498-1.055-0.815s-0.589-0.669-0.815-1.054c-0.227-0.386-0.401-0.799-0.525-1.239
	c-0.124-0.441-0.186-0.9-0.186-1.376c0-0.477,0.062-0.937,0.186-1.38s0.299-0.858,0.525-1.243s0.498-0.736,0.815-1.054
	s0.669-0.59,1.055-0.816c0.385-0.227,0.798-0.401,1.239-0.525c0.441-0.123,0.899-0.186,1.376-0.186c0.621,0,1.221,0.106,1.8,0.319
	c0.579,0.212,1.102,0.521,1.568,0.928l-1.064,1.751c-0.294-0.317-0.642-0.562-1.043-0.732c-0.402-0.17-0.822-0.255-1.261-0.255
	c-0.443,0-0.859,0.084-1.246,0.252c-0.388,0.168-0.727,0.396-1.016,0.683c-0.29,0.287-0.519,0.626-0.687,1.016
	s-0.252,0.804-0.252,1.243c0,0.438,0.084,0.851,0.252,1.235c0.168,0.386,0.396,0.723,0.687,1.012
	c0.289,0.29,0.628,0.519,1.016,0.687c0.387,0.168,0.803,0.252,1.246,0.252c0.438,0,0.858-0.085,1.261-0.255
	c0.401-0.171,0.749-0.415,1.043-0.732L23.066,32.57z M26.239,33.599h-2.011V23.557h4.021c0.368,0,0.723,0.048,1.065,0.144
	c0.34,0.096,0.658,0.23,0.955,0.406c0.297,0.175,0.566,0.386,0.813,0.63c0.244,0.245,0.455,0.518,0.631,0.816
	c0.174,0.299,0.311,0.618,0.406,0.959s0.143,0.695,0.143,1.064c0,0.551-0.105,1.07-0.314,1.559
	c-0.211,0.487-0.498,0.913-0.861,1.277c-0.365,0.364-0.791,0.651-1.279,0.861c-0.486,0.21-1.006,0.315-1.557,0.315h-2.01V33.599z
	 M26.239,25.567v4.02h2.01c0.275,0,0.534-0.053,0.778-0.157c0.242-0.105,0.455-0.249,0.637-0.431
	c0.182-0.183,0.326-0.396,0.43-0.641c0.105-0.245,0.158-0.506,0.158-0.781s-0.053-0.536-0.158-0.78
	c-0.104-0.245-0.248-0.459-0.43-0.642c-0.182-0.182-0.395-0.325-0.637-0.431c-0.244-0.104-0.502-0.157-0.778-0.157H26.239z
	 M41.359,29.586c0,0.556-0.105,1.077-0.316,1.565c-0.209,0.487-0.496,0.912-0.861,1.274c-0.363,0.361-0.789,0.647-1.277,0.857
	s-1.01,0.315-1.564,0.315c-0.557,0-1.078-0.105-1.566-0.315c-0.486-0.21-0.912-0.496-1.273-0.857
	c-0.361-0.362-0.648-0.787-0.857-1.274c-0.211-0.488-0.316-1.01-0.316-1.565v-6.029h2.004v6.029c0,0.275,0.053,0.535,0.156,0.777
	c0.105,0.243,0.25,0.455,0.432,0.638c0.182,0.182,0.395,0.325,0.641,0.431c0.244,0.104,0.506,0.157,0.781,0.157
	s0.535-0.053,0.779-0.157c0.246-0.105,0.459-0.249,0.643-0.431c0.182-0.183,0.324-0.395,0.43-0.638
	c0.105-0.242,0.158-0.502,0.158-0.777v-6.029h2.01V29.586z"/>
</svg>
