<?xml version="1.0" encoding="utf-8"?>
<!-- Generator: Adobe Illustrator 15.1.0, SVG Export Plug-In . SVG Version: 6.00 Build 0)  -->
<!DOCTYPE svg PUBLIC "-//W3C//DTD SVG 1.1//EN" "http://www.w3.org/Graphics/SVG/1.1/DTD/svg11.dtd">
<svg version="1.1" id="Layer_1" xmlns="http://www.w3.org/2000/svg" xmlns:xlink="http://www.w3.org/1999/xlink" x="0px" y="0px"
	 width="56.689px" height="56.689px" viewBox="0 0 56.689 56.689" enable-background="new 0 0 56.689 56.689" xml:space="preserve">
<g>
	<path d="M5.515,41.598l-0.378-0.705c-0.862-1.604-1.408-3.568-1.538-5.531c-0.404-6.115,3.383-11.533,10.179-14.654l-1.803-3.82
		l1.081-0.351c1.659-0.539,3.432-0.97,5.419-1.32l0.72-0.126l1.886,3.599c2.262-0.417,4.812-0.635,7.426-0.635
		c8.634,0,19.437,2.406,23.863,9.159l0.751,1.145l-24.146,6.716l-0.001-0.002L5.515,41.598z M14.761,18.108l1.714,3.631l-0.974,0.4
		c-6.567,2.697-10.271,7.59-9.907,13.09c0.092,1.4,0.428,2.793,0.958,4.004l20.104-5.592l-5.988-11.43l1.37-0.222
		c2.416-0.391,4.568-0.581,6.581-0.581c5.581,0,9.905,1.53,12.854,4.547l1.228,1.255l-9.856,2.399l-3.039-5.116
		c-0.765-0.053-1.542-0.063-2.341-0.027c-0.547,0.032-1.167,0.088-1.849,0.168l4.36,8.084l19.88-5.529
		c-4.478-5.242-14.104-7.136-21.35-7.136c-2.77,0-5.454,0.255-7.761,0.739l-0.74,0.155l-1.902-3.629
		C16.915,17.547,15.81,17.807,14.761,18.108z M31.589,23.579l2.221,3.738l4.832-1.177C36.776,24.779,34.416,23.922,31.589,23.579z
		 M11.841,34.725l-0.188-1.049c-0.781-4.365,0.82-7.777,4.628-9.867l0.932-0.512l4.284,9.076L11.841,34.725z M16.335,26.124
		c-2.116,1.478-3.056,3.502-2.851,6.143l5.157-1.256L16.335,26.124z"/>
</g>
</svg>
