<?xml version="1.0" encoding="utf-8"?>
<!-- Generator: Adobe Illustrator 15.1.0, SVG Export Plug-In . SVG Version: 6.00 Build 0)  -->
<!DOCTYPE svg PUBLIC "-//W3C//DTD SVG 1.1//EN" "http://www.w3.org/Graphics/SVG/1.1/DTD/svg11.dtd">
<svg version="1.1" id="Layer_1" xmlns="http://www.w3.org/2000/svg" xmlns:xlink="http://www.w3.org/1999/xlink" x="0px" y="0px"
	 width="56.69px" height="56.69px" viewBox="0 0 56.69 56.69" enable-background="new 0 0 56.69 56.69" xml:space="preserve">
<path d="M28.345,1.283c-14.922,0-27.063,12.14-27.063,27.063s12.141,27.063,27.063,27.063c14.922,0,27.063-12.141,27.063-27.063
	S43.268,1.283,28.345,1.283z M53.383,27.345H29.346V3.308C42.37,3.823,52.868,14.32,53.383,27.345z M3.283,28.345
	c0-13.484,10.706-24.51,24.063-25.037v24.037v0.844v1.157h0.009l17.678,17.679c-4.436,3.966-10.283,6.384-16.687,6.384
	C14.526,53.408,3.283,42.164,3.283,28.345z M46.467,45.631L30.182,29.346h23.201C53.134,35.647,50.547,41.355,46.467,45.631z"/>
</svg>
