<?xml version="1.0" encoding="utf-8"?>
<!-- Generator: Adobe Illustrator 15.1.0, SVG Export Plug-In . SVG Version: 6.00 Build 0)  -->
<!DOCTYPE svg PUBLIC "-//W3C//DTD SVG 1.1//EN" "http://www.w3.org/Graphics/SVG/1.1/DTD/svg11.dtd">
<svg version="1.1" id="Layer_1" xmlns="http://www.w3.org/2000/svg" xmlns:xlink="http://www.w3.org/1999/xlink" x="0px" y="0px"
	 width="56.689px" height="56.689px" viewBox="0 0 56.689 56.689" enable-background="new 0 0 56.689 56.689" xml:space="preserve">
<path d="M7.869,34.215h4.922V23.451H7.869V34.215z M9.869,25.451h0.922v6.764H9.869V25.451z M34.215,23.451h-4.922v10.764h4.922
	V23.451z M32.215,32.215h-0.922v-6.764h0.922V32.215z M39.083,19.554h-0.053H24.477v-6.816h-6.817h-0.052h-6.816v6.816H3v18.555
	h14.607h0.052h6.765v5.845h14.606h0.053H53.69V19.554H39.083z M15.659,36.109H5V21.554h7.791v-6.816h2.868V36.109z M19.607,14.738
	h2.869v2.869h-2.869V14.738z M22.476,36.109h-2.869V21.554h2.869V36.109z M37.083,41.953H26.424v-1.897h7.791v-3.947h-7.791V21.554
	h10.659V41.953z M51.69,41.953H41.031v-1.897h7.79v-3.947h-7.79V21.554H51.69V41.953z M48.821,23.451H43.9v10.764h4.921V23.451z
	 M46.821,32.215H45.9v-6.764h0.921V32.215z"/>
</svg>
