<?xml version="1.0" encoding="utf-8"?>
<!-- Generator: Adobe Illustrator 15.1.0, SVG Export Plug-In . SVG Version: 6.00 Build 0)  -->
<!DOCTYPE svg PUBLIC "-//W3C//DTD SVG 1.1//EN" "http://www.w3.org/Graphics/SVG/1.1/DTD/svg11.dtd">
<svg version="1.1" id="Layer_1" xmlns="http://www.w3.org/2000/svg" xmlns:xlink="http://www.w3.org/1999/xlink" x="0px" y="0px"
	 width="56.69px" height="56.69px" viewBox="0 0 56.69 56.69" enable-background="new 0 0 56.69 56.69" xml:space="preserve">
<path d="M43.762,45.596H12.928c-5.79,0-10.5-4.711-10.5-10.5c0-5.102,3.76-9.483,8.709-10.342c0.441-4.772,4.44-8.492,9.291-8.492
	c1.504,0,2.97,0.359,4.291,1.045c2.625-3.854,7.025-6.211,11.708-6.211c7.811,0,14.166,6.355,14.166,14.167
	c0,0.566-0.039,1.149-0.121,1.77c2.383,1.988,3.789,4.958,3.789,8.064C54.262,40.885,49.553,45.596,43.762,45.596z M20.428,18.261
	c-4.043,0-7.333,3.29-7.333,7.334v0.917l-0.911,0.12c-4.35,0.378-7.756,4.094-7.756,8.463c0,4.686,3.813,8.5,8.5,8.5h30.833
	c4.688,0,8.5-3.814,8.5-8.5c0-2.717-1.26-5.207-3.459-6.833l-0.494-0.364l0.102-0.604c0.125-0.736,0.184-1.4,0.184-2.031
	c0-6.709-5.457-12.167-12.166-12.167c-4.311,0-8.339,2.325-10.516,6.067l-0.534,0.919l-0.885-0.59
	C23.286,18.687,21.88,18.261,20.428,18.261z M35.135,37.172c0.666,0.863,1.756,0.863,2.424,0l1.148-1.492
	c0.668-0.865,1.758-2.279,2.424-3.143l1.15-1.492c0.668-0.863,0.32-1.57-0.771-1.57h-3.18c-1.092,0-2.877,0-3.969,0H31.18
	c-1.092,0-1.438,0.707-0.771,1.57l1.152,1.492c0.666,0.863,1.756,2.277,2.424,3.143L35.135,37.172z M38.785,22.842
	c0-0.494-0.4-0.895-0.895-0.895h-3.092c-0.494,0-0.895,0.4-0.895,0.895v8.087c0,0.494,0.4,0.895,0.895,0.895h3.092
	c0.494,0,0.895-0.4,0.895-0.895V22.842z"/>
</svg>
