<?xml version="1.0" encoding="utf-8"?>
<!-- Generator: Adobe Illustrator 15.1.0, SVG Export Plug-In . SVG Version: 6.00 Build 0)  -->
<!DOCTYPE svg PUBLIC "-//W3C//DTD SVG 1.1//EN" "http://www.w3.org/Graphics/SVG/1.1/DTD/svg11.dtd">
<svg version="1.1" id="Layer_1" xmlns="http://www.w3.org/2000/svg" xmlns:xlink="http://www.w3.org/1999/xlink" x="0px" y="0px"
	 width="56.69px" height="56.69px" viewBox="0 0 56.69 56.69" enable-background="new 0 0 56.69 56.69" xml:space="preserve">
<path d="M50.473,22.947c0.081-0.616,0.121-1.199,0.121-1.769c0-7.812-6.354-14.167-14.166-14.167c-4.685,0-9.083,2.356-11.708,6.211
	c-1.321-0.686-2.786-1.044-4.291-1.044c-4.851,0-8.85,3.72-9.291,8.491c-4.95,0.859-8.709,5.242-8.709,10.342
	c0,5.79,4.71,10.5,10.5,10.5h8.915l5.501,7.131c0.509,0.659,1.239,1.037,2.004,1.037c0.765,0,1.495-0.379,2.003-1.038l5.499-7.13
	h6.912c5.79,0,10.5-4.71,10.5-10.5C54.262,27.857,52.889,24.951,50.473,22.947z M29.767,47.421c-0.259,0.335-0.584,0.333-0.839,0
	l-9.354-12.127h6.743V21.34c0-0.263,0.214-0.478,0.477-0.478h5.106c0.264,0,0.479,0.214,0.479,0.478v13.954h6.742l-3.465,4.492
	l-1.362,1.726h0.032L29.767,47.421z M43.762,39.512h-5.37l2.342-3.036c0.559-0.726,0.696-1.513,0.378-2.161
	c-0.319-0.648-1.027-1.021-1.943-1.021h-4.791V21.34c0-1.366-1.112-2.478-2.479-2.478h-5.106c-1.366,0-2.477,1.111-2.477,2.478
	v11.954h-4.794c-0.916,0-1.624,0.372-1.943,1.021s-0.181,1.436,0.379,2.161l2.342,3.036h-7.372c-4.687,0-8.5-3.813-8.5-8.5
	c0-4.368,3.407-8.085,7.755-8.463l0.912-0.12v-0.917c0-4.043,3.29-7.333,7.333-7.333c1.453,0,2.858,0.425,4.064,1.23l0.885,0.59
	l0.535-0.919c2.177-3.743,6.207-6.068,10.516-6.068c6.708,0,12.166,5.458,12.166,12.167c0,0.637-0.06,1.301-0.184,2.029
	l-0.103,0.606l0.494,0.365c2.199,1.625,3.46,4.115,3.46,6.833C52.262,35.698,48.448,39.512,43.762,39.512z"/>
</svg>
