<?xml version="1.0" encoding="utf-8"?>
<!-- Generator: Adobe Illustrator 15.1.0, SVG Export Plug-In . SVG Version: 6.00 Build 0)  -->
<!DOCTYPE svg PUBLIC "-//W3C//DTD SVG 1.1//EN" "http://www.w3.org/Graphics/SVG/1.1/DTD/svg11.dtd">
<svg version="1.1" id="Layer_1" xmlns="http://www.w3.org/2000/svg" xmlns:xlink="http://www.w3.org/1999/xlink" x="0px" y="0px"
	 width="56.689px" height="56.689px" viewBox="0 0 56.689 56.689" enable-background="new 0 0 56.689 56.689" xml:space="preserve">
<path d="M29.824,30.221h5.834v2.956h-5.834v5.835h-2.956v-5.835h-5.834v-2.956h5.834v-5.834h2.956V30.221z M40.845,31.698
	c0,6.894-5.607,12.5-12.5,12.5c-6.894,0-12.5-5.606-12.5-12.5c0-6.893,5.606-12.5,12.5-12.5
	C35.238,19.198,40.845,24.806,40.845,31.698z M38.845,31.698c0-5.788-4.711-10.5-10.5-10.5c-5.79,0-10.5,4.712-10.5,10.5
	c0,5.79,4.71,10.5,10.5,10.5C34.135,42.198,38.846,37.489,38.845,31.698z M53.177,17.631v28.138c0,1.646-1.341,2.985-2.986,2.985
	H6.499c-1.646,0-2.985-1.34-2.985-2.985V17.631c0-1.646,1.34-2.984,2.985-2.984h2.348v-1.543h5.917v1.543h5.206v-3.811
	c0-1.601,1.296-2.898,2.899-2.898h10.954c1.601,0,2.9,1.296,2.9,2.898v3.811h5.207v-1.46h5.915v1.46h2.346
	C51.838,14.646,53.178,15.984,53.177,17.631z M23.968,14.646h8.755v-2.709h-8.755V14.646z M51.178,45.768L51.178,45.768
	l-0.001-28.138c0-0.543-0.441-0.984-0.986-0.984H6.499c-0.544,0-0.985,0.441-0.985,0.984v28.138c0,0.544,0.441,0.985,0.985,0.985
	h43.693C50.737,46.754,51.178,46.312,51.178,45.768z"/>
</svg>
