<?xml version="1.0" encoding="utf-8"?>
<!-- Generator: Adobe Illustrator 15.1.0, SVG Export Plug-In . SVG Version: 6.00 Build 0)  -->
<!DOCTYPE svg PUBLIC "-//W3C//DTD SVG 1.1//EN" "http://www.w3.org/Graphics/SVG/1.1/DTD/svg11.dtd">
<svg version="1.1" id="Layer_1" xmlns="http://www.w3.org/2000/svg" xmlns:xlink="http://www.w3.org/1999/xlink" x="0px" y="0px"
	 width="56.69px" height="56.69px" viewBox="0 0 56.69 56.69" enable-background="new 0 0 56.69 56.69" xml:space="preserve">
<g>
	<path d="M28.345,52.188c-13.146,0-23.841-10.695-23.841-23.842c0-13.146,10.695-23.842,23.841-23.842
		c13.146,0,23.842,10.695,23.842,23.842C52.187,41.492,41.491,52.188,28.345,52.188z M28.345,6.503
		c-12.043,0-21.841,9.798-21.841,21.842s9.798,21.842,21.841,21.842c12.044,0,21.842-9.799,21.842-21.842S40.389,6.503,28.345,6.503
		z M28.345,48.885c-4.603,0-8.956-1.496-12.589-4.328l-0.64-0.498l0.355-0.729c0.431-0.883,4.534-8.74,15.875-12.691l0.915-0.318
		l0.476,0.859c2.777,7.221,3.928,13.297,4.215,14.988l0.132,0.777l-0.727,0.309C33.82,48.336,31.124,48.885,28.345,48.885z
		 M17.663,43.484c3.136,2.227,6.812,3.4,10.682,3.4c2.241,0,4.422-0.395,6.493-1.176c-0.414-2.203-1.477-7.107-3.621-12.895
		C22.71,36.031,18.857,41.455,17.663,43.484z M38.519,46.248l-0.259-1.533c-0.181-1.072-1.21-6.773-3.742-13.736l-0.414-1.137
		l1.195-0.191c1.353-0.217,2.771-0.326,4.214-0.326c4.348,0,7.755,0.992,8.394,1.191l0.826,0.258l-0.137,0.855
		c-0.891,5.563-4.094,10.572-8.789,13.748L38.519,46.248z M36.813,31.465c1.704,4.902,2.668,9.084,3.122,11.332
		c3.325-2.682,5.646-6.447,6.524-10.609c-1.313-0.336-3.868-0.863-6.946-0.863C38.597,31.324,37.692,31.371,36.813,31.465z
		 M14.023,43.105l-0.916-1.016c-3.4-3.773-5.272-8.645-5.272-13.715c0-0.211,0.004-0.42,0.012-0.63l0.033-0.985l0.986,0.02
		c0.83,0.016,10.152,0.135,19.745-2.734l0.799-0.239l0.379,0.744c0.597,1.173,1.137,2.303,1.604,3.358l0.466,1.051l-1.105,0.316
		c-0.251,0.072-0.499,0.148-0.745,0.225c-9.624,3.111-14.743,11.482-15.295,12.428L14.023,43.105z M9.84,28.783
		c0.087,3.987,1.457,7.817,3.901,10.952c1.873-2.75,7-9.225,15.357-12.042c-0.227-0.487-0.468-0.987-0.721-1.498
		C20.311,28.479,12.577,28.761,9.84,28.783z M48.865,29.428l-1.22-0.258c-0.42-0.09-4.243-0.874-8.886-0.874
		c-1.535,0-3.004,0.087-4.367,0.258l-0.761,0.096l-0.29-0.709c-0.135-0.33-0.272-0.66-0.414-0.993
		c-0.376-0.886-0.805-1.82-1.274-2.779l-0.47-0.961l0.99-0.404c6.99-2.854,10.134-6.91,10.47-7.363l0.764-1.032l0.813,0.994
		c2.944,3.597,4.59,8.135,4.633,12.778L48.865,29.428z M38.76,26.296c3.412,0,6.411,0.408,8.041,0.682
		c-0.256-3.354-1.433-6.598-3.387-9.339c-1.393,1.539-4.408,4.339-9.509,6.601c0.31,0.659,0.599,1.303,0.862,1.925
		c0.046,0.106,0.091,0.212,0.136,0.318C36.128,26.359,37.422,26.296,38.76,26.296z M9.597,25.38l-1.575-0.02l0.248-1.187
		c1.307-6.254,5.551-11.623,11.354-14.36l0.748-0.353l0.487,0.669c0.656,0.901,4.093,5.688,7.296,11.381l0.634,1.125l-1.248,0.331
		C19.112,25.207,11.675,25.38,9.597,25.38z M19.735,11.994c-4.488,2.371-7.842,6.521-9.211,11.377
		c2.646-0.055,8.532-0.376,15.24-2.014C23.311,17.126,20.843,13.551,19.735,11.994z M30.591,22.071l-0.415-0.764
		c-3.218-5.913-6.806-10.768-7.204-11.302l-0.906-1.215l1.474-0.355c1.571-0.379,3.188-0.571,4.806-0.571
		c5.013,0,9.842,1.836,13.598,5.169l0.667,0.592l-0.513,0.73c-0.331,0.472-3.443,4.692-10.691,7.41L30.591,22.071z M25.498,10.085
		c1.296,1.827,3.706,5.366,6.008,9.494c4.706-1.923,7.31-4.428,8.385-5.659c-3.275-2.621-7.339-4.055-11.546-4.055
		C27.392,9.865,26.439,9.938,25.498,10.085z"/>
</g>
</svg>
