<?xml version="1.0" encoding="utf-8"?>
<!-- Generator: Adobe Illustrator 15.1.0, SVG Export Plug-In . SVG Version: 6.00 Build 0)  -->
<!DOCTYPE svg PUBLIC "-//W3C//DTD SVG 1.1//EN" "http://www.w3.org/Graphics/SVG/1.1/DTD/svg11.dtd">
<svg version="1.1" id="Layer_1" xmlns="http://www.w3.org/2000/svg" xmlns:xlink="http://www.w3.org/1999/xlink" x="0px" y="0px"
	 width="56.69px" height="56.69px" viewBox="0 0 56.69 56.69" enable-background="new 0 0 56.69 56.69" xml:space="preserve">
<path d="M43.666,20.321h-30.75v-2.214h30.75V20.321z M32.5,10.106H12.917v2.214H32.5V10.106z M43.666,23.773h-30.75v2.214h30.75
	V23.773z M54.221,22.476v1.101v23.298v1.102c0,3.309-2.691,6-6,6H8.47c-3.309,0-6-2.691-6-6v-1.102V23.578v-1.102
	c0-0.368,0.035-0.727,0.099-1.076c0.021-0.111,0.061-0.214,0.087-0.323c0.057-0.234,0.111-0.469,0.195-0.692
	c0.043-0.117,0.104-0.224,0.155-0.337c0.092-0.204,0.18-0.408,0.292-0.599c0.063-0.107,0.142-0.204,0.211-0.307
	c0.123-0.183,0.245-0.364,0.388-0.532c0.079-0.093,0.169-0.175,0.253-0.263c0.153-0.16,0.307-0.318,0.477-0.461
	c0.093-0.077,0.192-0.143,0.289-0.214c0.181-0.133,0.361-0.263,0.556-0.376c0.104-0.06,0.214-0.109,0.321-0.163
	c0.202-0.102,0.405-0.197,0.619-0.276c0.053-0.02,0.104-0.043,0.157-0.061V7.714c0-2.757,2.243-5,5-5h33.542c2.758,0,5,2.243,5,5
	v9.077c0.021,0.007,0.043,0.017,0.064,0.025c0.184,0.063,0.354,0.151,0.527,0.231c0.146,0.066,0.297,0.122,0.436,0.2
	c0.168,0.093,0.316,0.208,0.473,0.316c0.131,0.091,0.27,0.17,0.393,0.271c0.148,0.12,0.277,0.261,0.412,0.394
	c0.113,0.111,0.234,0.211,0.338,0.331c0.127,0.147,0.23,0.312,0.344,0.47c0.09,0.125,0.189,0.242,0.27,0.374
	c0.105,0.175,0.184,0.365,0.27,0.551c0.063,0.133,0.139,0.258,0.191,0.396c0.082,0.213,0.131,0.44,0.189,0.664
	c0.031,0.123,0.078,0.24,0.102,0.366C54.186,21.735,54.221,22.102,54.221,22.476z M50.111,23.745l2.107-1.288
	c-0.002-0.229-0.021-0.453-0.059-0.671c-0.002-0.003-0.002-0.007-0.002-0.011c-0.039-0.223-0.098-0.439-0.174-0.647
	c-0.053-0.148-0.125-0.288-0.195-0.427c-0.027-0.055-0.047-0.114-0.078-0.167c-0.1-0.178-0.215-0.347-0.342-0.507
	c-0.006-0.008-0.012-0.018-0.018-0.027c-0.336-0.42-0.764-0.759-1.24-1.017V23.745z M8.569,24.963l7.321,4.477h20.776v2.214H19.51
	l3.927,2.401l0.001-0.001l4.906,3.001l4.906-3.001l0.002,0.001l14.859-9.087V7.714c0-1.654-1.346-3-3-3H11.569c-1.654,0-3,1.346-3,3
	V24.963z M4.472,22.458l2.097,1.282v-4.757c-0.144,0.078-0.282,0.163-0.414,0.257c-0.037,0.026-0.072,0.053-0.107,0.081
	c-0.126,0.096-0.247,0.198-0.36,0.307c-0.041,0.041-0.08,0.083-0.12,0.125c-0.1,0.105-0.196,0.214-0.284,0.329
	c-0.046,0.061-0.086,0.125-0.129,0.188c-0.072,0.107-0.145,0.215-0.206,0.329c-0.047,0.087-0.084,0.18-0.125,0.271
	c-0.045,0.101-0.094,0.199-0.13,0.303c-0.045,0.13-0.076,0.266-0.107,0.402c-0.018,0.075-0.043,0.147-0.057,0.224
	C4.493,22.014,4.473,22.233,4.472,22.458z M4.47,45.652l17.051-10.426L4.47,24.801V45.652z M52.219,47.995L33.25,36.398l-4.906,3
	l-4.906-3L4.472,47.995c0.001,0.146,0.027,0.284,0.043,0.427c0.014,0.122,0.015,0.249,0.039,0.368
	c0.027,0.13,0.077,0.251,0.117,0.376c0.039,0.125,0.066,0.254,0.117,0.373c0.045,0.105,0.109,0.198,0.162,0.299
	c0.068,0.127,0.127,0.261,0.208,0.38c0.055,0.08,0.125,0.147,0.185,0.223c0.099,0.125,0.191,0.255,0.305,0.367
	c0.063,0.063,0.14,0.113,0.208,0.172c0.125,0.109,0.246,0.223,0.384,0.315c0.077,0.052,0.165,0.087,0.245,0.134
	c0.143,0.082,0.28,0.17,0.433,0.234c0.127,0.053,0.264,0.083,0.396,0.123c0.118,0.036,0.23,0.084,0.353,0.109
	c0.26,0.053,0.528,0.081,0.804,0.081h39.75c0.275,0,0.543-0.028,0.803-0.081c0.123-0.025,0.234-0.073,0.354-0.109
	c0.133-0.04,0.27-0.07,0.396-0.123c0.152-0.064,0.289-0.152,0.432-0.234c0.08-0.047,0.168-0.082,0.246-0.134
	c0.137-0.093,0.258-0.206,0.383-0.315c0.068-0.059,0.145-0.108,0.209-0.172c0.113-0.112,0.205-0.242,0.305-0.367
	c0.059-0.075,0.129-0.143,0.184-0.223c0.082-0.119,0.141-0.253,0.209-0.38c0.053-0.101,0.117-0.193,0.162-0.299
	c0.051-0.119,0.078-0.248,0.117-0.373s0.09-0.246,0.117-0.376c0.023-0.119,0.025-0.246,0.039-0.368
	C52.191,48.279,52.217,48.141,52.219,47.995z M52.221,24.8L35.168,35.227l17.053,10.426V24.8z"/>
</svg>
