<?xml version="1.0" encoding="utf-8"?>
<!-- Generator: Adobe Illustrator 15.1.0, SVG Export Plug-In . SVG Version: 6.00 Build 0)  -->
<!DOCTYPE svg PUBLIC "-//W3C//DTD SVG 1.1//EN" "http://www.w3.org/Graphics/SVG/1.1/DTD/svg11.dtd">
<svg version="1.1" id="Layer_1" xmlns="http://www.w3.org/2000/svg" xmlns:xlink="http://www.w3.org/1999/xlink" x="0px" y="0px"
	 width="56.69px" height="56.69px" viewBox="0 0 56.69 56.69" enable-background="new 0 0 56.69 56.69" xml:space="preserve">
<path d="M28.344,54.316c-14.32,0-25.971-11.65-25.971-25.971S14.024,2.374,28.344,2.374c14.322,0,25.972,11.651,25.972,25.972
	S42.666,54.316,28.344,54.316z M28.344,4.374c-13.218,0-23.971,10.753-23.971,23.972c0,13.217,10.753,23.971,23.971,23.971
	c13.218,0,23.972-10.754,23.972-23.971C52.316,15.127,41.563,4.374,28.344,4.374z M27.065,35.66v3.615
	c0,2.432,2.363,4.402,5.279,4.402c2.918,0,5.281-1.971,5.281-4.402V35.66H27.065z M41.617,35.137c0-0.828-0.672-1.5-1.5-1.5H16.573
	c-0.828,0-1.5,0.672-1.5,1.5s0.672,1.5,1.5,1.5h23.544C40.945,36.637,41.617,35.965,41.617,35.137z M25.288,25.626
	c0.586-0.585,0.586-1.536,0-2.121l-6.865-6.865c-0.586-0.586-1.535-0.586-2.121,0c-0.586,0.585-0.586,1.536,0,2.121l6.865,6.865
	c0.293,0.293,0.677,0.439,1.061,0.439S24.995,25.919,25.288,25.626z M18.422,25.625l6.865-6.864c0.586-0.585,0.586-1.535,0-2.121
	s-1.535-0.586-2.121,0l-6.865,6.864c-0.586,0.585-0.586,1.535,0,2.121c0.293,0.293,0.677,0.439,1.061,0.439
	S18.129,25.918,18.422,25.625z M40.389,25.626c0.586-0.585,0.586-1.536,0-2.121l-6.865-6.865c-0.586-0.586-1.535-0.586-2.121,0
	c-0.586,0.585-0.586,1.536,0,2.121l6.865,6.865c0.293,0.293,0.678,0.439,1.061,0.439C39.713,26.066,40.096,25.919,40.389,25.626z
	 M33.523,25.625l6.865-6.864c0.586-0.585,0.586-1.535,0-2.121s-1.535-0.586-2.121,0l-6.865,6.864c-0.586,0.585-0.586,1.535,0,2.121
	c0.293,0.293,0.678,0.439,1.061,0.439C32.848,26.065,33.23,25.918,33.523,25.625z"/>
</svg>
