<?xml version="1.0" encoding="utf-8"?>
<!-- Generator: Adobe Illustrator 15.1.0, SVG Export Plug-In . SVG Version: 6.00 Build 0)  -->
<!DOCTYPE svg PUBLIC "-//W3C//DTD SVG 1.1//EN" "http://www.w3.org/Graphics/SVG/1.1/DTD/svg11.dtd">
<svg version="1.1" id="Layer_1" xmlns="http://www.w3.org/2000/svg" xmlns:xlink="http://www.w3.org/1999/xlink" x="0px" y="0px"
	 width="56.69px" height="56.69px" viewBox="0 0 56.69 56.69" enable-background="new 0 0 56.69 56.69" xml:space="preserve">
<path d="M28.344,54.317c-14.32,0-25.971-11.651-25.971-25.973c0-14.32,11.65-25.972,25.971-25.972
	c14.322,0,25.974,11.651,25.974,25.972C54.317,42.666,42.666,54.317,28.344,54.317z M28.344,4.373
	c-13.218,0-23.971,10.754-23.971,23.972c0,13.219,10.753,23.973,23.971,23.973c13.219,0,23.974-10.754,23.974-23.973
	C52.317,15.127,41.563,4.373,28.344,4.373z M38.898,41.718c2.481-0.93,4.516-2.737,5.729-5.09c0.38-0.735,0.091-1.641-0.646-2.021
	c-0.735-0.379-1.64-0.092-2.021,0.646c-0.872,1.689-2.334,2.987-4.117,3.656c-1.787,0.673-3.748,0.655-5.521-0.049
	c-0.769-0.306-1.642,0.071-1.947,0.842c-0.306,0.77,0.071,1.642,0.842,1.947c1.264,0.501,2.596,0.752,3.929,0.752
	C36.416,42.401,37.687,42.174,38.898,41.718z M39.349,17.85c-3.801,0-7.363,1.568-10.723,1.411
	c-0.087-0.006-0.181-0.008-0.281-0.007c-0.1-0.001-0.193,0.001-0.282,0.007c-3.357,0.157-6.92-1.411-10.721-1.411
	c-3.817,0-7.703,1.239-7.703,1.239v1.894c0,0,0.963,0.796,1.204,1.434c0.24,0.637,1.331,5.036,2.063,5.868s1.239,2.529,5.948,2.484
	c6.707-0.16,8.01-7.1,8.254-8.018c0.147-0.623,0.799-0.591,1.237-0.601c0.439,0.01,1.092-0.022,1.237,0.601
	c0.245,0.918,1.548,7.857,8.253,8.018c4.711,0.045,5.219-1.652,5.949-2.484s1.822-5.231,2.063-5.868
	c0.24-0.638,1.204-1.434,1.204-1.434v-1.894C47.052,19.089,43.165,17.85,39.349,17.85z"/>
</svg>
