<?xml version="1.0" encoding="utf-8"?>
<!-- Generator: Adobe Illustrator 15.1.0, SVG Export Plug-In . SVG Version: 6.00 Build 0)  -->
<!DOCTYPE svg PUBLIC "-//W3C//DTD SVG 1.1//EN" "http://www.w3.org/Graphics/SVG/1.1/DTD/svg11.dtd">
<svg version="1.1" id="Layer_1" xmlns="http://www.w3.org/2000/svg" xmlns:xlink="http://www.w3.org/1999/xlink" x="0px" y="0px"
	 width="56.69px" height="56.69px" viewBox="0 0 56.69 56.69" enable-background="new 0 0 56.69 56.69" xml:space="preserve">
<path d="M28.344,54.316c-14.32,0-25.971-11.65-25.971-25.971S14.024,2.374,28.344,2.374c14.322,0,25.972,11.651,25.972,25.972
	S42.666,54.316,28.344,54.316z M28.344,4.374c-13.218,0-23.971,10.753-23.971,23.972c0,13.217,10.753,23.971,23.971,23.971
	c13.218,0,23.972-10.754,23.972-23.971C52.316,15.127,41.563,4.374,28.344,4.374z M26.338,21.166c0-2.485-2.021-4.507-4.506-4.507
	c-2.485,0-4.508,2.022-4.508,4.507c0,0.829,0.672,1.5,1.5,1.5s1.5-0.671,1.5-1.5c0-0.831,0.677-1.507,1.508-1.507
	c0.83,0,1.506,0.676,1.506,1.507c0,0.829,0.672,1.5,1.5,1.5S26.338,21.994,26.338,21.166z M39.365,21.166
	c0-2.485-2.021-4.507-4.508-4.507c-2.484,0-4.506,2.022-4.506,4.507c0,0.829,0.672,1.5,1.5,1.5s1.5-0.671,1.5-1.5
	c0-0.831,0.676-1.507,1.506-1.507c0.832,0,1.508,0.676,1.508,1.507c0,0.829,0.672,1.5,1.5,1.5S39.365,21.994,39.365,21.166z
	 M31.828,30.162c-1.715,0.057-2.748,1.52-3.482,1.467c-0.736-0.053-1.361-1.564-3.008-1.568c-3.084-0.006-5.447,5.35-7.18,6.521
	c1.891,1.086,4.674,7.229,10.188,7.229c5.513,0,8.033-6.195,10.187-7.229C36.379,35.496,34.91,30.061,31.828,30.162z M27.811,37.615
	c-2.063,0-3.736-0.232-3.736-0.518s1.674-0.516,3.736-0.516c2.064,0,3.738,0.23,3.738,0.516S29.875,37.615,27.811,37.615z"/>
</svg>
