<?xml version="1.0" encoding="utf-8"?>
<!-- Generator: Adobe Illustrator 15.1.0, SVG Export Plug-In . SVG Version: 6.00 Build 0)  -->
<!DOCTYPE svg PUBLIC "-//W3C//DTD SVG 1.1//EN" "http://www.w3.org/Graphics/SVG/1.1/DTD/svg11.dtd">
<svg version="1.1" id="Layer_1" xmlns="http://www.w3.org/2000/svg" xmlns:xlink="http://www.w3.org/1999/xlink" x="0px" y="0px"
	 width="56.69px" height="56.69px" viewBox="0 0 56.69 56.69" enable-background="new 0 0 56.69 56.69" xml:space="preserve">
<path d="M28.344,54.316c-14.32,0-25.971-11.65-25.971-25.97c0-14.321,11.65-25.973,25.971-25.973
	c14.322,0,25.974,11.651,25.974,25.973C54.317,42.666,42.666,54.316,28.344,54.316z M28.344,4.374
	c-13.218,0-23.971,10.754-23.971,23.973c0,13.218,10.753,23.97,23.971,23.97c13.219,0,23.974-10.752,23.974-23.97
	C52.317,15.127,41.563,4.374,28.344,4.374z M34.375,17.518c-1.658,0-3.002,1.342-3.002,3.002c0,1.656,1.344,3.002,3.002,3.002
	s3.002-1.346,3.002-3.002C37.377,18.86,36.033,17.518,34.375,17.518z M21.875,17.518c-1.658,0-3.002,1.342-3.002,3.002
	c0,1.656,1.344,3.002,3.002,3.002s3.002-1.346,3.002-3.002C24.877,18.86,23.533,17.518,21.875,17.518z M40.475,33.725
	c-2.24-0.529-4.792-3.768-7.174-4.113c-3.02-0.334-4.447,0.984-4.955,2.264c-0.509-1.279-1.938-2.598-4.956-2.264
	c-2.381,0.346-4.934,3.584-7.175,4.113s-3.518-1.463-3.518-1.463s1.806,6.691,8.373,6.66c4.95-0.023,6.718-2.645,7.275-4.402
	c0.556,1.758,2.323,4.379,7.273,4.402c6.567,0.031,8.373-6.66,8.373-6.66S42.716,34.254,40.475,33.725z"/>
</svg>
