<?xml version="1.0" encoding="utf-8"?>
<!-- Generator: Adobe Illustrator 15.1.0, SVG Export Plug-In . SVG Version: 6.00 Build 0)  -->
<!DOCTYPE svg PUBLIC "-//W3C//DTD SVG 1.1//EN" "http://www.w3.org/Graphics/SVG/1.1/DTD/svg11.dtd">
<svg version="1.1" id="Layer_1" xmlns="http://www.w3.org/2000/svg" xmlns:xlink="http://www.w3.org/1999/xlink" x="0px" y="0px"
	 width="56.69px" height="56.69px" viewBox="0 0 56.69 56.69" enable-background="new 0 0 56.69 56.69" xml:space="preserve">
<path d="M47.434,10.757c0.988-2.754,1.589-6.583,0.904-7.064c-0.703-0.496-3.934,0.94-6.284,2.607
	c-3.982-2.485-8.68-3.927-13.71-3.927c-5.029,0-9.727,1.442-13.708,3.927c-2.351-1.667-5.581-3.103-6.284-2.607
	c-0.685,0.481-0.084,4.31,0.904,7.064c-4.27,4.63-6.883,10.809-6.883,17.588c0,14.321,11.65,25.971,25.971,25.971
	c14.322,0,25.974-11.65,25.974-25.971C54.317,21.565,51.703,15.387,47.434,10.757z M28.344,52.316
	c-13.218,0-23.971-10.754-23.971-23.971c0-5.957,2.188-11.408,5.797-15.605c0.318,0.498,0.646,0.822,0.965,0.858
	c1.787,0.204,6.729-2.533,5.977-4.74c-0.126-0.368-0.436-0.78-0.85-1.204c3.551-2.081,7.678-3.28,12.082-3.28
	s8.532,1.199,12.083,3.281c-0.414,0.424-0.723,0.835-0.849,1.204c-0.754,2.207,4.188,4.944,5.976,4.74
	c0.319-0.036,0.647-0.36,0.965-0.858c3.609,4.197,5.799,9.649,5.799,15.605C52.317,41.563,41.563,52.316,28.344,52.316z
	 M45.332,30.988c-1.647,8.047-8.813,13.889-17.04,13.889c-8.095,0-15.054-5.492-16.923-13.359c-0.192-0.805,0.306-1.613,1.112-1.805
	c0.808-0.199,1.615,0.307,1.806,1.111c1.548,6.508,7.307,11.053,14.005,11.053c6.808,0,12.738-4.832,14.101-11.49
	c0.167-0.813,0.962-1.332,1.771-1.17C44.975,29.383,45.498,30.176,45.332,30.988z M14.88,20.8c0.419-0.716,1.338-0.956,2.052-0.536
	l9.131,5.35c0.715,0.419,0.955,1.338,0.536,2.052c-0.279,0.477-0.78,0.742-1.295,0.742c-0.175,0-0.349-0.043-0.519-0.106
	c-0.04,0.088-0.07,0.178-0.12,0.263c-0.838,1.43-2.677,1.911-4.107,1.073c-1.432-0.838-1.911-2.678-1.073-4.108
	c0.044-0.075,0.101-0.136,0.149-0.205l-4.218-2.471C14.701,22.434,14.461,21.515,14.88,20.8z M30.092,27.666
	c-0.419-0.714-0.179-1.633,0.536-2.052l9.131-5.35c0.714-0.418,1.632-0.18,2.052,0.536c0.419,0.715,0.179,1.634-0.536,2.053
	l-4.218,2.471c0.049,0.069,0.105,0.13,0.149,0.205c0.838,1.43,0.358,3.27-1.073,4.108c-1.431,0.838-3.27,0.357-4.107-1.073
	c-0.05-0.085-0.08-0.175-0.12-0.263c-0.17,0.063-0.344,0.106-0.519,0.106C30.872,28.408,30.371,28.142,30.092,27.666z"/>
</svg>
