<?xml version="1.0" encoding="utf-8"?>
<!-- Generator: Adobe Illustrator 15.1.0, SVG Export Plug-In . SVG Version: 6.00 Build 0)  -->
<!DOCTYPE svg PUBLIC "-//W3C//DTD SVG 1.1//EN" "http://www.w3.org/Graphics/SVG/1.1/DTD/svg11.dtd">
<svg version="1.1" id="Layer_1" xmlns="http://www.w3.org/2000/svg" xmlns:xlink="http://www.w3.org/1999/xlink" x="0px" y="0px"
	 width="56.69px" height="56.69px" viewBox="0 0 56.69 56.69" enable-background="new 0 0 56.69 56.69" xml:space="preserve">
<path d="M28.344,54.316c-14.32,0-25.971-11.65-25.971-25.971S14.023,2.374,28.344,2.374c14.322,0,25.974,11.651,25.974,25.972
	S42.666,54.316,28.344,54.316z M28.344,4.374c-13.218,0-23.971,10.753-23.971,23.972c0,13.217,10.753,23.971,23.971,23.971
	c13.219,0,23.974-10.754,23.974-23.971C52.317,15.127,41.563,4.374,28.344,4.374z M34.595,23.521c1.658,0,3.002-1.345,3.002-3.002
	c0-1.659-1.344-3.002-3.002-3.002s-3.002,1.343-3.002,3.002C31.593,22.176,32.937,23.521,34.595,23.521z M22.095,23.521
	c1.658,0,3.002-1.345,3.002-3.002c0-1.659-1.344-3.002-3.002-3.002s-3.002,1.343-3.002,3.002
	C19.093,22.176,20.437,23.521,22.095,23.521z M40.118,33.637H16.572c-0.828,0-1.5,0.672-1.5,1.5s0.672,1.5,1.5,1.5h10.492v2.639
	c0,2.432,2.364,4.402,5.28,4.402c2.917,0,5.281-1.971,5.281-4.402v-2.639h2.492c0.828,0,1.5-0.672,1.5-1.5
	S40.946,33.637,40.118,33.637z"/>
</svg>
