<?xml version="1.0" encoding="utf-8"?>
<!-- Generator: Adobe Illustrator 15.1.0, SVG Export Plug-In . SVG Version: 6.00 Build 0)  -->
<!DOCTYPE svg PUBLIC "-//W3C//DTD SVG 1.1//EN" "http://www.w3.org/Graphics/SVG/1.1/DTD/svg11.dtd">
<svg version="1.1" id="Layer_1" xmlns="http://www.w3.org/2000/svg" xmlns:xlink="http://www.w3.org/1999/xlink" x="0px" y="0px"
	 width="56.69px" height="56.69px" viewBox="0 0 56.69 56.69" enable-background="new 0 0 56.69 56.69" xml:space="preserve">
<path d="M28.343,2.374c-14.32,0-25.971,11.651-25.971,25.972s11.65,25.971,25.971,25.971c14.323,0,25.975-11.65,25.975-25.971
	S42.666,2.374,28.343,2.374z M28.343,52.316c-13.218,0-23.971-10.754-23.971-23.971c0-13.218,10.753-23.972,23.971-23.972
	c13.219,0,23.975,10.753,23.975,23.972C52.318,41.563,41.563,52.316,28.343,52.316z M41.215,35.885
	c0.613,0.557,0.662,1.506,0.107,2.119c-0.559,0.615-1.504,0.662-2.119,0.107c-2.977-2.689-6.828-4.172-10.844-4.172
	c-4.028,0-7.889,1.49-10.869,4.195c-0.287,0.26-0.647,0.389-1.008,0.389c-0.408,0-0.814-0.166-1.11-0.492
	c-0.558-0.613-0.511-1.561,0.103-2.117c3.533-3.207,8.109-4.975,12.885-4.975C33.119,30.939,37.686,32.697,41.215,35.885z
	 M15.034,16.654c0.419-0.716,1.336-0.955,2.052-0.536l9.131,5.35c0.715,0.419,0.955,1.338,0.536,2.053
	c-0.266,0.453-0.731,0.707-1.219,0.732c-0.115,0.056-0.236,0.103-0.368,0.127l-6.248,1.194c-0.095,0.019-0.189,0.027-0.283,0.027
	c-0.705,0-1.334-0.5-1.472-1.219c-0.155-0.814,0.378-1.6,1.192-1.755l2.946-0.563l-5.731-3.358
	C14.855,18.288,14.615,17.369,15.034,16.654z M41.656,16.654c0.42,0.715,0.18,1.634-0.535,2.053l-5.732,3.358l2.947,0.563
	c0.814,0.155,1.348,0.941,1.191,1.755c-0.137,0.718-0.766,1.219-1.471,1.219c-0.094,0-0.189-0.009-0.283-0.027l-6.25-1.194
	c-0.133-0.025-0.254-0.072-0.369-0.128c-0.486-0.026-0.951-0.28-1.217-0.731c-0.418-0.715-0.178-1.634,0.537-2.053l9.131-5.35
	C40.318,15.701,41.236,15.938,41.656,16.654z"/>
</svg>
