<?xml version="1.0" encoding="utf-8"?>
<!-- Generator: Adobe Illustrator 15.1.0, SVG Export Plug-In . SVG Version: 6.00 Build 0)  -->
<!DOCTYPE svg PUBLIC "-//W3C//DTD SVG 1.1//EN" "http://www.w3.org/Graphics/SVG/1.1/DTD/svg11.dtd">
<svg version="1.1" id="Layer_1" xmlns="http://www.w3.org/2000/svg" xmlns:xlink="http://www.w3.org/1999/xlink" x="0px" y="0px"
	 width="56.69px" height="56.69px" viewBox="0 0 56.69 56.69" enable-background="new 0 0 56.69 56.69" xml:space="preserve">
<path d="M31.594,20.519c0-1.659,1.344-3.002,3.002-3.002s3.002,1.343,3.002,3.002c0,1.657-1.344,3.002-3.002,3.002
	S31.594,22.176,31.594,20.519z M22.096,23.521c1.658,0,3.002-1.345,3.002-3.002c0-1.659-1.344-3.002-3.002-3.002
	s-3.002,1.343-3.002,3.002C19.094,22.176,20.438,23.521,22.096,23.521z M54.317,28.345c0,14.321-11.651,25.971-25.974,25.971
	c-14.32,0-25.971-11.65-25.971-25.971S14.023,2.374,28.344,2.374C42.666,2.374,54.317,14.024,54.317,28.345z M52.317,28.345
	c0-13.218-10.755-23.972-23.974-23.972c-13.218,0-23.971,10.753-23.971,23.972c0,13.217,10.753,23.971,23.971,23.971
	C41.563,52.316,52.317,41.563,52.317,28.345z M36.67,34.637H20.021c-0.828,0-1.5,0.672-1.5,1.5s0.672,1.5,1.5,1.5H36.67
	c0.828,0,1.5-0.672,1.5-1.5S37.498,34.637,36.67,34.637z"/>
</svg>
