<?xml version="1.0" encoding="utf-8"?>
<!-- Generator: Adobe Illustrator 15.1.0, SVG Export Plug-In . SVG Version: 6.00 Build 0)  -->
<!DOCTYPE svg PUBLIC "-//W3C//DTD SVG 1.1//EN" "http://www.w3.org/Graphics/SVG/1.1/DTD/svg11.dtd">
<svg version="1.1" id="Layer_1" xmlns="http://www.w3.org/2000/svg" xmlns:xlink="http://www.w3.org/1999/xlink" x="0px" y="0px"
	 width="56.69px" height="56.69px" viewBox="0 0 56.69 56.69" enable-background="new 0 0 56.69 56.69" xml:space="preserve">
<path d="M28.344,54.316c-14.32,0-25.971-11.65-25.971-25.971S14.023,2.374,28.344,2.374c14.322,0,25.974,11.651,25.974,25.972
	S42.666,54.316,28.344,54.316z M28.344,4.374c-13.218,0-23.971,10.753-23.971,23.972c0,13.217,10.753,23.971,23.971,23.971
	c13.219,0,23.974-10.754,23.974-23.971C52.317,15.127,41.563,4.374,28.344,4.374z M26.339,18.894c0-2.485-2.021-4.507-4.507-4.507
	s-4.507,2.022-4.507,4.507c0,0.829,0.672,1.5,1.5,1.5s1.5-0.671,1.5-1.5c0-0.831,0.676-1.507,1.507-1.507s1.507,0.676,1.507,1.507
	c0,0.829,0.672,1.5,1.5,1.5S26.339,19.723,26.339,18.894z M39.365,18.894c0-2.485-2.021-4.507-4.507-4.507s-4.507,2.022-4.507,4.507
	c0,0.829,0.672,1.5,1.5,1.5s1.5-0.671,1.5-1.5c0-0.831,0.676-1.507,1.507-1.507s1.507,0.676,1.507,1.507c0,0.829,0.672,1.5,1.5,1.5
	S39.365,19.723,39.365,18.894z M28.345,43.436c8.801,0,15.938-7.135,15.938-15.937H12.407
	C12.407,36.301,19.542,43.436,28.345,43.436z"/>
</svg>
