<?xml version="1.0" encoding="utf-8"?>
<!-- Generator: Adobe Illustrator 15.1.0, SVG Export Plug-In . SVG Version: 6.00 Build 0)  -->
<!DOCTYPE svg PUBLIC "-//W3C//DTD SVG 1.1//EN" "http://www.w3.org/Graphics/SVG/1.1/DTD/svg11.dtd">
<svg version="1.1" id="Layer_1" xmlns="http://www.w3.org/2000/svg" xmlns:xlink="http://www.w3.org/1999/xlink" x="0px" y="0px"
	 width="56.69px" height="56.69px" viewBox="0 0 56.69 56.69" enable-background="new 0 0 56.69 56.69" xml:space="preserve">
<path d="M28.344,54.316c-14.32,0-25.971-11.65-25.971-25.97c0-14.321,11.65-25.973,25.971-25.973
	c14.322,0,25.974,11.651,25.974,25.973C54.317,42.666,42.666,54.316,28.344,54.316z M28.344,4.374
	c-13.218,0-23.971,10.754-23.971,23.973c0,13.218,10.753,23.97,23.971,23.97c13.219,0,23.974-10.752,23.974-23.97
	C52.317,15.127,41.563,4.374,28.344,4.374z M45.332,30.988c0.166-0.811-0.357-1.604-1.169-1.77
	c-0.806-0.162-1.604,0.355-1.771,1.168c-1.362,6.658-7.293,11.49-14.101,11.49c-6.699,0-12.458-4.545-14.005-11.051
	c-0.191-0.807-0.999-1.306-1.806-1.113c-0.807,0.191-1.305,1-1.112,1.807c1.869,7.865,8.828,13.357,16.923,13.357
	C36.519,44.877,43.685,39.037,45.332,30.988z M26.516,18.889c0-0.829-0.672-1.5-1.5-1.5s-1.5,0.671-1.5,1.5
	c0,0.831-0.676,1.506-1.507,1.506s-1.507-0.675-1.507-1.506c0-0.829-0.672-1.5-1.5-1.5s-1.5,0.671-1.5,1.5
	c0,2.484,2.021,4.506,4.507,4.506S26.516,21.374,26.516,18.889z M34.612,17.389c-1.658,0-3.002,1.344-3.002,3.002
	s1.344,3.002,3.002,3.002s3.002-1.344,3.002-3.002S36.271,17.389,34.612,17.389z"/>
</svg>
