<?xml version="1.0" encoding="utf-8"?>
<!-- Generator: Adobe Illustrator 15.1.0, SVG Export Plug-In . SVG Version: 6.00 Build 0)  -->
<!DOCTYPE svg PUBLIC "-//W3C//DTD SVG 1.1//EN" "http://www.w3.org/Graphics/SVG/1.1/DTD/svg11.dtd">
<svg version="1.1" id="Layer_1" xmlns="http://www.w3.org/2000/svg" xmlns:xlink="http://www.w3.org/1999/xlink" x="0px" y="0px"
	 width="56.69px" height="56.69px" viewBox="0 0 56.69 56.69" enable-background="new 0 0 56.69 56.69" xml:space="preserve">
<path d="M28.344,2.374c-14.32,0-25.971,11.65-25.971,25.972c0,14.32,11.65,25.971,25.971,25.971
	c14.322,0,25.974-11.65,25.974-25.971C54.317,14.024,42.666,2.374,28.344,2.374z M28.344,52.316
	c-13.218,0-23.971-10.754-23.971-23.971c0-13.219,10.753-23.972,23.971-23.972c13.219,0,23.974,10.753,23.974,23.972
	C52.317,41.563,41.563,52.316,28.344,52.316z M47.529,33.111c0,3.184-2.581,5.766-5.766,5.766s-5.766-2.582-5.766-5.766
	s2.581-5.766,5.766-5.766S47.529,29.928,47.529,33.111z M20.692,33.111c0,3.184-2.581,5.766-5.766,5.766s-5.766-2.582-5.766-5.766
	s2.581-5.766,5.766-5.766S20.692,29.928,20.692,33.111z M34.557,25.26c-1.658,0-3.002-1.345-3.002-3.002
	c0-0.096,0.02-0.186,0.028-0.278c-0.705-0.122-1.243-0.733-1.243-1.474c0-0.829,0.672-1.5,1.5-1.5h10.582c0.828,0,1.5,0.671,1.5,1.5
	c0,0.828-0.672,1.5-1.5,1.5h-4.889c0.007,0.084,0.025,0.165,0.025,0.252C37.559,23.915,36.215,25.26,34.557,25.26z M25.108,21.979
	c0.009,0.093,0.028,0.183,0.028,0.278c0,1.657-1.344,3.002-3.002,3.002s-3.002-1.345-3.002-3.002c0-0.087,0.019-0.168,0.025-0.252
	H14.27c-0.828,0-1.5-0.672-1.5-1.5c0-0.829,0.672-1.5,1.5-1.5h10.582c0.828,0,1.5,0.671,1.5,1.5
	C26.352,21.246,25.813,21.857,25.108,21.979z M31.348,36.512c0,1.658-1.344,3.002-3.002,3.002s-3.002-1.344-3.002-3.002
	s1.344-3.002,3.002-3.002S31.348,34.854,31.348,36.512z"/>
</svg>
