<?xml version="1.0" encoding="utf-8"?>
<!-- Generator: Adobe Illustrator 15.1.0, SVG Export Plug-In . SVG Version: 6.00 Build 0)  -->
<!DOCTYPE svg PUBLIC "-//W3C//DTD SVG 1.1//EN" "http://www.w3.org/Graphics/SVG/1.1/DTD/svg11.dtd">
<svg version="1.1" id="Layer_1" xmlns="http://www.w3.org/2000/svg" xmlns:xlink="http://www.w3.org/1999/xlink" x="0px" y="0px"
	 width="56.69px" height="56.69px" viewBox="0 0 56.69 56.69" enable-background="new 0 0 56.69 56.69" xml:space="preserve">
<path d="M28.344,54.316c-14.32,0-25.971-11.65-25.971-25.971S14.023,2.374,28.344,2.374c14.322,0,25.974,11.651,25.974,25.972
	S42.666,54.316,28.344,54.316z M28.344,4.374c-13.218,0-23.971,10.753-23.971,23.972c0,13.217,10.753,23.971,23.971,23.971
	c13.219,0,23.974-10.754,23.974-23.971C52.317,15.127,41.563,4.374,28.344,4.374z M34.095,17.517c-2.211,0-4.002,1.79-4.002,4.002
	c0,2.209,1.791,4.002,4.002,4.002s4.002-1.793,4.002-4.002C38.097,19.307,36.306,17.517,34.095,17.517z M21.595,17.517
	c-1.658,0-3.002,1.343-3.002,3.002c0,1.657,1.344,3.002,3.002,3.002s3.002-1.345,3.002-3.002
	C24.597,18.86,23.253,17.517,21.595,17.517z M41.493,35.264c0.619-0.545,0.68-1.482,0.14-2.107
	c-0.539-0.621-1.484-0.691-2.112-0.154c-0.173,0.148-4.267,3.551-9.749-0.113c-7.349-4.912-14.167-0.178-14.454,0.025
	c-0.673,0.479-0.83,1.408-0.354,2.084s1.408,0.836,2.088,0.365c0.219-0.154,5.453-3.725,11.054,0.02
	c2.41,1.611,4.731,2.189,6.774,2.189C37.882,37.572,40.286,36.322,41.493,35.264z"/>
</svg>
