<?xml version="1.0" encoding="utf-8"?>
<!-- Generator: Adobe Illustrator 15.1.0, SVG Export Plug-In . SVG Version: 6.00 Build 0)  -->
<!DOCTYPE svg PUBLIC "-//W3C//DTD SVG 1.1//EN" "http://www.w3.org/Graphics/SVG/1.1/DTD/svg11.dtd">
<svg version="1.1" id="Layer_1" xmlns="http://www.w3.org/2000/svg" xmlns:xlink="http://www.w3.org/1999/xlink" x="0px" y="0px"
	 width="56.69px" height="56.69px" viewBox="0 0 56.69 56.69" enable-background="new 0 0 56.69 56.69" xml:space="preserve">
<path d="M28.344,54.316c-14.32,0-25.971-11.65-25.971-25.971S14.024,2.374,28.344,2.374c14.322,0,25.972,11.651,25.972,25.972
	S42.666,54.316,28.344,54.316z M28.344,4.374c-13.218,0-23.971,10.753-23.971,23.972c0,13.217,10.753,23.971,23.971,23.971
	c13.218,0,23.972-10.754,23.972-23.971C52.316,15.127,41.563,4.374,28.344,4.374z M34.594,18.517c-1.658,0-3.002,1.343-3.002,3.002
	c0,1.657,1.344,3.002,3.002,3.002s3.002-1.345,3.002-3.002C37.596,19.86,36.252,18.517,34.594,18.517z M22.095,18.517
	c-1.658,0-3.002,1.343-3.002,3.002c0,1.657,1.344,3.002,3.002,3.002s3.002-1.345,3.002-3.002
	C25.097,19.86,23.753,18.517,22.095,18.517z M28.075,38.686c2.177-0.092,3-1.734,3.49-2.717c0.07-0.141,0.162-0.324,0.244-0.469
	c0.174,0.188,0.404,0.518,0.557,0.738c0.678,0.975,1.703,2.447,3.705,2.447c2.131,0,2.924-1.689,3.35-2.598
	c0.125-0.27,0.316-0.676,0.393-0.742c1.197-0.063,3.023,0.92,3.549,1.26c0.693,0.451,1.623,0.256,2.074-0.441
	c0.451-0.693,0.254-1.623-0.441-2.074c-0.287-0.187-2.914-1.822-5.281-1.742c-1.883,0.063-2.588,1.568-3.01,2.468
	c-0.408,0.87-0.479,0.87-0.633,0.87c-0.371,0-0.637-0.289-1.242-1.16c-0.611-0.881-1.449-2.085-3.01-2.145
	c-1.775-0.051-2.504,1.381-2.936,2.245c-0.472,0.942-0.605,1.048-0.932,1.062c-0.008,0-0.015,0-0.021,0
	c-0.066-0.164-0.139-0.465-0.185-0.66c-0.192-0.812-0.644-2.711-2.707-2.748c-0.021,0-0.041,0-0.061,0
	c-1.646,0-2.555,1.172-3.221,2.029c-0.56,0.721-0.844,1.037-1.211,1.043c-0.165,0.037-0.362-0.186-0.824-0.973
	c-0.545-0.931-1.369-2.336-3.183-2.369c-0.027-0.001-0.056-0.001-0.083-0.001c-2.518,0-4.742,2.091-4.989,2.331
	c-0.595,0.577-0.608,1.527-0.031,2.121c0.58,0.596,1.528,0.607,2.121,0.031c0.502-0.488,1.861-1.482,2.919-1.482
	c0.01,0,0.021,0,0.031,0c0.148,0.07,0.448,0.58,0.627,0.887c0.539,0.92,1.438,2.455,3.399,2.455c0.02,0,0.039,0,0.058,0
	c1.848-0.027,2.863-1.338,3.536-2.203c0.192-0.248,0.433-0.557,0.625-0.732c0.026,0.105,0.053,0.215,0.074,0.305
	c0.213,0.896,0.704,2.967,3.074,2.967C27.958,38.688,28.015,38.688,28.075,38.686z"/>
</svg>
