<?xml version="1.0" encoding="utf-8"?>
<!-- Generator: Adobe Illustrator 15.1.0, SVG Export Plug-In . SVG Version: 6.00 Build 0)  -->
<!DOCTYPE svg PUBLIC "-//W3C//DTD SVG 1.1//EN" "http://www.w3.org/Graphics/SVG/1.1/DTD/svg11.dtd">
<svg version="1.1" id="Layer_1" xmlns="http://www.w3.org/2000/svg" xmlns:xlink="http://www.w3.org/1999/xlink" x="0px" y="0px"
	 width="56.69px" height="56.69px" viewBox="0 0 56.69 56.69" enable-background="new 0 0 56.69 56.69" xml:space="preserve">
<path d="M28.344,54.316c-14.32,0-25.971-11.65-25.971-25.971c0-14.321,11.65-25.972,25.971-25.972
	c14.322,0,25.972,11.65,25.972,25.972C54.316,42.666,42.666,54.316,28.344,54.316z M28.344,4.374
	c-13.218,0-23.971,10.754-23.971,23.972c0,13.217,10.753,23.971,23.971,23.971c13.218,0,23.972-10.754,23.972-23.971
	C52.316,15.127,41.563,4.374,28.344,4.374z M26.338,22.887c0-0.828-0.672-1.5-1.5-1.5s-1.5,0.672-1.5,1.5
	c0,0.831-0.676,1.507-1.506,1.507c-0.831,0-1.508-0.676-1.508-1.507c0-0.828-0.672-1.5-1.5-1.5s-1.5,0.672-1.5,1.5
	c0,2.485,2.022,4.507,4.508,4.507C24.317,27.394,26.338,25.373,26.338,22.887z M39.365,22.887c0-0.828-0.672-1.5-1.5-1.5
	s-1.5,0.672-1.5,1.5c0,0.831-0.676,1.507-1.508,1.507c-0.83,0-1.506-0.676-1.506-1.507c0-0.828-0.672-1.5-1.5-1.5
	s-1.5,0.672-1.5,1.5c0,2.485,2.021,4.507,4.506,4.507C37.344,27.394,39.365,25.373,39.365,22.887z M36.635,36.443
	c-1.258,0-2.275,1.018-2.275,2.275c0,1.256,1.018,2.275,2.275,2.275s2.275-1.02,2.275-2.275
	C38.91,37.461,37.893,36.443,36.635,36.443z"/>
</svg>
