<?xml version="1.0" encoding="utf-8"?>
<!-- Generator: Adobe Illustrator 15.1.0, SVG Export Plug-In . SVG Version: 6.00 Build 0)  -->
<!DOCTYPE svg PUBLIC "-//W3C//DTD SVG 1.1//EN" "http://www.w3.org/Graphics/SVG/1.1/DTD/svg11.dtd">
<svg version="1.1" id="Layer_1" xmlns="http://www.w3.org/2000/svg" xmlns:xlink="http://www.w3.org/1999/xlink" x="0px" y="0px"
	 width="56.69px" height="56.69px" viewBox="0 0 56.69 56.69" enable-background="new 0 0 56.69 56.69" xml:space="preserve">
<path d="M46.926,49.926c0.685-0.313,1.087-0.691,1.087-1.1c0-0.746-1.352-1.389-3.315-1.713c0.817-0.666,1.591-1.379,2.322-2.137
	c0.063,0.006,0.124,0.02,0.188,0.02c1.254,0,2.271-1.016,2.271-2.27c0-0.203-0.034-0.396-0.086-0.584
	c3.094-4.275,4.925-9.521,4.925-15.189c0-14.321-11.651-25.972-25.974-25.972c-14.32,0-25.971,11.651-25.971,25.972
	c0,5.669,1.831,10.916,4.924,15.189c-0.051,0.188-0.085,0.381-0.085,0.584c0,1.254,1.017,2.27,2.271,2.27
	c0.064,0,0.125-0.014,0.188-0.02c0.879,0.91,1.822,1.758,2.825,2.531c-5.117,0.799-8.504,2.17-8.504,3.732
	c0,2.469,8.413,4.469,18.792,4.469c6.14,0,11.574-0.703,15.003-1.785c1.465,0.543,3.627,0.891,6.056,0.891
	c4.417,0,7.998-1.139,7.998-2.543C51.841,51.215,49.813,50.311,46.926,49.926z M28.344,2.982c13.219,0,23.974,10.753,23.974,23.972
	c0,4.97-1.521,9.593-4.123,13.425l-2.007-2.383l-1.167,4.123l0.01-0.002c-0.055,0.195-0.093,0.396-0.093,0.609
	c0,0.434,0.128,0.836,0.34,1.18c-4.341,4.334-10.329,7.02-16.934,7.02c-6.604,0-12.591-2.686-16.931-7.02
	c0.212-0.344,0.34-0.746,0.34-1.18c0-0.213-0.038-0.414-0.093-0.609l0.01,0.002l-1.167-4.123l-2.008,2.383
	c-2.601-3.832-4.122-8.455-4.122-13.425C4.373,13.735,15.126,2.982,28.344,2.982z M17.325,13.502c0-2.485,2.021-4.507,4.507-4.507
	s4.507,2.022,4.507,4.507c0,0.829-0.672,1.5-1.5,1.5s-1.5-0.671-1.5-1.5c0-0.831-0.676-1.507-1.507-1.507s-1.507,0.676-1.507,1.507
	c0,0.829-0.672,1.5-1.5,1.5S17.325,14.331,17.325,13.502z M30.352,13.502c0-2.485,2.021-4.507,4.507-4.507s4.507,2.022,4.507,4.507
	c0,0.829-0.672,1.5-1.5,1.5s-1.5-0.671-1.5-1.5c0-0.831-0.676-1.507-1.507-1.507s-1.507,0.676-1.507,1.507
	c0,0.829-0.672,1.5-1.5,1.5S30.352,14.331,30.352,13.502z M28.295,20.107c6.1,0,11.311,4.152,13.447,10.024
	c0.666,1.83,0.41,4.705-0.947,5.32c-1.762,0.799-11.762-4.986-16.705-4.111s-7.646,3.982-8.693,2.611
	c-0.398-0.521-1.213-1.99-0.547-3.82C16.985,24.259,22.195,20.107,28.295,20.107z M40.209,21.558c0-0.211,0.038-0.412,0.093-0.607
	l-0.01,0.002l1.167-4.123l2.839,3.371H44.29c0.285,0.381,0.46,0.848,0.46,1.357c0,1.254-1.017,2.271-2.271,2.271
	S40.209,22.812,40.209,21.558z M11.94,21.558c0-0.51,0.175-0.977,0.46-1.357h-0.008l2.839-3.371l1.167,4.123l-0.01-0.002
	c0.055,0.195,0.093,0.396,0.093,0.607c0,1.254-1.017,2.271-2.271,2.271S11.94,22.812,11.94,21.558z M8.482,32.143
	c0-0.512,0.174-0.979,0.459-1.357l-0.008-0.002l2.84-3.371l1.166,4.123l-0.01-0.002c0.055,0.195,0.094,0.396,0.094,0.609
	c0,1.254-1.018,2.27-2.271,2.27S8.482,33.396,8.482,32.143z M43.75,31.535l1.168-4.123l2.838,3.371l-0.008,0.002
	c0.285,0.379,0.461,0.846,0.461,1.357c0,1.254-1.018,2.27-2.271,2.27s-2.27-1.016-2.27-2.27c0-0.213,0.037-0.414,0.092-0.609
	L43.75,31.535z"/>
</svg>
