<?xml version="1.0" encoding="utf-8"?>
<!-- Generator: Adobe Illustrator 15.1.0, SVG Export Plug-In . SVG Version: 6.00 Build 0)  -->
<!DOCTYPE svg PUBLIC "-//W3C//DTD SVG 1.1//EN" "http://www.w3.org/Graphics/SVG/1.1/DTD/svg11.dtd">
<svg version="1.1" id="Layer_1" xmlns="http://www.w3.org/2000/svg" xmlns:xlink="http://www.w3.org/1999/xlink" x="0px" y="0px"
	 width="56.69px" height="56.69px" viewBox="0 0 56.69 56.69" enable-background="new 0 0 56.69 56.69" xml:space="preserve">
<path d="M28.344,54.316c-14.32,0-25.971-11.65-25.971-25.971S14.024,2.374,28.344,2.374c14.322,0,25.972,11.651,25.972,25.972
	S42.666,54.316,28.344,54.316z M28.344,4.374c-13.218,0-23.971,10.753-23.971,23.972c0,13.217,10.753,23.971,23.971,23.971
	c13.218,0,23.972-10.754,23.972-23.971C52.316,15.127,41.563,4.374,28.344,4.374z M45.332,30.988
	c0.166-0.813-0.357-1.605-1.17-1.771c-0.807-0.162-1.604,0.357-1.77,1.17c-1.363,6.658-7.293,11.49-14.101,11.49
	c-6.698,0-12.457-4.545-14.004-11.053c-0.19-0.805-0.999-1.311-1.806-1.111c-0.807,0.191-1.305,1-1.112,1.805
	c1.869,7.867,8.828,13.359,16.922,13.359C36.518,44.877,43.684,39.035,45.332,30.988z M39.184,24.656
	c0-2.266-1.875-3.168-3.193-3.222h-0.41v-1.281h1.979c0.76,0,1.377-0.616,1.377-1.377c0-0.76-0.617-1.376-1.377-1.376H35.58v-2.379
	c0-0.761-0.617-1.377-1.377-1.377s-1.375,0.616-1.375,1.377v2.388c-2.055,0.046-3.482,1.405-3.482,3.347
	c0,2.075,1.365,3.417,3.482,3.43v1.092h-2.23c-0.76,0-1.375,0.616-1.375,1.377c0,0.76,0.615,1.376,1.375,1.376h2.23v2.378
	c0,0.76,0.615,1.377,1.375,1.377s1.377-0.617,1.377-1.377v-2.392C38.908,27.866,39.184,25.423,39.184,24.656z M32.1,20.755
	c0-0.215,0.01-0.563,0.729-0.597v1.274C32.137,21.425,32.1,21.182,32.1,20.755z M35.58,25.267v-1.08h0.354
	c0.496,0.021,0.496,0.357,0.496,0.469C36.43,24.979,36.422,25.22,35.58,25.267z M27.469,24.656c0-2.266-1.875-3.168-3.193-3.222
	h-0.41v-1.281h1.979c0.76,0,1.377-0.616,1.377-1.377c0-0.76-0.617-1.376-1.377-1.376h-1.979v-2.379c0-0.761-0.617-1.377-1.377-1.377
	s-1.377,0.616-1.377,1.377v2.388c-2.053,0.046-3.48,1.405-3.48,3.347c0,2.075,1.365,3.417,3.48,3.43v1.092h-2.229
	c-0.76,0-1.377,0.616-1.377,1.377c0,0.76,0.617,1.376,1.377,1.376h2.229v2.378c0,0.76,0.617,1.377,1.377,1.377
	s1.377-0.617,1.377-1.377v-2.392C27.194,27.866,27.469,25.423,27.469,24.656z M20.383,20.755c0-0.215,0.01-0.563,0.729-0.597v1.274
	C20.422,21.425,20.383,21.182,20.383,20.755z M23.866,25.267v-1.08h0.354c0.496,0.021,0.496,0.357,0.496,0.469
	C24.715,24.979,24.708,25.22,23.866,25.267z"/>
</svg>
