<?xml version="1.0" encoding="utf-8"?>
<!-- Generator: Adobe Illustrator 15.1.0, SVG Export Plug-In . SVG Version: 6.00 Build 0)  -->
<!DOCTYPE svg PUBLIC "-//W3C//DTD SVG 1.1//EN" "http://www.w3.org/Graphics/SVG/1.1/DTD/svg11.dtd">
<svg version="1.1" id="Layer_1" xmlns="http://www.w3.org/2000/svg" xmlns:xlink="http://www.w3.org/1999/xlink" x="0px" y="0px"
	 width="56.69px" height="56.69px" viewBox="0 0 56.69 56.69" enable-background="new 0 0 56.69 56.69" xml:space="preserve">
<path d="M28.344,54.316c-14.32,0-25.971-11.65-25.971-25.971S14.024,2.374,28.344,2.374c14.322,0,25.972,11.651,25.972,25.972
	S42.666,54.316,28.344,54.316z M28.344,4.374c-13.218,0-23.971,10.753-23.971,23.972c0,13.217,10.753,23.971,23.971,23.971
	c13.218,0,23.972-10.754,23.972-23.971C52.316,15.127,41.563,4.374,28.344,4.374z M17.489,38.135
	c2.98-2.705,6.841-4.195,10.869-4.195c4.015,0,7.867,1.482,10.845,4.172c0.615,0.555,1.564,0.508,2.119-0.107
	s0.508-1.563-0.107-2.119c-3.531-3.189-8.098-4.945-12.857-4.945c-4.775,0-9.352,1.768-12.885,4.975
	c-0.613,0.557-0.66,1.504-0.103,2.117c0.296,0.326,0.702,0.492,1.11,0.492C16.841,38.523,17.202,38.395,17.489,38.135z
	 M23.592,20.31c-1.432-0.838-3.27-0.358-4.107,1.073c-0.838,1.43-0.359,3.27,1.072,4.107s3.27,0.357,4.107-1.072
	C25.504,22.987,25.022,21.149,23.592,20.31z M26.599,23.521c0.419-0.715,0.179-1.634-0.536-2.053l-9.131-5.35
	c-0.715-0.419-1.633-0.18-2.052,0.536c-0.419,0.715-0.179,1.634,0.536,2.053l9.131,5.35c0.238,0.14,0.499,0.206,0.757,0.206
	C25.819,24.262,26.32,23.997,26.599,23.521z M32.025,24.418c0.838,1.43,2.676,1.91,4.107,1.072s1.91-2.678,1.072-4.107
	c-0.838-1.432-2.676-1.911-4.107-1.073C31.668,21.149,31.186,22.987,32.025,24.418z M32.143,24.057l9.131-5.35
	c0.715-0.419,0.955-1.338,0.537-2.053c-0.42-0.716-1.34-0.954-2.053-0.536l-9.131,5.35c-0.715,0.419-0.955,1.338-0.535,2.053
	c0.279,0.477,0.779,0.742,1.295,0.742C31.645,24.262,31.904,24.196,32.143,24.057z"/>
</svg>
