<?xml version="1.0" encoding="utf-8"?>
<!-- Generator: Adobe Illustrator 15.1.0, SVG Export Plug-In . SVG Version: 6.00 Build 0)  -->
<!DOCTYPE svg PUBLIC "-//W3C//DTD SVG 1.1//EN" "http://www.w3.org/Graphics/SVG/1.1/DTD/svg11.dtd">
<svg version="1.1" id="Layer_1" xmlns="http://www.w3.org/2000/svg" xmlns:xlink="http://www.w3.org/1999/xlink" x="0px" y="0px"
	 width="56.69px" height="56.69px" viewBox="0 0 56.69 56.69" enable-background="new 0 0 56.69 56.69" xml:space="preserve">
<path d="M28.344,54.316c-14.32,0-25.971-11.65-25.971-25.971S14.023,2.374,28.344,2.374c14.322,0,25.974,11.651,25.974,25.972
	S42.666,54.316,28.344,54.316z M28.344,4.374c-13.218,0-23.971,10.753-23.971,23.972c0,13.217,10.753,23.971,23.971,23.971
	c13.219,0,23.974-10.754,23.974-23.971C52.317,15.127,41.563,4.374,28.344,4.374z M33.877,36.137c0-0.828-0.672-1.5-1.5-1.5h-8.064
	c-0.828,0-1.5,0.672-1.5,1.5s0.672,1.5,1.5,1.5h8.064C33.205,37.637,33.877,36.965,33.877,36.137z M39.419,21.517
	c-1.658,0-3.002,1.343-3.002,3.002c0,1.657,1.344,3.002,3.002,3.002s3.002-1.345,3.002-3.002
	C42.421,22.86,41.077,21.517,39.419,21.517z M43.636,22.767c0-0.829-0.672-1.5-1.5-1.5H31.554c-0.828,0-1.5,0.671-1.5,1.5
	s0.672,1.5,1.5,1.5h10.582C42.964,24.267,43.636,23.596,43.636,22.767z M22.134,21.517c-1.658,0-3.002,1.343-3.002,3.002
	c0,1.657,1.344,3.002,3.002,3.002s3.002-1.345,3.002-3.002C25.136,22.86,23.792,21.517,22.134,21.517z M26.351,22.767
	c0-0.829-0.672-1.5-1.5-1.5H14.269c-0.828,0-1.5,0.671-1.5,1.5s0.672,1.5,1.5,1.5h10.582C25.679,24.267,26.351,23.596,26.351,22.767
	z"/>
</svg>
