<?xml version="1.0" encoding="utf-8"?>
<!-- Generator: Adobe Illustrator 15.1.0, SVG Export Plug-In . SVG Version: 6.00 Build 0)  -->
<!DOCTYPE svg PUBLIC "-//W3C//DTD SVG 1.1//EN" "http://www.w3.org/Graphics/SVG/1.1/DTD/svg11.dtd">
<svg version="1.1" id="Layer_1" xmlns="http://www.w3.org/2000/svg" xmlns:xlink="http://www.w3.org/1999/xlink" x="0px" y="0px"
	 width="56.69px" height="56.69px" viewBox="0 0 56.69 56.69" enable-background="new 0 0 56.69 56.69" xml:space="preserve">
<path d="M28.344,2.374c-14.32,0-25.971,11.651-25.971,25.972s11.65,25.971,25.971,25.971c14.322,0,25.974-11.65,25.974-25.971
	S42.666,2.374,28.344,2.374z M28.344,52.316c-13.218,0-23.971-10.754-23.971-23.971c0-13.218,10.753-23.972,23.971-23.972
	c13.219,0,23.974,10.753,23.974,23.972C52.317,41.563,41.563,52.316,28.344,52.316z M45.332,30.988
	c-1.647,8.047-8.813,13.889-17.04,13.889c-8.095,0-15.054-5.492-16.923-13.359c-0.192-0.805,0.306-1.613,1.112-1.805
	c0.809-0.199,1.615,0.307,1.806,1.111c1.548,6.508,7.307,11.053,14.005,11.053c6.808,0,12.738-4.832,14.101-11.49
	c0.167-0.813,0.963-1.334,1.771-1.17C44.975,29.383,45.498,30.176,45.332,30.988z M31.373,20.519c0-1.659,1.344-3.002,3.002-3.002
	s3.002,1.343,3.002,3.002c0,1.657-1.344,3.002-3.002,3.002S31.373,22.176,31.373,20.519z M18.873,20.519
	c0-1.659,1.344-3.002,3.002-3.002s3.002,1.343,3.002,3.002c0,1.657-1.344,3.002-3.002,3.002S18.873,22.176,18.873,20.519z"/>
</svg>
