<?xml version="1.0" encoding="utf-8"?>
<!-- Generator: Adobe Illustrator 15.1.0, SVG Export Plug-In . SVG Version: 6.00 Build 0)  -->
<!DOCTYPE svg PUBLIC "-//W3C//DTD SVG 1.1//EN" "http://www.w3.org/Graphics/SVG/1.1/DTD/svg11.dtd">
<svg version="1.1" id="Layer_1" xmlns="http://www.w3.org/2000/svg" xmlns:xlink="http://www.w3.org/1999/xlink" x="0px" y="0px"
	 width="56.69px" height="56.69px" viewBox="0 0 56.69 56.69" enable-background="new 0 0 56.69 56.69" xml:space="preserve">
<path d="M28.344,54.316c-14.32,0-25.971-11.65-25.971-25.972c0-14.32,11.65-25.971,25.971-25.971
	c14.322,0,25.974,11.65,25.974,25.971C54.317,42.666,42.666,54.316,28.344,54.316z M28.344,4.374
	c-13.218,0-23.971,10.753-23.971,23.971c0,13.218,10.753,23.972,23.971,23.972c13.219,0,23.974-10.754,23.974-23.972
	C52.317,15.127,41.563,4.374,28.344,4.374z M17.754,38.135c2.979-2.705,6.84-4.195,10.869-4.195c4.017,0,7.868,1.482,10.845,4.172
	c0.614,0.555,1.562,0.508,2.119-0.107c0.555-0.613,0.507-1.563-0.107-2.119c-3.529-3.188-8.095-4.945-12.856-4.945
	c-4.776,0-9.353,1.768-12.885,4.975c-0.614,0.557-0.659,1.504-0.103,2.117c0.296,0.326,0.702,0.492,1.11,0.492
	C17.106,38.523,17.467,38.395,17.754,38.135z M42.019,20.637c0-0.829-0.672-1.5-1.5-1.5h-7.689c-0.828,0-1.5,0.671-1.5,1.5
	s0.672,1.5,1.5,1.5h7.689C41.347,22.137,42.019,21.466,42.019,20.637z M26.458,20.637c0-0.829-0.672-1.5-1.5-1.5h-7.689
	c-0.828,0-1.5,0.671-1.5,1.5s0.672,1.5,1.5,1.5h7.689C25.786,22.137,26.458,21.466,26.458,20.637z"/>
</svg>
