<?xml version="1.0" encoding="utf-8"?>
<!-- Generator: Adobe Illustrator 15.1.0, SVG Export Plug-In . SVG Version: 6.00 Build 0)  -->
<!DOCTYPE svg PUBLIC "-//W3C//DTD SVG 1.1//EN" "http://www.w3.org/Graphics/SVG/1.1/DTD/svg11.dtd">
<svg version="1.1" id="Layer_1" xmlns="http://www.w3.org/2000/svg" xmlns:xlink="http://www.w3.org/1999/xlink" x="0px" y="0px"
	 width="56.69px" height="56.69px" viewBox="0 0 56.69 56.69" enable-background="new 0 0 56.69 56.69" xml:space="preserve">
<path d="M28.344,54.316c-14.32,0-25.971-11.65-25.971-25.971S14.024,2.374,28.344,2.374c14.322,0,25.972,11.651,25.972,25.972
	S42.666,54.316,28.344,54.316z M28.344,4.374c-13.218,0-23.971,10.753-23.971,23.972c0,13.217,10.753,23.971,23.971,23.971
	c13.218,0,23.972-10.754,23.972-23.971C52.316,15.127,41.563,4.374,28.344,4.374z M34.375,17.517c-1.658,0-3.002,1.343-3.002,3.002
	c0,1.657,1.344,3.002,3.002,3.002s3.002-1.345,3.002-3.002C37.377,18.86,36.033,17.517,34.375,17.517z M21.875,17.517
	c-1.658,0-3.002,1.343-3.002,3.002c0,1.657,1.344,3.002,3.002,3.002s3.002-1.345,3.002-3.002
	C24.877,18.86,23.534,17.517,21.875,17.517z M41.244,35.578c0.615-0.555,0.662-1.504,0.107-2.119
	c-0.557-0.613-1.504-0.66-2.119-0.107c-2.977,2.691-6.828,4.172-10.843,4.172c-4.028,0-7.889-1.488-10.869-4.193
	c-0.611-0.557-1.562-0.512-2.118,0.102c-0.558,0.613-0.511,1.563,0.103,2.119c3.533,3.207,8.109,4.973,12.885,4.973
	C33.148,40.523,37.715,38.768,41.244,35.578z"/>
</svg>
