<?xml version="1.0" encoding="utf-8"?>
<!-- Generator: Adobe Illustrator 15.1.0, SVG Export Plug-In . SVG Version: 6.00 Build 0)  -->
<!DOCTYPE svg PUBLIC "-//W3C//DTD SVG 1.1//EN" "http://www.w3.org/Graphics/SVG/1.1/DTD/svg11.dtd">
<svg version="1.1" id="Layer_1" xmlns="http://www.w3.org/2000/svg" xmlns:xlink="http://www.w3.org/1999/xlink" x="0px" y="0px"
	 width="56.69px" height="56.69px" viewBox="0 0 56.69 56.69" enable-background="new 0 0 56.69 56.69" xml:space="preserve">
<path d="M27.258,46.33c-8.094,0-15.053-5.494-16.923-13.36c-0.192-0.806,0.306-1.614,1.112-1.806
	c0.806-0.197,1.615,0.307,1.806,1.112c1.548,6.508,7.307,11.054,14.005,11.054c6.808,0,12.739-4.833,14.101-11.492
	c0.167-0.813,0.963-1.333,1.771-1.169c0.812,0.166,1.335,0.959,1.169,1.771C42.651,40.488,35.485,46.33,27.258,46.33z
	 M25.305,24.617c0-2.484-2.021-4.506-4.507-4.506s-4.507,2.021-4.507,4.506c0,0.828,0.672,1.5,1.5,1.5s1.5-0.672,1.5-1.5
	c0-0.83,0.676-1.506,1.507-1.506s1.507,0.676,1.507,1.506c0,0.828,0.672,1.5,1.5,1.5S25.305,25.445,25.305,24.617z M38.332,24.617
	c0-2.484-2.021-4.506-4.507-4.506s-4.507,2.021-4.507,4.506c0,0.828,0.672,1.5,1.5,1.5s1.5-0.672,1.5-1.5
	c0-0.83,0.676-1.506,1.507-1.506s1.507,0.676,1.507,1.506c0,0.828,0.672,1.5,1.5,1.5S38.332,25.445,38.332,24.617z M47.784,29.717
	l5.578-2.702c0.85-0.414,1.487-1.135,1.795-2.029c0.308-0.894,0.248-1.854-0.166-2.703c-0.598-1.226-1.815-1.987-3.18-1.987
	c-0.499,0-0.981,0.104-1.437,0.307c-0.61-1.145-1.824-1.878-3.128-1.878c-0.539,0-1.06,0.121-1.549,0.358
	c-1.752,0.856-2.482,2.979-1.628,4.731l2.566,5.251l0.464,0.926L47.784,29.717z M48.633,21.588l0.819,1.685l1.687-0.821
	c0.754-0.366,1.692-0.035,2.056,0.708c0.18,0.369,0.205,0.787,0.071,1.176s-0.41,0.702-0.779,0.882l-4.447,2.17l-2.172-4.45
	c-0.371-0.762-0.053-1.685,0.708-2.057c0.213-0.104,0.438-0.156,0.672-0.156C47.842,20.724,48.373,21.056,48.633,21.588z
	 M48.336,17.738l4.259-9.345c0.583-1.287,0.631-2.724,0.134-4.046s-1.48-2.371-2.767-2.953C49.27,1.08,48.535,0.921,47.78,0.921
	c-2.071,0-3.962,1.219-4.815,3.104L42.767,4.46l-0.433-0.196c-0.692-0.314-1.426-0.474-2.182-0.474c-2.073,0-3.965,1.22-4.818,3.105
	c-0.585,1.287-0.632,2.725-0.135,4.047c0.497,1.321,1.48,2.371,2.767,2.953l9.13,4.141l0.873,0.289L48.336,17.738z M41.508,6.085
	l2.253,1.022l1.025-2.257c0.53-1.173,1.706-1.93,2.994-1.93c0.468,0,0.924,0.099,1.356,0.295c0.8,0.362,1.411,1.014,1.72,1.836
	c0.31,0.822,0.279,1.716-0.084,2.517l-3.733,8.246l-8.248-3.741c-0.8-0.361-1.41-1.014-1.72-1.836
	c-0.31-0.821-0.279-1.715,0.084-2.516c0.531-1.174,1.708-1.932,2.997-1.932C40.621,5.79,41.077,5.89,41.508,6.085z M51.852,21.307
	c-0.8-2.305-1.915-4.462-3.295-6.421l-0.971,2.145c0.963,1.523,1.759,3.161,2.361,4.889l0.753-0.366
	C51.072,21.372,51.465,21.3,51.852,21.307z M52.925,26.115l-1.81,0.883c0.107,0.919,0.169,1.852,0.169,2.799
	c0,13.219-10.755,23.973-23.974,23.973c-13.218,0-23.971-10.754-23.971-23.973c0-13.217,10.753-23.971,23.971-23.971
	c3.129,0,6.117,0.609,8.86,1.704c0.028-0.073,0.041-0.149,0.074-0.222c0.265-0.583,0.649-1.069,1.104-1.463
	c-3.09-1.3-6.481-2.02-10.039-2.02c-14.32,0-25.971,11.65-25.971,25.971c0,14.321,11.65,25.973,25.971,25.973
	c14.323,0,25.974-11.651,25.974-25.973c0-1.269-0.096-2.515-0.272-3.735C52.981,26.078,52.956,26.1,52.925,26.115z"/>
</svg>
