<?xml version="1.0" encoding="utf-8"?>
<!-- Generator: Adobe Illustrator 15.1.0, SVG Export Plug-In . SVG Version: 6.00 Build 0)  -->
<!DOCTYPE svg PUBLIC "-//W3C//DTD SVG 1.1//EN" "http://www.w3.org/Graphics/SVG/1.1/DTD/svg11.dtd">
<svg version="1.1" id="Layer_1" xmlns="http://www.w3.org/2000/svg" xmlns:xlink="http://www.w3.org/1999/xlink" x="0px" y="0px"
	 width="56.69px" height="56.69px" viewBox="0 0 56.69 56.69" enable-background="new 0 0 56.69 56.69" xml:space="preserve">
<path d="M28.344,54.317c-14.32,0-25.971-11.651-25.971-25.973c0-14.32,11.65-25.972,25.971-25.972
	c14.322,0,25.972,11.651,25.972,25.972C54.316,42.666,42.666,54.317,28.344,54.317z M28.344,4.373
	c-13.218,0-23.971,10.754-23.971,23.972c0,13.219,10.753,23.973,23.971,23.973c13.218,0,23.972-10.754,23.972-23.973
	C52.316,15.127,41.563,4.373,28.344,4.373z M34.609,17.517c-1.658,0-3.002,1.343-3.002,3.002c0,1.657,1.344,3.002,3.002,3.002
	s3.002-1.345,3.002-3.002C37.611,18.859,36.268,17.517,34.609,17.517z M22.11,17.517c-1.658,0-3.002,1.343-3.002,3.002
	c0,1.657,1.344,3.002,3.002,3.002s3.002-1.345,3.002-3.002C25.112,18.859,23.768,17.517,22.11,17.517z M17.754,38.135
	c2.979-2.705,6.84-4.194,10.869-4.194c4.017,0,7.869,1.481,10.843,4.171c0.615,0.556,1.563,0.508,2.119-0.106
	c0.555-0.614,0.508-1.563-0.107-2.118c-3.527-3.19-8.094-4.946-12.855-4.946c-4.776,0-9.353,1.766-12.885,4.974
	c-0.614,0.557-0.659,1.505-0.103,2.118c0.296,0.326,0.702,0.492,1.11,0.492C17.107,38.524,17.467,38.396,17.754,38.135z
	 M41.057,25.763l0.008-0.001l-2.838-3.371l-1.168,4.123l0.01-0.002c-0.055,0.195-0.092,0.396-0.092,0.608
	c0,1.254,1.016,2.271,2.27,2.271s2.271-1.017,2.271-2.271C41.518,26.609,41.342,26.143,41.057,25.763z"/>
</svg>
