<?xml version="1.0" encoding="utf-8"?>
<!-- Generator: Adobe Illustrator 15.1.0, SVG Export Plug-In . SVG Version: 6.00 Build 0)  -->
<!DOCTYPE svg PUBLIC "-//W3C//DTD SVG 1.1//EN" "http://www.w3.org/Graphics/SVG/1.1/DTD/svg11.dtd">
<svg version="1.1" id="Layer_1" xmlns="http://www.w3.org/2000/svg" xmlns:xlink="http://www.w3.org/1999/xlink" x="0px" y="0px"
	 width="56.69px" height="56.69px" viewBox="0 0 56.69 56.69" enable-background="new 0 0 56.69 56.69" xml:space="preserve">
<path d="M28.343,55.08c-13.171,0-23.887-10.717-23.887-23.889c0-13.171,10.716-23.887,23.887-23.887
	c13.172,0,23.891,10.716,23.891,23.887C52.234,44.363,41.516,55.08,28.343,55.08z M28.343,9.304
	c-12.068,0-21.887,9.819-21.887,21.887c0,12.07,9.818,21.889,21.887,21.889c12.071,0,21.891-9.818,21.891-21.889
	C50.234,19.123,40.414,9.304,28.343,9.304z M40.225,37.916c0.615-0.555,0.664-1.502,0.107-2.117
	c-0.555-0.617-1.502-0.664-2.117-0.109c-2.709,2.445-6.211,3.791-9.858,3.791c-3.66,0-7.168-1.354-9.878-3.813
	c-0.612-0.555-1.56-0.512-2.118,0.102c-0.557,0.613-0.511,1.563,0.103,2.119c3.263,2.961,7.486,4.592,11.894,4.592
	C32.748,42.48,36.963,40.859,40.225,37.916z M28.345,19.003c-9.157,0-18.428-2.988-18.428-8.698c0-5.709,9.271-8.696,18.428-8.696
	c9.157,0,18.428,2.987,18.428,8.696C46.773,16.016,37.502,19.003,28.345,19.003z M28.345,6.61c-8.373,0-13.271,2.626-13.428,3.7
	c0.152,1.066,5.046,3.693,13.428,3.693c8.381,0,13.276-2.627,13.428-3.702C41.617,9.236,36.717,6.61,28.345,6.61z M26.416,26.146
	c0-0.829-0.672-1.5-1.5-1.5s-1.5,0.671-1.5,1.5c0,0.693-0.563,1.257-1.256,1.257s-1.256-0.564-1.256-1.257
	c0-0.829-0.672-1.5-1.5-1.5s-1.5,0.671-1.5,1.5c0,2.347,1.909,4.258,4.256,4.258S26.416,28.494,26.416,26.146z M38.355,26.146
	c0-0.829-0.672-1.5-1.5-1.5s-1.5,0.671-1.5,1.5c0,0.693-0.564,1.257-1.256,1.257c-0.693,0-1.256-0.564-1.256-1.257
	c0-0.829-0.672-1.5-1.5-1.5s-1.5,0.671-1.5,1.5c0,2.347,1.908,4.258,4.256,4.258C36.445,30.404,38.355,28.494,38.355,26.146z"/>
</svg>
