<?xml version="1.0" encoding="utf-8"?>
<!-- Generator: Adobe Illustrator 15.1.0, SVG Export Plug-In . SVG Version: 6.00 Build 0)  -->
<!DOCTYPE svg PUBLIC "-//W3C//DTD SVG 1.1//EN" "http://www.w3.org/Graphics/SVG/1.1/DTD/svg11.dtd">
<svg version="1.1" id="Layer_1" xmlns="http://www.w3.org/2000/svg" xmlns:xlink="http://www.w3.org/1999/xlink" x="0px" y="0px"
	 width="56.69px" height="56.69px" viewBox="0 0 56.69 56.69" enable-background="new 0 0 56.69 56.69" xml:space="preserve">
<path d="M36.454,51.953c-6.39,0-9.241-1.008-9.241-6.983c0-5.478,2.528-6.578,6.605-6.578c0.469,0,0.964,0.012,1.483,0.025
	c0.563,0.014,0.872,0.282,1.031,0.505c0.358,0.505,0.184,1.046,0.068,1.403c-0.081,0.249-0.164,0.507-0.164,0.806
	c0,0.31,0.045,0.551,0.084,0.764c0.066,0.365,0.159,0.864-0.212,1.31c-0.241,0.29-0.587,0.437-1.029,0.437l-0.702-0.006
	c-1.317,0-1.317,0.204-1.317,0.575c0,0.54,0.071,0.851,0.212,0.923c0.34,0.175,1.261,0.175,2.073,0.175h0.486
	c3.014,0,3.014-0.141,3.014-2.488c0-4.761-1.273-4.907-2.506-5.049c-2.73-0.321-4.602-0.656-5.565-0.998
	c-0.845-0.3-1.46-0.793-1.909-1.377c-0.074,0.274-0.158,0.554-0.252,0.838c-0.265,0.749-0.374,1.033-0.435,1.165l0.001,0.001
	c-0.56,1.175-1.452,1.746-2.729,1.746c-0.527,0-1.095-0.092-1.696-0.189c-0.309-0.05-0.638-0.103-0.988-0.147
	c-2.346-0.299-7.094-1.307-9.194-2.207c-1.213-0.562-1.675-1.183-2.208-2.284c-1.379-2.844-2.715-12.069-2.728-12.159
	c-0.195-1.563-0.206-2.387-0.206-2.422c-0.002-0.911,0.074-1.938,0.601-2.866l-0.595,0.292l0.854-2.56l0.192-0.164l8.426-8.356
	l0.314-0.094l2.175-0.544l-0.138,0.261c0.458-0.287,0.986-0.518,1.555-0.677c0.63-0.177,1.846-0.292,3.096-0.292
	c1.446,0,3.53,0.145,5.246,0.835c1.084,0.436,2.009,1.484,2.441,2.7c0.334-0.006,0.694-0.01,1.073-0.01
	c1.711,0,3.213,0.075,4.463,0.222c2.786,0.328,4.937,0.731,6.057,1.136c1.576,0.57,2.679,1.955,3.023,3.801
	c0.578,3.1,1.328,15.452,0.941,19.647c-0.67,7.261-1.798,11.016-2.018,11.694C43.906,51.678,41.692,51.953,36.454,51.953z
	 M33.818,40.392c-3.271,0-4.604,0.414-4.604,4.578c0,3.981,0.853,4.983,7.24,4.983c4.655,0,5.907,0,7.779-5.805
	c0.128-0.396,1.266-4.063,1.929-11.264c0.367-3.977-0.367-16.161-0.916-19.097c-0.289-1.548-1.212-2.098-1.736-2.287
	c-0.951-0.344-3.049-0.729-5.611-1.03c-1.173-0.138-2.596-0.208-4.229-0.208c-0.683,0-1.305,0.013-1.813,0.028l-0.892,0.027
	l-0.129-0.882c-0.145-0.989-0.844-1.773-1.428-2.008c-1.107-0.445-2.705-0.69-4.5-0.69c-1.308,0-2.245,0.13-2.557,0.218
	c-0.757,0.211-1.391,0.6-1.698,1.04c-0.26,0.372-0.382,0.821-0.383,1.412c0,0.453,0.012,1.484,0.022,2.452l0.029,2.134
	c-0.002,1.536-1.201,2.733-2.671,2.735h-4.246c-0.692,0-1.269,0.102-1.712,0.303c-0.339,0.154-0.592,0.354-0.797,0.631
	c-0.335,0.449-0.47,1.046-0.468,2.063l0,0c0,0,0.012,0.753,0.189,2.177c0.257,1.913,1.498,9.386,2.544,11.544
	c0.41,0.847,0.581,1.032,1.223,1.33c1.887,0.809,6.453,1.771,8.633,2.049c0.375,0.048,0.726,0.104,1.054,0.157
	c0.543,0.088,1.012,0.164,1.378,0.164c0.461,0,0.672-0.089,0.912-0.581c0.041-0.105,0.18-0.474,0.359-0.979
	c0.675-2.042,0.754-3.9,0.754-5.118c0-0.611,0.496-1.108,1.105-1.108c0.618,0,1.101,0.487,1.101,1.108l-0.001,0.194
	c-0.016,1.671,0.17,3.661,1.762,4.227c0.564,0.2,1.914,0.519,5.128,0.896c3.075,0.354,4.274,2.325,4.274,7.035
	c0,3.811-1.313,4.488-5.014,4.488h-0.486c-1.38,0-2.27-0.026-2.988-0.396c-1.162-0.598-1.297-1.828-1.297-2.701
	c0-2.464,2.285-2.57,3.201-2.575c-0.015-0.151-0.024-0.32-0.024-0.504c0-0.271,0.03-0.518,0.073-0.735
	C34.144,40.394,33.979,40.392,33.818,40.392z M13.275,13.494h3.612c-0.013-0.879-0.034-2.548-0.042-3.542L13.275,13.494z
	 M41.664,29.328l-1.414-0.629c-0.768-0.342-1.693-0.54-2.678-0.575c-0.536-0.018-1.058,0.013-1.552,0.094l-1.316,0.213l0.164-1.323
	c0.387-3.124,2.28-3.59,3.374-3.59l0.144,0.002c1.213,0.042,3.251,0.652,3.271,4.26L41.664,29.328z M37.274,26.119
	c0.122,0,0.244,0.002,0.368,0.007c0.623,0.021,1.232,0.098,1.812,0.225c-0.293-0.802-0.833-0.821-1.139-0.832
	c-0.316,0-0.78-0.001-1.116,0.6C37.225,26.119,37.249,26.119,37.274,26.119z"/>
</svg>
