<?xml version="1.0" encoding="utf-8"?>
<!-- Generator: Adobe Illustrator 15.1.0, SVG Export Plug-In . SVG Version: 6.00 Build 0)  -->
<!DOCTYPE svg PUBLIC "-//W3C//DTD SVG 1.1//EN" "http://www.w3.org/Graphics/SVG/1.1/DTD/svg11.dtd">
<svg version="1.1" id="Layer_1" xmlns="http://www.w3.org/2000/svg" xmlns:xlink="http://www.w3.org/1999/xlink" x="0px" y="0px"
	 width="56.69px" height="56.69px" viewBox="0 0 56.69 56.69" enable-background="new 0 0 56.69 56.69" xml:space="preserve">
<path d="M28.345,13.968c9.983,0,19.418,10.745,22.321,14.378c-2.903,3.632-12.338,14.377-22.321,14.377
	c-9.982,0-19.417-10.745-22.32-14.377C8.928,24.713,18.362,13.968,28.345,13.968 M28.345,11.968
	c-12.748,0-24.29,15.617-24.833,16.362v0.03c0.543,0.745,12.085,16.362,24.833,16.362c12.749,0,24.291-15.617,24.834-16.362v-0.03
	C52.636,27.585,41.094,11.968,28.345,11.968L28.345,11.968z M28.345,17.96c5.727,0,10.386,4.659,10.386,10.385
	c0,5.727-4.659,10.386-10.386,10.386S17.96,34.071,17.96,28.345C17.96,22.619,22.618,17.96,28.345,17.96 M28.345,15.96
	c-6.84,0-12.385,5.545-12.385,12.385c0,6.841,5.545,12.386,12.385,12.386S40.73,35.186,40.73,28.345
	C40.73,21.505,35.185,15.96,28.345,15.96L28.345,15.96z M28.345,23.165c-2.861,0-5.181,2.32-5.181,5.18
	c0,2.862,2.319,5.182,5.181,5.182s5.182-2.319,5.182-5.182C33.526,25.484,31.206,23.165,28.345,23.165z"/>
</svg>
