<?xml version="1.0" encoding="utf-8"?>
<!-- Generator: Adobe Illustrator 15.1.0, SVG Export Plug-In . SVG Version: 6.00 Build 0)  -->
<!DOCTYPE svg PUBLIC "-//W3C//DTD SVG 1.1//EN" "http://www.w3.org/Graphics/SVG/1.1/DTD/svg11.dtd">
<svg version="1.1" id="Layer_1" xmlns="http://www.w3.org/2000/svg" xmlns:xlink="http://www.w3.org/1999/xlink" x="0px" y="0px"
	 width="56.689px" height="56.689px" viewBox="0 0 56.689 56.689" enable-background="new 0 0 56.689 56.689" xml:space="preserve">
<path d="M47.304,3.279H9.386c-3.86,0-7,3.14-7,7v25.583c0,3.859,3.14,7,7,7h0.812l-0.076,10.55l15.27-10.55h21.911
	c3.859,0,7-3.141,7-7V10.279C54.304,6.419,51.163,3.279,47.304,3.279z M52.304,35.862c0,2.757-2.244,5-5,5H24.769L12.15,49.579
	l0.063-8.718H9.386c-2.757,0-5-2.243-5-5V10.279c0-2.757,2.243-5,5-5h37.917c2.756,0,5,2.243,5,5V35.862z M12.986,13.635h30.75v2
	h-30.75V13.635z M12.986,22.093h30.75v2h-30.75V22.093z M12.986,30.552h22.75v2h-22.75V30.552z"/>
</svg>
