<?xml version="1.0" encoding="utf-8"?>
<!-- Generator: Adobe Illustrator 15.1.0, SVG Export Plug-In . SVG Version: 6.00 Build 0)  -->
<!DOCTYPE svg PUBLIC "-//W3C//DTD SVG 1.1//EN" "http://www.w3.org/Graphics/SVG/1.1/DTD/svg11.dtd">
<svg version="1.1" id="Layer_1" xmlns="http://www.w3.org/2000/svg" xmlns:xlink="http://www.w3.org/1999/xlink" x="0px" y="0px"
	 width="56.689px" height="56.689px" viewBox="0 0 56.689 56.689" enable-background="new 0 0 56.689 56.689" xml:space="preserve">
<path d="M47.304,3.663H9.386c-3.86,0-7,3.14-7,7v25.583c0,3.859,3.14,7,7,7h0.828l-0.077,10.697l15.484-10.697h21.683
	c3.859,0,7-3.141,7-7V10.663C54.304,6.803,51.163,3.663,47.304,3.663z M52.304,36.245c0,2.757-2.243,5-5,5H24.997l-12.833,8.865
	l0.064-8.865H9.386c-2.757,0-5-2.243-5-5V10.663c0-2.757,2.243-5,5-5h37.917c2.757,0,5,2.243,5,5V36.245z M29.345,22.345h8.584v2
	h-8.584v8.582h-2v-8.582h-8.584v-2h8.584v-8.583h2V22.345z"/>
</svg>
