<?xml version="1.0" encoding="utf-8"?>
<!-- Generator: Adobe Illustrator 15.1.0, SVG Export Plug-In . SVG Version: 6.00 Build 0)  -->
<!DOCTYPE svg PUBLIC "-//W3C//DTD SVG 1.1//EN" "http://www.w3.org/Graphics/SVG/1.1/DTD/svg11.dtd">
<svg version="1.1" id="Layer_1" xmlns="http://www.w3.org/2000/svg" xmlns:xlink="http://www.w3.org/1999/xlink" x="0px" y="0px"
	 width="56.689px" height="56.689px" viewBox="0 0 56.689 56.689" enable-background="new 0 0 56.689 56.689" xml:space="preserve">
<path d="M38.064,22.663c3.133,0,5.682,2.549,5.682,5.683c0,3.132-2.549,5.681-5.682,5.681c-3.134,0-5.684-2.549-5.684-5.681
	C32.38,25.212,34.93,22.663,38.064,22.663 M38.064,20.663c-4.242,0-7.684,3.439-7.684,7.683c0,4.244,3.441,7.681,7.684,7.681
	s7.682-3.438,7.682-7.681C45.745,24.102,42.306,20.663,38.064,20.663L38.064,20.663z M18.627,22.663
	c3.133,0,5.682,2.549,5.682,5.683c0,3.132-2.549,5.681-5.682,5.681s-5.682-2.549-5.682-5.681
	C12.945,25.212,15.494,22.663,18.627,22.663 M18.627,20.663c-4.242,0-7.682,3.439-7.682,7.683c0,4.244,3.439,7.681,7.682,7.681
	s7.682-3.438,7.682-7.681C26.308,24.102,22.869,20.663,18.627,20.663L18.627,20.663z"/>
</svg>
