<?xml version="1.0" encoding="utf-8"?>
<!-- Generator: Adobe Illustrator 15.1.0, SVG Export Plug-In . SVG Version: 6.00 Build 0)  -->
<!DOCTYPE svg PUBLIC "-//W3C//DTD SVG 1.1//EN" "http://www.w3.org/Graphics/SVG/1.1/DTD/svg11.dtd">
<svg version="1.1" id="Layer_1" xmlns="http://www.w3.org/2000/svg" xmlns:xlink="http://www.w3.org/1999/xlink" x="0px" y="0px"
	 width="56.689px" height="56.689px" viewBox="0 0 56.689 56.689" enable-background="new 0 0 56.689 56.689" xml:space="preserve">
<path d="M44.224,2.401H8.4c-3.309,0-6,2.691-6,6v39.889c0,3.309,2.691,6,6,6h3.349h33.25h3.291c3.309,0,6-2.691,6-6V12.466
	L44.224,2.401z M14.473,5.401h4.37v10.349c0,0.353,0.072,0.686,0.184,1h-3.554c-0.552,0-1-0.449-1-1V5.401z M40.054,6.977v8.196
	c0,0.677-0.547,1.226-1.225,1.226h-2.91c-0.678,0-1.227-0.549-1.227-1.226V6.977c0-0.677,0.549-1.226,1.227-1.226h2.91
	C39.507,5.751,40.054,6.3,40.054,6.977z M13.749,52.289V31.508c0-1.104,0.897-2,2-2h25.25c1.102,0,2,0.896,2,2v20.781H13.749z
	 M52.29,48.289c0,2.207-1.795,4-4,4h-3.291V31.508c0-2.207-1.795-4-4-4h-25.25c-2.206,0-4,1.793-4,4v20.781H8.4
	c-2.206,0-4-1.793-4-4V8.401c0-2.206,1.794-4,4-4h4.073v11.349c0,1.656,1.344,3,3,3h6.37h18.875c1.656,0,3-1.344,3-3V4.723
	l8.572,8.571V48.289z M17.145,33.25h22.397v2.732H17.145V33.25z M17.145,39.533h22.397v2.73H17.145V39.533z M17.145,45.815h16.571
	v2.732H17.145V45.815z"/>
</svg>
