<?xml version="1.0" encoding="utf-8"?>
<!-- Generator: Adobe Illustrator 15.1.0, SVG Export Plug-In . SVG Version: 6.00 Build 0)  -->
<!DOCTYPE svg PUBLIC "-//W3C//DTD SVG 1.1//EN" "http://www.w3.org/Graphics/SVG/1.1/DTD/svg11.dtd">
<svg version="1.1" id="Layer_1" xmlns="http://www.w3.org/2000/svg" xmlns:xlink="http://www.w3.org/1999/xlink" x="0px" y="0px"
	 width="56.689px" height="56.689px" viewBox="0 0 56.689 56.689" enable-background="new 0 0 56.689 56.689" xml:space="preserve">
<path d="M21.891,40.639c0,0.842-0.683,1.524-1.524,1.524h-3.357v3.357c0,0.842-0.684,1.524-1.524,1.524s-1.524-0.683-1.524-1.524
	v-3.357h-3.357c-0.842,0-1.524-0.683-1.524-1.524s0.683-1.524,1.524-1.524h3.357v-3.357c0-0.842,0.684-1.524,1.524-1.524
	s1.524,0.683,1.524,1.524v3.357h3.357C21.208,39.115,21.891,39.797,21.891,40.639z M54.165,40.638
	c0,7.146-5.814,12.961-12.961,12.961c-4.27,0-8.204-2.071-10.634-5.569h-4.452c-2.43,3.498-6.365,5.569-10.635,5.569
	c-7.146,0-12.959-5.814-12.959-12.961c0-6.661,5.166-12.248,11.703-12.889v-0.059l1-0.013h9.875v-1.161c0-0.552,0.448-0.999,1-0.999
	h1.296c-1.049-3.918-4.621-6.816-8.866-6.816v-0.003l-9.419-0.001c-3.444,0-6.246-2.801-6.246-6.244
	c0-3.442,2.802-6.243,6.246-6.243h26.431V5.091c0-1.104,0.896-2,2-2h9v1.375h3.25v5.5h-3.25v1.374h-9c-1.104,0-2-0.895-2-1.999V8.21
	H9.114c-2.341,0-4.246,1.903-4.246,4.243c0,2.341,1.905,4.244,4.246,4.244l9.419,0.001v0.003c5.355,0,9.838,3.784,10.93,8.816h1.808
	c0.553,0,1,0.447,1,0.999v1.161h10.065v0.056C48.944,28.312,54.165,33.905,54.165,40.638z M52.165,40.638
	c0-5.975-4.863-10.889-10.841-10.953l-0.627-0.007l-25.448,0.013C9.335,29.816,4.525,34.727,4.525,40.638
	c0,6.044,4.916,10.961,10.959,10.961c3.767,0,7.227-1.908,9.254-5.105l0.295-0.464h6.624l0.295,0.464
	c2.027,3.197,5.486,5.105,9.253,5.105C47.248,51.599,52.165,46.682,52.165,40.638z M41.146,43.076c-1.088,0-1.969,0.881-1.969,1.969
	c0,1.086,0.881,1.969,1.969,1.969s1.969-0.883,1.969-1.969C43.115,43.957,42.234,43.076,41.146,43.076z M41.146,34.264
	c-1.088,0-1.969,0.881-1.969,1.969c0,1.086,0.881,1.969,1.969,1.969s1.969-0.883,1.969-1.969
	C43.115,35.145,42.234,34.264,41.146,34.264z M36.799,38.67c-1.087,0-1.969,0.881-1.969,1.969s0.882,1.969,1.969,1.969
	s1.969-0.881,1.969-1.969S37.886,38.67,36.799,38.67z M45.612,38.67c-1.087,0-1.969,0.881-1.969,1.969s0.882,1.969,1.969,1.969
	s1.969-0.881,1.969-1.969S46.698,38.67,45.612,38.67z"/>
</svg>
