<?xml version="1.0" encoding="utf-8"?>
<!-- Generator: Adobe Illustrator 15.1.0, SVG Export Plug-In . SVG Version: 6.00 Build 0)  -->
<!DOCTYPE svg PUBLIC "-//W3C//DTD SVG 1.1//EN" "http://www.w3.org/Graphics/SVG/1.1/DTD/svg11.dtd">
<svg version="1.1" id="Layer_1" xmlns="http://www.w3.org/2000/svg" xmlns:xlink="http://www.w3.org/1999/xlink" x="0px" y="0px"
	 width="56.689px" height="56.689px" viewBox="0 0 56.689 56.689" enable-background="new 0 0 56.689 56.689" xml:space="preserve">
<path d="M50.429,13.407h-9.514c0.283-0.199,0.549-0.424,0.793-0.677c1.002-1.035,1.553-2.397,1.553-3.838
	c0-3.042-2.473-5.517-5.516-5.517c-1.041,0-1.936,0.336-2.375,0.537l-0.008,0.003c-1.314,0.608-4.711,3.553-7.017,5.622
	c-2.306-2.069-5.703-5.014-7.018-5.622l-0.007-0.003c-0.44-0.2-1.334-0.537-2.375-0.537c-3.043,0-5.517,2.475-5.517,5.517
	c0,1.44,0.551,2.803,1.553,3.838c0.245,0.252,0.511,0.478,0.793,0.677H6.261c-1.654,0-3,1.346-3,3v7.035c0,1.654,1.346,3,3,3h1.591
	v22.973c0,2.15,1.75,3.9,3.9,3.9h11.801h2h5.583h2h11.803c2.15,0,3.898-1.75,3.898-3.9V26.442h1.592c1.654,0,3-1.346,3-3v-7.035
	C53.429,14.753,52.083,13.407,50.429,13.407z M36.552,6.495c0.385-0.175,0.83-0.279,1.193-0.279c1.475,0,2.676,1.201,2.676,2.676
	c0,1.445-1.127,2.617-2.568,2.674h-7.51C32.892,9.284,35.726,6.88,36.552,6.495z M18.946,6.216c0.362,0,0.808,0.104,1.192,0.279
	c0.826,0.385,3.66,2.789,6.21,5.071h-7.511c-1.44-0.057-2.567-1.229-2.567-2.674C16.27,7.417,17.47,6.216,18.946,6.216z
	 M6.261,24.442c-0.552,0-1-0.449-1-1v-7.035c0-0.551,0.448-1,1-1h17.292v9.035H7.852H6.261z M23.553,51.315H11.753
	c-1.048,0-1.9-0.853-1.9-1.9V26.442h13.701V51.315z M31.136,51.315h-5.583V26.442v-2v-9.035h5.583v9.035v2V51.315z M46.837,49.414
	c0,1.048-0.852,1.9-1.898,1.9H33.136V26.442h13.701V49.414z M51.429,23.442c0,0.551-0.449,1-1,1h-1.592H33.136v-9.035h17.293
	c0.551,0,1,0.449,1,1V23.442z"/>
</svg>
