<?xml version="1.0" encoding="utf-8"?>
<!-- Generator: Adobe Illustrator 15.1.0, SVG Export Plug-In . SVG Version: 6.00 Build 0)  -->
<!DOCTYPE svg PUBLIC "-//W3C//DTD SVG 1.1//EN" "http://www.w3.org/Graphics/SVG/1.1/DTD/svg11.dtd">
<svg version="1.1" id="Layer_1" xmlns="http://www.w3.org/2000/svg" xmlns:xlink="http://www.w3.org/1999/xlink" x="0px" y="0px"
	 width="56.689px" height="56.689px" viewBox="0 0 56.689 56.689" enable-background="new 0 0 56.689 56.689" xml:space="preserve">
<path d="M23.305,32.146v-3.779h2.522v3.779c0,0.346,0.065,0.672,0.198,0.98c0.131,0.307,0.312,0.575,0.54,0.804
	s0.497,0.409,0.804,0.54c0.309,0.133,0.635,0.198,0.98,0.198s0.671-0.065,0.976-0.198c0.305-0.131,0.571-0.312,0.8-0.54
	s0.408-0.497,0.541-0.804c0.131-0.309,0.197-0.635,0.197-0.98v-3.779h2.522v3.779c0,0.422-0.058,0.846-0.171,1.27
	c-0.115,0.426-0.28,0.824-0.497,1.195c-0.217,0.373-0.482,0.705-0.796,0.998s-0.672,0.521-1.076,0.686h2.092v2.391h-3.331v2.285
	h-2.522v-2.285h-3.331v-2.391h2.074c-0.416-0.199-0.782-0.448-1.099-0.747s-0.58-0.63-0.791-0.993s-0.369-0.75-0.475-1.16
	S23.305,32.568,23.305,32.146z M47.674,14.981l-4.426,2.295l3.801,1.287c0.784,0.266,1.205,1.117,0.939,1.902
	c-0.212,0.625-0.795,1.02-1.421,1.02c-0.159,0-0.321-0.026-0.481-0.08l-6.879-2.329l-0.917,0.032l7.854,16.994h-0.008
	c0.617,1.262,0.965,2.607,0.965,4.01c0,7.028-8.398,12.727-18.755,12.727c-10.358,0-18.756-5.698-18.756-12.727
	c0-1.402,0.348-2.748,0.965-4.01h-0.009l7.21-16.318c-0.659-0.139-1.164-0.71-1.188-1.414c-0.029-0.828,0.619-1.523,1.446-1.552
	l1.069-0.038l0.001-0.003l-3.031-6.818c-0.941-2.118,0.012-4.599,2.129-5.54c0.549-0.244,1.122-0.359,1.685-0.359
	c1.215,0,2.388,0.538,3.192,1.475c1.068-0.992,2.732-1.646,4.617-1.679c0.049-0.001,0.099-0.001,0.147-0.001
	c2.491,0,4.613,1.1,5.454,2.662c0.73-1.462,2.208-2.327,3.754-2.327c0.572,0,1.153,0.118,1.709,0.368
	c2.113,0.949,3.057,3.432,2.109,5.547l-2.696,6.008l0.886-0.031l7.255-3.761c0.735-0.384,1.64-0.095,2.022,0.641
	C48.697,13.694,48.409,14.599,47.674,14.981z M21.24,16.704l14.677-0.515c0.011-0.019,0.023-0.036,0.033-0.055l3.074-6.85
	c0.494-1.104-0.001-2.408-1.104-2.904c-0.284-0.127-0.584-0.192-0.89-0.192c-0.836,0-1.589,0.468-1.965,1.221l-1.723,3.45
	l-1.827-3.396c-0.418-0.775-1.751-1.609-3.693-1.609L27.71,5.854c-1.313,0.022-2.543,0.451-3.291,1.145l-1.524,1.415l-1.354-1.578
	c-0.424-0.494-1.035-0.777-1.675-0.777c-0.299,0-0.593,0.063-0.872,0.187c-1.106,0.492-1.606,1.793-1.114,2.9l3.031,6.818
	L21.24,16.704z M36.122,19.183l-16.166,0.567l-6.34,14.35h0.134l-1.399,2.879c-0.505,1.033-0.761,2.086-0.761,3.131
	c0,5.814,7.673,10.727,16.756,10.727s16.755-4.912,16.755-10.727c0-1.045-0.256-2.098-0.762-3.131l-1.408-2.879h0.085L36.122,19.183
	z"/>
</svg>
