<?xml version="1.0" encoding="utf-8"?>
<!-- Generator: Adobe Illustrator 15.1.0, SVG Export Plug-In . SVG Version: 6.00 Build 0)  -->
<!DOCTYPE svg PUBLIC "-//W3C//DTD SVG 1.1//EN" "http://www.w3.org/Graphics/SVG/1.1/DTD/svg11.dtd">
<svg version="1.1" id="Layer_1" xmlns="http://www.w3.org/2000/svg" xmlns:xlink="http://www.w3.org/1999/xlink" x="0px" y="0px"
	 width="56.689px" height="56.689px" viewBox="0 0 56.689 56.689" enable-background="new 0 0 56.689 56.689" xml:space="preserve">
<path d="M22.259,34.906h1.925c-0.012-0.076-0.018-0.15-0.018-0.225c0-0.072,0-0.15,0-0.232v-0.396h-1.731l0.492-2.215h1.775
	c0.252-0.574,0.58-1.102,0.984-1.582s0.866-0.893,1.384-1.238c0.52-0.346,1.083-0.615,1.692-0.809s1.248-0.291,1.916-0.291
	c0.779,0,1.534,0.134,2.263,0.4c0.73,0.267,1.388,0.654,1.974,1.164l-1.336,2.197c-0.369-0.398-0.808-0.704-1.313-0.918
	c-0.508-0.214-1.036-0.32-1.587-0.32c-0.615,0-1.187,0.127-1.714,0.382s-0.976,0.593-1.345,1.015h2.663L29.8,34.052h-3.111
	c-0.012,0.064-0.018,0.131-0.018,0.197c0,0.068,0,0.135,0,0.199c0,0.082,0,0.16,0,0.232c0,0.074,0.006,0.148,0.018,0.225h2.936
	l-0.492,2.205h-1.441c0.369,0.422,0.81,0.75,1.323,0.984c0.512,0.234,1.067,0.352,1.665,0.352c0.551,0,1.079-0.105,1.587-0.32
	c0.506-0.213,0.944-0.52,1.313-0.918l1.336,2.197c-0.586,0.504-1.243,0.891-1.974,1.16c-0.729,0.27-1.483,0.404-2.263,0.404
	c-0.662,0-1.295-0.096-1.898-0.287c-0.604-0.189-1.162-0.455-1.675-0.795s-0.971-0.744-1.375-1.217
	c-0.404-0.471-0.732-0.992-0.984-1.561h-2.971L22.259,34.906z M47.674,14.981l-4.426,2.295l3.801,1.287
	c0.784,0.266,1.205,1.117,0.939,1.902c-0.212,0.625-0.795,1.02-1.421,1.02c-0.159,0-0.321-0.026-0.481-0.08l-6.879-2.329
	l-0.917,0.032l7.854,16.994h-0.008c0.617,1.262,0.965,2.607,0.965,4.01c0,7.028-8.398,12.727-18.755,12.727
	c-10.358,0-18.756-5.698-18.756-12.727c0-1.402,0.348-2.748,0.965-4.01h-0.009l7.21-16.318c-0.659-0.139-1.164-0.71-1.188-1.414
	c-0.029-0.828,0.619-1.523,1.446-1.552l1.069-0.038l0.001-0.003l-3.031-6.818c-0.941-2.118,0.012-4.599,2.129-5.54
	c0.549-0.244,1.122-0.359,1.685-0.359c1.215,0,2.388,0.538,3.192,1.475c1.068-0.992,2.732-1.646,4.617-1.679
	c0.049-0.001,0.099-0.001,0.147-0.001c2.491,0,4.613,1.1,5.454,2.662c0.73-1.462,2.208-2.327,3.754-2.327
	c0.572,0,1.153,0.118,1.709,0.368c2.113,0.949,3.057,3.432,2.109,5.547l-2.696,6.008l0.886-0.031l7.255-3.761
	c0.735-0.384,1.64-0.095,2.022,0.641C48.697,13.694,48.409,14.599,47.674,14.981z M21.24,16.704l14.677-0.515
	c0.011-0.019,0.023-0.036,0.033-0.055l3.074-6.85c0.494-1.104-0.001-2.408-1.104-2.904c-0.284-0.127-0.584-0.192-0.89-0.192
	c-0.836,0-1.589,0.468-1.965,1.221l-1.723,3.45l-1.827-3.396c-0.418-0.775-1.751-1.609-3.693-1.609L27.71,5.854
	c-1.313,0.022-2.543,0.451-3.291,1.145l-1.524,1.415l-1.354-1.578c-0.424-0.494-1.035-0.777-1.675-0.777
	c-0.299,0-0.593,0.063-0.872,0.187c-1.106,0.492-1.606,1.793-1.114,2.9l3.031,6.818L21.24,16.704z M36.122,19.183l-16.166,0.567
	l-6.34,14.35h0.134l-1.399,2.879c-0.505,1.033-0.761,2.086-0.761,3.131c0,5.814,7.673,10.727,16.756,10.727
	s16.755-4.912,16.755-10.727c0-1.045-0.256-2.098-0.762-3.131l-1.408-2.879h0.085L36.122,19.183z"/>
</svg>
