<?xml version="1.0" encoding="utf-8"?>
<!-- Generator: Adobe Illustrator 15.1.0, SVG Export Plug-In . SVG Version: 6.00 Build 0)  -->
<!DOCTYPE svg PUBLIC "-//W3C//DTD SVG 1.1//EN" "http://www.w3.org/Graphics/SVG/1.1/DTD/svg11.dtd">
<svg version="1.1" id="Layer_1" xmlns="http://www.w3.org/2000/svg" xmlns:xlink="http://www.w3.org/1999/xlink" x="0px" y="0px"
	 width="56.689px" height="56.689px" viewBox="0 0 56.689 56.689" enable-background="new 0 0 56.689 56.689" xml:space="preserve">
<path d="M48.316,12.959c-0.383-0.736-1.287-1.025-2.022-0.641l-7.255,3.761l-0.886,0.031l2.696-6.008
	c0.947-2.115,0.004-4.598-2.109-5.547c-0.556-0.25-1.137-0.368-1.709-0.368c-1.546,0-3.023,0.865-3.754,2.327
	c-0.841-1.562-2.963-2.662-5.454-2.662c-0.049,0-0.098,0-0.147,0.001c-1.885,0.032-3.549,0.687-4.617,1.679
	c-0.804-0.937-1.977-1.475-3.192-1.475c-0.563,0-1.135,0.115-1.685,0.359c-2.117,0.941-3.07,3.422-2.129,5.54l3.031,6.818
	l-0.001,0.003l-1.069,0.038c-0.828,0.029-1.476,0.724-1.446,1.552c0.024,0.703,0.53,1.274,1.188,1.414l-7.21,16.318h0.009
	c-0.617,1.262-0.965,2.607-0.965,4.01c0,7.028,8.397,12.727,18.756,12.727c10.357,0,18.755-5.698,18.755-12.727
	c0-1.402-0.348-2.748-0.965-4.01h0.008L38.29,19.107l0.917-0.032l6.879,2.329c0.16,0.054,0.322,0.08,0.481,0.08
	c0.626,0,1.209-0.394,1.421-1.02c0.266-0.785-0.155-1.636-0.939-1.902l-3.801-1.287l4.426-2.295
	C48.409,14.599,48.697,13.694,48.316,12.959z M20.911,15.964L17.88,9.145c-0.492-1.107,0.007-2.408,1.114-2.9
	c0.279-0.124,0.572-0.187,0.872-0.187c0.641,0,1.251,0.283,1.675,0.777l1.354,1.578l1.524-1.415
	c0.748-0.694,1.978-1.123,3.291-1.145l0.113-0.001c1.942,0,3.275,0.834,3.693,1.609l1.827,3.396l1.723-3.45
	c0.376-0.753,1.129-1.221,1.965-1.221c0.306,0,0.605,0.065,0.89,0.192c1.104,0.496,1.599,1.799,1.104,2.904l-3.074,6.85
	c-0.01,0.019-0.022,0.037-0.033,0.055L21.24,16.704L20.911,15.964z M43.016,34.101h-0.085l1.408,2.879
	c0.506,1.033,0.762,2.086,0.762,3.131c0,5.814-7.673,10.727-16.755,10.727S11.59,45.925,11.59,40.111
	c0-1.045,0.256-2.098,0.761-3.131l1.399-2.879h-0.134l6.34-14.35l16.166-0.567L43.016,34.101z M30.197,36.636
	c0.125-0.129,0.188-0.283,0.188-0.463s-0.063-0.295-0.188-0.346s-0.27-0.076-0.434-0.076h-2.672c-0.445,0-0.861-0.084-1.248-0.252
	s-0.723-0.398-1.008-0.691s-0.512-0.635-0.68-1.025s-0.252-0.809-0.252-1.254c0-0.438,0.084-0.85,0.252-1.236
	s0.395-0.725,0.68-1.014s0.621-0.518,1.008-0.686s0.803-0.252,1.248-0.252h0.293v-3.176h2.156v3.176h2.742v2.566h-5.191
	c-0.18,0-0.332,0.061-0.457,0.182s-0.188,0.268-0.188,0.439c0,0.18,0.063,0.332,0.188,0.457s0.277,0.188,0.457,0.188h2.672
	c0.438,0,0.85,0.074,1.236,0.223s0.725,0.355,1.014,0.621s0.518,0.582,0.686,0.949s0.252,0.77,0.252,1.207
	c0,0.445-0.084,0.863-0.252,1.254s-0.396,0.729-0.686,1.014s-0.627,0.512-1.014,0.68s-0.799,0.252-1.236,0.252H29.54v3.598h-2.156
	v-3.598h-3.48v-2.543h5.859C29.927,36.829,30.072,36.765,30.197,36.636z"/>
</svg>
