<?xml version="1.0" encoding="utf-8"?>
<!-- Generator: Adobe Illustrator 15.1.0, SVG Export Plug-In . SVG Version: 6.00 Build 0)  -->
<!DOCTYPE svg PUBLIC "-//W3C//DTD SVG 1.1//EN" "http://www.w3.org/Graphics/SVG/1.1/DTD/svg11.dtd">
<svg version="1.1" id="Layer_1" xmlns="http://www.w3.org/2000/svg" xmlns:xlink="http://www.w3.org/1999/xlink" x="0px" y="0px"
	 width="56.689px" height="56.689px" viewBox="0 0 56.689 56.689" enable-background="new 0 0 56.689 56.689" xml:space="preserve">
<path d="M48.316,12.959c-0.383-0.735-1.287-1.024-2.022-0.641l-7.255,3.761l-0.886,0.031l2.696-6.008
	c0.946-2.115,0.004-4.599-2.109-5.547c-0.556-0.25-1.137-0.368-1.709-0.368c-1.546,0-3.023,0.865-3.754,2.327
	c-0.841-1.563-2.963-2.662-5.454-2.662c-0.049,0-0.098,0-0.147,0.001c-1.885,0.032-3.549,0.687-4.616,1.679
	c-0.805-0.937-1.978-1.475-3.192-1.475c-0.563,0-1.135,0.114-1.685,0.358c-2.117,0.941-3.07,3.422-2.129,5.54l3.03,6.818
	l-0.001,0.003l-1.068,0.038c-0.828,0.029-1.477,0.724-1.446,1.552c0.023,0.703,0.53,1.274,1.188,1.414l-7.21,16.318h0.01
	c-0.617,1.262-0.966,2.606-0.966,4.01c0,7.028,8.397,12.727,18.757,12.727c10.356,0,18.755-5.697,18.755-12.727
	c0-1.402-0.349-2.748-0.965-4.01h0.008L38.29,19.107l0.917-0.032l6.879,2.329c0.16,0.054,0.322,0.08,0.481,0.08
	c0.626,0,1.209-0.395,1.421-1.021c0.266-0.784-0.155-1.636-0.939-1.901l-3.801-1.287l4.426-2.295
	C48.409,14.599,48.697,13.694,48.316,12.959z M17.88,9.145c-0.491-1.107,0.008-2.408,1.114-2.9c0.279-0.124,0.572-0.187,0.872-0.187
	c0.641,0,1.251,0.282,1.675,0.776l1.354,1.578l1.523-1.415c0.748-0.693,1.979-1.123,3.291-1.145l0.113-0.001
	c1.942,0,3.275,0.834,3.693,1.608l1.826,3.396l1.724-3.45c0.376-0.753,1.129-1.221,1.965-1.221c0.306,0,0.605,0.064,0.89,0.191
	c1.104,0.496,1.6,1.8,1.104,2.904l-3.074,6.85c-0.01,0.02-0.021,0.037-0.033,0.056L21.24,16.704l-0.329-0.74L17.88,9.145z
	 M43.016,34.101h-0.085l1.407,2.879c0.507,1.033,0.763,2.086,0.763,3.131c0,5.813-7.673,10.727-16.755,10.727
	S11.59,45.925,11.59,40.111c0-1.045,0.257-2.098,0.762-3.131l1.398-2.879h-0.134l6.34-14.351l16.166-0.566L43.016,34.101z
	 M31.25,36.872h2.525c0,0.522-0.101,1.012-0.295,1.469c-0.198,0.457-0.467,0.855-0.81,1.199c-0.344,0.342-0.743,0.614-1.205,0.813
	c-0.459,0.199-0.949,0.299-1.471,0.299h-5.6v-4.807h-1.46v-2.392h1.459v-1.627c0-0.521,0.099-1.01,0.299-1.467
	s0.471-0.857,0.813-1.2c0.345-0.342,0.744-0.614,1.201-0.813c0.457-0.199,0.946-0.3,1.467-0.3h1.064v2.523h-1.064
	c-0.176,0-0.34,0.031-0.491,0.096c-0.152,0.065-0.285,0.155-0.4,0.27c-0.114,0.113-0.203,0.247-0.268,0.398
	c-0.065,0.152-0.097,0.316-0.097,0.492v1.627h1.767v2.392h-1.767v2.284h3.076c0.176,0,0.34-0.032,0.492-0.098
	s0.285-0.155,0.397-0.268c0.116-0.115,0.205-0.248,0.271-0.4S31.25,37.048,31.25,36.872z"/>
</svg>
