<?xml version="1.0" encoding="utf-8"?>
<!-- Generator: Adobe Illustrator 15.1.0, SVG Export Plug-In . SVG Version: 6.00 Build 0)  -->
<!DOCTYPE svg PUBLIC "-//W3C//DTD SVG 1.1//EN" "http://www.w3.org/Graphics/SVG/1.1/DTD/svg11.dtd">
<svg version="1.1" id="Layer_1" xmlns="http://www.w3.org/2000/svg" xmlns:xlink="http://www.w3.org/1999/xlink" x="0px" y="0px"
	 width="56.689px" height="56.689px" viewBox="0 0 56.689 56.689" enable-background="new 0 0 56.689 56.689" xml:space="preserve">
<path d="M22.017,37.434l2.42,10.488H5.644l2.42-10.488H22.017 M22.191,35.434h-14.3c-0.78,0-1.561,0.621-1.736,1.381L3.448,48.541
	c-0.175,0.76,0.319,1.381,1.099,1.381h20.987c0.78,0,1.274-0.621,1.099-1.381l-2.706-11.727
	C23.752,36.055,22.97,35.434,22.191,35.434L22.191,35.434z M48.626,37.434l2.42,10.488H32.251l2.422-10.488H48.626 M48.801,35.434
	H34.498c-0.779,0-1.561,0.621-1.735,1.381l-2.707,11.727c-0.175,0.76,0.319,1.381,1.099,1.381h20.988
	c0.779,0,1.273-0.621,1.099-1.381l-2.705-11.727C50.362,36.055,49.58,35.434,48.801,35.434L48.801,35.434z M35.378,19.931
	L37.8,30.419H19.006l2.42-10.488H35.378 M35.553,17.931h-14.3c-0.78,0-1.561,0.622-1.736,1.381l-2.706,11.727
	c-0.175,0.76,0.319,1.381,1.099,1.381h20.987c0.779,0,1.273-0.621,1.099-1.381l-2.707-11.727
	C37.114,18.552,36.332,17.931,35.553,17.931L35.553,17.931z M18.476,13.502l4.236-1.204l-4.207-1.296l-1.203-4.234l-1.297,4.206
	l-4.236,1.204l4.209,1.298l1.203,4.234L18.476,13.502z M44.49,20.171l2.945-0.963l-2.994-0.796l-0.965-2.942l-0.793,2.993
	l-2.945,0.965l2.994,0.795l0.963,2.943L44.49,20.171z"/>
</svg>
