<?xml version="1.0" encoding="utf-8"?>
<!-- Generator: Adobe Illustrator 15.1.0, SVG Export Plug-In . SVG Version: 6.00 Build 0)  -->
<!DOCTYPE svg PUBLIC "-//W3C//DTD SVG 1.1//EN" "http://www.w3.org/Graphics/SVG/1.1/DTD/svg11.dtd">
<svg version="1.1" id="Layer_1" xmlns="http://www.w3.org/2000/svg" xmlns:xlink="http://www.w3.org/1999/xlink" x="0px" y="0px"
	 width="56.689px" height="56.689px" viewBox="0 0 56.689 56.689" enable-background="new 0 0 56.689 56.689" xml:space="preserve">
<path d="M50.099,11.087h-3.92V7.166v-2h-2h-2.961h-2v2v3.921h-3.92h-2v2v0.711c-0.212-0.845-0.506-1.644-0.889-2.373l0.438-0.46
	l2.867-3.011l3.218-3.379h-4.666H21.435c-7.556,0-13.939,5.534-13.939,12.085c0,6.406,4.157,11.016,10.274,11.63
	c-0.015,0.174-0.022,0.348-0.022,0.52c0,0.518,0.066,0.988,0.18,1.417C9.894,30.822,4.591,36.713,4.591,42.235
	c0,5.817,6.476,9.881,15.747,9.881c9.845,0,15.728-5.935,15.728-11.672c0-4.762-1.352-7.228-5.784-10.553l-0.273-0.204
	c-0.58-0.431-2.287-1.698-2.701-2.356c0.023-0.483,0.215-0.812,1.804-2.053c2.604-2.037,4.135-4.517,4.484-7.229h1.703h3.92v3.921v2
	h2h2.961h2v-2v-3.921h3.92h2v-2v-2.961v-2H50.099z M27.88,23.701c-2.165,1.691-2.576,2.4-2.576,3.84
	c0,1.228,2.588,3.059,3.778,3.949c4.145,3.109,4.984,5.064,4.984,8.953c0,4.85-5.228,9.672-13.728,9.672
	c-7.456,0-13.747-3.031-13.747-7.881c0-4.926,5.22-10.057,12.675-10.057c0.813,0,1.557-0.02,2.328-0.02
	c-1.021-0.994-1.846-1.85-1.846-3.349c0-0.89,0.284-1.739,0.682-2.501c-0.406,0.029-0.818,0.051-1.245,0.051
	c-6.123,0-9.688-4.303-9.688-9.7c0-5.282,5.426-10.085,11.939-10.085c3.355,0,12.832,0,12.832,0L31.4,9.585h-3.369
	c2.376,1.362,3.642,4.166,3.642,7.257C31.673,19.678,30.099,21.965,27.88,23.701z M50.099,16.048h-5.92v5.921h-2.961v-5.921h-5.92
	v-2.961h5.92V7.166h2.961v5.921h5.92V16.048z M19.502,8.662c-0.05-0.001-0.099-0.002-0.148-0.002c-3.375,0-5.622,3.442-5.032,7.92
	c0.598,4.541,3.884,7.714,7.343,7.817c0.06,0.002,0.118,0.002,0.177,0.002c3.349,0,5.262-2.9,4.675-7.365
	C25.92,12.493,22.959,8.766,19.502,8.662z M23.737,21.625c-0.458,0.522-1.078,0.775-1.896,0.775l-0.117-0.001
	c-2.644-0.079-4.974-2.693-5.419-6.079c-0.253-1.922,0.141-3.69,1.054-4.732c0.54-0.615,1.211-0.927,1.996-0.928l0.089,0.001
	c2.335,0.07,4.619,3.046,5.09,6.634C24.781,19.187,24.491,20.764,23.737,21.625z M20.955,33.696
	c-0.045-0.001-0.09-0.001-0.135-0.001c-5.093,0-9.386,3.29-9.386,7.097c0,3.92,3.722,7.182,8.875,7.182
	c7.245,0,9.772-3.063,9.772-6.982c0-0.473-0.061-0.936-0.164-1.383c-0.566-2.219-2.824-3.434-5.623-5.379
	C23.277,33.901,22.157,33.707,20.955,33.696z M27.979,40.103c0.064,0.278,0.102,0.592,0.102,0.888c0,1.232,0,4.982-7.772,4.982
	c-3.855,0-6.875-2.276-6.875-5.182c0-2.667,3.521-5.097,7.386-5.097l0.112,0.001c0.857,0.008,1.69,0.128,2.481,0.354
	c0.322,0.223,0.637,0.435,0.942,0.642C26.48,38.128,27.697,38.995,27.979,40.103z"/>
</svg>
