<?xml version="1.0" encoding="utf-8"?>
<!-- Generator: Adobe Illustrator 15.1.0, SVG Export Plug-In . SVG Version: 6.00 Build 0)  -->
<!DOCTYPE svg PUBLIC "-//W3C//DTD SVG 1.1//EN" "http://www.w3.org/Graphics/SVG/1.1/DTD/svg11.dtd">
<svg version="1.1" id="Layer_1" xmlns="http://www.w3.org/2000/svg" xmlns:xlink="http://www.w3.org/1999/xlink" x="0px" y="0px"
	 width="56.689px" height="56.689px" viewBox="0 0 56.689 56.689" enable-background="new 0 0 56.689 56.689" xml:space="preserve">
<path d="M50.976,32.647c0.12-0.948,0.183-1.905,0.183-2.865c0-4.88-1.559-9.393-4.179-13.106c0.498-0.682,0.778-1.494,0.776-2.355
	c-0.002-1.068-0.42-2.072-1.177-2.827c-4.874-4.853-11.344-7.526-18.218-7.526c-6.896,0-13.38,2.687-18.256,7.564
	c-1.404,1.405-1.531,3.597-0.405,5.159c-2.614,3.71-4.168,8.217-4.168,13.09c0,0.959,0.063,1.915,0.183,2.863
	C3.873,35.005,3,38.091,3.53,41.233c0.887,5.264,5.373,9.091,10.695,9.159c0.891,1.412,2.449,2.33,4.211,2.33
	c0.277,0,0.559-0.023,0.834-0.069c2.719-0.458,4.559-3.043,4.102-5.762l-2.948-17.504c-0.406-2.416-2.478-4.169-4.926-4.169
	c-0.278,0-0.559,0.023-0.835,0.07c-1.317,0.222-2.469,0.943-3.243,2.031c-0.385,0.541-0.652,1.14-0.798,1.768
	c-1.126,0.408-2.154,0.981-3.058,1.696c-0.016-0.334-0.031-0.667-0.031-1.001c0-4.389,1.393-8.443,3.724-11.802
	c0.521,0.242,1.087,0.381,1.679,0.381c1.068,0,2.073-0.416,2.829-1.172c3.364-3.367,7.838-5.221,12.598-5.221
	c4.744,0,9.209,1.845,12.571,5.195c0.755,0.751,1.757,1.166,2.822,1.166c0.586,0,1.147-0.135,1.664-0.373
	c2.341,3.363,3.739,7.427,3.739,11.826c0,0.335-0.015,0.669-0.031,1.002c-0.902-0.714-1.931-1.288-3.057-1.696
	c-0.146-0.628-0.414-1.228-0.799-1.769c-0.774-1.088-1.926-1.809-3.243-2.031c-0.276-0.046-0.558-0.07-0.836-0.07
	c-2.447,0-4.519,1.753-4.925,4.169L33.32,46.891c-0.457,2.719,1.383,5.304,4.101,5.762c0.275,0.046,0.557,0.069,0.834,0.069
	c1.764,0,3.321-0.918,4.212-2.33c5.321-0.067,9.808-3.896,10.694-9.159C53.69,38.092,52.817,35.007,50.976,32.647z M14.994,27.26
	c0.169-0.029,0.338-0.043,0.503-0.043c1.468,0,2.71,1.053,2.953,2.502l2.948,17.504c0.274,1.632-0.83,3.183-2.461,3.457
	c-1.344,0.227-2.588-0.478-3.161-1.608l-0.047-0.103c-0.056-0.121-0.097-0.23-0.135-0.338c-0.043-0.135-0.088-0.269-0.112-0.411
	l-2.948-17.505c0-0.001,0-0.002,0-0.003c-0.024-0.144-0.025-0.285-0.029-0.428c0.001-0.111,0.004-0.227,0.017-0.357l0.01-0.101
	C12.702,28.557,13.667,27.484,14.994,27.26z M10.595,31.245l1.441,8.555l1.441,8.555c-4.009-0.392-7.293-3.405-7.975-7.454
	c-0.318-1.89-0.012-3.754,0.769-5.378c0.452,1.743,1.104,3.432,1.953,5.018c0.262,0.485,0.866,0.668,1.354,0.409
	c0.486-0.262,0.67-0.867,0.409-1.354c-1.061-1.978-1.783-4.13-2.157-6.349C8.605,32.423,9.534,31.736,10.595,31.245z M42.345,15.746
	c-3.74-3.726-8.707-5.778-13.983-5.778c-5.294,0-10.271,2.062-14.012,5.807c-0.756,0.756-2.073,0.756-2.829,0
	c-0.779-0.78-0.78-2.048-0.001-2.828c4.498-4.5,10.479-6.979,16.842-6.979c6.342,0,12.311,2.466,16.806,6.943
	c0.379,0.377,0.588,0.879,0.589,1.414s-0.206,1.037-0.584,1.416C44.42,16.497,43.102,16.501,42.345,15.746z M37.752,50.68
	c-1.631-0.274-2.734-1.825-2.46-3.457l2.948-17.504c0.243-1.449,1.485-2.502,2.952-2.502c0.166,0,0.335,0.014,0.504,0.043
	c1.327,0.224,2.291,1.295,2.461,2.563l0.011,0.104c0.013,0.13,0.017,0.245,0.017,0.357c-0.003,0.143-0.004,0.285-0.028,0.431
	l-2.948,17.503c-0.001,0.004-0.003,0.009-0.003,0.013c-0.024,0.138-0.067,0.267-0.108,0.396c-0.038,0.108-0.08,0.219-0.136,0.341
	l-0.056,0.12C40.33,50.21,39.094,50.906,37.752,50.68z M51.188,40.901c-0.682,4.048-3.966,7.063-7.974,7.453l1.441-8.554l1.44-8.554
	c1.061,0.49,1.99,1.178,2.764,2c-0.375,2.227-1.102,4.387-2.168,6.373c-0.262,0.486-0.079,1.093,0.408,1.354
	c0.15,0.081,0.313,0.119,0.472,0.119c0.356,0,0.701-0.19,0.882-0.527c0.856-1.594,1.513-3.291,1.967-5.042
	C51.2,37.147,51.506,39.011,51.188,40.901z"/>
</svg>
