<?xml version="1.0" encoding="utf-8"?>
<!-- Generator: Adobe Illustrator 15.1.0, SVG Export Plug-In . SVG Version: 6.00 Build 0)  -->
<!DOCTYPE svg PUBLIC "-//W3C//DTD SVG 1.1//EN" "http://www.w3.org/Graphics/SVG/1.1/DTD/svg11.dtd">
<svg version="1.1" id="Layer_1" xmlns="http://www.w3.org/2000/svg" xmlns:xlink="http://www.w3.org/1999/xlink" x="0px" y="0px"
	 width="56.689px" height="56.689px" viewBox="0 0 56.689 56.689" enable-background="new 0 0 56.689 56.689" xml:space="preserve">
<path d="M28.345,51.293L6.422,29.37c-5.38-5.38-5.38-14.134,0-19.515c2.606-2.606,6.071-4.042,9.757-4.042s7.152,1.436,9.758,4.042
	l2.408,2.408l2.408-2.408c2.606-2.606,6.072-4.042,9.758-4.042s7.15,1.436,9.757,4.042s4.042,6.072,4.042,9.758
	c0,3.686-1.436,7.151-4.042,9.757L28.345,51.293z M16.179,7.813c-3.152,0-6.115,1.228-8.343,3.456c-4.6,4.601-4.6,12.086,0,16.687
	l20.51,20.509l20.508-20.509c2.229-2.229,3.456-5.191,3.456-8.343c0-3.152-1.228-6.115-3.456-8.344
	c-2.229-2.229-5.191-3.456-8.343-3.456s-6.115,1.228-8.344,3.456l-3.822,3.822l-3.822-3.822C22.294,9.041,19.331,7.813,16.179,7.813
	z"/>
</svg>
