<?xml version="1.0" encoding="utf-8"?>
<!-- Generator: Adobe Illustrator 15.1.0, SVG Export Plug-In . SVG Version: 6.00 Build 0)  -->
<!DOCTYPE svg PUBLIC "-//W3C//DTD SVG 1.1//EN" "http://www.w3.org/Graphics/SVG/1.1/DTD/svg11.dtd">
<svg version="1.1" id="Layer_1" xmlns="http://www.w3.org/2000/svg" xmlns:xlink="http://www.w3.org/1999/xlink" x="0px" y="0px"
	 width="56.689px" height="56.689px" viewBox="0 0 56.689 56.689" enable-background="new 0 0 56.689 56.689" xml:space="preserve">
<path d="M50.271,6.585H6.419c-2.126,0-3.855,1.73-3.855,3.856v24.464v2v2.512c0,2.127,1.729,3.855,3.855,3.855h17.332
	c-0.019,1.291-0.157,3.04-0.705,4.27h-2.982c-0.708,0-1.281,0.574-1.281,1.281c0,0.709,0.573,1.281,1.281,1.281h16.563
	c0.708,0,1.281-0.572,1.281-1.281c0-0.707-0.573-1.281-1.281-1.281h-2.983c-0.547-1.229-0.687-2.979-0.705-4.27h17.333
	c2.126,0,3.855-1.729,3.855-3.855v-2.512v-2V10.441C54.126,8.315,52.397,6.585,50.271,6.585z M52.126,39.417
	c0,1.023-0.832,1.855-1.855,1.855H6.419c-1.023,0-1.855-0.832-1.855-1.855v-2.512h47.563V39.417z M4.564,34.906V10.441
	c0-1.023,0.832-1.856,1.855-1.856h43.852c1.023,0,1.855,0.833,1.855,1.856v24.464H4.564z"/>
</svg>
