<?xml version="1.0" encoding="utf-8"?>
<!-- Generator: Adobe Illustrator 15.1.0, SVG Export Plug-In . SVG Version: 6.00 Build 0)  -->
<!DOCTYPE svg PUBLIC "-//W3C//DTD SVG 1.1//EN" "http://www.w3.org/Graphics/SVG/1.1/DTD/svg11.dtd">
<svg version="1.1" id="Layer_1" xmlns="http://www.w3.org/2000/svg" xmlns:xlink="http://www.w3.org/1999/xlink" x="0px" y="0px"
	 width="56.689px" height="56.689px" viewBox="0 0 56.689 56.689" enable-background="new 0 0 56.689 56.689" xml:space="preserve">
<path d="M42.407,54.282H14.282c-3.309,0-6-2.691-6-6V8.407c0-3.309,2.691-6,6-6h28.125c3.309,0,6,2.691,6,6v39.875
	C48.407,51.591,45.716,54.282,42.407,54.282z M14.282,4.407c-2.205,0-4,1.795-4,4v39.875c0,2.207,1.795,4,4,4h28.125
	c2.207,0,4-1.793,4-4V8.407c0-2.205-1.793-4-4-4H14.282z M43.282,28.782H13.407V8.407h29.875V28.782z M15.407,26.782h25.875V10.407
	H15.407V26.782z M28.344,32.89c-4.418,0-8,3.582-8,8s3.582,8,8,8c4.418,0,8-3.582,8-8S32.763,32.89,28.344,32.89z M28.344,44.515
	c-2.002,0-3.625-1.623-3.625-3.625s1.623-3.625,3.625-3.625c2.002,0,3.625,1.623,3.625,3.625S30.347,44.515,28.344,44.515z"/>
</svg>
