<?xml version="1.0" encoding="utf-8"?>
<!-- Generator: Adobe Illustrator 15.1.0, SVG Export Plug-In . SVG Version: 6.00 Build 0)  -->
<!DOCTYPE svg PUBLIC "-//W3C//DTD SVG 1.1//EN" "http://www.w3.org/Graphics/SVG/1.1/DTD/svg11.dtd">
<svg version="1.1" id="Layer_1" xmlns="http://www.w3.org/2000/svg" xmlns:xlink="http://www.w3.org/1999/xlink" x="0px" y="0px"
	 width="56.689px" height="56.689px" viewBox="0 0 56.689 56.689" enable-background="new 0 0 56.689 56.689" xml:space="preserve">
<path d="M49.73,44.038L49.73,44.038c-0.944,0-1.844-0.288-2.6-0.822l-0.065,0.062l-0.696-0.731L30.627,25.345
	c-0.586,0.522-1.18,1.017-1.775,1.48c0.278,0.512,0.427,1.089,0.427,1.688c0,0.946-0.368,1.834-1.038,2.502
	c-1.334,1.336-3.666,1.337-5.003-0.001l-9.664-9.665c-1.378-1.38-1.378-3.624,0-5.003c1.092-1.093,2.87-1.328,4.189-0.611
	c0.9-1.164,1.877-2.274,2.915-3.312c1.73-1.73,3.615-3.263,5.507-4.485c-0.997-1.382-0.874-3.327,0.368-4.57
	c1.338-1.337,3.668-1.337,5.004-0.002l9.665,9.665c1.38,1.38,1.38,3.626,0,5.006c-1.201,1.202-3.223,1.345-4.571,0.368
	c-0.396,0.611-0.826,1.225-1.291,1.839l18.164,16.623l-0.083,0.084c0.525,0.755,0.805,1.643,0.805,2.572
	c0,1.206-0.47,2.34-1.322,3.192S50.936,44.038,49.73,44.038z M47.167,40.446l0.805,0.876c0.908,0.91,2.587,0.93,3.536-0.02
	c0.476-0.475,0.736-1.106,0.736-1.778s-0.261-1.303-0.736-1.778l-0.122-0.096l-0.768-0.706l0.012-0.012L32.638,20.465l0.584-0.73
	c0.911-1.139,1.702-2.281,2.351-3.396l0.653-1.122l1.404,1.404c0.581,0.582,1.596,0.583,2.177,0.001c0.601-0.6,0.601-1.577,0-2.177
	l-9.665-9.664c-0.582-0.58-1.594-0.581-2.176,0.001c-0.598,0.599-0.598,1.575,0.001,2.175l1.407,1.405l-1.123,0.654
	c-2.097,1.221-4.227,2.888-6.16,4.822c-1.205,1.204-2.323,2.513-3.324,3.891l-0.688,0.947l-0.916-0.916
	c-0.581-0.581-1.595-0.581-2.176,0c-0.599,0.6-0.599,1.576,0,2.176l9.664,9.664c0.582,0.582,1.596,0.582,2.175,0.001
	c0.292-0.291,0.452-0.677,0.452-1.088c0-0.411-0.16-0.798-0.451-1.089l-0.915-0.915l0.948-0.688
	c1.057-0.768,2.115-1.648,3.144-2.617l0.738-0.695l16.419,17.942L47.167,40.446z M31.778,54.358H2.445v-1
	c0-2.836,2.224-5.162,5.02-5.327c0.611-1.367,1.989-2.295,3.534-2.295h12.226c1.546,0,2.924,0.928,3.535,2.295
	c2.795,0.165,5.019,2.491,5.019,5.327V54.358z M4.598,52.358h25.026c-0.426-1.353-1.691-2.336-3.182-2.336h-1.225l-0.164-0.799
	c-0.177-0.861-0.947-1.487-1.83-1.487H10.998c-0.882,0-1.652,0.626-1.829,1.487l-0.164,0.799H7.781
	C6.289,50.022,5.024,51.005,4.598,52.358z"/>
</svg>
