<?xml version="1.0" encoding="utf-8"?>
<!-- Generator: Adobe Illustrator 15.1.0, SVG Export Plug-In . SVG Version: 6.00 Build 0)  -->
<!DOCTYPE svg PUBLIC "-//W3C//DTD SVG 1.1//EN" "http://www.w3.org/Graphics/SVG/1.1/DTD/svg11.dtd">
<svg version="1.1" id="Layer_1" xmlns="http://www.w3.org/2000/svg" xmlns:xlink="http://www.w3.org/1999/xlink" x="0px" y="0px"
	 width="56.689px" height="56.689px" viewBox="0 0 56.689 56.689" enable-background="new 0 0 56.689 56.689" xml:space="preserve">
<path d="M49.386,22.43H28.455c-1.942-3.319-5.533-5.561-9.648-5.561v-0.002l-9.419-0.001c-2.341,0-4.246-1.904-4.246-4.244
	s1.905-4.243,4.246-4.243H35.82V9.51c0,1.104,0.895,1.999,2,1.999h9v-1.374h3.25v-5.5h-3.25V3.26h-9c-1.105,0-2,0.896-2,2v1.119
	H9.388c-3.444,0-6.246,2.801-6.246,6.243c0,3.443,2.802,6.244,6.246,6.244l9.419,0.001v0.002c2.945,0,5.562,1.399,7.242,3.561H7.303
	c-2.757,0-5,2.243-5,5v21c0,2.757,2.243,5,5,5h42.083c2.758,0,5-2.243,5-5v-21C54.386,24.673,52.144,22.43,49.386,22.43z
	 M52.386,48.43c0,1.654-1.346,3-3,3H7.303c-1.654,0-3-1.346-3-3v-21c0-1.654,1.346-3,3-3h42.083c1.654,0,3,1.346,3,3V48.43z
	 M13.628,29.219v2.424c0,0.867-0.705,1.57-1.572,1.57H9.633c-0.868,0-1.571-0.703-1.571-1.57v-2.424c0-0.867,0.703-1.57,1.571-1.57
	h2.423C12.923,27.649,13.628,28.352,13.628,29.219z M16.811,31.643v-2.424c0-0.867,0.703-1.57,1.571-1.57h2.423
	c0.867,0,1.572,0.703,1.572,1.57v2.424c0,0.867-0.705,1.57-1.572,1.57h-2.423C17.514,33.213,16.811,32.51,16.811,31.643z
	 M25.561,31.643v-2.424c0-0.867,0.703-1.57,1.571-1.57h2.423c0.867,0,1.572,0.703,1.572,1.57v2.424c0,0.867-0.705,1.57-1.572,1.57
	h-2.423C26.264,33.213,25.561,32.51,25.561,31.643z M39.878,29.219v2.424c0,0.867-0.705,1.57-1.572,1.57h-2.424
	c-0.867,0-1.57-0.703-1.57-1.57v-2.424c0-0.867,0.703-1.57,1.57-1.57h2.424C39.173,27.649,39.878,28.352,39.878,29.219z
	 M48.628,29.219v2.424c0,0.867-0.705,1.57-1.572,1.57h-2.424c-0.867,0-1.57-0.703-1.57-1.57v-2.424c0-0.867,0.703-1.57,1.57-1.57
	h2.424C47.923,27.649,48.628,28.352,48.628,29.219z M13.628,36.718v2.424c0,0.867-0.705,1.57-1.572,1.57H9.633
	c-0.868,0-1.571-0.703-1.571-1.57v-2.424c0-0.867,0.703-1.57,1.571-1.57h2.423C12.923,35.148,13.628,35.851,13.628,36.718z
	 M16.811,39.142v-2.424c0-0.867,0.703-1.57,1.571-1.57h2.423c0.867,0,1.572,0.703,1.572,1.57v2.424c0,0.867-0.705,1.57-1.572,1.57
	h-2.423C17.514,40.712,16.811,40.009,16.811,39.142z M25.561,39.142v-2.424c0-0.867,0.703-1.57,1.571-1.57h2.423
	c0.867,0,1.572,0.703,1.572,1.57v2.424c0,0.867-0.705,1.57-1.572,1.57h-2.423C26.264,40.712,25.561,40.009,25.561,39.142z
	 M39.878,36.718v2.424c0,0.867-0.705,1.57-1.572,1.57h-2.424c-0.867,0-1.57-0.703-1.57-1.57v-2.424c0-0.867,0.703-1.57,1.57-1.57
	h2.424C39.173,35.148,39.878,35.851,39.878,36.718z M48.628,36.718v2.424c0,0.867-0.705,1.57-1.572,1.57h-2.424
	c-0.867,0-1.57-0.703-1.57-1.57v-2.424c0-0.867,0.703-1.57,1.57-1.57h2.424C47.923,35.148,48.628,35.851,48.628,36.718z
	 M13.628,44.218v2.424c0,0.867-0.705,1.57-1.572,1.57H9.633c-0.868,0-1.571-0.703-1.571-1.57v-2.424c0-0.867,0.703-1.57,1.571-1.57
	h2.423C12.923,42.648,13.628,43.351,13.628,44.218z M48.628,44.218v2.424c0,0.867-0.705,1.57-1.572,1.57h-2.424
	c-0.867,0-1.57-0.703-1.57-1.57v-2.424c0-0.867,0.703-1.57,1.57-1.57h2.424C47.923,42.648,48.628,43.351,48.628,44.218z
	 M39.878,44.218v2.424c0,0.867-0.705,1.57-1.572,1.57H37.37h-1.488H20.805h-1.269h-1.154c-0.868,0-1.571-0.703-1.571-1.57v-2.424
	c0-0.867,0.703-1.57,1.571-1.57h1.154h1.269h15.077h1.488h0.936C39.173,42.648,39.878,43.351,39.878,44.218z"/>
</svg>
