<?xml version="1.0" encoding="utf-8"?>
<!-- Generator: Adobe Illustrator 15.1.0, SVG Export Plug-In . SVG Version: 6.00 Build 0)  -->
<!DOCTYPE svg PUBLIC "-//W3C//DTD SVG 1.1//EN" "http://www.w3.org/Graphics/SVG/1.1/DTD/svg11.dtd">
<svg version="1.1" id="Layer_1" xmlns="http://www.w3.org/2000/svg" xmlns:xlink="http://www.w3.org/1999/xlink" x="0px" y="0px"
	 width="56.689px" height="56.689px" viewBox="0 0 56.689 56.689" enable-background="new 0 0 56.689 56.689" xml:space="preserve">
<path d="M46.407,27.465c-0.353,0-0.687,0.072-0.996,0.194L32.987,15.235l1.111-1.111c1.422-1.422,1.422-3.729,0-5.151l-3.964-3.963
	c-0.711-0.711-1.644-1.067-2.575-1.067c-0.933,0-1.865,0.356-2.576,1.067l-5.359,5.359c-1.818-0.706-3.742-1.061-5.666-1.061
	c-2.19,0-4.381,0.459-6.416,1.377l5.561,5.56l-0.157,0.204c-2.188,2.833-1.937,6.871,0.585,9.393
	c1.341,1.341,3.122,2.078,5.017,2.078c1.575,0,3.129-0.53,4.376-1.494l0.203-0.157l5.033,5.033
	c1.668-3.697,1.817-7.907,0.459-11.697l2.97-2.969l12.368,12.368c-0.18,0.365-0.29,0.771-0.29,1.205
	c0,0.353,0.072,0.688,0.193,0.997L30.192,44.871c-0.053,0.053-0.08,0.118-0.118,0.178c-1.646-0.529-3.393-0.83-5.218-0.83
	c-4.082,0-7.813,1.439-10.769,3.808h-3.396c-1.304,0-2.361,1.057-2.361,2.361c0,1.304,1.058,2.36,2.361,2.36h27.567
	c1.304,0,2.36-1.057,2.36-2.36c0-1.305-1.057-2.361-2.36-2.361h-2.634c-1.092-0.875-2.291-1.621-3.573-2.217l13.151-13.151
	c0.365,0.18,0.77,0.29,1.204,0.29c1.514,0,2.741-1.228,2.741-2.741S47.921,27.465,46.407,27.465z M18.546,25.919
	c-1.303,0-2.605-0.495-3.603-1.492c-1.848-1.848-1.972-4.741-0.416-6.756l3.727,3.726l3.445,3.445
	C20.773,25.559,19.659,25.919,18.546,25.919z M27.203,18.19l-0.896,0.896l0.428,1.192c0.837,2.336,1.009,4.882,0.527,7.299
	l-2.541-2.541l-1.607-1.607L11.26,11.574c0.881-0.177,1.782-0.267,2.697-0.267c1.7,0,3.363,0.312,4.941,0.925l1.217,0.473
	l0.922-0.923l5.36-5.359c0.31-0.311,0.722-0.481,1.161-0.481c0.438,0,0.851,0.171,1.161,0.482l3.964,3.962
	c0.31,0.311,0.48,0.723,0.48,1.162c0,0.438-0.171,0.851-0.48,1.161L27.203,18.19z M34.923,50.027h0.702h2.634
	c0.198,0,0.36,0.162,0.36,0.361c0,0.198-0.162,0.36-0.36,0.36H10.692c-0.199,0-0.361-0.162-0.361-0.36
	c0-0.199,0.162-0.361,0.361-0.361h3.396h0.702l0.548-0.439c2.751-2.203,6.043-3.368,9.519-3.368c3.477,0,6.769,1.165,9.52,3.368
	L34.923,50.027z"/>
</svg>
