<?xml version="1.0" encoding="utf-8"?>
<!-- Generator: Adobe Illustrator 15.1.0, SVG Export Plug-In . SVG Version: 6.00 Build 0)  -->
<!DOCTYPE svg PUBLIC "-//W3C//DTD SVG 1.1//EN" "http://www.w3.org/Graphics/SVG/1.1/DTD/svg11.dtd">
<svg version="1.1" id="Layer_1" xmlns="http://www.w3.org/2000/svg" xmlns:xlink="http://www.w3.org/1999/xlink" x="0px" y="0px"
	 width="56.689px" height="56.689px" viewBox="0 0 56.689 56.689" enable-background="new 0 0 56.689 56.689" xml:space="preserve">
<path d="M50.262,38.332V13.99c0-2.205-1.794-4-4-4H10.428c-2.206,0-4,1.795-4,4v24.342H2.564v4.512c0,2.127,1.729,3.855,3.855,3.855
	h43.852c2.126,0,3.855-1.729,3.855-3.855v-4.512H50.262z M8.428,13.99c0-1.104,0.897-2,2-2h35.834c1.103,0,2,0.896,2,2v24.342H8.428
	V13.99z M52.126,42.844c0,1.023-0.832,1.855-1.855,1.855H6.419c-1.023,0-1.855-0.832-1.855-1.855v-2.512h1.864h12.489
	c0.347,0.965,1.26,1.658,2.344,1.658h14.167c1.084,0,1.997-0.693,2.344-1.658h12.49h1.864V42.844z"/>
</svg>
