<?xml version="1.0" encoding="utf-8"?>
<!-- Generator: Adobe Illustrator 15.1.0, SVG Export Plug-In . SVG Version: 6.00 Build 0)  -->
<!DOCTYPE svg PUBLIC "-//W3C//DTD SVG 1.1//EN" "http://www.w3.org/Graphics/SVG/1.1/DTD/svg11.dtd">
<svg version="1.1" id="Layer_1" xmlns="http://www.w3.org/2000/svg" xmlns:xlink="http://www.w3.org/1999/xlink" x="0px" y="0px"
	 width="56.69px" height="56.69px" viewBox="0 0 56.69 56.69" enable-background="new 0 0 56.69 56.69" xml:space="preserve">
<path d="M36.26,26.701c-4.744,0-9.295,1.91-12.676,5.241l-0.328-0.346H9.577v-5.265l7.945-3.077c0.515-0.2,0.771-0.779,0.571-1.294
	c-0.2-0.515-0.778-0.771-1.294-0.571l-9.223,3.572v6.635h-5.25v22.143h29.042V46.49h22.918l0.055-1.189
	c0.011-0.164,0.021-0.328,0.021-0.494C54.363,34.822,46.242,26.701,36.26,26.701z M29.369,51.738H4.327V33.596h18.069l6.973,7.355
	v5.539V51.738z M31.369,44.49v-4.336l-6.426-6.779c3.011-2.981,7.085-4.674,11.316-4.674c8.773,0,15.932,7.053,16.101,15.79H31.369z
	 M31.872,24.725c0.132,0.055,0.267,0.103,0.402,0.15l0.283,0.104c0.114,0.044,0.229,0.087,0.347,0.124
	c1.091,0.34,2.229,0.513,3.38,0.513c0.388,0,0.771-0.02,1.147-0.058c0.122-0.012,0.243-0.032,0.363-0.052l0.282-0.042
	c0.16-0.021,0.319-0.043,0.479-0.076c0.112-0.023,0.222-0.052,0.331-0.082l0.286-0.073c0.155-0.037,0.311-0.075,0.466-0.123
	c0.093-0.029,0.184-0.063,0.274-0.097l0.252-0.09c0.172-0.06,0.345-0.121,0.515-0.192c0.069-0.03,0.138-0.063,0.285-0.135
	c0.239-0.108,0.479-0.217,0.699-0.337c0.048-0.025,0.095-0.053,0.17-0.1c0.267-0.151,0.531-0.307,0.802-0.491
	c3.097-2.101,4.954-5.579,4.977-9.314l0.001-0.068c0-6.248-5.083-11.331-11.331-11.331c-5.963,0-10.926,4.664-11.297,10.617
	l-0.01,0.143c-0.013,0.189-0.025,0.378-0.025,0.571C24.95,18.846,27.666,22.944,31.872,24.725z M26.971,13.852l0.011-0.157
	c0.306-4.902,4.392-8.743,9.301-8.743c5.128,0,9.303,4.157,9.331,9.278l-0.001,0.064c-0.003,3.092-1.536,5.976-4.117,7.728
	c-0.208,0.141-0.428,0.269-0.643,0.391l-0.133,0.08c-0.188,0.102-0.385,0.189-0.583,0.279l-0.235,0.113
	c-0.128,0.054-0.261,0.1-0.394,0.146l-0.304,0.109c-0.054,0.021-0.106,0.041-0.157,0.057c-0.112,0.035-0.227,0.062-0.341,0.089
	l-0.345,0.087c-0.069,0.019-0.139,0.039-0.206,0.053c-0.113,0.023-0.229,0.038-0.345,0.053l-0.35,0.053
	c-0.075,0.013-0.15,0.026-0.229,0.034c-0.312,0.032-0.628,0.048-0.947,0.048h-0.002c-0.948,0-1.885-0.142-2.782-0.422
	c-0.076-0.024-0.15-0.053-0.226-0.082l-0.341-0.125c-0.097-0.034-0.194-0.067-0.285-0.105c-3.462-1.465-5.698-4.84-5.698-8.598
	C26.95,14.138,26.961,13.995,26.971,13.852z"/>
</svg>
