<?xml version="1.0" encoding="utf-8"?>
<!-- Generator: Adobe Illustrator 15.1.0, SVG Export Plug-In . SVG Version: 6.00 Build 0)  -->
<!DOCTYPE svg PUBLIC "-//W3C//DTD SVG 1.1//EN" "http://www.w3.org/Graphics/SVG/1.1/DTD/svg11.dtd">
<svg version="1.1" id="Layer_1" xmlns="http://www.w3.org/2000/svg" xmlns:xlink="http://www.w3.org/1999/xlink" x="0px" y="0px"
	 width="56.689px" height="56.689px" viewBox="0 0 56.689 56.689" enable-background="new 0 0 56.689 56.689" xml:space="preserve">
<path d="M29.354,20.127h5.188v2h-5.188v5.187h-2v-5.187h-5.187v-2h5.187v-5.188h2V20.127z M40.664,21.095
	c0,6.793-5.525,12.319-12.317,12.319c-6.793,0-12.32-5.526-12.32-12.319c0-6.792,5.527-12.318,12.32-12.318
	C35.139,8.777,40.664,14.303,40.664,21.095z M38.664,21.096c0-5.689-4.628-10.318-10.317-10.318s-10.32,4.629-10.32,10.318
	c0,5.69,4.631,10.319,10.32,10.319S38.664,26.786,38.664,21.096z M31.543,52.659C31.543,52.658,31.543,52.658,31.543,52.659
	c0-0.001-1.308,1.611-3.142,1.611h-0.114c-1.739,0-3.002-1.445-3.141-1.61C17.521,43.526,9.386,32.882,9.386,22.115
	c0-10.859,8.504-19.695,18.958-19.695c10.455,0,18.961,8.836,18.961,19.695C47.305,32.891,39.169,43.531,31.543,52.659z
	 M45.306,22.115c0-9.758-7.608-17.695-16.961-17.695c-9.351,0-16.958,7.938-16.958,17.695c0,10.099,7.896,20.399,15.295,29.263
	c0.21,0.245,0.921,0.895,1.606,0.895h0.114c0.682,0,1.406-0.664,1.606-0.896C37.409,42.519,45.305,32.221,45.306,22.115z"/>
</svg>
