<?xml version="1.0" encoding="utf-8"?>
<!-- Generator: Adobe Illustrator 15.1.0, SVG Export Plug-In . SVG Version: 6.00 Build 0)  -->
<!DOCTYPE svg PUBLIC "-//W3C//DTD SVG 1.1//EN" "http://www.w3.org/Graphics/SVG/1.1/DTD/svg11.dtd">
<svg version="1.1" id="Layer_1" xmlns="http://www.w3.org/2000/svg" xmlns:xlink="http://www.w3.org/1999/xlink" x="0px" y="0px"
	 width="56.69px" height="56.69px" viewBox="0 0 56.69 56.69" enable-background="new 0 0 56.69 56.69" xml:space="preserve">
<path d="M49.038,51.824c0,0.461-0.373,0.834-0.834,0.834h-1.333v-1.667h1.333C48.665,50.991,49.038,51.364,49.038,51.824z
	 M23.934,30.865c0.943,0,1.707-0.764,1.707-1.708c0-0.943-0.764-1.708-1.707-1.708s-1.709,0.765-1.709,1.708
	C22.225,30.102,22.99,30.865,23.934,30.865z M10.121,45.461c-0.066,0.293-0.109,0.594-0.109,0.907c0,2.34,1.905,4.244,4.246,4.244
	H34.63c0.025-0.53,0.455-0.954,0.991-0.954h6.75c0.553,0,1,0.447,1,1v0.333h2.917v1.667h-2.917v0.25c0,0.553-0.447,1-1,1h-6.75
	c-0.553,0-1-0.447-1-1v-0.296H14.258c-3.444,0-6.246-2.801-6.246-6.244c0-0.81,0.164-1.578,0.446-2.287
	c-3.119-3.409-2.724-9.041,0.968-12.735l13.958-13.957c-0.029-0.366-0.056-0.732-0.056-1.106c0-3.29,1.187-6.307,3.149-8.651
	c-0.036-0.447,0.109-0.906,0.451-1.248c0.343-0.342,0.801-0.487,1.248-0.451c2.345-1.963,5.361-3.149,8.651-3.149
	c7.444,0,13.5,6.057,13.5,13.5c0,3.29-1.186,6.307-3.148,8.65c0.037,0.448-0.108,0.908-0.451,1.25
	c-0.342,0.342-0.802,0.488-1.249,0.451c-2.345,1.963-5.361,3.148-8.651,3.148c-0.426,0-0.846-0.024-1.262-0.063L21.682,43.604
	c-1.954,1.955-4.568,3.076-7.17,3.076C12.91,46.68,11.403,46.25,10.121,45.461z M36.828,4.782c-2.601,0-4.993,0.878-6.922,2.339
	l16.083,16.084c1.461-1.929,2.339-4.322,2.339-6.923C48.328,9.941,43.169,4.782,36.828,4.782z M25.328,16.282
	c0,6.342,5.159,11.5,11.5,11.5c2.601,0,4.994-0.877,6.923-2.338L27.667,9.359C26.206,11.288,25.328,13.682,25.328,16.282z
	 M10.104,42.926c1.131,1.131,2.696,1.754,4.408,1.754c2.075,0,4.174-0.908,5.756-2.49l12.92-12.919
	c-4.562-1.281-8.144-4.896-9.38-9.477L10.84,32.76C7.835,35.767,7.505,40.327,10.104,42.926z"/>
</svg>
