<?xml version="1.0" encoding="utf-8"?>
<!-- Generator: Adobe Illustrator 15.1.0, SVG Export Plug-In . SVG Version: 6.00 Build 0)  -->
<!DOCTYPE svg PUBLIC "-//W3C//DTD SVG 1.1//EN" "http://www.w3.org/Graphics/SVG/1.1/DTD/svg11.dtd">
<svg version="1.1" id="Layer_1" xmlns="http://www.w3.org/2000/svg" xmlns:xlink="http://www.w3.org/1999/xlink" x="0px" y="0px"
	 width="56.69px" height="56.69px" viewBox="0 0 56.69 56.69" enable-background="new 0 0 56.69 56.69" xml:space="preserve">
<path d="M40.721,46.658h-9.813v-7.431c4.658-1.089,8.205-5.063,8.637-9.944c0.029-0.331,0.051-0.663,0.051-1.001v-2.5v-2.438v-3.5
	v-2.438v-2.75c0-0.253-0.021-0.501-0.039-0.75c-0.387-5.862-5.252-10.5-11.211-10.5c-5.96,0-10.824,4.638-11.212,10.5
	c-0.017,0.249-0.038,0.497-0.038,0.75v2.75v2.438v3.5v2.438v2.5c0,0.338,0.021,0.67,0.051,1.001
	c0.431,4.881,3.977,8.856,8.637,9.944v7.431H15.97c-1.83,0-3.313,1.482-3.313,3.313c0,1.828,1.482,3.313,3.313,3.313h24.75
	c1.828,0,3.313-1.484,3.313-3.313C44.033,48.141,42.549,46.658,40.721,46.658z M19.163,29.283h4.87c0.967,0,1.75-0.784,1.75-1.751
	s-0.783-1.75-1.75-1.75h-4.938v-2.438h4.938c0.967,0,1.75-0.783,1.75-1.75s-0.783-1.75-1.75-1.75h-4.938v-2.438h4.938
	c0.967,0,1.75-0.783,1.75-1.75s-0.783-1.75-1.75-1.75h-4.889c0.385-4.776,4.398-8.5,9.201-8.5c4.803,0,8.815,3.724,9.202,8.5h-4.889
	c-0.967,0-1.75,0.783-1.75,1.75s0.783,1.75,1.75,1.75h4.938v2.438h-4.938c-0.967,0-1.75,0.783-1.75,1.75s0.783,1.75,1.75,1.75h4.938
	v2.438h-4.938c-0.967,0-1.75,0.783-1.75,1.75s0.783,1.751,1.75,1.751h4.871c-0.506,4.714-4.418,8.25-9.184,8.25
	C23.581,37.533,19.667,33.998,19.163,29.283z M29.711,39.441c-0.029,0.004-0.059,0.009-0.09,0.013
	C29.652,39.45,29.682,39.444,29.711,39.441z M26.98,39.441c0.029,0.004,0.059,0.01,0.089,0.013
	C27.039,39.45,27.009,39.445,26.98,39.441z"/>
</svg>
