<?xml version="1.0" encoding="utf-8"?>
<!-- Generator: Adobe Illustrator 15.1.0, SVG Export Plug-In . SVG Version: 6.00 Build 0)  -->
<!DOCTYPE svg PUBLIC "-//W3C//DTD SVG 1.1//EN" "http://www.w3.org/Graphics/SVG/1.1/DTD/svg11.dtd">
<svg version="1.1" id="Layer_1" xmlns="http://www.w3.org/2000/svg" xmlns:xlink="http://www.w3.org/1999/xlink" x="0px" y="0px"
	 width="56.69px" height="56.69px" viewBox="0 0 56.69 56.69" enable-background="new 0 0 56.69 56.69" xml:space="preserve">
<path d="M32.533,24.157H5.097c-1.211,0-2.197-0.986-2.197-2.198v-2.296c0-1.211,0.986-2.196,2.197-2.196h27.436
	c1.211,0,2.195,0.985,2.195,2.196v2.296C34.729,23.171,33.744,24.157,32.533,24.157z M5.097,19.467
	c-0.109,0-0.197,0.088-0.197,0.196v2.296c0,0.109,0.088,0.198,0.197,0.198h27.436c0.107,0,0.195-0.089,0.195-0.198v-2.296
	c0-0.108-0.088-0.196-0.195-0.196H5.097z M32.533,16.623H5.097c-1.211,0-2.197-0.986-2.197-2.197V12.13
	c0-1.211,0.986-2.196,2.197-2.196h27.436c1.211,0,2.195,0.985,2.195,2.196v2.296C34.729,15.637,33.744,16.623,32.533,16.623z
	 M5.097,11.934c-0.109,0-0.197,0.088-0.197,0.196v2.296c0,0.109,0.088,0.197,0.197,0.197h27.436c0.107,0,0.195-0.088,0.195-0.197
	V12.13c0-0.108-0.088-0.196-0.195-0.196H5.097z M32.533,9.09H5.097C3.886,9.09,2.9,8.104,2.9,6.893V4.597
	C2.9,3.386,3.886,2.4,5.097,2.4h27.436c1.211,0,2.195,0.985,2.195,2.196v2.296C34.729,8.104,33.744,9.09,32.533,9.09z M5.097,4.4
	C4.988,4.4,4.9,4.488,4.9,4.597v2.296c0,0.109,0.088,0.197,0.197,0.197h27.436c0.107,0,0.195-0.088,0.195-0.197V4.597
	c0-0.108-0.088-0.196-0.195-0.196H5.097z M32.533,54.29H5.097c-1.211,0-2.197-0.985-2.197-2.197v-2.296
	c0-1.211,0.986-2.196,2.197-2.196H27.5l0.296,0.314c1.671,1.773,3.771,3.079,6.07,3.776l1.166,0.354l-0.574,1.075
	C34.07,53.842,33.334,54.29,32.533,54.29z M5.097,49.601c-0.109,0-0.197,0.088-0.197,0.196v2.296c0,0.108,0.088,0.197,0.197,0.197
	h25.094c-1.293-0.722-2.49-1.627-3.547-2.689H5.097z M26.681,46.757H5.097c-1.211,0-2.197-0.985-2.197-2.197v-2.297
	c0-1.211,0.986-2.195,2.197-2.195h18.991l0.149,0.821c0.28,1.545,0.814,3.016,1.589,4.372L26.681,46.757z M5.097,42.067
	c-0.109,0-0.197,0.088-0.197,0.195v2.297c0,0.108,0.088,0.197,0.197,0.197h18.241c-0.379-0.866-0.679-1.765-0.897-2.689H5.097z
	 M23.999,39.224H5.097c-1.211,0-2.197-0.985-2.197-2.197V34.73c0-1.211,0.986-2.196,2.197-2.196h20.134l-0.458,1.326
	c-0.49,1.419-0.747,2.891-0.764,4.375L23.999,39.224z M5.097,34.534c-0.109,0-0.197,0.088-0.197,0.196v2.296
	c0,0.108,0.088,0.197,0.197,0.197h16.954c0.067-0.905,0.213-1.805,0.436-2.689H5.097z M25.728,31.69H5.097
	c-1.211,0-2.197-0.985-2.197-2.197v-2.297c0-1.211,0.986-2.195,2.197-2.195h27.842l-2.746,1.832
	c-1.668,1.113-3.111,2.627-4.173,4.376L25.728,31.69z M5.097,27.001c-0.109,0-0.197,0.088-0.197,0.195v2.297
	c0,0.108,0.088,0.197,0.197,0.197h19.518c0.64-0.975,1.386-1.879,2.214-2.689H5.097z M33.252,35.789
	c0.252-0.574,0.58-1.102,0.984-1.582s0.867-0.894,1.385-1.239c0.52-0.346,1.082-0.615,1.691-0.809s1.248-0.29,1.916-0.29
	c0.779,0,1.535,0.134,2.264,0.399c0.73,0.268,1.387,0.655,1.973,1.165l-1.336,2.197c-0.369-0.398-0.807-0.704-1.313-0.919
	c-0.508-0.213-1.037-0.32-1.588-0.32c-0.615,0-1.186,0.127-1.713,0.383c-0.527,0.254-0.977,0.593-1.346,1.015h2.664l-0.484,2.215
	h-3.111c-0.012,0.064-0.018,0.131-0.018,0.197c0,0.068,0,0.134,0,0.198c0,0.082,0,0.16,0,0.233s0.006,0.147,0.018,0.224h2.936
	l-0.492,2.206H36.24c0.369,0.422,0.811,0.75,1.324,0.984c0.512,0.234,1.066,0.352,1.664,0.352c0.551,0,1.08-0.106,1.588-0.32
	c0.506-0.214,0.943-0.521,1.313-0.919l1.336,2.197c-0.586,0.504-1.242,0.891-1.973,1.16c-0.729,0.27-1.484,0.404-2.264,0.404
	c-0.662,0-1.295-0.096-1.898-0.286c-0.604-0.189-1.162-0.455-1.674-0.795c-0.514-0.34-0.971-0.745-1.375-1.217
	s-0.732-0.992-0.984-1.561h-2.971l0.482-2.206h1.926c-0.012-0.076-0.018-0.15-0.018-0.224s0-0.151,0-0.233v-0.396h-1.732
	l0.492-2.215H33.252z M37.895,54.29C29.131,54.29,22,47.159,22,38.394C22,29.63,29.131,22.5,37.895,22.5
	c8.766,0,15.896,7.13,15.896,15.894C53.791,47.159,46.66,54.29,37.895,54.29z M37.895,24.5C30.234,24.5,24,30.732,24,38.394
	c0,7.662,6.234,13.896,13.894,13.896c7.662,0,13.896-6.234,13.896-13.896C51.791,30.732,45.557,24.5,37.895,24.5z"/>
</svg>
