<?xml version="1.0" encoding="utf-8"?>
<!-- Generator: Adobe Illustrator 15.1.0, SVG Export Plug-In . SVG Version: 6.00 Build 0)  -->
<!DOCTYPE svg PUBLIC "-//W3C//DTD SVG 1.1//EN" "http://www.w3.org/Graphics/SVG/1.1/DTD/svg11.dtd">
<svg version="1.1" id="Layer_1" xmlns="http://www.w3.org/2000/svg" xmlns:xlink="http://www.w3.org/1999/xlink" x="0px" y="0px"
	 width="56.69px" height="56.69px" viewBox="0 0 56.69 56.69" enable-background="new 0 0 56.69 56.69" xml:space="preserve">
<path d="M32.533,24.157H5.097c-1.211,0-2.197-0.986-2.197-2.198v-2.296c0-1.211,0.986-2.196,2.197-2.196h27.436
	c1.211,0,2.195,0.985,2.195,2.196v2.296C34.729,23.171,33.744,24.157,32.533,24.157z M5.097,19.467
	c-0.109,0-0.197,0.088-0.197,0.196v2.296c0,0.109,0.088,0.198,0.197,0.198h27.436c0.107,0,0.195-0.089,0.195-0.198v-2.296
	c0-0.108-0.088-0.196-0.195-0.196H5.097z M32.533,16.623H5.097c-1.211,0-2.197-0.986-2.197-2.197V12.13
	c0-1.211,0.986-2.196,2.197-2.196h27.436c1.211,0,2.195,0.985,2.195,2.196v2.296C34.729,15.637,33.744,16.623,32.533,16.623z
	 M5.097,11.934c-0.109,0-0.197,0.088-0.197,0.196v2.296c0,0.109,0.088,0.197,0.197,0.197h27.436c0.107,0,0.195-0.088,0.195-0.197
	V12.13c0-0.108-0.088-0.196-0.195-0.196H5.097z M32.533,9.09H5.097C3.886,9.09,2.9,8.104,2.9,6.893V4.597
	C2.9,3.386,3.886,2.4,5.097,2.4h27.436c1.211,0,2.195,0.985,2.195,2.196v2.296C34.729,8.104,33.744,9.09,32.533,9.09z M5.097,4.4
	C4.988,4.4,4.9,4.488,4.9,4.597v2.296c0,0.109,0.088,0.197,0.197,0.197h27.436c0.107,0,0.195-0.088,0.195-0.197V4.597
	c0-0.108-0.088-0.196-0.195-0.196H5.097z M32.533,54.29H5.097c-1.211,0-2.197-0.985-2.197-2.197v-2.296
	c0-1.211,0.986-2.196,2.197-2.196H27.5l0.296,0.314c1.671,1.773,3.771,3.079,6.07,3.776l1.166,0.354l-0.574,1.075
	C34.07,53.842,33.334,54.29,32.533,54.29z M5.097,49.601c-0.109,0-0.197,0.088-0.197,0.196v2.296c0,0.108,0.088,0.197,0.197,0.197
	h25.094c-1.293-0.722-2.49-1.627-3.547-2.689H5.097z M26.681,46.757H5.097c-1.211,0-2.197-0.985-2.197-2.197v-2.297
	c0-1.211,0.986-2.195,2.197-2.195h18.991l0.149,0.821c0.28,1.545,0.814,3.016,1.589,4.372L26.681,46.757z M5.097,42.067
	c-0.109,0-0.197,0.088-0.197,0.195v2.297c0,0.108,0.088,0.197,0.197,0.197h18.241c-0.379-0.866-0.679-1.765-0.897-2.689H5.097z
	 M23.999,39.224H5.097c-1.211,0-2.197-0.985-2.197-2.197V34.73c0-1.211,0.986-2.196,2.197-2.196h20.134l-0.458,1.326
	c-0.49,1.419-0.747,2.891-0.764,4.375L23.999,39.224z M5.097,34.534c-0.109,0-0.197,0.088-0.197,0.196v2.296
	c0,0.108,0.088,0.197,0.197,0.197h16.954c0.067-0.905,0.213-1.805,0.436-2.689H5.097z M25.728,31.69H5.097
	c-1.211,0-2.197-0.985-2.197-2.197v-2.297c0-1.211,0.986-2.195,2.197-2.195h27.842l-2.746,1.832
	c-1.668,1.113-3.111,2.627-4.173,4.376L25.728,31.69z M5.097,27.001c-0.109,0-0.197,0.088-0.197,0.195v2.297
	c0,0.108,0.088,0.197,0.197,0.197h19.518c0.64-0.975,1.386-1.879,2.214-2.689H5.097z M43.314,39.917c0,0.521-0.1,1.012-0.295,1.469
	c-0.197,0.457-0.467,0.855-0.809,1.199c-0.344,0.342-0.744,0.613-1.205,0.813c-0.459,0.199-0.949,0.299-1.471,0.299h-5.6V38.89
	h-1.459v-2.391h1.459v-1.627c0-0.521,0.1-1.01,0.299-1.467s0.471-0.857,0.813-1.2c0.344-0.343,0.744-0.614,1.201-0.813
	s0.945-0.299,1.467-0.299h1.064v2.523h-1.064c-0.176,0-0.34,0.031-0.492,0.096s-0.285,0.154-0.4,0.269
	c-0.113,0.114-0.203,0.247-0.268,0.399s-0.096,0.316-0.096,0.492v1.627h1.766v2.391h-1.766v2.285h3.076
	c0.176,0,0.34-0.033,0.492-0.098s0.285-0.154,0.398-0.268c0.115-0.115,0.205-0.248,0.27-0.4s0.096-0.316,0.096-0.492H43.314z
	 M37.895,54.29C29.131,54.29,22,47.159,22,38.394c0-8.765,7.13-15.895,15.894-15.895c8.766,0,15.896,7.13,15.896,15.895
	C53.791,47.159,46.66,54.29,37.895,54.29z M37.895,24.499C30.234,24.499,24,30.732,24,38.394c0,7.662,6.234,13.896,13.894,13.896
	c7.662,0,13.896-6.234,13.896-13.896C51.791,30.732,45.557,24.499,37.895,24.499z"/>
</svg>
