<?xml version="1.0" encoding="utf-8"?>
<!-- Generator: Adobe Illustrator 15.1.0, SVG Export Plug-In . SVG Version: 6.00 Build 0)  -->
<!DOCTYPE svg PUBLIC "-//W3C//DTD SVG 1.1//EN" "http://www.w3.org/Graphics/SVG/1.1/DTD/svg11.dtd">
<svg version="1.1" id="Layer_1" xmlns="http://www.w3.org/2000/svg" xmlns:xlink="http://www.w3.org/1999/xlink" x="0px" y="0px"
	 width="56.69px" height="56.69px" viewBox="0 0 56.69 56.69" enable-background="new 0 0 56.69 56.69" xml:space="preserve">
<path d="M32.533,24.156H5.097c-1.211,0-2.197-0.986-2.197-2.197v-2.295c0-1.211,0.986-2.197,2.197-2.197h27.436
	c1.211,0,2.195,0.986,2.195,2.197v2.295C34.729,23.17,33.744,24.156,32.533,24.156z M5.097,19.467c-0.109,0-0.197,0.088-0.197,0.197
	v2.295c0,0.109,0.088,0.197,0.197,0.197h27.436c0.107,0,0.195-0.088,0.195-0.197v-2.295c0-0.109-0.088-0.197-0.195-0.197H5.097z
	 M32.533,16.623H5.097c-1.211,0-2.197-0.986-2.197-2.197V12.13c0-1.211,0.986-2.196,2.197-2.196h27.436
	c1.211,0,2.195,0.985,2.195,2.196v2.296C34.729,15.637,33.744,16.623,32.533,16.623z M5.097,11.934
	c-0.109,0-0.197,0.088-0.197,0.196v2.296c0,0.109,0.088,0.197,0.197,0.197h27.436c0.107,0,0.195-0.088,0.195-0.197V12.13
	c0-0.108-0.088-0.196-0.195-0.196H5.097z M32.533,9.09H5.097C3.886,9.09,2.9,8.104,2.9,6.893V4.597C2.9,3.386,3.886,2.4,5.097,2.4
	h27.436c1.211,0,2.195,0.985,2.195,2.196v2.296C34.729,8.104,33.744,9.09,32.533,9.09z M5.097,4.4C4.988,4.4,4.9,4.488,4.9,4.597
	v2.296c0,0.109,0.088,0.197,0.197,0.197h27.436c0.107,0,0.195-0.088,0.195-0.197V4.597c0-0.108-0.088-0.196-0.195-0.196H5.097z
	 M37.895,54.29C29.131,54.29,22,47.159,22,38.394C22,29.63,29.131,22.5,37.895,22.5c8.766,0,15.896,7.13,15.896,15.894
	C53.791,47.159,46.66,54.29,37.895,54.29z M37.895,24.5C30.233,24.5,24,30.732,24,38.394c0,7.662,6.233,13.896,13.894,13.896
	c7.662,0,13.896-6.234,13.896-13.896C51.791,30.732,45.557,24.5,37.895,24.5z M32.533,54.29H5.097c-1.211,0-2.197-0.985-2.197-2.197
	v-2.296c0-1.211,0.986-2.196,2.197-2.196H27.5l0.296,0.314c1.671,1.773,3.77,3.079,6.069,3.776l1.167,0.354l-0.575,1.075
	C34.07,53.842,33.333,54.29,32.533,54.29z M5.097,49.601c-0.109,0-0.197,0.088-0.197,0.196v2.296c0,0.108,0.088,0.197,0.197,0.197
	h25.094c-1.294-0.722-2.49-1.627-3.547-2.689H5.097z M26.681,46.757H5.097c-1.211,0-2.197-0.985-2.197-2.197v-2.297
	c0-1.211,0.986-2.195,2.197-2.195h18.991l0.149,0.821c0.28,1.545,0.815,3.016,1.59,4.372L26.681,46.757z M5.097,42.067
	c-0.109,0-0.197,0.088-0.197,0.195v2.297c0,0.108,0.088,0.197,0.197,0.197h18.241c-0.379-0.866-0.679-1.765-0.897-2.689H5.097z
	 M23.998,39.224H5.097c-1.211,0-2.197-0.985-2.197-2.197V34.73c0-1.211,0.986-2.196,2.197-2.196h20.134l-0.458,1.326
	c-0.49,1.419-0.747,2.891-0.764,4.375L23.998,39.224z M5.097,34.534c-0.109,0-0.197,0.088-0.197,0.196v2.296
	c0,0.108,0.088,0.197,0.197,0.197h16.955c0.067-0.905,0.213-1.805,0.436-2.689H5.097z M25.729,31.69H5.097
	c-1.211,0-2.197-0.985-2.197-2.197v-2.296C2.9,25.986,3.886,25,5.097,25h27.839l-2.742,1.832c-1.669,1.115-3.113,2.628-4.174,4.377
	L25.729,31.69z M5.097,27C4.988,27,4.9,27.088,4.9,27.197v2.296c0,0.108,0.088,0.197,0.197,0.197h19.517
	C25.254,28.715,26,27.811,26.83,27H5.097z M39.01,33.169h2.742v2.566h-5.191c-0.18,0-0.332,0.061-0.457,0.182
	s-0.188,0.268-0.188,0.439c0,0.18,0.063,0.332,0.188,0.457s0.277,0.188,0.457,0.188h2.672c0.438,0,0.85,0.074,1.236,0.223
	s0.725,0.355,1.014,0.621s0.518,0.582,0.686,0.949s0.252,0.77,0.252,1.207c0,0.445-0.084,0.863-0.252,1.254
	s-0.396,0.729-0.686,1.014s-0.627,0.512-1.014,0.68S39.67,43.2,39.232,43.2H39.01v3.598h-2.156V43.2h-3.48v-2.543h5.859
	c0.164,0,0.309-0.064,0.434-0.193s0.188-0.283,0.188-0.463s-0.063-0.295-0.188-0.346s-0.27-0.076-0.434-0.076h-2.672
	c-0.445,0-0.861-0.084-1.248-0.252s-0.723-0.398-1.008-0.691s-0.512-0.635-0.68-1.025s-0.252-0.809-0.252-1.254
	c0-0.438,0.084-0.85,0.252-1.236s0.395-0.725,0.68-1.014s0.621-0.518,1.008-0.686s0.803-0.252,1.248-0.252h0.293v-3.177h2.156
	V33.169z"/>
</svg>
