<?xml version="1.0" encoding="utf-8"?>
<!-- Generator: Adobe Illustrator 15.1.0, SVG Export Plug-In . SVG Version: 6.00 Build 0)  -->
<!DOCTYPE svg PUBLIC "-//W3C//DTD SVG 1.1//EN" "http://www.w3.org/Graphics/SVG/1.1/DTD/svg11.dtd">
<svg version="1.1" id="Layer_1" xmlns="http://www.w3.org/2000/svg" xmlns:xlink="http://www.w3.org/1999/xlink" x="0px" y="0px"
	 width="56.69px" height="56.69px" viewBox="0 0 56.69 56.69" enable-background="new 0 0 56.69 56.69" xml:space="preserve">
<path d="M32.533,24.157H5.097c-1.211,0-2.197-0.986-2.197-2.198v-2.296c0-1.211,0.986-2.196,2.197-2.196h27.436
	c1.211,0,2.195,0.985,2.195,2.196v2.296C34.729,23.171,33.744,24.157,32.533,24.157z M5.097,19.467
	c-0.109,0-0.197,0.088-0.197,0.196v2.296c0,0.109,0.088,0.197,0.197,0.197h27.436c0.107,0,0.195-0.088,0.195-0.197v-2.296
	c0-0.108-0.088-0.196-0.195-0.196H5.097z M32.533,16.623H5.097c-1.211,0-2.197-0.986-2.197-2.197V12.13
	c0-1.211,0.986-2.196,2.197-2.196h27.436c1.211,0,2.195,0.985,2.195,2.196v2.296C34.729,15.637,33.744,16.623,32.533,16.623z
	 M5.097,11.934c-0.109,0-0.197,0.088-0.197,0.196v2.296c0,0.109,0.088,0.197,0.197,0.197h27.436c0.107,0,0.195-0.088,0.195-0.197
	V12.13c0-0.108-0.088-0.196-0.195-0.196H5.097z M32.533,9.09H5.097C3.886,9.09,2.9,8.104,2.9,6.893V4.597
	C2.9,3.386,3.886,2.4,5.097,2.4h27.436c1.211,0,2.195,0.985,2.195,2.196v2.296C34.729,8.104,33.744,9.09,32.533,9.09z M5.097,4.4
	C4.988,4.4,4.9,4.488,4.9,4.597v2.296c0,0.109,0.088,0.197,0.197,0.197h27.436c0.107,0,0.195-0.088,0.195-0.197V4.597
	c0-0.108-0.088-0.196-0.195-0.196H5.097z M32.533,54.29H5.097c-1.211,0-2.197-0.985-2.197-2.197v-2.296
	c0-1.211,0.986-2.196,2.197-2.196H27.5l0.296,0.314c1.671,1.773,3.771,3.079,6.07,3.776l1.166,0.354l-0.574,1.075
	C34.07,53.842,33.334,54.29,32.533,54.29z M5.097,49.601c-0.109,0-0.197,0.088-0.197,0.196v2.296c0,0.108,0.088,0.197,0.197,0.197
	h25.094c-1.293-0.722-2.49-1.627-3.547-2.689H5.097z M26.681,46.757H5.097c-1.211,0-2.197-0.985-2.197-2.197v-2.297
	c0-1.211,0.986-2.195,2.197-2.195h18.991l0.149,0.821c0.28,1.545,0.814,3.016,1.589,4.372L26.681,46.757z M5.097,42.067
	c-0.109,0-0.197,0.088-0.197,0.195v2.297c0,0.108,0.088,0.197,0.197,0.197h18.241c-0.379-0.866-0.679-1.765-0.897-2.689H5.097z
	 M23.999,39.224H5.097c-1.211,0-2.197-0.985-2.197-2.197V34.73c0-1.211,0.986-2.196,2.197-2.196h20.134l-0.458,1.326
	c-0.49,1.419-0.747,2.891-0.764,4.375L23.999,39.224z M5.097,34.534c-0.109,0-0.197,0.088-0.197,0.196v2.296
	c0,0.108,0.088,0.197,0.197,0.197h16.954c0.067-0.905,0.213-1.805,0.436-2.689H5.097z M25.728,31.69H5.097
	c-1.211,0-2.197-0.985-2.197-2.197v-2.296C2.9,25.985,3.886,25,5.097,25h27.84l-2.742,1.832c-1.67,1.114-3.114,2.628-4.175,4.377
	L25.728,31.69z M5.097,27C4.988,27,4.9,27.089,4.9,27.197v2.296c0,0.108,0.088,0.197,0.197,0.197h19.518
	c0.64-0.975,1.386-1.88,2.215-2.69H5.097z M35.377,40.021c-0.416-0.199-0.781-0.447-1.098-0.746s-0.58-0.631-0.791-0.994
	s-0.369-0.75-0.475-1.16s-0.158-0.826-0.158-1.248v-3.779h2.521v3.779c0,0.346,0.066,0.672,0.199,0.98
	c0.131,0.307,0.311,0.576,0.539,0.805s0.498,0.408,0.805,0.539c0.309,0.133,0.635,0.199,0.98,0.199s0.67-0.066,0.975-0.199
	c0.305-0.131,0.572-0.311,0.801-0.539s0.408-0.498,0.541-0.805c0.131-0.309,0.197-0.635,0.197-0.98v-3.779h2.521v3.779
	c0,0.422-0.057,0.846-0.17,1.27c-0.115,0.426-0.281,0.824-0.498,1.195c-0.217,0.373-0.482,0.705-0.795,0.998
	c-0.314,0.293-0.672,0.521-1.076,0.686h2.092v2.391h-3.332v2.285h-2.521v-2.285h-3.332v-2.391H35.377z M37.895,54.29
	C29.131,54.29,22,47.159,22,38.394C22,29.63,29.131,22.5,37.895,22.5c8.766,0,15.896,7.13,15.896,15.894
	C53.791,47.159,46.66,54.29,37.895,54.29z M37.895,24.5C30.234,24.5,24,30.732,24,38.394c0,7.662,6.234,13.896,13.894,13.896
	c7.662,0,13.896-6.234,13.896-13.896C51.791,30.732,45.557,24.5,37.895,24.5z"/>
</svg>
