<?xml version="1.0" encoding="utf-8"?>
<!-- Generator: Adobe Illustrator 15.1.0, SVG Export Plug-In . SVG Version: 6.00 Build 0)  -->
<!DOCTYPE svg PUBLIC "-//W3C//DTD SVG 1.1//EN" "http://www.w3.org/Graphics/SVG/1.1/DTD/svg11.dtd">
<svg version="1.1" id="Layer_1" xmlns="http://www.w3.org/2000/svg" xmlns:xlink="http://www.w3.org/1999/xlink" x="0px" y="0px"
	 width="56.69px" height="56.69px" viewBox="0 0 56.69 56.69" enable-background="new 0 0 56.69 56.69" xml:space="preserve">
<path d="M51.818,7.618H4.871c-1.315,0-2.386,1.07-2.386,2.386v29.018c0,1.316,1.07,2.389,2.386,2.389h17.79v5.443h-5.222v2.219
	H39.25v-2.219h-5.222V41.41h17.79c1.316,0,2.387-1.072,2.387-2.389V10.004C54.205,8.688,53.135,7.618,51.818,7.618z M52.205,39.021
	c0,0.215-0.174,0.389-0.387,0.389H4.871c-0.213,0-0.386-0.174-0.386-0.389V10.004c0-0.213,0.173-0.386,0.386-0.386h46.947
	c0.213,0,0.387,0.173,0.387,0.386V39.021z"/>
</svg>
