<?xml version="1.0" encoding="utf-8"?>
<!-- Generator: Adobe Illustrator 15.1.0, SVG Export Plug-In . SVG Version: 6.00 Build 0)  -->
<!DOCTYPE svg PUBLIC "-//W3C//DTD SVG 1.1//EN" "http://www.w3.org/Graphics/SVG/1.1/DTD/svg11.dtd">
<svg version="1.1" id="Layer_1" xmlns="http://www.w3.org/2000/svg" xmlns:xlink="http://www.w3.org/1999/xlink" x="0px" y="0px"
	 width="56.689px" height="56.689px" viewBox="0 0 56.689 56.689" enable-background="new 0 0 56.689 56.689" xml:space="preserve">
<path d="M40.127,12.861c-0.57-5.638-5.344-10.052-11.13-10.052c-6.169,0-11.188,5.02-11.188,11.188h-0.002v32.196
	c0,2.341-1.904,4.246-4.244,4.246s-4.244-1.905-4.244-4.246V19.762h1.132c1.104,0,2-0.896,2-2v-9h-1.375v-3.25h-5.5v3.25H4.2v9
	c0,1.104,0.896,2,2,2h1.118v26.431c0,3.443,2.802,6.246,6.244,6.246c3.443,0,6.244-2.803,6.244-6.246V13.997h0.002
	c0-5.066,4.121-9.188,9.188-9.188c4.684,0,8.551,3.524,9.109,8.059c-6.844,0.546-12.249,6.279-12.249,13.263v14.436
	c0,7.343,5.975,13.314,13.315,13.314c7.343,0,13.315-5.974,13.315-13.314V26.13C52.49,19.109,47.024,13.354,40.127,12.861z
	 M50.49,40.566c0,6.24-5.076,11.314-11.316,11.314c-6.239,0-11.315-5.074-11.315-11.314V26.13c0-6.24,5.076-11.317,11.315-11.317
	c6.24,0,11.316,5.077,11.316,11.317V40.566z M40.829,22.573v5.431c0,0.916-0.74,1.656-1.655,1.656c-0.914,0-1.655-0.74-1.655-1.656
	v-5.431c0-0.913,0.741-1.653,1.655-1.653C40.089,20.92,40.829,21.661,40.829,22.573z"/>
</svg>
