<?xml version="1.0" encoding="utf-8"?>
<!-- Generator: Adobe Illustrator 15.1.0, SVG Export Plug-In . SVG Version: 6.00 Build 0)  -->
<!DOCTYPE svg PUBLIC "-//W3C//DTD SVG 1.1//EN" "http://www.w3.org/Graphics/SVG/1.1/DTD/svg11.dtd">
<svg version="1.1" id="Layer_1" xmlns="http://www.w3.org/2000/svg" xmlns:xlink="http://www.w3.org/1999/xlink" x="0px" y="0px"
	 width="56.69px" height="56.69px" viewBox="0 0 56.69 56.69" enable-background="new 0 0 56.69 56.69" xml:space="preserve">
<path d="M42.283,53.927H14.408c-3.859,0-7-3.141-7-7v-17c0-3.741,2.95-6.807,6.646-6.991v-5.88c0-7.881,6.411-14.292,14.291-14.292
	c7.879,0,14.292,6.411,14.292,14.292v5.88c3.695,0.185,6.646,3.25,6.646,6.991v17C49.283,50.786,46.143,53.927,42.283,53.927z
	 M14.408,24.927c-2.757,0-5,2.243-5,5v17c0,2.757,2.243,5,5,5h27.875c2.756,0,5-2.243,5-5v-17c0-2.757-2.244-5-5-5h-1.646v-7.871
	c0-6.778-5.514-12.292-12.292-12.292c-6.777,0-12.291,5.514-12.291,12.292v7.871H14.408z M38.637,24.927H18.054v-7.871
	c0-5.675,4.616-10.292,10.291-10.292c5.674,0,10.292,4.617,10.292,10.292V24.927z M20.054,22.927h16.583v-5.871
	c0-4.572-3.721-8.292-8.292-8.292c-4.571,0-8.291,3.72-8.291,8.292V22.927z M28.345,31.537c-1.842,0-3.334,1.493-3.334,3.334
	s1.492,3.333,3.334,3.333c1.84,0,3.334-1.492,3.334-3.333S30.186,31.537,28.345,31.537z M29.992,35.959
	c0-0.909-0.736-1.646-1.647-1.646l0,0c-0.908,0-1.646,0.736-1.646,1.646v7.711c0,0.909,0.738,1.646,1.646,1.646l0,0
	c0.911,0,1.647-0.737,1.647-1.646V35.959z"/>
</svg>
