<?xml version="1.0" encoding="utf-8"?>
<!-- Generator: Adobe Illustrator 15.1.0, SVG Export Plug-In . SVG Version: 6.00 Build 0)  -->
<!DOCTYPE svg PUBLIC "-//W3C//DTD SVG 1.1//EN" "http://www.w3.org/Graphics/SVG/1.1/DTD/svg11.dtd">
<svg version="1.1" id="Layer_1" xmlns="http://www.w3.org/2000/svg" xmlns:xlink="http://www.w3.org/1999/xlink" x="0px" y="0px"
	 width="56.69px" height="56.69px" viewBox="0 0 56.69 56.69" enable-background="new 0 0 56.69 56.69" xml:space="preserve">
<path d="M42.283,53.927H14.408c-3.859,0-7-3.14-7-7v-17c0-3.86,3.141-7,7-7h22.229v-5.871c0-4.572-3.721-8.292-8.292-8.292
	c-4.571,0-8.291,3.72-8.291,8.292v1.819h-6v-1.819c0-7.881,6.411-14.292,14.291-14.292c7.879,0,14.292,6.411,14.292,14.292v5.88
	c3.695,0.185,6.646,3.25,6.646,6.991v17C49.283,50.787,46.143,53.927,42.283,53.927z M14.408,24.927c-2.757,0-5,2.243-5,5v17
	c0,2.757,2.243,5,5,5h27.875c2.756,0,5-2.243,5-5v-17c0-2.757-2.244-5-5-5h-1.646v-7.871c0-6.778-5.514-12.292-12.292-12.292
	c-6.717,0-12.192,5.417-12.29,12.111h2.001c0.097-5.592,4.675-10.111,10.289-10.111c5.674,0,10.292,4.617,10.292,10.292v7.871
	H14.408z M28.345,31.537c-1.842,0-3.334,1.493-3.334,3.334s1.492,3.333,3.334,3.333c1.84,0,3.334-1.492,3.334-3.333
	S30.186,31.537,28.345,31.537z M29.992,35.959c0-0.909-0.736-1.646-1.647-1.646l0,0c-0.908,0-1.646,0.736-1.646,1.646v7.711
	c0,0.909,0.738,1.646,1.646,1.646l0,0c0.911,0,1.647-0.737,1.647-1.646V35.959z"/>
</svg>
