<?xml version="1.0" encoding="utf-8"?>
<!-- Generator: Adobe Illustrator 15.1.0, SVG Export Plug-In . SVG Version: 6.00 Build 0)  -->
<!DOCTYPE svg PUBLIC "-//W3C//DTD SVG 1.1//EN" "http://www.w3.org/Graphics/SVG/1.1/DTD/svg11.dtd">
<svg version="1.1" id="Layer_1" xmlns="http://www.w3.org/2000/svg" xmlns:xlink="http://www.w3.org/1999/xlink" x="0px" y="0px"
	 width="56.69px" height="56.69px" viewBox="0 0 56.69 56.69" enable-background="new 0 0 56.69 56.69" xml:space="preserve">
<path d="M49.223,20.446l-1.51,1.511l-1.07-1.07l2.219-2.218c3.006-3.008,3.008-7.884-0.002-10.892
	c-1.504-1.504-3.475-2.256-5.444-2.256c-1.972,0-3.942,0.752-5.446,2.256L35.75,9.996l0,0l-0.918,0.918l0,0L23.249,22.497
	l0.291,1.98v0.001L10.988,37.031c-0.863,0.862-0.863,2.26,0,3.123l0.466,0.466l-2.471,1.128l-3.409,7.245l0.752,0.75l3.859-3.858
	c-0.293-0.565-0.21-1.272,0.262-1.747c0.585-0.585,1.535-0.585,2.119,0s0.584,1.533,0,2.118c-0.475,0.473-1.183,0.557-1.746,0.263
	L6.961,50.38l0.792,0.789l7.135-3.516l0.943-2.656l0.653,0.654c0.431,0.431,0.996,0.646,1.562,0.646s1.131-0.216,1.563-0.646
	L32.16,33.099l1.98,0.289l11.584-11.583l1.07,1.07l-8.373,8.373c-0.287,0.287-0.287,0.753,0,1.042c0.287,0.287,0.755,0.287,1.041,0
	l10.803-10.802c0.287-0.288,0.287-0.755,0-1.042C49.979,20.158,49.512,20.159,49.223,20.446z M39.383,9.191
	c1.077-1.077,2.509-1.67,4.032-1.67c1.522,0,2.953,0.593,4.03,1.67c2.224,2.223,2.224,5.84,0.002,8.063l-2.219,2.219l-8.064-8.063
	L39.383,9.191z M33.437,31.264l-0.987-0.145l-0.993-0.145l-0.71,0.71L18.195,44.236c-0.041,0.04-0.091,0.062-0.149,0.062
	c-0.058,0-0.107-0.021-0.147-0.061l-5.496-5.497c-0.041-0.041-0.062-0.091-0.062-0.147s0.021-0.106,0.062-0.147l12.552-12.554
	l0.711-0.711l-0.146-0.994L25.374,23.2l10.872-10.872l8.064,8.063L33.437,31.264z"/>
</svg>
