<?xml version="1.0" encoding="utf-8"?>
<!-- Generator: Adobe Illustrator 15.1.0, SVG Export Plug-In . SVG Version: 6.00 Build 0)  -->
<!DOCTYPE svg PUBLIC "-//W3C//DTD SVG 1.1//EN" "http://www.w3.org/Graphics/SVG/1.1/DTD/svg11.dtd">
<svg version="1.1" id="Layer_1" xmlns="http://www.w3.org/2000/svg" xmlns:xlink="http://www.w3.org/1999/xlink" x="0px" y="0px"
	 width="56.69px" height="56.69px" viewBox="0 0 56.69 56.69" enable-background="new 0 0 56.69 56.69" xml:space="preserve">
<path d="M18.938,51.377c-0.672,0-1.226-0.479-1.318-1.139l-0.016-0.109c-0.317-2.172-0.726-6.342,0.112-9.879l3.177-13.467
	c-0.261-0.649-0.756-2.144-0.756-4.098c0-4.235,2.582-7.552,5.878-7.552c2.64,0,4.413,1.929,4.413,4.8
	c0,1.627-0.619,3.634-1.275,5.759c-0.352,1.143-0.717,2.323-0.985,3.453c-0.219,0.928-0.041,1.814,0.5,2.498
	c0.577,0.729,1.497,1.146,2.522,1.146c3.939,0,7.025-5.471,7.025-12.457c0-5.366-3.652-8.699-9.531-8.699
	c-7.444,0-11.462,5.731-11.462,11.123c0,1.793,0.455,3.165,1.433,4.315c0.598,0.712,0.849,1.264,0.567,2.316
	c-0.068,0.256-0.182,0.705-0.289,1.133l-0.228,0.895c-0.304,1.17-1.482,1.768-2.61,1.305c-3.636-1.482-5.806-5.444-5.806-10.595
	c0-8.263,7.14-16.811,19.087-16.811c10.656,0,17.023,7.881,17.023,15.5c0,10.63-6.164,18.345-14.656,18.345
	c-2.121,0-4.243-0.789-5.692-2.02c-0.459,1.813-1.109,4.369-1.306,5.088c-0.989,3.588-3.609,7.182-4.689,8.561
	C19.746,51.188,19.358,51.377,18.938,51.377z M26.015,17.133c-2.175,0-3.878,2.438-3.878,5.552c0,2.099,0.694,3.549,0.702,3.563
	l0.156,0.321l-0.08,0.351l-3.253,13.79c-0.482,2.037-0.573,4.701-0.27,7.619c1.183-1.664,2.748-4.176,3.425-6.633
	c0.302-1.102,1.759-6.877,1.773-6.936l0.64-2.535l1.216,2.314c0.676,1.287,2.842,2.619,5.297,2.619
	c7.451,0,12.656-6.721,12.656-16.345c0-6.636-5.619-13.5-15.023-13.5c-11.786,0-17.087,8.661-17.087,14.811
	c0,4.34,1.637,7.511,4.493,8.716l0.211-0.809c0.11-0.438,0.227-0.9,0.297-1.161c0.045-0.169,0.05-0.231,0.051-0.248
	c-0.008,0.013-0.041-0.056-0.214-0.261c-1.281-1.508-1.905-3.343-1.905-5.606c0-7.481,5.787-13.123,13.462-13.123
	c7.005,0,11.531,4.2,11.531,10.699c0,8.242-3.879,14.457-9.025,14.457c-1.641,0-3.132-0.693-4.09-1.904
	c-0.929-1.174-1.24-2.666-0.878-4.201c0.283-1.195,0.658-2.408,1.021-3.582c0.61-1.977,1.187-3.844,1.187-5.169
	C28.428,19.091,28.193,17.133,26.015,17.133z"/>
</svg>
