<?xml version="1.0" encoding="utf-8"?>
<!-- Generator: Adobe Illustrator 15.1.0, SVG Export Plug-In . SVG Version: 6.00 Build 0)  -->
<!DOCTYPE svg PUBLIC "-//W3C//DTD SVG 1.1//EN" "http://www.w3.org/Graphics/SVG/1.1/DTD/svg11.dtd">
<svg version="1.1" id="Layer_1" xmlns="http://www.w3.org/2000/svg" xmlns:xlink="http://www.w3.org/1999/xlink" x="0px" y="0px"
	 width="56.69px" height="56.69px" viewBox="0 0 56.69 56.69" enable-background="new 0 0 56.69 56.69" xml:space="preserve">
<path d="M47.29,3.699H9.4c-3.859,0-7,3.141-7,7v26.685v2v6.607c0,3.859,3.141,7,7,7h37.89c3.859,0,7-3.141,7-7v-6.607v-2V10.699
	C54.29,6.84,51.149,3.699,47.29,3.699z M52.29,45.991c0,2.757-2.243,5-5,5H9.4c-2.757,0-5-2.243-5-5v-6.607h47.89V45.991z
	 M4.4,37.384V10.699c0-2.757,2.243-5,5-5h37.89c2.757,0,5,2.243,5,5v26.685H4.4z M28.346,8.574c-5.659,0-10.247,4.588-10.247,10.247
	s4.588,10.246,10.247,10.246s10.246-4.587,10.246-10.246S34.005,8.574,28.346,8.574z M28.346,27.067
	c-4.548,0-8.247-3.699-8.247-8.246s3.699-8.247,8.247-8.247c4.547,0,8.246,3.7,8.246,8.247S32.893,27.067,28.346,27.067z
	 M14.46,25.89c0,1.754-1.422,3.178-3.177,3.178s-3.178-1.424-3.178-3.178s1.423-3.177,3.178-3.177S14.46,24.136,14.46,25.89z
	 M48.585,25.618c0,1.754-1.423,3.178-3.177,3.178c-1.756,0-3.178-1.424-3.178-3.178c0-1.756,1.422-3.178,3.178-3.178
	C47.162,22.44,48.585,23.862,48.585,25.618z M15.343,16.707v2.617c0,0.553-0.447,1-1,1H7.882c-0.553,0-1-0.447-1-1v-2.617
	c0-0.552,0.447-1,1-1h6.461C14.896,15.707,15.343,16.155,15.343,16.707z M10.089,45.188c0-0.828,0.672-1.5,1.5-1.5h33.512
	c0.828,0,1.5,0.672,1.5,1.5s-0.672,1.5-1.5,1.5H11.589C10.761,46.688,10.089,46.017,10.089,45.188z M49.468,9.574v6
	c0,0.553-0.447,1-1,1h-6c-0.553,0-1-0.447-1-1v-6c0-0.552,0.447-1,1-1h6C49.021,8.574,49.468,9.022,49.468,9.574z"/>
</svg>
