<?xml version="1.0" encoding="utf-8"?>
<!-- Generator: Adobe Illustrator 15.1.0, SVG Export Plug-In . SVG Version: 6.00 Build 0)  -->
<!DOCTYPE svg PUBLIC "-//W3C//DTD SVG 1.1//EN" "http://www.w3.org/Graphics/SVG/1.1/DTD/svg11.dtd">
<svg version="1.1" id="Layer_1" xmlns="http://www.w3.org/2000/svg" xmlns:xlink="http://www.w3.org/1999/xlink" x="0px" y="0px"
	 width="56.689px" height="56.689px" viewBox="0 0 56.689 56.689" enable-background="new 0 0 56.689 56.689" xml:space="preserve">
<path d="M53.303,9.614c0-3.313-2.688-6-6-6H9.385c-3.313,0-6,2.687-6,6v25.583c0,0.434,0.06,0.85,0.148,1.254H3.518
	c0.011,0.049,0.031,0.092,0.043,0.141c0.009,0.035,0.012,0.074,0.021,0.109h0.012c0.671,2.582,3,4.496,5.791,4.496h12.057
	l-9.318,9.318c-0.586,0.586-0.586,1.535,0,2.121s1.535,0.586,2.121,0l11.049-11.047c0.115-0.115,0.189-0.254,0.26-0.393h1.291
	v10.379c0,0.828,0.672,1.5,1.5,1.5s1.5-0.672,1.5-1.5V41.196h1.291c0.07,0.139,0.145,0.277,0.26,0.393l11.049,11.047
	c0.586,0.586,1.535,0.586,2.121,0s0.586-1.535,0-2.121l-9.318-9.318h12.057c2.789,0,5.12-1.914,5.789-4.496h0.012
	c0.01-0.035,0.014-0.074,0.021-0.109c0.012-0.049,0.033-0.092,0.043-0.141h-0.015c0.089-0.404,0.149-0.82,0.149-1.254V9.614z
	 M5.385,9.614c0-2.206,1.794-4,4-4h37.918c2.206,0,4,1.794,4,4V34.7H5.385V9.614z M45.542,11.947l1.855,2.355L28.1,29.503
	l-7.275-7.277l-9.711,7.226l-1.791-2.406l11.79-8.773l7.225,7.224L45.542,11.947z"/>
</svg>
