<?xml version="1.0" encoding="utf-8"?>
<!-- Generator: Adobe Illustrator 15.1.0, SVG Export Plug-In . SVG Version: 6.00 Build 0)  -->
<!DOCTYPE svg PUBLIC "-//W3C//DTD SVG 1.1//EN" "http://www.w3.org/Graphics/SVG/1.1/DTD/svg11.dtd">
<svg version="1.1" id="Layer_1" xmlns="http://www.w3.org/2000/svg" xmlns:xlink="http://www.w3.org/1999/xlink" x="0px" y="0px"
	 width="56.69px" height="56.69px" viewBox="0 0 56.69 56.69" enable-background="new 0 0 56.69 56.69" xml:space="preserve">
<path d="M23.005,12.133c-6.724,0-12.193,5.469-12.193,12.191s5.47,12.191,12.193,12.191c6.722,0,12.189-5.469,12.189-12.191
	S29.727,12.133,23.005,12.133z M23.005,34.516c-5.629,0-10.193-4.563-10.193-10.191s4.564-10.191,10.193-10.191
	c5.627,0,10.189,4.563,10.189,10.191S28.632,34.516,23.005,34.516z M48.997,22.214c0,1.202-0.975,2.177-2.177,2.177
	c-1.203,0-2.178-0.975-2.178-2.177s0.975-2.178,2.178-2.178C48.022,20.036,48.997,21.012,48.997,22.214z M47.29,15.102h-9.859
	c-3.145-4.901-8.62-7.923-14.428-7.923c-5.832,0-11.327,3.046-14.467,7.983C5.055,15.588,2.4,18.538,2.4,22.102v14.928
	c0,3.767,2.99,6.848,6.722,6.994v1.855c0,2.003,1.63,3.633,3.633,3.633s3.633-1.63,3.633-3.633v-1.85h25.445v1.85
	c0,2.003,1.63,3.633,3.633,3.633c2.004,0,3.634-1.63,3.634-3.633v-2.093c3.013-0.807,5.19-3.57,5.19-6.757V22.102
	C54.29,18.241,51.149,15.102,47.29,15.102z M52.29,37.029c0,2.488-1.859,4.615-4.325,4.948l-0.866,0.117l0.001,3.784
	c0,0.9-0.733,1.633-1.634,1.633s-1.633-0.732-1.633-1.633v-3.85H14.388v3.85c0,0.9-0.732,1.633-1.633,1.633
	s-1.633-0.732-1.633-1.633v-3.85H9.4c-2.757,0-5-2.243-5-5V22.102c0-2.675,2.095-4.865,4.77-4.987l0.538-0.024l0.275-0.464
	c2.729-4.594,7.718-7.447,13.02-7.447c5.297,0,10.282,2.849,13.011,7.434l0.291,0.489H47.29c2.757,0,5,2.243,5,5V37.029z"/>
</svg>
