<?xml version="1.0" encoding="utf-8"?>
<!-- Generator: Adobe Illustrator 15.1.0, SVG Export Plug-In . SVG Version: 6.00 Build 0)  -->
<!DOCTYPE svg PUBLIC "-//W3C//DTD SVG 1.1//EN" "http://www.w3.org/Graphics/SVG/1.1/DTD/svg11.dtd">
<svg version="1.1" id="Layer_1" xmlns="http://www.w3.org/2000/svg" xmlns:xlink="http://www.w3.org/1999/xlink" x="0px" y="0px"
	 width="56.69px" height="56.69px" viewBox="0 0 56.69 56.69" enable-background="new 0 0 56.69 56.69" xml:space="preserve">
<path d="M18.571,49.178c0,0.967-0.784,1.75-1.751,1.75c-0.969,0-1.752-0.783-1.752-1.75c0-0.969,0.783-1.752,1.752-1.752
	C17.787,47.426,18.571,48.209,18.571,49.178z M54.867,14.335v17.009c0,2.752-2.236,4.99-4.988,4.99H35.412l-3.596,2.484V48.9
	c0,3.541-2.881,6.424-6.424,6.424H8.248c-3.543,0-6.425-2.883-6.425-6.424V7.79c0-3.542,2.882-6.424,6.425-6.424h17.145
	c3.543,0,6.424,2.882,6.424,6.424v1.557h18.063C52.631,9.347,54.867,11.584,54.867,14.335z M3.823,7.79v3.138h17.222
	c0.91-0.968,2.193-1.582,3.624-1.582h5.148V7.79c0-2.444-1.981-4.424-4.424-4.424H8.248C5.803,3.366,3.823,5.346,3.823,7.79z
	 M19.68,31.344V14.335c0-0.492,0.094-0.958,0.227-1.407H3.823v30.083h20.999l0.048-6.678h-0.201
	C21.917,36.334,19.68,34.096,19.68,31.344z M29.816,48.9v-3.889H3.823V48.9c0,2.443,1.98,4.424,4.425,4.424h17.145
	C27.835,53.324,29.816,51.344,29.816,48.9z M29.816,40.199l-4.07,2.813h4.07V40.199z M52.867,14.335c0-1.648-1.34-2.988-2.988-2.988
	h-25.21c-1.647,0-2.988,1.34-2.988,2.988v17.009c0,1.648,1.341,2.99,2.988,2.99h2.217l-0.041,5.488l7.945-5.488h15.09
	c1.648,0,2.988-1.342,2.988-2.99V14.335z M13.779,7.678h6.082c0.438,0,0.792-0.354,0.792-0.792c0-0.437-0.354-0.792-0.792-0.792
	h-6.082c-0.438,0-0.793,0.354-0.793,0.792C12.986,7.324,13.341,7.678,13.779,7.678z M27.049,18.261h20.449v-2H27.049V18.261z
	 M27.049,23.886h20.449v-2H27.049V23.886z M27.049,29.512h15.128v-2H27.049V29.512z"/>
</svg>
