<?xml version="1.0" encoding="utf-8"?>
<!-- Generator: Adobe Illustrator 15.1.0, SVG Export Plug-In . SVG Version: 6.00 Build 0)  -->
<!DOCTYPE svg PUBLIC "-//W3C//DTD SVG 1.1//EN" "http://www.w3.org/Graphics/SVG/1.1/DTD/svg11.dtd">
<svg version="1.1" id="Layer_1" xmlns="http://www.w3.org/2000/svg" xmlns:xlink="http://www.w3.org/1999/xlink" x="0px" y="0px"
	 width="56.69px" height="56.69px" viewBox="0 0 56.69 56.69" enable-background="new 0 0 56.69 56.69" xml:space="preserve">
<path d="M49.29,15.494h-5.084L12.526,5.3c-0.202-0.983-1.072-1.723-2.115-1.723c-1.194,0-2.162,0.968-2.162,2.161
	c0,1.194,0.968,2.162,2.162,2.162c0.617,0,1.17-0.262,1.563-0.677l25.7,8.271H7.4c-2.757,0-5,2.243-5,5v27.619c0,2.757,2.243,5,5,5
	h41.89c2.757,0,5-2.243,5-5V20.494C54.29,17.737,52.047,15.494,49.29,15.494z M52.29,48.113c0,1.654-1.346,3-3,3H7.4
	c-1.654,0-3-1.346-3-3V20.494c0-1.654,1.346-3,3-3h41.89c1.654,0,3,1.346,3,3V48.113z M7.499,21.613h41v9.875H17.851V25.52
	c0-0.466-0.378-0.844-0.844-0.844s-0.844,0.378-0.844,0.844v5.969H7.499V21.613z M10.999,36.301v10.75c0,0.828-0.672,1.5-1.5,1.5
	s-1.5-0.672-1.5-1.5v-10.75c0-0.828,0.672-1.5,1.5-1.5S10.999,35.473,10.999,36.301z M16.424,36.301v10.75
	c0,0.828-0.672,1.5-1.5,1.5s-1.5-0.672-1.5-1.5v-10.75c0-0.828,0.672-1.5,1.5-1.5S16.424,35.473,16.424,36.301z M21.849,36.301
	v10.75c0,0.828-0.672,1.5-1.5,1.5s-1.5-0.672-1.5-1.5v-10.75c0-0.828,0.672-1.5,1.5-1.5S21.849,35.473,21.849,36.301z
	 M27.274,36.301v10.75c0,0.828-0.672,1.5-1.5,1.5s-1.5-0.672-1.5-1.5v-10.75c0-0.828,0.672-1.5,1.5-1.5S27.274,35.473,27.274,36.301
	z M32.699,36.301v10.75c0,0.828-0.672,1.5-1.5,1.5s-1.5-0.672-1.5-1.5v-10.75c0-0.828,0.672-1.5,1.5-1.5
	S32.699,35.473,32.699,36.301z M38.124,36.301v10.75c0,0.828-0.672,1.5-1.5,1.5s-1.5-0.672-1.5-1.5v-10.75
	c0-0.828,0.672-1.5,1.5-1.5S38.124,35.473,38.124,36.301z M48.499,37.988c0,1.761-1.427,3.188-3.188,3.188s-3.188-1.427-3.188-3.188
	s1.427-3.188,3.188-3.188S48.499,36.228,48.499,37.988z M47.999,45.863c0,1.484-1.203,2.688-2.688,2.688s-2.688-1.203-2.688-2.688
	s1.203-2.688,2.688-2.688S47.999,44.379,47.999,45.863z"/>
</svg>
