<?xml version="1.0" encoding="utf-8"?>
<!-- Generator: Adobe Illustrator 15.1.0, SVG Export Plug-In . SVG Version: 6.00 Build 0)  -->
<!DOCTYPE svg PUBLIC "-//W3C//DTD SVG 1.1//EN" "http://www.w3.org/Graphics/SVG/1.1/DTD/svg11.dtd">
<svg version="1.1" id="Layer_1" xmlns="http://www.w3.org/2000/svg" xmlns:xlink="http://www.w3.org/1999/xlink" x="0px" y="0px"
	 width="56.69px" height="56.69px" viewBox="0 0 56.69 56.69" enable-background="new 0 0 56.69 56.69" xml:space="preserve">
<path d="M16.761,22.66c0.118,0.049,0.24,0.093,0.362,0.136l0.249,0.091c0.1,0.038,0.199,0.075,0.305,0.108
	c0.968,0.301,1.979,0.456,3.006,0.458h0.002c0.346,0,0.687-0.019,1.011-0.052c0.123-0.011,0.246-0.031,0.369-0.052l0.194-0.03
	c0.15-0.02,0.301-0.041,0.452-0.073c0.099-0.021,0.195-0.046,0.29-0.071l0.238-0.06c0.144-0.034,0.288-0.069,0.443-0.118
	c0.073-0.024,0.145-0.051,0.217-0.078l0.211-0.076c0.162-0.056,0.324-0.113,0.481-0.179c0.068-0.028,0.133-0.06,0.249-0.118
	c0.214-0.095,0.427-0.193,0.661-0.319l0.118-0.073c0.235-0.133,0.467-0.27,0.69-0.417l0.091-0.064
	c2.729-1.882,4.358-4.975,4.363-8.303c0-5.56-4.522-10.083-10.082-10.083c-5.306,0-9.721,4.15-10.052,9.449l-0.009,0.133
	c-0.012,0.166-0.022,0.331-0.022,0.501C10.6,17.431,13.017,21.076,16.761,22.66z M12.617,13.009l0.01-0.148
	c0.266-4.247,3.804-7.573,8.056-7.573c4.456,0,8.082,3.626,8.082,8.092c-0.004,2.679-1.332,5.178-3.505,6.653l-0.096,0.064
	c-0.171,0.111-0.348,0.214-0.529,0.316l-0.103,0.065c-0.163,0.086-0.333,0.164-0.517,0.246l-0.196,0.096
	c-0.118,0.049-0.242,0.091-0.364,0.134l-0.381,0.138c-0.097,0.03-0.196,0.053-0.296,0.077l-0.294,0.074
	c-0.062,0.017-0.124,0.034-0.185,0.046c-0.101,0.021-0.203,0.034-0.306,0.047l-0.272,0.042c-0.067,0.012-0.135,0.025-0.216,0.032
	c-0.271,0.027-0.543,0.042-0.819,0.042c-0.827-0.002-1.639-0.125-2.41-0.366c-0.066-0.021-0.13-0.045-0.193-0.07l-0.293-0.106
	c-0.087-0.031-0.174-0.062-0.254-0.095c-2.999-1.269-4.937-4.191-4.937-7.445C12.6,13.249,12.608,13.128,12.617,13.009z
	 M38.064,25.405c-2.767,0-5.341,0.817-7.515,2.207c-2.821-2.219-6.297-3.446-9.887-3.446c-8.843,0-16.036,7.193-16.036,16.036
	c0,0.146,0.009,0.289,0.018,0.434l0.049,1.17h19.594c1.144,6.576,6.878,11.597,13.776,11.597c7.719,0,13.999-6.28,13.999-13.999
	S45.783,25.405,38.064,25.405z M24.072,39.806H6.632c0.211-7.557,6.424-13.64,14.031-13.64c2.961,0,5.84,0.944,8.229,2.68
	c-0.047,0.041-0.087,0.088-0.133,0.129c-0.299,0.267-0.586,0.543-0.86,0.833c-0.068,0.073-0.135,0.148-0.202,0.223
	c-0.263,0.291-0.514,0.592-0.753,0.904c-0.056,0.073-0.11,0.146-0.164,0.221c-0.241,0.328-0.466,0.667-0.678,1.016
	c-0.038,0.063-0.078,0.125-0.115,0.188c-0.216,0.369-0.414,0.749-0.597,1.139c-0.023,0.05-0.049,0.099-0.071,0.148
	c-0.183,0.404-0.347,0.817-0.491,1.24c-0.015,0.042-0.031,0.083-0.046,0.125c-0.14,0.422-0.258,0.852-0.357,1.29
	c-0.011,0.047-0.026,0.093-0.036,0.14c-0.092,0.423-0.16,0.854-0.213,1.29c-0.008,0.062-0.021,0.121-0.027,0.183
	c-0.053,0.49-0.082,0.986-0.082,1.489C24.066,39.537,24.068,39.671,24.072,39.806z M38.064,51.402
	c-6.18,0-11.28-4.697-11.926-10.709c-0.049-0.448-0.072-0.871-0.072-1.29c0-0.456,0.03-0.909,0.082-1.357
	c0.012-0.101,0.032-0.198,0.046-0.298c0.051-0.357,0.112-0.713,0.194-1.063c0.021-0.091,0.046-0.18,0.069-0.27
	c0.096-0.367,0.206-0.73,0.336-1.087c0.021-0.061,0.044-0.121,0.066-0.182c0.157-0.41,0.332-0.813,0.532-1.202
	c0.002-0.004,0.004-0.009,0.007-0.013c0.429-0.834,0.956-1.618,1.571-2.334c0.005-0.006,0.011-0.012,0.016-0.018
	c0.286-0.332,0.594-0.647,0.918-0.948c0.047-0.044,0.094-0.087,0.142-0.13c0.307-0.276,0.629-0.539,0.966-0.785
	c0.075-0.055,0.147-0.114,0.224-0.167l0.16-0.115c1.908-1.28,4.202-2.03,6.669-2.03c6.616,0,11.999,5.382,11.999,11.998
	S44.681,51.402,38.064,51.402z M44.99,35.032c0.649,0.65,0.649,1.706,0,2.355l-7.313,7.313c-0.636,0.633-1.651,0.644-2.305,0.042
	l-0.005,0.005l-4.227-4.228c-0.651-0.649-0.651-1.705,0-2.354c0.65-0.651,1.705-0.651,2.354,0l3.002,3.002l6.136-6.136
	C43.283,34.382,44.338,34.382,44.99,35.032z"/>
</svg>
