<?xml version="1.0" encoding="utf-8"?>
<!-- Generator: Adobe Illustrator 15.1.0, SVG Export Plug-In . SVG Version: 6.00 Build 0)  -->
<!DOCTYPE svg PUBLIC "-//W3C//DTD SVG 1.1//EN" "http://www.w3.org/Graphics/SVG/1.1/DTD/svg11.dtd">
<svg version="1.1" id="Layer_1" xmlns="http://www.w3.org/2000/svg" xmlns:xlink="http://www.w3.org/1999/xlink" x="0px" y="0px"
	 width="56.69px" height="56.69px" viewBox="0 0 56.69 56.69" enable-background="new 0 0 56.69 56.69" xml:space="preserve">
<path d="M52.039,17.499c0.553,0,1-0.448,1-1v-5.5c0-0.552-0.447-1-1-1h-1.332v-2.64c0-2.757-2.244-5-5-5H17.735V2.333H8.651
	c-2.757,0-5,2.243-5,5v42c0,2.756,2.243,5,5,5h3.848v0.002c0.096,0.014,0.191,0.023,0.291,0.023h32.917c2.756,0,5-2.242,5-5V35.873
	h1.332c0.553,0,1-0.447,1-1v-5.5c0-0.552-0.447-1-1-1h-1.332v-1.875h1.332c0.553,0,1-0.447,1-1v-5.5c0-0.553-0.447-1-1-1h-1.332
	v-1.5H52.039z M8.651,52.332c-1.654,0-3-1.346-3-3v-42c0-1.654,1.346-3,3-3h7.084v48h-3.207l0,0H8.651z M48.707,49.357
	c0,1.654-1.346,3-3,3l-27.972-0.004V4.359h27.972c1.654,0,3,1.346,3,3V49.357z M35.146,27.637c1.881-0.816,3.201-2.688,3.201-4.866
	c0-2.927-2.381-5.308-5.307-5.308s-5.308,2.381-5.308,5.308c0,2.17,1.314,4.034,3.183,4.855c-3.481,0.86-6.128,3.817-6.47,7.549
	l-0.045,0.488L24.76,36c2.255,2.098,5.185,3.254,8.25,3.254c3.063,0,5.992-1.156,8.248-3.254l0.361-0.336l-0.045-0.488
	C41.232,31.459,38.607,28.512,35.146,27.637z M29.732,22.771c0-1.824,1.484-3.308,3.309-3.308s3.307,1.484,3.307,3.308
	c0,1.823-1.482,3.307-3.307,3.307S29.732,24.594,29.732,22.771z M33.01,37.254c-2.391,0-4.682-0.844-6.509-2.385
	c0.524-3.17,3.242-5.504,6.509-5.504s5.984,2.334,6.51,5.504C37.691,36.41,35.398,37.254,33.01,37.254z"/>
</svg>
