<?xml version="1.0" encoding="utf-8"?>
<!-- Generator: Adobe Illustrator 15.1.0, SVG Export Plug-In . SVG Version: 6.00 Build 0)  -->
<!DOCTYPE svg PUBLIC "-//W3C//DTD SVG 1.1//EN" "http://www.w3.org/Graphics/SVG/1.1/DTD/svg11.dtd">
<svg version="1.1" id="Layer_1" xmlns="http://www.w3.org/2000/svg" xmlns:xlink="http://www.w3.org/1999/xlink" x="0px" y="0px"
	 width="56.69px" height="56.69px" viewBox="0 0 56.69 56.69" enable-background="new 0 0 56.69 56.69" xml:space="preserve">
<path d="M49.229,3.4H7.462c-1.654,0-3,1.346-3,3v41.766c0,1.654,1.346,3,3,3h2.416v1.124c0,0.553,0.447,1,1,1h5.833
	c0.552,0,1-0.447,1-1v-1.124h21.267v1.124c0,0.553,0.447,1,1,1h5.832c0.553,0,1-0.447,1-1v-1.124h2.418c1.654,0,3-1.346,3-3V6.4
	C52.229,4.746,50.883,3.4,49.229,3.4z M50.229,48.166c0,0.552-0.449,1-1,1H7.462c-0.552,0-1-0.448-1-1V6.4c0-0.551,0.448-1,1-1
	h41.766c0.551,0,1,0.449,1,1V48.166z M28.47,17.699c-5.293,0-9.583,4.291-9.583,9.583c0,5.294,4.29,9.583,9.583,9.583
	c5.293,0,9.583-4.289,9.583-9.583C38.053,21.99,33.764,17.699,28.47,17.699z M35.184,22.848l-1.701,1.7
	c0.443,0.813,0.695,1.744,0.695,2.734c0,3.153-2.555,5.71-5.708,5.71c-3.152,0-5.709-2.557-5.709-5.71
	c0-3.152,2.557-5.708,5.709-5.708c1.415,0,2.706,0.517,3.702,1.368l1.553-1.552c0.391-0.391,1.023-0.391,1.414,0l0.045,0.044
	C35.574,21.824,35.574,22.457,35.184,22.848z"/>
</svg>
