<?xml version="1.0" encoding="utf-8"?>
<!-- Generator: Adobe Illustrator 15.1.0, SVG Export Plug-In . SVG Version: 6.00 Build 0)  -->
<!DOCTYPE svg PUBLIC "-//W3C//DTD SVG 1.1//EN" "http://www.w3.org/Graphics/SVG/1.1/DTD/svg11.dtd">
<svg version="1.1" id="Layer_1" xmlns="http://www.w3.org/2000/svg" xmlns:xlink="http://www.w3.org/1999/xlink" x="0px" y="0px"
	 width="56.69px" height="56.69px" viewBox="0 0 56.69 56.69" enable-background="new 0 0 56.69 56.69" xml:space="preserve">
<path d="M15.232,36.503c-2.045,0-4.317,1.053-6.08,2.815c-1.371,1.371-2.318,3.052-2.666,4.734c-0.375,1.807,0.008,3.44,1.05,4.481
	c0.78,0.78,1.868,1.193,3.146,1.193c2.044,0,4.313-1.052,6.072-2.813c2.989-2.987,3.717-7.124,1.622-9.222
	C17.596,36.915,16.509,36.503,15.232,36.503z M15.34,45.501c-1.372,1.373-3.156,2.227-4.658,2.227c-0.514,0-1.23-0.105-1.732-0.607
	c-0.557-0.557-0.741-1.526-0.506-2.662c0.267-1.285,1.04-2.644,2.122-3.726c1.375-1.375,3.163-2.229,4.666-2.229
	c0.513,0,1.229,0.105,1.73,0.605C18.232,40.38,17.475,43.367,15.34,45.501z M49.907,37.019c-2.396-2.396-5.477-3.771-8.452-3.771
	c-2.01,0-3.84,0.658-5.202,1.86l-1.425-1.425l2.566-2.566l0.683-0.731l0,0l7.957-7.957c4.993-4.992,5.016-13.139,0.049-18.161
	l-0.707-0.715L28.31,20.618L11.244,3.552l-0.707,0.715c-4.966,5.021-4.944,13.168,0.049,18.161l7.957,7.957l-0.024,0.024l3.27,3.27
	l-1.351,1.352c-1.363-1.203-3.193-1.861-5.203-1.861c-2.975,0-6.055,1.375-8.451,3.771c-4.297,4.298-5.023,10.563-1.619,13.967
	c1.388,1.389,3.346,2.153,5.513,2.153c2.975,0,6.055-1.374,8.454-3.772c0.175-0.176,0.339-0.357,0.514-0.555
	c0.245-0.201,0.485-0.418,0.722-0.654l7.911-7.91l0.008,0.008l0.026-0.026l8.013,8.007c0.235,0.235,0.477,0.452,0.721,0.654
	c0.166,0.187,0.335,0.374,0.517,0.557c2.397,2.396,5.478,3.771,8.452,3.771c0.001,0,0.001,0,0.001,0
	c2.198,0,4.104-0.745,5.513-2.153C54.931,47.582,54.204,41.316,49.907,37.019z M19.957,28.971L12,21.014
	C8.022,17.036,7.78,10.688,11.285,6.42l15.611,15.611l-5.401,5.401L19.957,28.971z M18.952,46.665
	c-0.206,0.206-0.417,0.394-0.631,0.567l-0.138,0.134c-0.152,0.172-0.306,0.346-0.469,0.51c-2.024,2.023-4.59,3.185-7.038,3.185
	c-1.656,0-3.073-0.542-4.099-1.567c-2.624-2.624-1.897-7.621,1.619-11.139c2.024-2.024,4.589-3.186,7.037-3.186
	c1.656,0,3.074,0.542,4.103,1.57c0.099,0.098,0.186,0.205,0.315,0.362l0.701,0.841l4.263-4.264l-3.27-3.27l8.377-8.377l0,0
	L45.335,6.42c3.506,4.268,3.264,10.616-0.715,14.593L28.285,37.349l-0.008-0.008L18.952,46.665z M50.113,49.571
	c-1.025,1.025-2.442,1.567-4.099,1.567c-2.449,0-5.015-1.161-7.037-3.183c-0.166-0.167-0.319-0.341-0.489-0.532l-0.117-0.112
	c-0.215-0.174-0.426-0.362-0.633-0.568l-8.011-8.01l0.375-0.375l3.287-3.286l2.173,2.174l0.835,0.701l0.701-0.841
	c0.083-0.1,0.165-0.2,0.257-0.292c1.025-1.025,2.443-1.567,4.1-1.567c2.449,0,5.014,1.161,7.038,3.186
	C52.01,41.95,52.737,46.947,50.113,49.571z M50.205,44.131c-0.349-1.683-1.295-3.363-2.666-4.734
	c-1.763-1.763-4.036-2.815-6.081-2.815c-1.277,0-2.364,0.412-3.145,1.191c-2.094,2.097-1.366,6.232,1.622,9.221
	c1.759,1.761,4.028,2.813,6.072,2.813c1.278,0,2.366-0.413,3.146-1.193C50.196,47.571,50.579,45.938,50.205,44.131z M47.74,47.198
	c-0.502,0.502-1.219,0.607-1.732,0.607c-1.502,0-3.286-0.854-4.658-2.227c-2.134-2.134-2.892-5.121-1.622-6.392
	c0.501-0.501,1.218-0.606,1.73-0.606c1.504,0,3.292,0.854,4.667,2.229c1.082,1.082,1.855,2.44,2.121,3.726
	C48.481,45.671,48.297,46.642,47.74,47.198z M30.469,31.075l-3.27-3.27c0.29-0.116,0.605-0.185,0.938-0.185
	c1.389,0,2.517,1.127,2.517,2.517C30.653,30.47,30.585,30.785,30.469,31.075z M29.074,32.47c-0.29,0.117-0.606,0.186-0.938,0.186
	c-1.391,0-2.518-1.128-2.518-2.518c0-0.332,0.068-0.648,0.186-0.938L29.074,32.47z"/>
</svg>
