<?xml version="1.0" encoding="utf-8"?>
<!-- Generator: Adobe Illustrator 15.1.0, SVG Export Plug-In . SVG Version: 6.00 Build 0)  -->
<!DOCTYPE svg PUBLIC "-//W3C//DTD SVG 1.1//EN" "http://www.w3.org/Graphics/SVG/1.1/DTD/svg11.dtd">
<svg version="1.1" id="Layer_1" xmlns="http://www.w3.org/2000/svg" xmlns:xlink="http://www.w3.org/1999/xlink" x="0px" y="0px"
	 width="56.69px" height="56.69px" viewBox="0 0 56.69 56.69" enable-background="new 0 0 56.69 56.69" xml:space="preserve">
<path d="M51.442,5.199c-1.388-1.388-3.234-2.152-5.198-2.152s-3.81,0.764-5.197,2.152L28.054,18.194l0.503,0.691
	c0.281,0.387,0.271,0.898-0.01,1.266l-0.134-0.133c-1.156-1.158-3.176-1.16-4.334-0.001c-1.193,1.194-1.193,3.137,0,4.333
	l2.659,2.658L8.633,45.111l-3.091,0.739l-2.447,4.895l2.898,2.898l4.893-2.447l0.772-3.219l-0.048-0.049l18.025-18.025l2.659,2.658
	c0.578,0.578,1.348,0.897,2.166,0.897s1.588-0.319,2.166-0.897c0.578-0.579,0.896-1.349,0.896-2.166
	c0-0.818-0.319-1.588-0.897-2.166l-0.135-0.135c0.361-0.275,0.895-0.281,1.267-0.009l0.691,0.503l12.993-12.993
	c1.389-1.388,2.153-3.234,2.153-5.198C53.597,8.434,52.831,6.587,51.442,5.199z M50.028,14.181L38.153,26.056
	c-1.078-0.383-2.357-0.107-3.184,0.72c-0.307,0.308-0.541,0.683-0.698,1.114l-0.217,0.598l1.157,1.157
	c0.201,0.2,0.312,0.467,0.312,0.751c0,0.283-0.111,0.551-0.313,0.752c-0.4,0.402-1.1,0.402-1.502,0l-8.215-8.213
	c-0.415-0.415-0.415-1.09-0.001-1.504c0.201-0.202,0.469-0.313,0.754-0.313c0.283,0,0.55,0.11,0.751,0.312l1.158,1.158l0.599-0.219
	c0.433-0.158,0.807-0.393,1.112-0.698c0.855-0.855,1.109-2.093,0.72-3.182L42.461,6.613c1.011-1.01,2.354-1.566,3.783-1.566
	c0.805,0,1.573,0.193,2.279,0.527L34.268,19.831c-0.61,0.61-0.61,1.6,0,2.21c0.61,0.61,1.6,0.61,2.21,0L50.835,7.684
	c0.484,0.816,0.761,1.741,0.761,2.714C51.596,11.827,51.039,13.171,50.028,14.181z"/>
</svg>
