<?xml version="1.0" encoding="utf-8"?>
<!-- Generator: Adobe Illustrator 15.1.0, SVG Export Plug-In . SVG Version: 6.00 Build 0)  -->
<!DOCTYPE svg PUBLIC "-//W3C//DTD SVG 1.1//EN" "http://www.w3.org/Graphics/SVG/1.1/DTD/svg11.dtd">
<svg version="1.1" id="Layer_1" xmlns="http://www.w3.org/2000/svg" xmlns:xlink="http://www.w3.org/1999/xlink" x="0px" y="0px"
	 width="56.69px" height="56.69px" viewBox="0 0 56.69 56.69" enable-background="new 0 0 56.69 56.69" xml:space="preserve">
<path d="M33.358,22.581v2H14.191v-2H33.358z M52.45,52.157l-0.354,0.354c-1.146,1.145-2.668,1.775-4.287,1.775
	s-3.142-0.631-4.287-1.775L33.439,42.428c-2.924,1.523-6.238,2.398-9.757,2.398c-11.698,0-21.215-9.515-21.215-21.21
	c0-11.696,9.517-21.212,21.215-21.212c11.694,0,21.208,9.516,21.208,21.212c0,3.586-0.902,6.963-2.479,9.928L52.45,43.583
	C54.813,45.948,54.813,49.795,52.45,52.157z M23.683,42.826c3.911,0,7.548-1.181,10.586-3.196c0.176-0.117,0.345-0.243,0.517-0.366
	c0.268-0.19,0.532-0.387,0.79-0.591c0.18-0.143,0.359-0.285,0.533-0.434c0.308-0.262,0.604-0.533,0.894-0.813
	c0.206-0.198,0.403-0.403,0.6-0.61c0.215-0.228,0.427-0.457,0.631-0.694c0.169-0.197,0.336-0.397,0.497-0.602
	c0.174-0.219,0.339-0.445,0.503-0.672c0.258-0.356,0.503-0.722,0.736-1.097c0.173-0.276,0.351-0.551,0.509-0.837l0.112-0.192
	c1.466-2.712,2.301-5.813,2.301-9.106c0-10.593-8.616-19.212-19.208-19.212c-10.595,0-19.215,8.619-19.215,19.212
	C4.468,34.209,13.088,42.826,23.683,42.826z M51.036,44.997l-9.681-9.681c-1.195,1.8-2.657,3.406-4.33,4.766
	c-0.096,0.077-0.199,0.146-0.296,0.221c-0.459,0.36-0.928,0.707-1.415,1.028c-0.028,0.02-0.055,0.042-0.083,0.061l9.705,9.705
	c0.768,0.767,1.788,1.189,2.873,1.189s2.105-0.423,2.873-1.189l0.354-0.354C52.619,49.16,52.619,46.582,51.036,44.997z"/>
</svg>
