<?xml version="1.0" encoding="utf-8"?>
<!-- Generator: Adobe Illustrator 15.1.0, SVG Export Plug-In . SVG Version: 6.00 Build 0)  -->
<!DOCTYPE svg PUBLIC "-//W3C//DTD SVG 1.1//EN" "http://www.w3.org/Graphics/SVG/1.1/DTD/svg11.dtd">
<svg version="1.1" id="Layer_1" xmlns="http://www.w3.org/2000/svg" xmlns:xlink="http://www.w3.org/1999/xlink" x="0px" y="0px"
	 width="56.69px" height="56.69px" viewBox="0 0 56.69 56.69" enable-background="new 0 0 56.69 56.69" xml:space="preserve">
<path d="M52.45,43.583L42.411,33.544c1.577-2.965,2.479-6.342,2.479-9.928c0-11.696-9.514-21.212-21.208-21.212
	c-11.698,0-21.215,9.516-21.215,21.212c0,11.695,9.517,21.21,21.215,21.21c3.519,0,6.833-0.875,9.757-2.398l10.083,10.083
	c1.146,1.145,2.668,1.775,4.287,1.775s3.142-0.631,4.287-1.775l0.354-0.354C54.813,49.795,54.813,45.948,52.45,43.583z
	 M4.468,23.616c0-10.593,8.62-19.212,19.215-19.212c10.592,0,19.208,8.619,19.208,19.212c0,3.293-0.835,6.395-2.301,9.106
	l-0.112,0.192c-0.158,0.286-0.336,0.561-0.509,0.837c-0.233,0.375-0.479,0.74-0.736,1.097c-0.164,0.227-0.329,0.453-0.503,0.672
	c-0.161,0.204-0.328,0.404-0.497,0.602c-0.204,0.237-0.416,0.467-0.631,0.694c-0.196,0.207-0.394,0.412-0.6,0.61
	c-0.289,0.279-0.586,0.551-0.894,0.813c-0.174,0.148-0.354,0.291-0.533,0.434c-0.258,0.204-0.522,0.4-0.79,0.591
	c-0.172,0.123-0.341,0.249-0.517,0.366c-3.038,2.016-6.675,3.196-10.586,3.196C13.088,42.826,4.468,34.209,4.468,23.616z
	 M51.036,50.743l-0.354,0.354c-0.768,0.767-1.788,1.189-2.873,1.189s-2.105-0.423-2.873-1.189l-9.705-9.705
	c0.028-0.019,0.055-0.041,0.083-0.061c0.487-0.321,0.956-0.668,1.415-1.028c0.097-0.075,0.2-0.144,0.296-0.221
	c1.673-1.359,3.135-2.966,4.33-4.766l9.681,9.681C52.619,46.582,52.619,49.16,51.036,50.743z"/>
</svg>
