<?xml version="1.0" encoding="utf-8"?>
<!-- Generator: Adobe Illustrator 15.1.0, SVG Export Plug-In . SVG Version: 6.00 Build 0)  -->
<!DOCTYPE svg PUBLIC "-//W3C//DTD SVG 1.1//EN" "http://www.w3.org/Graphics/SVG/1.1/DTD/svg11.dtd">
<svg version="1.1" id="Layer_1" xmlns="http://www.w3.org/2000/svg" xmlns:xlink="http://www.w3.org/1999/xlink" x="0px" y="0px"
	 width="56.69px" height="56.69px" viewBox="0 0 56.69 56.69" enable-background="new 0 0 56.69 56.69" xml:space="preserve">
<path d="M52.262,23.215h-4.416c-0.449-1.695-1.122-3.321-2.008-4.852l3.175-3.175c0.778-0.78,0.778-2.048-0.001-2.828l-4.428-4.428
	c-0.755-0.755-2.072-0.757-2.829,0l-3.153,3.153c-1.557-0.912-3.214-1.603-4.946-2.062V4.429c0-1.103-0.897-2-2-2h-6.263
	c-1.103,0-2,0.897-2,2v4.594c-1.76,0.466-3.44,1.17-5.014,2.1l-3.317-3.317c-0.756-0.756-2.072-0.756-2.828,0l-4.428,4.428
	c-0.78,0.78-0.78,2.048,0,2.828l3.368,3.368c-0.869,1.513-1.529,3.117-1.972,4.785H4.429c-1.103,0-2,0.897-2,2v6.262
	c0,1.103,0.897,2,2,2h4.772c0.459,1.73,1.15,3.389,2.063,4.946l-3.332,3.331c-0.378,0.378-0.586,0.881-0.585,1.416
	c0,0.534,0.208,1.036,0.585,1.412l4.429,4.43c0.756,0.756,2.072,0.756,2.828,0l3.354-3.354c1.53,0.886,3.155,1.559,4.851,2.008
	v4.596c0,1.103,0.897,2,2,2h6.263c1.103,0,2-0.897,2-2v-4.596c1.669-0.442,3.272-1.103,4.783-1.971l3.19,3.19
	c0.757,0.755,2.071,0.754,2.828-0.001l4.428-4.428c0.78-0.779,0.78-2.049,0-2.828l-3.138-3.138c0.93-1.574,1.633-3.255,2.1-5.015
	h4.415c1.103,0,2-0.897,2-2v-6.262C54.262,24.112,53.364,23.215,52.262,23.215z M52.262,31.477h-6.004l-0.174,0.783
	c-0.46,2.076-1.282,4.04-2.443,5.836l-0.438,0.679l4.269,4.269l-4.429,4.428l-4.305-4.306l-0.676,0.424
	c-1.745,1.096-3.638,1.875-5.623,2.315l-0.783,0.174l0.002,6.184h-6.265v-6.184l-0.783-0.174c-2.012-0.446-3.924-1.237-5.686-2.353
	l-0.677-0.429l-4.473,4.475l-4.429-4.43l4.459-4.457l-0.435-0.678c-1.143-1.785-1.953-3.728-2.406-5.773l-0.174-0.783H4.429v-6.262
	h6.361l0.174-0.783c0.439-1.984,1.219-3.876,2.315-5.625l0.424-0.675L9.22,13.648l4.428-4.428l4.448,4.448l0.679-0.438
	c1.796-1.161,3.759-1.983,5.835-2.444l0.783-0.174V4.429h6.263v6.183l0.783,0.173c2.048,0.454,3.99,1.264,5.772,2.406l0.678,0.435
	l4.28-4.28l4.429,4.429l-4.294,4.294l0.428,0.676c1.115,1.763,1.907,3.676,2.353,5.687l0.174,0.783h6.004V31.477z M28.524,18.053
	c-5.676,0-10.293,4.617-10.293,10.293c0,5.675,4.617,10.291,10.293,10.291c5.675,0,10.292-4.616,10.292-10.291
	C38.816,22.67,34.199,18.053,28.524,18.053z M28.524,36.637c-4.573,0-8.293-3.72-8.293-8.291c0-4.573,3.72-8.293,8.293-8.293
	c4.572,0,8.292,3.72,8.292,8.293C36.816,32.917,33.097,36.637,28.524,36.637z"/>
</svg>
