<?xml version="1.0" encoding="utf-8"?>
<!-- Generator: Adobe Illustrator 15.1.0, SVG Export Plug-In . SVG Version: 6.00 Build 0)  -->
<!DOCTYPE svg PUBLIC "-//W3C//DTD SVG 1.1//EN" "http://www.w3.org/Graphics/SVG/1.1/DTD/svg11.dtd">
<svg version="1.1" id="Layer_1" xmlns="http://www.w3.org/2000/svg" xmlns:xlink="http://www.w3.org/1999/xlink" x="0px" y="0px"
	 width="56.69px" height="56.69px" viewBox="0 0 56.69 56.69" enable-background="new 0 0 56.69 56.69" xml:space="preserve">
<path d="M28.489,19.106c-1.181-2.964-4.005-4.88-7.195-4.88c-0.98,0-1.943,0.185-2.861,0.551c-1.922,0.766-3.431,2.234-4.248,4.133
	c-0.817,1.9-0.846,4.004-0.08,5.925c1.179,2.965,4.003,4.881,7.193,4.881c0.981,0,1.945-0.187,2.864-0.553
	C28.127,27.584,30.068,23.072,28.489,19.106z M23.421,27.307c-0.683,0.271-1.397,0.41-2.124,0.41c-2.366,0-4.461-1.421-5.336-3.62
	c-0.567-1.426-0.547-2.986,0.06-4.396c0.606-1.409,1.726-2.498,3.151-3.065c0.682-0.271,1.396-0.409,2.121-0.409
	c2.366,0,4.461,1.421,5.338,3.62C27.802,22.788,26.363,26.134,23.421,27.307z M31.535,37.885c0.182-0.424,0.188-0.893,0.017-1.319
	l-1.155-2.9c0.902-0.69,1.721-1.485,2.445-2.373l2.816,1.211c0.854,0.371,1.903-0.055,2.265-0.904l1.797-4.172
	c0.376-0.872-0.027-1.889-0.902-2.269l-2.764-1.188c0.169-1.197,0.189-2.403,0.062-3.599l2.781-1.107
	c0.429-0.17,0.765-0.497,0.947-0.92s0.189-0.893,0.019-1.322L38.181,12.8c-0.344-0.864-1.367-1.312-2.242-0.965l-2.781,1.108
	c-0.703-0.919-1.512-1.75-2.415-2.482l1.203-2.798c0.183-0.423,0.189-0.892,0.02-1.32c-0.17-0.429-0.497-0.766-0.922-0.949
	l-4.171-1.795c-0.851-0.368-1.901,0.049-2.271,0.902L23.407,7.28c-1.176-0.16-2.364-0.18-3.542-0.057l-1.157-2.905
	c-0.348-0.864-1.374-1.305-2.24-0.962l-4.223,1.682c-0.429,0.171-0.766,0.499-0.947,0.922s-0.187,0.893-0.016,1.319l1.155,2.903
	c-0.957,0.731-1.817,1.574-2.569,2.519L6.935,11.44c-0.85-0.368-1.899,0.05-2.268,0.903l-1.795,4.174
	c-0.375,0.873,0.029,1.889,0.902,2.267l2.984,1.284c-0.146,1.137-0.16,2.278-0.041,3.407L3.695,24.68
	c-0.428,0.171-0.765,0.497-0.947,0.921c-0.183,0.425-0.189,0.894-0.019,1.321l1.683,4.224c0.345,0.862,1.373,1.309,2.241,0.961
	l3.023-1.203c0.717,0.938,1.546,1.786,2.477,2.533l-1.269,2.947c-0.183,0.423-0.189,0.892-0.019,1.32s0.498,0.765,0.921,0.947
	l4.176,1.797c0.854,0.366,1.902-0.055,2.267-0.904l1.276-2.969c1.153,0.152,2.316,0.167,3.463,0.047l1.157,2.907
	c0.265,0.658,0.894,1.083,1.603,1.083c0.22,0,0.435-0.041,0.638-0.123l4.221-1.682C31.016,38.637,31.353,38.31,31.535,37.885z
	 M29.593,37.051L25.88,38.53l-1.64-4.119l-0.793,0.129c-1.432,0.234-2.92,0.214-4.369-0.058l-0.787-0.148L16.5,38.502l-3.67-1.58
	l1.787-4.151l-0.653-0.47c-1.227-0.881-2.271-1.95-3.105-3.178l-0.451-0.663l-4.239,1.688l-1.478-3.711l4.238-1.688l-0.128-0.792
	c-0.231-1.424-0.215-2.878,0.049-4.32l0.144-0.783l-4.174-1.796l1.578-3.671l4.145,1.783l0.469-0.658
	c0.88-1.238,1.959-2.296,3.207-3.146l0.663-0.451l-1.639-4.118l3.712-1.478l1.64,4.117l0.792-0.128
	c1.459-0.237,2.974-0.212,4.442,0.071l0.79,0.152l1.714-3.985L30,7.123l-1.718,3.999l0.647,0.469
	c1.198,0.868,2.222,1.922,3.046,3.133l0.452,0.664l3.997-1.592l1.479,3.712l-3.999,1.592l0.129,0.793
	c0.243,1.488,0.217,3-0.078,4.493l-0.156,0.793l3.976,1.71l-1.58,3.669l-4.008-1.724l-0.47,0.644
	c-0.863,1.184-1.906,2.195-3.1,3.007l-0.664,0.451L29.593,37.051z M41.744,36.82c-2.715,0.345-4.644,2.834-4.3,5.55
	c0.313,2.474,2.429,4.34,4.918,4.34c0.208,0,0.418-0.014,0.631-0.04c2.715-0.347,4.644-2.837,4.3-5.551
	C46.95,38.438,44.488,36.474,41.744,36.82z M42.74,44.686c-1.631,0.22-3.108-0.965-3.312-2.567
	c-0.206-1.621,0.946-3.108,2.567-3.313c0.127-0.017,0.253-0.024,0.378-0.024c1.484,0,2.746,1.114,2.935,2.592
	C45.515,42.992,44.361,44.479,42.74,44.686z M53.735,38.96c-0.089-0.713-0.698-1.25-1.417-1.25l-1.62,0.194
	c-0.211-0.457-0.461-0.895-0.748-1.311l0.908-1.173c0.234-0.301,0.337-0.674,0.289-1.052c-0.047-0.379-0.24-0.717-0.541-0.95
	l-2.113-1.639c-0.599-0.462-1.532-0.346-1.999,0.256l-0.901,1.162c-0.488-0.182-0.989-0.319-1.499-0.413L43.9,31.267
	c-0.092-0.711-0.7-1.246-1.415-1.246l-2.82,0.348c-0.38,0.045-0.719,0.235-0.954,0.537c-0.236,0.303-0.339,0.68-0.29,1.057
	l0.192,1.518c-0.48,0.223-0.941,0.488-1.378,0.793l-1.24-0.961c-0.603-0.466-1.538-0.344-2,0.256l-1.637,2.111
	c-0.233,0.302-0.335,0.677-0.286,1.056s0.241,0.716,0.542,0.947l1.267,0.98c-0.168,0.466-0.297,0.941-0.386,1.425l-1.593,0.202
	c-0.378,0.048-0.715,0.24-0.949,0.542c-0.233,0.301-0.336,0.674-0.288,1.051l0.336,2.645c0.087,0.715,0.696,1.254,1.418,1.254
	l1.77-0.213c0.219,0.47,0.478,0.921,0.775,1.35l-0.963,1.242c-0.235,0.3-0.34,0.674-0.292,1.054c0.048,0.381,0.241,0.72,0.542,0.95
	l2.108,1.634c0.599,0.47,1.54,0.35,2.005-0.251l0.975-1.259c0.475,0.174,0.961,0.307,1.456,0.398l0.192,1.515
	c0.089,0.713,0.697,1.25,1.415,1.25l2.829-0.349c0.379-0.048,0.716-0.24,0.949-0.542c0.234-0.302,0.336-0.677,0.287-1.053
	l-0.193-1.517c0.446-0.208,0.876-0.452,1.284-0.73l1.179,0.915c0.601,0.465,1.534,0.35,2.003-0.252l1.641-2.116
	c0.477-0.622,0.361-1.519-0.258-1.998l-1.153-0.894c0.187-0.498,0.328-1.01,0.424-1.531l1.442-0.183
	c0.378-0.048,0.715-0.24,0.948-0.542s0.336-0.675,0.288-1.053L53.735,38.96z M49.589,41.597l-0.075,0.798
	c-0.078,0.835-0.303,1.645-0.668,2.408l-0.348,0.729l1.947,1.508l-0.934,1.205l-1.96-1.521l-0.617,0.507
	c-0.628,0.516-1.33,0.915-2.087,1.187l-0.756,0.271l0.319,2.502l-1.512,0.193l-0.318-2.503l-0.798-0.075
	c-0.812-0.075-1.6-0.291-2.341-0.64l-0.726-0.341l-1.583,2.043l-1.203-0.933l1.577-2.036l-0.516-0.617
	c-0.537-0.644-0.951-1.363-1.229-2.14l-0.271-0.757l-2.579,0.332l-0.192-1.516l2.581-0.328l0.073-0.8
	c0.072-0.796,0.283-1.575,0.627-2.314l0.336-0.724l-2.048-1.585l0.934-1.205l2.032,1.574l0.617-0.519
	c0.65-0.545,1.378-0.965,2.164-1.246l0.756-0.271l-0.316-2.505l1.511-0.195l0.319,2.509l0.799,0.073
	c0.822,0.075,1.621,0.296,2.377,0.655l0.728,0.346l1.513-1.953l1.204,0.935l-1.516,1.958l0.51,0.617
	c0.523,0.633,0.928,1.341,1.202,2.106l0.271,0.755l2.429-0.312l0.192,1.516L49.589,41.597z"/>
</svg>
