<?xml version="1.0" encoding="utf-8"?>
<!-- Generator: Adobe Illustrator 15.1.0, SVG Export Plug-In . SVG Version: 6.00 Build 0)  -->
<!DOCTYPE svg PUBLIC "-//W3C//DTD SVG 1.1//EN" "http://www.w3.org/Graphics/SVG/1.1/DTD/svg11.dtd">
<svg version="1.1" id="Layer_1" xmlns="http://www.w3.org/2000/svg" xmlns:xlink="http://www.w3.org/1999/xlink" x="0px" y="0px"
	 width="56.69px" height="56.69px" viewBox="0 0 56.69 56.69" enable-background="new 0 0 56.69 56.69" xml:space="preserve">
<path d="M48.883,6.627H7.808L2.453,18.486v0.216c0,2.687,2.166,4.918,4.995,5.346v26.016h5.291v-21.02h10.627v21.02h25.457V24.102
	c3.032-0.259,5.414-2.581,5.414-5.399v-0.216L48.883,6.627z M25.366,48.063v-21.02H10.739v21.02H9.448V24.048
	c0.09-0.014,0.177-0.037,0.266-0.055c0.099-0.02,0.198-0.037,0.295-0.061c0.143-0.036,0.28-0.08,0.418-0.125
	c0.146-0.047,0.289-0.099,0.43-0.156c0.123-0.05,0.247-0.099,0.366-0.156c0.099-0.048,0.192-0.102,0.288-0.154
	c0.095-0.052,0.189-0.104,0.28-0.16c0.095-0.059,0.186-0.12,0.276-0.184c0.085-0.061,0.169-0.122,0.251-0.186
	c0.085-0.067,0.17-0.135,0.251-0.206c0.082-0.071,0.159-0.146,0.236-0.222c0.073-0.071,0.147-0.141,0.216-0.215
	c0.098-0.106,0.187-0.218,0.275-0.331c0.036-0.046,0.078-0.088,0.113-0.136c0.071,0.098,0.155,0.187,0.233,0.28
	c0.068,0.081,0.13,0.166,0.203,0.243c0.04,0.043,0.087,0.079,0.128,0.12c0.121,0.121,0.242,0.241,0.374,0.352
	c0.033,0.028,0.071,0.051,0.105,0.078c0.147,0.117,0.297,0.232,0.456,0.337c0.028,0.019,0.06,0.032,0.089,0.051
	c0.17,0.106,0.343,0.21,0.524,0.3c0.074,0.037,0.153,0.064,0.229,0.098c0.143,0.064,0.283,0.132,0.433,0.186
	c0.101,0.036,0.207,0.061,0.311,0.092c0.363,0.111,0.737,0.2,1.128,0.246c0.251,0.029,0.506,0.044,0.766,0.044
	c2.074,0,3.905-0.964,4.978-2.425c1.072,1.461,2.904,2.425,4.979,2.425c2.075,0,3.906-0.964,4.979-2.425
	c1.072,1.461,2.904,2.425,4.979,2.425c0.259,0,0.515-0.015,0.765-0.044c0.072-0.009,0.14-0.026,0.211-0.037
	c0.177-0.026,0.354-0.052,0.526-0.093c0.016-0.003,0.03-0.01,0.046-0.013c0.224-0.055,0.443-0.118,0.655-0.195
	c0.015-0.005,0.028-0.013,0.043-0.019c1.116-0.412,2.067-1.121,2.729-2.021c0.029,0.04,0.068,0.072,0.1,0.111
	c0.15,0.193,0.315,0.377,0.492,0.551c0.064,0.063,0.129,0.125,0.197,0.186c0.753,0.675,1.697,1.173,2.757,1.411v24.098H25.366z
	 M48.308,22.124l-0.406-0.032c-0.516-0.041-0.999-0.162-1.436-0.349c-0.001-0.001-0.003-0.002-0.005-0.003
	c-0.204-0.088-0.396-0.191-0.577-0.307c-0.044-0.028-0.084-0.06-0.126-0.09c-0.138-0.095-0.271-0.196-0.393-0.306
	c-0.072-0.066-0.135-0.139-0.2-0.209c-0.084-0.089-0.169-0.177-0.241-0.272c-0.078-0.104-0.142-0.216-0.206-0.326
	c-0.046-0.078-0.099-0.152-0.138-0.233c-0.065-0.139-0.111-0.285-0.156-0.432c-0.02-0.064-0.05-0.126-0.064-0.193
	c-0.051-0.217-0.079-0.44-0.079-0.67h-2c0,1.889-1.784,3.426-3.978,3.426c-2.194,0-3.979-1.537-3.979-3.426h-2
	c0,1.889-1.785,3.426-3.979,3.426s-3.979-1.537-3.979-3.426h-2c0,1.889-1.784,3.426-3.978,3.426s-3.978-1.537-3.979-3.427l-2,0.001
	c0,0.235-0.028,0.465-0.081,0.687c-0.37,1.555-1.971,2.731-3.884,2.737H8.409c-2.105-0.01-3.829-1.434-3.949-3.224L9.099,8.627
	h38.493l4.639,10.275C52.11,20.685,50.4,22.102,48.308,22.124z M26.157,41.877h19.916V27.044H26.157V41.877z M28.157,29.044h15.916
	v10.833H28.157V29.044z"/>
</svg>
