<?xml version="1.0" encoding="utf-8"?>
<!-- Generator: Adobe Illustrator 15.1.0, SVG Export Plug-In . SVG Version: 6.00 Build 0)  -->
<!DOCTYPE svg PUBLIC "-//W3C//DTD SVG 1.1//EN" "http://www.w3.org/Graphics/SVG/1.1/DTD/svg11.dtd">
<svg version="1.1" id="Layer_1" xmlns="http://www.w3.org/2000/svg" xmlns:xlink="http://www.w3.org/1999/xlink" x="0px" y="0px"
	 width="56.69px" height="56.69px" viewBox="0 0 56.69 56.69" enable-background="new 0 0 56.69 56.69" xml:space="preserve">
<path d="M38.062,26.897c-1.05-0.682-2.328-1.268-3.803-1.741c-1.406-0.448-2.986-0.861-4.681-1.225
	c-1.31-0.303-2.268-0.537-2.839-0.696c-0.5-0.139-1.002-0.333-1.493-0.578c-0.401-0.202-0.71-0.432-0.915-0.68
	c-0.132-0.163-0.188-0.336-0.188-0.581c0-0.284,0.096-0.672,0.84-1.16c0.734-0.482,1.763-0.727,3.056-0.727
	c1.814,0,2.579,0.375,2.872,0.598c0.604,0.459,1.138,1.125,1.607,2.02c0.511,0.878,0.971,1.482,1.444,1.898
	c0.606,0.538,1.433,0.811,2.456,0.811c1.114,0,2.103-0.414,2.858-1.199c0.742-0.771,1.134-1.706,1.134-2.703
	c0-0.94-0.259-1.898-0.77-2.848c-0.494-0.918-1.265-1.79-2.291-2.592c-1.008-0.785-2.271-1.417-3.756-1.879
	c-1.465-0.455-3.198-0.686-5.153-0.686c-2.445,0-4.618,0.346-6.456,1.027c-1.93,0.713-3.439,1.767-4.489,3.134
	c-1.074,1.401-1.619,3.023-1.619,4.821c0,1.882,0.526,3.495,1.566,4.797c0.984,1.23,2.319,2.211,3.967,2.912
	c1.518,0.646,3.414,1.214,5.642,1.69c1.549,0.324,2.803,0.635,3.727,0.923c0.761,0.236,1.378,0.572,1.834,0.998
	c0.339,0.317,0.489,0.702,0.489,1.247c0,0.474-0.126,1.103-1.106,1.771c-0.89,0.607-2.11,0.916-3.629,0.916
	c-1.104,0-1.978-0.148-2.596-0.441c-0.599-0.283-1.062-0.636-1.374-1.046c-0.377-0.499-0.74-1.145-1.075-1.91
	c-0.392-0.921-0.893-1.646-1.495-2.159c-0.688-0.579-1.521-0.872-2.479-0.872c-1.114,0-2.102,0.372-2.857,1.079
	c-0.773,0.729-1.183,1.66-1.183,2.694c0,1.428,0.508,2.886,1.511,4.332c0.969,1.395,2.239,2.521,3.78,3.353
	c2.103,1.117,4.768,1.684,7.922,1.684c2.625,0,4.943-0.411,6.89-1.221c2.018-0.838,3.587-2.034,4.663-3.556
	c1.087-1.541,1.639-3.299,1.639-5.224c0-1.608-0.328-3.007-0.975-4.155C40.097,28.589,39.197,27.639,38.062,26.897z M38.438,37.949
	c-0.854,1.209-2.132,2.172-3.798,2.863c-1.701,0.708-3.761,1.067-6.121,1.067c-2.824,0-5.173-0.487-6.978-1.446
	c-1.257-0.679-2.294-1.598-3.081-2.729c-0.766-1.105-1.154-2.18-1.154-3.192c0-0.489,0.176-0.883,0.551-1.236
	c0.387-0.361,0.874-0.537,1.489-0.537c0.48,0,0.87,0.131,1.187,0.398c0.359,0.306,0.679,0.782,0.951,1.425
	c0.402,0.919,0.846,1.7,1.318,2.326c0.51,0.671,1.221,1.225,2.112,1.646c0.888,0.421,2.049,0.634,3.451,0.634
	c1.929,0,3.529-0.426,4.757-1.265c1.313-0.895,1.979-2.047,1.979-3.423c0-1.098-0.377-2.008-1.123-2.708
	c-0.68-0.635-1.557-1.121-2.605-1.447c-0.984-0.307-2.3-0.633-3.907-0.969c-2.099-0.45-3.873-0.979-5.272-1.574
	c-1.34-0.571-2.412-1.353-3.188-2.321c-0.748-0.938-1.128-2.131-1.128-3.548c0-1.348,0.406-2.56,1.206-3.604
	c0.815-1.063,2.025-1.896,3.597-2.476c1.615-0.599,3.555-0.902,5.762-0.902c1.754,0,3.288,0.2,4.56,0.596
	c1.253,0.389,2.303,0.91,3.119,1.546c0.807,0.629,1.398,1.29,1.76,1.962c0.353,0.655,0.531,1.295,0.531,1.9
	c0,0.483-0.188,0.914-0.574,1.316c-0.381,0.395-0.845,0.586-1.418,0.586c-0.357,0-0.843-0.053-1.132-0.311
	c-0.302-0.265-0.652-0.737-1.019-1.366c-0.586-1.117-1.308-2.006-2.146-2.644c-0.891-0.677-2.226-1.006-4.083-1.006
	c-1.689,0-3.087,0.355-4.153,1.055c-1.156,0.758-1.742,1.711-1.742,2.832c0,0.704,0.215,1.324,0.642,1.848
	c0.387,0.47,0.913,0.873,1.566,1.201c0.607,0.304,1.231,0.545,1.854,0.717c0.583,0.163,1.566,0.404,2.938,0.722
	c1.647,0.354,3.164,0.75,4.507,1.178c1.304,0.419,2.422,0.928,3.321,1.513c0.862,0.563,1.543,1.279,2.022,2.131
	c0.476,0.846,0.717,1.914,0.717,3.175C39.71,35.384,39.281,36.753,38.438,37.949z M49.961,32.919
	c0.288-1.428,0.435-2.887,0.435-4.342c0-12.029-9.787-21.815-21.817-21.815c-1.13,0-2.258,0.086-3.357,0.258
	c-2.006-1.183-4.288-1.807-6.626-1.807c-7.209,0-13.073,5.864-13.073,13.072c0,2.195,0.555,4.357,1.607,6.278
	c-0.246,1.331-0.37,2.68-0.37,4.014c0,12.03,9.788,21.818,21.819,21.818c1.229,0,2.455-0.103,3.651-0.306
	c1.811,0.909,3.83,1.388,5.866,1.388c7.209,0,13.073-5.863,13.073-13.07C51.169,36.488,50.763,34.644,49.961,32.919z M38.096,49.478
	c-1.825,0-3.635-0.454-5.233-1.313l-0.311-0.167l-0.347,0.064c-1.183,0.221-2.403,0.333-3.627,0.333
	c-10.929,0-19.819-8.891-19.819-19.818c0-1.325,0.136-2.667,0.402-3.988l0.075-0.375l-0.193-0.33
	c-0.995-1.694-1.521-3.631-1.521-5.599c0-6.105,4.968-11.072,11.073-11.072c2.089,0,4.126,0.588,5.89,1.7l0.325,0.205l0.38-0.066
	c1.104-0.192,2.244-0.29,3.389-0.29c10.928,0,19.817,8.889,19.817,19.815c0,1.428-0.155,2.859-0.46,4.255l-0.075,0.344l0.156,0.315
	c0.765,1.536,1.152,3.19,1.152,4.916C49.169,44.512,44.201,49.478,38.096,49.478z"/>
</svg>
