<?xml version="1.0" encoding="utf-8"?>
<!-- Generator: Adobe Illustrator 15.1.0, SVG Export Plug-In . SVG Version: 6.00 Build 0)  -->
<!DOCTYPE svg PUBLIC "-//W3C//DTD SVG 1.1//EN" "http://www.w3.org/Graphics/SVG/1.1/DTD/svg11.dtd">
<svg version="1.1" id="Layer_1" xmlns="http://www.w3.org/2000/svg" xmlns:xlink="http://www.w3.org/1999/xlink" x="0px" y="0px"
	 width="56.69px" height="56.69px" viewBox="0 0 56.69 56.69" enable-background="new 0 0 56.69 56.69" xml:space="preserve">
<path d="M46.055,26.939c-0.828,0-1.617,0.168-2.338,0.471c-0.482-5.448-5.051-9.723-10.625-9.723c-1.363,0-2.691,0.269-3.867,0.723
	c-0.458,0.176-0.578,0.358-0.582,0.712v19.187c0.006,0.371,0.292,0.658,0.652,0.693c0.006,0.001,1.869,0.001,4.352,0.001
	c4.967,0,12.408-0.001,12.408-0.001c3.336,0,6.045-2.676,6.045-6.016C52.1,29.648,49.391,26.939,46.055,26.939z M46.055,37.002
	l-12.408,0.001c-1.188,0-2.236,0-3.004,0V20.04c0.797-0.231,1.631-0.353,2.449-0.353c4.523,0,8.234,3.396,8.633,7.898l0.24,2.729
	l2.525-1.061c0.498-0.209,1.023-0.314,1.564-0.314c2.23,0,4.045,1.815,4.045,4.047C50.1,35.2,48.285,37.002,46.055,37.002z
	 M14.393,24.015c0.697-0.622,1.498-1.124,2.371-1.476v16.428h-2.371V24.015z M19.716,21.967c0.595,0,1.175,0.067,1.733,0.192v16.808
	h-2.371V21.993C19.292,21.976,19.504,21.967,19.716,21.967z M26.133,19.987v18.98h-2.371V22.252
	C24.427,21.386,25.227,20.623,26.133,19.987z M12.063,27.457c0.006-0.016,0.011-0.027,0.016-0.041v11.551H9.954v-0.027
	c-0.082-0.008-0.165-0.016-0.246-0.029V27.313c0.266-0.038,0.537-0.059,0.81-0.059C11.051,27.254,11.571,27.326,12.063,27.457z
	 M7.395,28.136v9.952C5.71,37.055,4.59,35.213,4.59,33.109C4.59,31.012,5.71,29.17,7.395,28.136z"/>
</svg>
