<?xml version="1.0" encoding="utf-8"?>
<!-- Generator: Adobe Illustrator 15.1.0, SVG Export Plug-In . SVG Version: 6.00 Build 0)  -->
<!DOCTYPE svg PUBLIC "-//W3C//DTD SVG 1.1//EN" "http://www.w3.org/Graphics/SVG/1.1/DTD/svg11.dtd">
<svg version="1.1" id="Layer_1" xmlns="http://www.w3.org/2000/svg" xmlns:xlink="http://www.w3.org/1999/xlink" x="0px" y="0px"
	 width="56.69px" height="56.69px" viewBox="0 0 56.69 56.69" enable-background="new 0 0 56.69 56.69" xml:space="preserve">
<path d="M31.226,22.274V8.892c0-0.819-0.664-1.484-1.483-1.484c-0.82,0-1.484,0.665-1.484,1.484V9.03
	c-0.257,0.083-0.525,0.211-0.802,0.385l-10.145,6.4c-1.111,0.701-2.656,1.676-4.097,2.585H7.858c-2.757,0-5,2.243-5,5v9.888
	c0,2.758,2.243,5,5,5h5.358c1.439,0.908,2.984,1.885,4.095,2.584l10.145,6.402c0.276,0.174,0.545,0.301,0.802,0.385v0.139
	c0,0.818,0.664,1.484,1.484,1.484c0.819,0,1.483-0.666,1.483-1.484V34.416c1.781-1.43,2.935-3.609,2.935-6.071
	C34.16,25.882,33.007,23.705,31.226,22.274z M11.351,36.289H7.858c-1.654,0-3-1.346-3-3v-9.888c0-1.654,1.346-3,3-3h3.492V36.289z
	 M28.258,45.416l-9.879-6.234l-3.679-2.32l-1.308-0.826V20.654l0.646-0.408l4.34-2.738l9.879-6.233V45.416z M53.123,31.941
	c0.944,0.945,0.944,2.475,0,3.42c-0.943,0.943-2.475,0.943-3.418,0l-3.596-3.598l-3.596,3.598c-0.945,0.943-2.475,0.943-3.418,0
	c-0.943-0.945-0.943-2.475,0-3.42l3.596-3.596l-3.596-3.597c-0.945-0.943-0.945-2.474,0-3.418c0.943-0.943,2.474-0.943,3.417,0
	l3.597,3.596l3.596-3.596c0.944-0.943,2.475-0.943,3.419,0c0.943,0.943,0.943,2.475,0,3.418l-3.597,3.597L53.123,31.941z"/>
</svg>
