<?xml version="1.0" encoding="utf-8"?>
<!-- Generator: Adobe Illustrator 15.1.0, SVG Export Plug-In . SVG Version: 6.00 Build 0)  -->
<!DOCTYPE svg PUBLIC "-//W3C//DTD SVG 1.1//EN" "http://www.w3.org/Graphics/SVG/1.1/DTD/svg11.dtd">
<svg version="1.1" id="Layer_1" xmlns="http://www.w3.org/2000/svg" xmlns:xlink="http://www.w3.org/1999/xlink" x="0px" y="0px"
	 width="56.69px" height="56.69px" viewBox="0 0 56.69 56.69" enable-background="new 0 0 56.69 56.69" xml:space="preserve">
<path d="M51.08,23.596c0-2.445-1.146-4.608-2.914-6.028V4.276c0-0.814-0.66-1.475-1.474-1.475c-0.814,0-1.475,0.66-1.475,1.475
	v0.137c-0.255,0.083-0.521,0.21-0.795,0.383l-10.076,6.355c-1.151,0.727-2.772,1.749-4.254,2.685H11.148
	c-1.609,0-2.919,1.31-2.919,2.919v0.636H7.906c-1.268,0-2.296,1.027-2.296,2.296v7.818c0,1.268,1.028,2.294,2.296,2.294h0.323v0.636
	c0,1.61,1.31,2.92,2.919,2.92h0.308l4.801,18.295c0.346,1.318,1.539,2.239,2.901,2.239c0.256,0,0.512-0.033,0.762-0.099l6.47-1.698
	c1.6-0.421,2.559-2.064,2.138-3.663l-2.227-8.484l0.539-0.142c0.24-0.063,0.385-0.311,0.322-0.552l-1.107-4.215
	c-0.063-0.242-0.311-0.386-0.551-0.322l-0.538,0.142l-0.394-1.501h5.523c1.48,0.935,3.101,1.956,4.251,2.682l10.076,6.357
	c0.274,0.173,0.54,0.3,0.795,0.383v0.138c0,0.813,0.66,1.474,1.475,1.474c0.813,0,1.474-0.66,1.474-1.474V29.623
	C49.935,28.203,51.08,26.04,51.08,23.596z M21.98,31.354l4.613,17.583c0.14,0.532-0.18,1.08-0.713,1.221l-6.468,1.697
	c-0.534,0.143-1.085-0.191-1.223-0.714l-4.902-18.685c-0.017-0.062-0.021-0.123-0.026-0.184l-0.075-0.919h-2.038
	c-0.507,0-0.919-0.413-0.919-0.92v-13.68c0-0.507,0.412-0.919,0.919-0.919h17.278v15.519H21.98z M35.413,34.344
	c-1.345-0.847-3.333-2.102-4.986-3.146V15.99l1.048-0.661l3.939-2.486l9.804-6.184V40.53L35.413,34.344z"/>
</svg>
