<?xml version="1.0" encoding="utf-8"?>
<!-- Generator: Adobe Illustrator 15.1.0, SVG Export Plug-In . SVG Version: 6.00 Build 0)  -->
<!DOCTYPE svg PUBLIC "-//W3C//DTD SVG 1.1//EN" "http://www.w3.org/Graphics/SVG/1.1/DTD/svg11.dtd">
<svg version="1.1" id="Layer_1" xmlns="http://www.w3.org/2000/svg" xmlns:xlink="http://www.w3.org/1999/xlink" x="0px" y="0px"
	 width="56.69px" height="56.69px" viewBox="0 0 56.69 56.69" enable-background="new 0 0 56.69 56.69" xml:space="preserve">
<path d="M53.832,28.191c0,6.682-2.602,12.962-7.324,17.685c-0.293,0.293-0.678,0.439-1.061,0.439c-0.385,0-0.768-0.146-1.061-0.439
	c-0.586-0.586-0.586-1.535,0-2.121c4.156-4.156,6.445-9.684,6.445-15.563c0-5.879-2.291-11.407-6.449-15.565
	c-0.586-0.586-0.586-1.535,0-2.121s1.535-0.586,2.121,0C51.229,15.229,53.832,21.511,53.832,28.191z M39.664,17.341
	c-0.586-0.585-1.535-0.586-2.121,0.001c-0.586,0.586-0.586,1.536,0,2.121c2.334,2.331,3.619,5.432,3.619,8.729
	c0,3.296-1.283,6.395-3.615,8.726c-0.586,0.586-0.586,1.535,0,2.121c0.293,0.293,0.678,0.439,1.061,0.439
	c0.385,0,0.768-0.146,1.061-0.439c2.898-2.897,4.494-6.749,4.494-10.847C44.162,24.092,42.564,20.239,39.664,17.341z M34.16,28.346
	c0,2.461-1.152,4.64-2.934,6.069v13.383c0,0.819-0.664,1.484-1.484,1.484c-0.82,0-1.484-0.665-1.484-1.484V47.66
	c-0.257-0.084-0.525-0.211-0.802-0.386l-10.145-6.401c-1.11-0.7-2.655-1.676-4.095-2.584H7.859c-2.757,0-5-2.243-5-5V23.4
	c0-2.756,2.243-4.999,5-4.999h5.356c1.44-0.909,2.985-1.885,4.097-2.585l10.145-6.4c0.276-0.175,0.545-0.302,0.802-0.386V8.892
	c0-0.819,0.664-1.483,1.484-1.483c0.82,0,1.484,0.664,1.484,1.483v13.383C33.008,23.705,34.16,25.883,34.16,28.346z M11.351,20.401
	H7.859c-1.654,0-3,1.346-3,2.999v9.889c0,1.654,1.346,3,3,3h3.492V20.401z M28.258,11.274l-9.879,6.233l-4.34,2.738l-0.646,0.408
	v15.381l1.308,0.825l3.679,2.321l9.879,6.233V11.274z"/>
</svg>
