<?xml version="1.0" encoding="utf-8"?>
<!-- Generator: Adobe Illustrator 15.1.0, SVG Export Plug-In . SVG Version: 6.00 Build 0)  -->
<!DOCTYPE svg PUBLIC "-//W3C//DTD SVG 1.1//EN" "http://www.w3.org/Graphics/SVG/1.1/DTD/svg11.dtd">
<svg version="1.1" id="Layer_1" xmlns="http://www.w3.org/2000/svg" xmlns:xlink="http://www.w3.org/1999/xlink" x="0px" y="0px"
	 width="56.69px" height="56.69px" viewBox="0 0 56.69 56.69" enable-background="new 0 0 56.69 56.69" xml:space="preserve">
<path d="M42.257,51.718c-0.641,0-1.365-0.265-2.153-0.784l-8.76-5.781c-1.541-1.018-4.456-1.018-5.997,0l-8.76,5.781
	c-1.567,1.033-2.97,1.001-3.693,0.052c-0.508-0.666-0.589-1.646-0.24-2.909l2.791-10.118c0.518-1.878-0.332-4.489-1.854-5.702
	l-8.205-6.547c-1.664-1.327-1.609-2.461-1.428-3.019c0.182-0.558,0.803-1.508,2.93-1.604l10.483-0.473
	c1.945-0.088,4.167-1.702,4.852-3.524l3.689-9.826c0.749-1.993,1.845-2.291,2.432-2.291s1.683,0.297,2.432,2.291l3.689,9.826
	c0.685,1.823,2.906,3.437,4.852,3.524l10.483,0.473c2.127,0.096,2.749,1.046,2.93,1.604c0.182,0.558,0.237,1.691-1.428,3.02
	l-8.203,6.545c-1.522,1.214-2.372,3.825-1.854,5.703l2.791,10.118c0.349,1.264,0.268,2.243-0.24,2.909
	C43.438,51.457,42.891,51.718,42.257,51.718z M28.345,42.352c1.539,0,2.994,0.402,4.1,1.131l8.76,5.781
	c0.572,0.378,0.896,0.443,1.018,0.452c0.031-0.125,0.067-0.452-0.113-1.108l-2.791-10.118c-0.732-2.656,0.382-6.081,2.535-7.798
	l8.203-6.545c0.531-0.424,0.695-0.709,0.744-0.829c-0.11-0.068-0.41-0.203-1.089-0.233l-10.483-0.473
	c-2.752-0.124-5.666-2.241-6.635-4.819l-3.69-9.826c-0.239-0.637-0.46-0.88-0.559-0.963c-0.099,0.083-0.319,0.327-0.559,0.963
	l-3.689,9.826c-0.969,2.578-3.883,4.695-6.635,4.819L6.979,23.084C6.3,23.114,6,23.249,5.89,23.317
	c0.049,0.12,0.212,0.405,0.744,0.828l8.205,6.547c2.152,1.716,3.267,5.141,2.534,7.797l-2.791,10.118
	c-0.179,0.65-0.146,0.977-0.114,1.104c0.217-0.02,0.562-0.146,1.019-0.448l8.76-5.781C25.352,42.754,26.807,42.352,28.345,42.352z"
	/>
</svg>
