<?xml version="1.0" encoding="utf-8"?>
<!-- Generator: Adobe Illustrator 15.1.0, SVG Export Plug-In . SVG Version: 6.00 Build 0)  -->
<!DOCTYPE svg PUBLIC "-//W3C//DTD SVG 1.1//EN" "http://www.w3.org/Graphics/SVG/1.1/DTD/svg11.dtd">
<svg version="1.1" id="Layer_1" xmlns="http://www.w3.org/2000/svg" xmlns:xlink="http://www.w3.org/1999/xlink" x="0px" y="0px"
	 width="56.69px" height="56.69px" viewBox="0 0 56.69 56.69" enable-background="new 0 0 56.69 56.69" xml:space="preserve">
<path d="M27.165,12.759h22.009v6.811H27.165V12.759z M30.318,23.386h-1.913c-0.686,0-1.241,0.555-1.241,1.24v1.913
	c0,0.685,0.556,1.241,1.241,1.241h1.913c0.686,0,1.242-0.557,1.242-1.241v-1.913C31.561,23.941,31.004,23.386,30.318,23.386z
	 M39.127,23.386h-1.914c-0.686,0-1.24,0.555-1.24,1.24v1.912c0,0.686,0.555,1.24,1.24,1.24h1.914c0.684,0,1.24-0.555,1.24-1.24
	v-1.912C40.367,23.941,39.811,23.386,39.127,23.386z M47.934,23.386H46.02c-0.684,0-1.24,0.555-1.24,1.24v1.912
	c0,0.686,0.557,1.24,1.24,1.24h1.914c0.684,0,1.24-0.555,1.24-1.24v-1.912C49.174,23.941,48.617,23.386,47.934,23.386z
	 M30.318,31.125h-1.913c-0.686,0-1.241,0.553-1.241,1.24v1.912c0,0.686,0.556,1.24,1.241,1.24h1.913c0.686,0,1.242-0.555,1.242-1.24
	v-1.912C31.561,31.678,31.004,31.125,30.318,31.125z M30.318,38.861h-1.913c-0.686,0-1.241,0.555-1.241,1.242v1.91
	c0,0.686,0.556,1.242,1.241,1.242h1.913c0.686,0,1.242-0.557,1.242-1.242v-1.91C31.561,39.416,31.004,38.861,30.318,38.861z
	 M39.127,31.123h-1.914c-0.686,0-1.24,0.555-1.24,1.24v1.916c0,0.682,0.555,1.238,1.24,1.238h1.914c0.684,0,1.24-0.557,1.24-1.238
	v-1.916C40.367,31.678,39.811,31.123,39.127,31.123z M39.127,38.861h-1.914c-0.686,0-1.24,0.555-1.24,1.24v1.912
	c0,0.686,0.555,1.242,1.24,1.242h1.914c0.684,0,1.24-0.557,1.24-1.242v-1.912C40.367,39.416,39.811,38.861,39.127,38.861z
	 M47.934,31.123H46.02c-0.686,0-1.24,0.555-1.24,1.24v1.916c0,0.682,0.555,1.238,1.24,1.238h1.914c0.684,0,1.24-0.557,1.24-1.238
	v-1.916C49.174,31.678,48.617,31.123,47.934,31.123z M47.934,38.861H46.02c-0.686,0-1.24,0.555-1.24,1.24v1.912
	c0,0.686,0.555,1.242,1.24,1.242h1.914c0.684,0,1.24-0.557,1.24-1.242v-1.912C49.174,39.416,48.617,38.861,47.934,38.861z
	 M54.221,12.033v31.417c0,2.756-2.244,5-5,5H21.47v0.834c0,2.756-2.243,5-5,5h-9c-2.757,0-5-2.244-5-5V7.408c0-2.757,2.243-5,5-5h9
	c2.629,0,4.767,2.046,4.962,4.625h27.789C51.977,7.033,54.221,9.276,54.221,12.033z M19.47,48.449V7.408c0-1.654-1.346-3-3-3h-9
	c-1.654,0-3,1.346-3,3v41.875c0,1.654,1.346,3,3,3h9c1.654,0,3-1.346,3-3V48.449z M52.221,12.033c0-1.654-1.346-3-3-3H21.47v37.417
	h27.75c1.654,0,3-1.346,3-3V12.033z"/>
</svg>
