<?xml version="1.0" encoding="utf-8"?>
<!-- Generator: Adobe Illustrator 15.1.0, SVG Export Plug-In . SVG Version: 6.00 Build 0)  -->
<!DOCTYPE svg PUBLIC "-//W3C//DTD SVG 1.1//EN" "http://www.w3.org/Graphics/SVG/1.1/DTD/svg11.dtd">
<svg version="1.1" id="Layer_1" xmlns="http://www.w3.org/2000/svg" xmlns:xlink="http://www.w3.org/1999/xlink" x="0px" y="0px"
	 width="56.69px" height="56.69px" viewBox="0 0 56.69 56.69" enable-background="new 0 0 56.69 56.69" xml:space="preserve">
<path d="M53.429,9.221H36.47V7.063c0-1.93-1.57-3.5-3.5-3.5h-9.25c-1.93,0-3.5,1.57-3.5,3.5v2.158H3.262v13.034h4.591v26.973
	c0,2.15,1.75,3.9,3.9,3.9h33.186c2.15,0,3.899-1.75,3.899-3.9V22.255h4.591V9.221z M23.22,7.063c0-0.276,0.225-0.5,0.5-0.5h9.25
	c0.275,0,0.5,0.224,0.5,0.5v2.158H23.22V7.063z M46.838,49.228c0,1.048-0.853,1.9-1.899,1.9H11.753c-1.048,0-1.9-0.853-1.9-1.9
	l0.004-26.973h36.981V49.228z M51.429,20.255h-2.696H8.877H5.262v-9.034h46.167V20.255z M16.438,44.104v-15.75
	c0-0.828,0.672-1.5,1.5-1.5s1.5,0.672,1.5,1.5v15.75c0,0.828-0.672,1.5-1.5,1.5S16.438,44.932,16.438,44.104z M26.845,44.104v-15.75
	c0-0.828,0.672-1.5,1.5-1.5s1.5,0.672,1.5,1.5v15.75c0,0.828-0.672,1.5-1.5,1.5S26.845,44.932,26.845,44.104z M37.251,44.104v-15.75
	c0-0.828,0.672-1.5,1.5-1.5s1.5,0.672,1.5,1.5v15.75c0,0.828-0.672,1.5-1.5,1.5S37.251,44.932,37.251,44.104z"/>
</svg>
