<?xml version="1.0" encoding="utf-8"?>
<!-- Generator: Adobe Illustrator 15.1.0, SVG Export Plug-In . SVG Version: 6.00 Build 0)  -->
<!DOCTYPE svg PUBLIC "-//W3C//DTD SVG 1.1//EN" "http://www.w3.org/Graphics/SVG/1.1/DTD/svg11.dtd">
<svg version="1.1" id="Layer_1" xmlns="http://www.w3.org/2000/svg" xmlns:xlink="http://www.w3.org/1999/xlink" x="0px" y="0px"
	 width="56.69px" height="56.69px" viewBox="0 0 56.69 56.69" enable-background="new 0 0 56.69 56.69" xml:space="preserve">
<path d="M54.621,23.749l-3.279-2.732l2.187-3.462h-3.443c-2.416-5.412-7.84-9.2-14.14-9.2c-7.078,0-13.236,4.86-14.967,11.662H7.128
	l0.234,1.193c1.144,5.824,4.67,10.892,9.741,14.062c-2.472,3.556-6.284,5.549-11.382,5.885l-3.652,0.241l3.268,1.649
	c0.428,0.216,10.602,5.289,21.486,5.289c0.001,0,0,0,0.001,0c9.018,0,20.538-3.652,24.204-21.03
	c0.192-0.839,0.291-1.674,0.346-2.501L54.621,23.749z M9.599,22.017h10.946h3.379c2.338,0,4.24,1.902,4.24,4.239v9.98
	c0,0.12-0.006,0.241-0.017,0.362c-3.198-0.094-6.344-0.959-9.133-2.517C14.319,31.459,10.938,27.106,9.599,22.017z M49.075,26.876
	c-2.725,12.913-10.211,19.46-22.252,19.46c-6.873,0-13.611-2.195-17.418-3.698c4.08-0.95,7.254-3.082,9.471-6.366
	c0.071,0.036,0.145,0.066,0.217,0.101c0.174,0.085,0.35,0.165,0.525,0.245c0.231,0.106,0.464,0.21,0.699,0.307
	c0.18,0.075,0.36,0.146,0.542,0.216c0.236,0.091,0.475,0.178,0.715,0.261c0.184,0.063,0.368,0.125,0.554,0.184
	c0.242,0.076,0.486,0.146,0.731,0.215c0.186,0.052,0.371,0.103,0.558,0.149c0.252,0.063,0.506,0.118,0.76,0.172
	c0.184,0.039,0.365,0.08,0.55,0.114c0.266,0.049,0.534,0.089,0.803,0.129c0.174,0.025,0.346,0.055,0.521,0.076
	c0.297,0.037,0.596,0.062,0.895,0.086c0.147,0.012,0.294,0.03,0.441,0.039c0.446,0.027,0.895,0.043,1.343,0.043l1.012-0.006
	l0.201-0.736c0.147-0.541,0.223-1.089,0.223-1.629v-9.98c0-3.44-2.8-6.239-6.24-6.239h-0.887c1.671-5.666,6.917-9.662,12.908-9.662
	c7.436,0,13.485,6.05,13.485,13.486C49.431,24.825,49.313,25.841,49.075,26.876z M38.683,14.368c-3.517,0-6.377,2.86-6.377,6.375
	c0,3.516,2.86,6.375,6.377,6.375c3.515,0,6.374-2.859,6.374-6.375C45.057,17.229,42.197,14.368,38.683,14.368z M38.683,25.118
	c-2.413,0-4.377-1.962-4.377-4.375c0-2.412,1.964-4.375,4.377-4.375c2.412,0,4.374,1.963,4.374,4.375
	C43.057,23.156,41.095,25.118,38.683,25.118z M40.71,20.652c0,1.07-0.867,1.937-1.937,1.937c-1.07,0-1.936-0.866-1.936-1.937
	c0-1.069,0.865-1.937,1.936-1.937C39.843,18.716,40.71,19.583,40.71,20.652z"/>
</svg>
