<?xml version="1.0" encoding="utf-8"?>
<!-- Generator: Adobe Illustrator 15.1.0, SVG Export Plug-In . SVG Version: 6.00 Build 0)  -->
<!DOCTYPE svg PUBLIC "-//W3C//DTD SVG 1.1//EN" "http://www.w3.org/Graphics/SVG/1.1/DTD/svg11.dtd">
<svg version="1.1" id="Layer_1" xmlns="http://www.w3.org/2000/svg" xmlns:xlink="http://www.w3.org/1999/xlink" x="0px" y="0px"
	 width="56.69px" height="56.69px" viewBox="0 0 56.69 56.69" enable-background="new 0 0 56.69 56.69" xml:space="preserve">
<path d="M50.473,22.486c0.082-0.62,0.121-1.203,0.121-1.77c0-7.812-6.355-14.167-14.166-14.167c-4.684,0-9.083,2.356-11.708,6.211
	c-1.321-0.686-2.786-1.044-4.291-1.044c-4.851,0-8.85,3.72-9.291,8.491c-4.949,0.859-8.709,5.241-8.709,10.341
	c0,5.79,4.71,10.5,10.5,10.5h11.388v6.615c0,1.365,1.111,2.477,2.477,2.477h5.106c1.367,0,2.479-1.111,2.479-2.477v-6.615h9.385
	c5.791,0,10.5-4.71,10.5-10.5C54.262,27.443,52.855,24.474,50.473,22.486z M32.377,47.664c0,0.263-0.215,0.477-0.479,0.477h-5.106
	c-0.263,0-0.477-0.214-0.477-0.477v-6.615v-7.338h-6.744l9.355-12.127c0.258-0.334,0.583-0.334,0.84-0.001l9.352,12.128h-6.742
	v7.338V47.664z M43.762,39.049h-9.385v-3.338h4.791c0.916,0,1.625-0.372,1.943-1.021s0.182-1.437-0.379-2.162l-9.381-12.166
	c-0.51-0.659-1.24-1.037-2.004-1.037c-0.765,0-1.496,0.378-2.004,1.037l-9.386,12.167c-0.56,0.726-0.697,1.514-0.378,2.162
	c0.318,0.647,1.026,1.02,1.942,1.02h4.794v3.338H12.928c-4.687,0-8.5-3.813-8.5-8.5c0-4.367,3.406-8.084,7.756-8.462l0.911-0.12
	V21.05c0-4.044,3.29-7.333,7.333-7.333c1.452,0,2.858,0.425,4.064,1.23l0.885,0.59l0.534-0.919
	c2.177-3.743,6.206-6.068,10.516-6.068c6.709,0,12.166,5.458,12.166,12.167c0,0.631-0.059,1.295-0.184,2.03l-0.102,0.604
	l0.494,0.364c2.199,1.626,3.459,4.116,3.459,6.833C52.262,35.235,48.449,39.049,43.762,39.049z"/>
</svg>
