<?xml version="1.0" encoding="utf-8"?>
<!-- Generator: Adobe Illustrator 15.1.0, SVG Export Plug-In . SVG Version: 6.00 Build 0)  -->
<!DOCTYPE svg PUBLIC "-//W3C//DTD SVG 1.1//EN" "http://www.w3.org/Graphics/SVG/1.1/DTD/svg11.dtd">
<svg version="1.1" id="Layer_1" xmlns="http://www.w3.org/2000/svg" xmlns:xlink="http://www.w3.org/1999/xlink" x="0px" y="0px"
	 width="56.69px" height="56.69px" viewBox="0 0 56.69 56.69" enable-background="new 0 0 56.69 56.69" xml:space="preserve">
<path d="M43.762,45.596H12.929c-5.79,0-10.5-4.71-10.5-10.5c0-5.101,3.76-9.483,8.709-10.343c0.441-4.771,4.439-8.491,9.291-8.491
	c1.505,0,2.97,0.358,4.291,1.045c2.625-3.855,7.023-6.212,11.708-6.212c7.812,0,14.166,6.355,14.166,14.167
	c0,0.57-0.04,1.153-0.121,1.77c2.416,2.004,3.789,4.91,3.789,8.064C54.262,40.886,49.552,45.596,43.762,45.596z M20.429,18.262
	c-4.044,0-7.333,3.289-7.333,7.333v0.917l-0.912,0.12c-4.349,0.378-7.755,4.096-7.755,8.464c0,4.687,3.813,8.5,8.5,8.5h30.833
	c4.687,0,8.5-3.813,8.5-8.5c0-2.718-1.261-5.208-3.46-6.833l-0.494-0.365l0.103-0.606c0.124-0.729,0.184-1.393,0.184-2.029
	c0-6.709-5.458-12.167-12.166-12.167c-4.311,0-8.34,2.325-10.516,6.068l-0.535,0.92l-0.885-0.591
	C23.286,18.687,21.881,18.262,20.429,18.262z M33.983,23.011c-0.667,0.864-1.758,2.278-2.424,3.143l-1.152,1.492
	c-0.666,0.864-0.319,1.571,0.772,1.571h3.182c1.092,0,2.877,0,3.969,0h3.18c1.092,0,1.439-0.707,0.772-1.571l-1.15-1.492
	c-0.667-0.864-1.757-2.278-2.424-3.143l-1.15-1.492c-0.667-0.864-1.757-0.864-2.424,0L33.983,23.011z M38.785,27.761
	c0-0.495-0.4-0.895-0.895-0.895h-3.092c-0.494,0-0.895,0.399-0.895,0.895v8.087c0,0.494,0.4,0.895,0.895,0.895h3.092
	c0.494,0,0.895-0.4,0.895-0.895V27.761z"/>
</svg>
