<?xml version="1.0" encoding="utf-8"?>
<!-- Generator: Adobe Illustrator 15.1.0, SVG Export Plug-In . SVG Version: 6.00 Build 0)  -->
<!DOCTYPE svg PUBLIC "-//W3C//DTD SVG 1.1//EN" "http://www.w3.org/Graphics/SVG/1.1/DTD/svg11.dtd">
<svg version="1.1" id="Layer_1" xmlns="http://www.w3.org/2000/svg" xmlns:xlink="http://www.w3.org/1999/xlink" x="0px" y="0px"
	 width="56.69px" height="56.69px" viewBox="0 0 56.69 56.69" enable-background="new 0 0 56.69 56.69" xml:space="preserve">
<path d="M53.595,13.555L43.134,3.095l-8.698,8.699l-3.322-3.323L4.964,34.621c-1.205,1.205-1.869,2.808-1.868,4.513
	c0,1.704,0.664,3.307,1.868,4.511l8.084,8.084c1.204,1.204,2.806,1.867,4.509,1.867c1.704,0,3.307-0.664,4.512-1.869l26.149-26.148
	l-3.323-3.323L53.595,13.555z M49.613,13.882l-3.358,3.358l-1.856-1.855l3.358-3.359L49.613,13.882z M42.808,7.077l1.855,1.855
	l-3.358,3.359l-1.856-1.856L42.808,7.077z M45.39,25.578L20.654,50.313c-0.827,0.828-1.928,1.283-3.098,1.283
	c-1.169,0-2.269-0.455-3.095-1.281L6.378,42.23c-0.827-0.827-1.282-1.927-1.282-3.097c0-1.171,0.455-2.271,1.282-3.099
	l24.735-24.736L45.39,25.578z"/>
</svg>
