<?xml version="1.0" encoding="utf-8"?>
<!-- Generator: Adobe Illustrator 15.1.0, SVG Export Plug-In . SVG Version: 6.00 Build 0)  -->
<!DOCTYPE svg PUBLIC "-//W3C//DTD SVG 1.1//EN" "http://www.w3.org/Graphics/SVG/1.1/DTD/svg11.dtd">
<svg version="1.1" id="Layer_1" xmlns="http://www.w3.org/2000/svg" xmlns:xlink="http://www.w3.org/1999/xlink" x="0px" y="0px"
	 width="56.69px" height="56.69px" viewBox="0 0 56.69 56.69" enable-background="new 0 0 56.69 56.69" xml:space="preserve">
<path d="M50.676,28.297c0-1.867-1.516-3.38-3.381-3.38h-2.59V13.155c0-4.729-4.351-8.575-9.697-8.575s-9.697,3.847-9.697,8.575
	L25.309,30.48h0.001l-0.001,13.055c0,3.625-3.18,6.576-7.088,6.576c-3.907,0-7.086-2.951-7.086-6.576V19.434h1.131
	c1.104,0,1.999-0.896,1.999-2v-9h-1.374v-3.25H7.39v3.25H6.015l0.001,9c0,1.104,0.896,2,2,2h1.119v24.101
	c0,4.729,4.076,8.576,9.086,8.576c5.011,0,9.088-3.848,9.088-8.576l0.001-13.602h-0.001l0.002-16.779
	c0-3.625,3.453-6.575,7.697-6.575s7.697,2.95,7.697,6.575v11.763h-2.592c-1.865,0-3.377,1.513-3.377,3.38v15.207h2.322v7.492h9.293
	v-7.492h2.324V28.297z M42.5,48.764h-1.445v-2.617H42.5V48.764z M46.357,48.764H44.91v-2.617h1.447V48.764z M48.676,41.504h-9.939
	V28.297c0-0.761,0.618-1.38,1.377-1.38h7.182c0.762,0,1.381,0.619,1.381,1.38V41.504z"/>
</svg>
