<?xml version="1.0" encoding="utf-8"?>
<!-- Generator: Adobe Illustrator 15.1.0, SVG Export Plug-In . SVG Version: 6.00 Build 0)  -->
<!DOCTYPE svg PUBLIC "-//W3C//DTD SVG 1.1//EN" "http://www.w3.org/Graphics/SVG/1.1/DTD/svg11.dtd">
<svg version="1.1" id="Layer_1" xmlns="http://www.w3.org/2000/svg" xmlns:xlink="http://www.w3.org/1999/xlink" x="0px" y="0px"
	 width="56.69px" height="56.69px" viewBox="0 0 56.69 56.69" enable-background="new 0 0 56.69 56.69" xml:space="preserve">
<path d="M36.887,32.619l-0.126-0.057c-0.301-0.137-0.604-0.266-0.913-0.387c-0.337-0.135-0.679-0.26-1.026-0.377
	c-0.274-0.09-0.55-0.174-0.829-0.256c-0.425-0.123-0.854-0.234-1.296-0.332c-0.15-0.031-0.303-0.061-0.455-0.088l-0.104-0.02
	c-0.261-0.051-0.523-0.096-0.788-0.135l-0.076-0.012c-0.003,0-0.005-0.002-0.008-0.002l-0.076-0.01
	c-0.22-0.033-0.439-0.064-0.667-0.09l-0.776-0.064c-0.954-0.063-1.937-0.061-2.88,0.008l-0.275,0.023l-0.128,0.01l-0.321,0.029
	c-0.295,0.031-0.588,0.072-0.881,0.119l-0.086,0.012c-0.2,0.033-0.4,0.07-0.597,0.107c-0.219,0.039-0.435,0.082-0.651,0.129
	c-0.418,0.094-0.833,0.201-1.235,0.318c-0.32,0.092-0.636,0.193-0.933,0.295l-0.206,0.074c-0.63,0.223-1.256,0.479-1.862,0.76
	L19.53,32.75l-0.003,0.004C12.44,36.146,7.87,43.373,7.87,51.215c0,0.18,0.012,0.357,0.023,0.535l0.053,1.244h40.796l0.055-1.23
	c0.012-0.182,0.023-0.363,0.023-0.549C48.82,43.248,44.139,35.957,36.887,32.619z M9.871,50.994
	c0.086-7.041,4.249-13.5,10.594-16.475l0.204-0.08l0.024-0.023c0.497-0.227,1.01-0.434,1.53-0.617l0.165-0.059
	c0.283-0.098,0.565-0.188,0.858-0.271c0.365-0.107,0.737-0.203,1.11-0.287c0.193-0.041,0.386-0.08,0.585-0.117
	c0.158-0.029,0.315-0.059,0.474-0.084l0.078-0.014c0.286-0.045,0.573-0.086,0.859-0.117l0.654-0.057
	c0.856-0.063,1.675-0.072,2.667,0l0.636,0.053c0.157,0.018,0.314,0.039,0.505,0.066l0.229,0.033
	c0.239,0.035,0.478,0.076,0.718,0.121l0.112,0.021c0.135,0.025,0.269,0.051,0.396,0.078c0.394,0.086,0.781,0.188,1.165,0.299
	c0.254,0.074,0.506,0.15,0.752,0.232c0.312,0.104,0.62,0.217,0.925,0.338c0.293,0.115,0.582,0.238,0.868,0.369l0.05,0.023
	c6.489,2.977,10.703,9.457,10.789,16.566H9.871z M23.402,28.219c0.15,0.063,0.305,0.118,0.46,0.173l0.325,0.118
	c0.125,0.048,0.251,0.095,0.379,0.135c1.192,0.375,2.439,0.568,3.707,0.578l0.101,0.002c0.435,0,0.871-0.023,1.289-0.066
	c0.144-0.014,0.284-0.037,0.425-0.061l0.313-0.047c0.176-0.023,0.352-0.049,0.536-0.085c0.126-0.026,0.248-0.059,0.37-0.092
	l0.342-0.087c0.169-0.041,0.338-0.082,0.505-0.134c0.104-0.033,0.206-0.071,0.307-0.109l0.275-0.099
	c0.196-0.068,0.394-0.138,0.592-0.221c0.077-0.033,0.152-0.069,0.226-0.105l0.089-0.044c0.271-0.121,0.541-0.245,0.809-0.389
	l0.174-0.104c0.3-0.17,0.599-0.346,0.902-0.553c0.157-0.106,0.307-0.225,0.455-0.343l0.512-0.398
	c2.944-2.437,4.636-6.013,4.636-9.722l0.006-0.106c0-7.038-5.726-12.763-12.764-12.763c-6.718,0-12.307,5.253-12.724,11.959
	l-0.011,0.166c-0.016,0.211-0.029,0.422-0.029,0.638C15.607,21.601,18.666,26.216,23.402,28.219z M17.632,15.961l0.012-0.18
	c0.352-5.655,5.064-10.084,10.728-10.084c5.936,0,10.764,4.828,10.769,10.672l-0.006,0.105c-0.004,3.202-1.432,6.217-3.927,8.288
	l-0.475,0.362c-0.106,0.086-0.213,0.172-0.346,0.264c-0.24,0.163-0.494,0.31-0.752,0.456l-0.143,0.087
	c-0.216,0.116-0.443,0.219-0.679,0.324l-0.265,0.128c-0.152,0.063-0.312,0.118-0.47,0.173l-0.33,0.119
	c-0.064,0.024-0.129,0.05-0.192,0.069c-0.123,0.038-0.249,0.067-0.374,0.098l-0.399,0.102c-0.086,0.023-0.171,0.047-0.247,0.063
	c-0.133,0.026-0.269,0.044-0.404,0.063l-0.38,0.057c-0.092,0.016-0.184,0.032-0.287,0.042c-0.333,0.035-0.668,0.054-1.008,0.057
	l-0.094-0.001h-0.002c-1.095-0.001-2.17-0.164-3.198-0.486c-0.089-0.028-0.176-0.063-0.263-0.096l-0.376-0.137
	c-0.117-0.041-0.233-0.081-0.345-0.128c-3.992-1.688-6.572-5.582-6.572-9.917C17.607,16.292,17.62,16.126,17.632,15.961z"/>
</svg>
