<?xml version="1.0" encoding="utf-8"?>
<!-- Generator: Adobe Illustrator 15.1.0, SVG Export Plug-In . SVG Version: 6.00 Build 0)  -->
<!DOCTYPE svg PUBLIC "-//W3C//DTD SVG 1.1//EN" "http://www.w3.org/Graphics/SVG/1.1/DTD/svg11.dtd">
<svg version="1.1" id="Layer_1" xmlns="http://www.w3.org/2000/svg" xmlns:xlink="http://www.w3.org/1999/xlink" x="0px" y="0px"
	 width="56.69px" height="56.69px" viewBox="0 0 56.69 56.69" enable-background="new 0 0 56.69 56.69" xml:space="preserve">
<path d="M16.761,22.66c0.119,0.049,0.24,0.093,0.362,0.136l0.25,0.091c0.099,0.038,0.198,0.075,0.305,0.108
	c0.967,0.301,1.978,0.456,3.005,0.458h0.002c0.346,0,0.687-0.019,1.011-0.052c0.123-0.011,0.246-0.031,0.369-0.052l0.195-0.03
	c0.15-0.02,0.301-0.041,0.452-0.073c0.099-0.021,0.194-0.046,0.29-0.071l0.237-0.06c0.144-0.034,0.289-0.069,0.443-0.118
	c0.073-0.024,0.146-0.051,0.217-0.078l0.211-0.076c0.162-0.056,0.325-0.113,0.482-0.179c0.067-0.028,0.132-0.06,0.249-0.118
	c0.213-0.095,0.426-0.193,0.661-0.319l0.118-0.073c0.235-0.133,0.467-0.27,0.69-0.417l0.09-0.064
	c2.729-1.882,4.359-4.975,4.364-8.303c0-5.56-4.523-10.083-10.082-10.083c-5.305,0-9.721,4.15-10.052,9.449l-0.009,0.133
	c-0.012,0.166-0.022,0.331-0.022,0.501C10.6,17.431,13.017,21.076,16.761,22.66z M12.617,13.009l0.01-0.148
	c0.266-4.247,3.804-7.573,8.056-7.573c4.457,0,8.082,3.626,8.082,8.092c-0.004,2.679-1.332,5.178-3.506,6.654l-0.095,0.064
	c-0.171,0.111-0.348,0.214-0.529,0.316l-0.103,0.065c-0.163,0.086-0.333,0.164-0.517,0.246l-0.197,0.096
	c-0.118,0.049-0.241,0.091-0.364,0.134l-0.381,0.138c-0.097,0.03-0.197,0.053-0.296,0.077l-0.294,0.074
	c-0.062,0.017-0.124,0.034-0.185,0.046c-0.101,0.021-0.204,0.034-0.306,0.047l-0.272,0.042c-0.068,0.012-0.135,0.025-0.217,0.032
	c-0.271,0.027-0.542,0.042-0.819,0.042c-0.827-0.002-1.639-0.125-2.411-0.366c-0.066-0.021-0.129-0.045-0.193-0.07l-0.292-0.106
	c-0.087-0.031-0.174-0.062-0.254-0.095c-2.999-1.269-4.937-4.191-4.937-7.445C12.6,13.249,12.609,13.128,12.617,13.009z
	 M38.064,25.405c-2.767,0-5.341,0.817-7.515,2.208c-2.822-2.219-6.297-3.447-9.887-3.447c-8.842,0-16.036,7.193-16.036,16.036
	c0,0.146,0.009,0.289,0.018,0.434l0.049,1.17h19.593c1.145,6.576,6.878,11.597,13.777,11.597c7.719,0,13.999-6.28,13.999-13.999
	S45.783,25.405,38.064,25.405z M24.072,39.806H6.632c0.211-7.557,6.424-13.64,14.031-13.64c2.96,0,5.84,0.944,8.229,2.68
	c-0.046,0.041-0.086,0.087-0.132,0.128c-0.298,0.267-0.585,0.543-0.86,0.834c-0.069,0.073-0.136,0.147-0.203,0.223
	c-0.263,0.291-0.514,0.592-0.752,0.903c-0.056,0.073-0.111,0.146-0.165,0.221c-0.24,0.328-0.465,0.666-0.677,1.015
	c-0.038,0.063-0.078,0.126-0.115,0.19c-0.216,0.368-0.414,0.748-0.596,1.137c-0.024,0.05-0.05,0.1-0.073,0.149
	c-0.183,0.404-0.346,0.817-0.491,1.24c-0.014,0.042-0.032,0.082-0.045,0.125c-0.14,0.422-0.259,0.852-0.358,1.29
	c-0.011,0.047-0.025,0.093-0.036,0.14c-0.092,0.423-0.161,0.854-0.213,1.29c-0.007,0.062-0.021,0.121-0.028,0.183
	c-0.052,0.49-0.082,0.986-0.082,1.489C24.066,39.537,24.068,39.671,24.072,39.806z M38.064,51.402
	c-6.18,0-11.28-4.697-11.926-10.709c-0.048-0.448-0.072-0.871-0.072-1.29c0-0.456,0.031-0.909,0.083-1.357
	c0.011-0.101,0.032-0.198,0.045-0.298c0.051-0.357,0.112-0.712,0.194-1.062c0.021-0.092,0.047-0.182,0.07-0.272
	c0.095-0.366,0.205-0.728,0.334-1.081c0.023-0.063,0.045-0.126,0.069-0.188c0.156-0.407,0.33-0.807,0.529-1.194
	c0.003-0.007,0.006-0.013,0.009-0.02c0.429-0.832,0.955-1.615,1.569-2.331c0.006-0.008,0.014-0.015,0.021-0.022
	c0.285-0.33,0.591-0.644,0.913-0.943c0.048-0.044,0.097-0.088,0.145-0.131c0.307-0.276,0.628-0.539,0.965-0.785
	c0.076-0.056,0.148-0.115,0.227-0.169l0.155-0.112c1.909-1.281,4.204-2.031,6.671-2.031c6.616,0,11.999,5.382,11.999,11.998
	S44.681,51.402,38.064,51.402z M30.715,37.917h14.702v2.973H30.715V37.917z"/>
</svg>
