<?xml version="1.0" encoding="utf-8"?>
<!-- Generator: Adobe Illustrator 15.1.0, SVG Export Plug-In . SVG Version: 6.00 Build 0)  -->
<!DOCTYPE svg PUBLIC "-//W3C//DTD SVG 1.1//EN" "http://www.w3.org/Graphics/SVG/1.1/DTD/svg11.dtd">
<svg version="1.1" id="Layer_1" xmlns="http://www.w3.org/2000/svg" xmlns:xlink="http://www.w3.org/1999/xlink" x="0px" y="0px"
	 width="56.69px" height="56.69px" viewBox="0 0 56.69 56.69" enable-background="new 0 0 56.69 56.69" xml:space="preserve">
<path d="M51.776,9.3c-1.581-2.001-4.33-2.421-6.356-2.421c-0.799,0-1.619,0.063-2.436,0.189c-1.755,0.269-9.41,3.123-12.04,11.28
	l-0.456,1.417l1.483-0.113c0.547-0.042,1.057-0.066,1.529-0.066c1.432,0,2.313,0.234,2.774,0.737
	c0.499,0.545,0.676,1.561,0.541,3.104c-0.161,1.83-1.202,3.961-2.091,5.613l-0.08,0.149c-0.759,1.415-2.172,4.048-3.522,4.048
	c-0.425,0-0.9-0.279-1.414-0.828c-1.858-1.986-2.224-5.583-2.546-8.757c-0.11-1.084-0.214-2.107-0.372-3.043l-0.148-0.904
	c-0.319-1.964-0.681-4.19-1.296-6.121c-0.646-2.029-2.158-4.621-4.291-5.244c-0.467-0.137-0.977-0.207-1.513-0.207
	c-2.095,0-4.03,1.044-4.572,1.363c-2.812,1.652-5.175,3.758-7.459,5.794c-1.142,1.018-2.323,2.07-3.519,3.024l-0.376,0.3v1.175
	l0.309,0.295c0.161,0.154,0.307,0.384,0.461,0.628c0.378,0.597,0.897,1.415,2.026,1.578c1.113,0.165,2.189-0.161,3.099-0.444
	c0.571-0.178,1.11-0.346,1.533-0.346c0.308,0,0.672,0.061,1.099,0.779c0.617,1.048,0.952,2.194,1.307,3.407
	c0.173,0.591,0.348,1.186,0.555,1.778c0.828,2.356,1.473,4.942,2.177,7.764l0.257,1.043c1.175,4.788,2.784,11.346,7.033,13.148
	c0.611,0.259,1.315,0.391,2.095,0.391c2.033,0,4.29-0.912,5.605-1.692c4.814-2.85,8.294-6.961,10.798-10.237
	c6.852-9.284,10.375-19.521,10.886-22.209C53.348,12.919,52.993,10.834,51.776,9.3z M50.89,15.31
	c-0.466,2.457-3.963,12.489-10.519,21.371c-3.54,4.634-6.691,7.631-10.219,9.718c-1.185,0.703-3.062,1.413-4.585,1.413
	c-0.509,0-0.951-0.078-1.313-0.232c-3.327-1.411-4.798-7.406-5.872-11.783l-0.28-1.134c-0.695-2.785-1.352-5.416-2.209-7.859
	c-0.196-0.558-0.359-1.119-0.522-1.676c-0.374-1.277-0.759-2.598-1.505-3.863c-0.693-1.169-1.642-1.762-2.82-1.762
	c-0.728,0-1.44,0.222-2.128,0.437c-0.785,0.245-1.489,0.482-2.214,0.375c-0.192-0.028-0.313-0.176-0.625-0.669
	c-0.06-0.094-0.122-0.192-0.188-0.292c1.011-0.836,1.997-1.714,2.955-2.569c2.212-1.972,4.5-4.011,7.143-5.563
	c0.893-0.526,2.295-1.087,3.558-1.087c0.346,0,0.665,0.042,0.951,0.126c1.214,0.355,2.425,2.291,2.948,3.932
	c0.57,1.79,0.919,3.939,1.227,5.834l0.149,0.914c0.147,0.873,0.248,1.865,0.354,2.916c0.355,3.488,0.757,7.441,3.075,9.92
	c0.906,0.971,1.874,1.463,2.875,1.463c2.547-0.001,4.194-3.07,5.284-5.102l0.08-0.148c1.04-1.934,2.129-4.205,2.321-6.386
	c0.189-2.164-0.147-3.635-1.06-4.63c-1.125-1.229-2.861-1.386-4.248-1.386c-0.044,0-0.088,0-0.133,0
	c2.693-6.172,8.749-8.361,9.919-8.541c0.707-0.108,1.444-0.166,2.133-0.166c1.585,0,3.702,0.288,4.788,1.663
	C51.062,11.617,51.277,13.136,50.89,15.31z"/>
</svg>
