<?xml version="1.0" encoding="utf-8"?>
<!-- Generator: Adobe Illustrator 15.1.0, SVG Export Plug-In . SVG Version: 6.00 Build 0)  -->
<!DOCTYPE svg PUBLIC "-//W3C//DTD SVG 1.1//EN" "http://www.w3.org/Graphics/SVG/1.1/DTD/svg11.dtd">
<svg version="1.1" id="Layer_1" xmlns="http://www.w3.org/2000/svg" xmlns:xlink="http://www.w3.org/1999/xlink" x="0px" y="0px"
	 width="56.69px" height="56.69px" viewBox="0 0 56.69 56.69" enable-background="new 0 0 56.69 56.69" xml:space="preserve">
<path d="M47.626,46.787h-2.832L31.521,2.393h-6.022L11.921,46.787H9.063c-2.07,0-3.754,1.684-3.754,3.754
	c0,2.072,1.684,3.756,3.754,3.756h38.563c2.07,0,3.755-1.684,3.755-3.756C51.381,48.471,49.696,46.787,47.626,46.787z
	 M38.402,32.395H18.415l2.725-8.91h14.599L38.402,32.395z M26.979,4.393h3.052l2.414,8.073h-7.935L26.979,4.393z M47.626,52.297
	H9.063c-0.967,0-1.754-0.787-1.754-1.756c0-0.967,0.787-1.754,1.754-1.754h4.338l1.644-5.375h26.651l1.607,5.375h4.322
	c0.968,0,1.755,0.787,1.755,1.754C49.381,51.51,48.594,52.297,47.626,52.297z"/>
</svg>
