<?xml version="1.0" encoding="utf-8"?>
<!-- Generator: Adobe Illustrator 15.1.0, SVG Export Plug-In . SVG Version: 6.00 Build 0)  -->
<!DOCTYPE svg PUBLIC "-//W3C//DTD SVG 1.1//EN" "http://www.w3.org/Graphics/SVG/1.1/DTD/svg11.dtd">
<svg version="1.1" id="Layer_1" xmlns="http://www.w3.org/2000/svg" xmlns:xlink="http://www.w3.org/1999/xlink" x="0px" y="0px"
	 width="56.69px" height="56.69px" viewBox="0 0 56.69 56.69" enable-background="new 0 0 56.69 56.69" xml:space="preserve">
<path d="M39.631,22.348c0-6.249-5.063-11.314-11.31-11.314c-6.25,0-11.314,5.065-11.314,11.314c0,6.248,5.064,11.312,11.314,11.312
	C34.568,33.66,39.631,28.596,39.631,22.348z M20.169,22.348c0-4.503,3.649-8.152,8.151-8.152c4.501,0,8.148,3.649,8.148,8.152
	c0,4.501-3.646,8.15-8.148,8.15C23.819,30.498,20.169,26.85,20.169,22.348z M28.321,25.716c-1.934,0-3.502-1.566-3.502-3.499
	c0-1.933,1.568-3.501,3.502-3.501c1.931,0,3.498,1.568,3.498,3.501C31.818,24.15,30.252,25.716,28.321,25.716z M44.367,46.807
	H31.416c0.036-0.182,0.057-0.368,0.057-0.561v-4.651c9.27-1.516,16.373-9.558,16.373-19.247c0-10.767-8.76-19.527-19.527-19.527
	c-10.768,0-19.527,8.76-19.527,19.527c0,9.909,7.427,18.1,17.005,19.344v4.555c0,0.192,0.02,0.379,0.057,0.561H13.208
	c-1.951,0-3.532,1.58-3.532,3.531s1.581,3.531,3.532,3.531h31.16c1.951,0,3.531-1.58,3.531-3.531S46.318,46.807,44.367,46.807z
	 M10.792,22.348c0-9.665,7.862-17.527,17.527-17.527c9.664,0,17.527,7.862,17.527,17.527c0,9.664-7.863,17.525-17.527,17.525
	C18.654,39.873,10.792,32.012,10.792,22.348z"/>
</svg>
