<?xml version="1.0" encoding="utf-8"?>
<!-- Generator: Adobe Illustrator 15.1.0, SVG Export Plug-In . SVG Version: 6.00 Build 0)  -->
<!DOCTYPE svg PUBLIC "-//W3C//DTD SVG 1.1//EN" "http://www.w3.org/Graphics/SVG/1.1/DTD/svg11.dtd">
<svg version="1.1" id="Layer_1" xmlns="http://www.w3.org/2000/svg" xmlns:xlink="http://www.w3.org/1999/xlink" x="0px" y="0px"
	 width="56.69px" height="56.69px" viewBox="0 0 56.69 56.69" enable-background="new 0 0 56.69 56.69" xml:space="preserve">
<path d="M14.803,53.77c-1.549,0-3.068-0.295-4.516-0.879l-1.402-0.566l6.582-6.582c0.614-0.613,0.952-1.43,0.952-2.297
	c0-0.869-0.338-1.684-0.952-2.299c-1.229-1.229-3.368-1.229-4.597,0l-6.619,6.621l-0.58-1.363c-0.637-1.498-0.96-3.086-0.96-4.725
	c0-6.668,5.425-12.092,12.092-12.092c1.425,0,2.815,0.246,4.143,0.732l11.479-11.48c-0.417-1.242-0.628-2.527-0.628-3.829
	c0-6.667,5.425-12.091,12.092-12.091c1.596,0,3.15,0.309,4.62,0.918l1.383,0.573l-6.668,6.667c-0.614,0.614-0.952,1.431-0.952,2.299
	s0.338,1.685,0.952,2.299c1.229,1.227,3.37,1.227,4.597,0l6.667-6.667l0.573,1.382c0.609,1.472,0.919,3.026,0.919,4.62
	c0,6.667-5.424,12.091-12.091,12.091c-1.425,0-2.815-0.246-4.144-0.732l-11.48,11.48c0.418,1.242,0.629,2.527,0.629,3.83
	C26.894,48.346,21.47,53.77,14.803,53.77z M12.529,51.508c0.744,0.174,1.505,0.262,2.273,0.262c5.564,0,10.091-4.525,10.091-10.09
	c0-1.27-0.241-2.52-0.717-3.717l-0.242-0.611l13.341-13.34l0.623,0.269c1.267,0.546,2.609,0.822,3.99,0.822
	c5.564,0,10.091-4.527,10.091-10.091c0-0.809-0.096-1.605-0.284-2.381l-4.461,4.46c-0.991,0.991-2.31,1.537-3.712,1.537
	c-1.401,0-2.721-0.545-3.713-1.537c-0.992-0.992-1.538-2.311-1.538-3.713s0.546-2.721,1.538-3.713l4.46-4.46
	c-0.775-0.188-1.571-0.284-2.381-0.284c-5.564,0-10.092,4.527-10.092,10.091c0,1.269,0.241,2.519,0.716,3.716l0.242,0.611
	l-13.34,13.339l-0.623-0.268c-1.267-0.547-2.608-0.822-3.989-0.822c-5.564,0-10.092,4.527-10.092,10.092
	c0,0.848,0.104,1.682,0.31,2.488l4.436-4.436c0.991-0.992,2.31-1.537,3.712-1.537s2.721,0.545,3.713,1.537s1.538,2.311,1.538,3.713
	s-0.546,2.721-1.538,3.711L12.529,51.508z"/>
</svg>
