<?xml version="1.0" encoding="utf-8"?>
<!-- Generator: Adobe Illustrator 15.1.0, SVG Export Plug-In . SVG Version: 6.00 Build 0)  -->
<!DOCTYPE svg PUBLIC "-//W3C//DTD SVG 1.1//EN" "http://www.w3.org/Graphics/SVG/1.1/DTD/svg11.dtd">
<svg version="1.1" id="Layer_1" xmlns="http://www.w3.org/2000/svg" xmlns:xlink="http://www.w3.org/1999/xlink" x="0px" y="0px"
	 width="56.69px" height="56.69px" viewBox="0 0 56.69 56.69" enable-background="new 0 0 56.69 56.69" xml:space="preserve">
<path d="M50.922,12.856l-0.582-1.358l-7.836,7.834h-5.213l0.004-5.211l7.771-7.786l-1.404-0.563c-1.576-0.631-3.227-0.95-4.908-0.95
	c-7.299,0-13.237,5.937-13.237,13.232c0,1.446,0.238,2.874,0.709,4.252L6.373,42.156C5.297,43.23,4.706,44.66,4.706,46.18
	s0.592,2.949,1.667,4.021c1.073,1.076,2.502,1.668,4.022,1.668c1.52,0,2.948-0.592,4.022-1.668l19.739-19.738
	c1.473,0.547,3.016,0.824,4.598,0.824c7.295,0,13.23-5.936,13.23-13.233C51.984,16.254,51.627,14.506,50.922,12.856z M38.754,29.287
	c-1.539,0-3.033-0.309-4.441-0.916l-0.623-0.27L13.003,48.787c-1.395,1.395-3.824,1.395-5.217,0
	c-0.697-0.695-1.081-1.623-1.081-2.607c0-0.986,0.384-1.912,1.081-2.609l20.771-20.768l-0.242-0.611
	c-0.53-1.334-0.799-2.727-0.799-4.138c0-6.193,5.042-11.232,11.237-11.232c0.904,0,1.801,0.109,2.676,0.326l-6.135,6.146
	l-0.006,8.039h8.043l6.254-6.252c0.266,0.964,0.398,1.959,0.398,2.974C49.984,24.248,44.947,29.287,38.754,29.287z M11.873,46.047
	c0,0.799-0.648,1.447-1.447,1.447c-0.8,0-1.448-0.648-1.448-1.447c0-0.801,0.648-1.449,1.448-1.449
	C11.224,44.598,11.873,45.246,11.873,46.047z"/>
</svg>
